<svg xmlns="http://www.w3.org/2000/svg" width="24" height="24" viewBox="0 0 24 24"><path d="M21.84,18.1,13.07,3.75a1.25,1.25,0,0,0-2.14,0L2.16,18.1A1.25,1.25,0,0,0,3.23,20H20.77A1.25,1.25,0,0,0,21.84,18.1Zm-.85.77a.24.24,0,0,1-.22.13H3.23A.24.24,0,0,1,3,18.87a.23.23,0,0,1,0-.25L11.79,4.27a.24.24,0,0,1,.42,0L21,18.62A.23.23,0,0,1,21,18.87Z"/><circle cx="12" cy="16" r="1"/><path d="M11.48,13.68a.36.36,0,0,0,.34.32h.36a.36.36,0,0,0,.34-.32L13,9.19a1.68,1.68,0,0,0,0-.5A.94.94,0,0,0,12.06,8h-.12a.94.94,0,0,0-.91.69,1.68,1.68,0,0,0,0,.5Z"/></svg>