<svg xmlns="http://www.w3.org/2000/svg" width="24" height="24" viewBox="0 0 24 24"><rect x="3" y="9" width="1" height="4"/><polygon points="4 4 7 4 7 3 3 3 3 7 4 7 4 4"/><rect x="9" y="3" width="4" height="1"/><polygon points="4 18 4 15 3 15 3 19 7 19 7 18 4 18"/><polygon points="15 3 15 4 18 4 18 7 19 7 19 3 15 3"/><rect x="9" y="18" width="3" height="1"/><polygon points="22 17 19 17 19 14 17 14 17 17 14 17 14 19 17 19 17 22 19 22 19 19 22 19 22 17"/><rect x="18" y="9" width="1" height="3"/></svg>