<svg xmlns="http://www.w3.org/2000/svg" width="24" height="24" viewBox="0 0 24 24"><path d="M11.79,4A9.51,9.51,0,0,0,4.1,19.46L9.46,17a2.48,2.48,0,0,0,1.46,1,2.86,2.86,0,0,0,.58.06,2.46,2.46,0,0,0,2-1.05l5.37,2.51A9.41,9.41,0,0,0,21,13.55,9.61,9.61,0,0,0,11.79,4ZM13,15.8A1.49,1.49,0,0,1,11.5,17a1.48,1.48,0,0,1-1.41-1,1.51,1.51,0,0,1,.42-1.64l4.11-3.49Zm5.62,2.41L13.94,16l2.18-6.45,1-1-.71-.71L15.2,9.09,9.84,13.64A2.5,2.5,0,0,0,9.08,16L4.42,18.21A8.5,8.5,0,0,1,11.5,5h.26A8.67,8.67,0,0,1,20,13.55,8.44,8.44,0,0,1,18.58,18.21Z"/><rect x="4" y="13" width="3" height="1"/><rect x="16" y="13" width="3" height="1"/><rect x="6.76" y="7.76" width="1" height="3" transform="translate(-4.42 7.84) rotate(-45)"/><rect x="11" y="6" width="1" height="3"/></svg>