<svg xmlns="http://www.w3.org/2000/svg" width="24" height="24" viewBox="0 0 24 24"><polygon points="12.86 18.93 12 22 15.07 21.14 15.08 21.14 12.86 18.92 12.86 18.93"/><rect x="13.83" y="15.71" width="5.8" height="3.13" transform="translate(-7.31 16.89) rotate(-45)"/><path d="M20.12,12h-.19a.62.62,0,0,0-.32.17l-1.23,1.23,2.21,2.21,1.23-1.23a.62.62,0,0,0,.17-.32c0-.05,0-.1,0-.15v0A1.88,1.88,0,0,0,20.12,12Z"/><path d="M5,14.5a4.5,4.5,0,0,1,9,0v1.87l1-1V14.5a5.49,5.49,0,0,0-3.59-5.15A4.2,4.2,0,0,0,13,6,3.78,3.78,0,0,0,9.5,2,3.78,3.78,0,0,0,6,6,4.2,4.2,0,0,0,7.59,9.35,5.49,5.49,0,0,0,4,14.5V20h7.52l.28-1H5ZM7,6A2.79,2.79,0,0,1,9.5,3,2.79,2.79,0,0,1,12,6,2.79,2.79,0,0,1,9.5,9,2.79,2.79,0,0,1,7,6Z"/></svg>