<svg xmlns="http://www.w3.org/2000/svg" width="24" height="24" viewBox="0 0 24 24"><path d="M21.58,14.53c-.89-2.28-4.22-10-5-11.9A1,1,0,0,0,16,2.07.87.87,0,0,0,15.55,2a1,1,0,0,0-1,.79c-.55,3.38-1.75,4.47-2.88,5.2a7.34,7.34,0,0,1-1.46.64c-2.76.68-4.64,1.53-5.57,2.53a1.32,1.32,0,0,0-.49.93L3,13c-.73.59-.67,1.13-.49,1.47l1.11,2.33a1.16,1.16,0,0,0,1.08.74,1.78,1.78,0,0,0,.47-.07l1.45-.34c1,1.07,3.6,4.38,3.67,4.46.36.66,1.31.33,1.44.26l1.85-.64a1.15,1.15,0,0,0,.65-.86.84.84,0,0,0-.28-.74l-2.17-2.58a3.81,3.81,0,0,0,.52-.85.73.73,0,0,0-.06-.72.94.94,0,0,0-.81-.33l-1.27.2L9.93,15l1.78-.56a11.28,11.28,0,0,1,2.7-.3A8.93,8.93,0,0,1,20,15.74a.82.82,0,0,0,.2.12,1,1,0,0,0,1.35-1.33ZM5,16.52c-.3.08-.31.05-.41-.14L3.44,14.05s0-.08.23-.25l.9-.73,1.14,2.67a4.62,4.62,0,0,0,.27.54Zm6.46-3-2,.64a1.18,1.18,0,0,0-.62.67.64.64,0,0,0,.09.54,7.88,7.88,0,0,0,.71.88.49.49,0,0,0,.44.16l1.12-.18a6.58,6.58,0,0,1-.41.53.5.5,0,0,0,0,.65l2.43,2.89,0,0v0L11.38,21a.41.41,0,0,1-.32,0c-.12-.16-3.05-3.84-3.85-4.66a3,3,0,0,1-.57-.91L5.22,12.06l.19-.21C6,11.26,7.3,10.39,10.5,9.6l.2-.06c.2.51.42,1.1.65,1.71s.54,1.45.8,2.09C11.7,13.42,11.43,13.49,11.42,13.49Zm3-.34c-.45,0-.87,0-1.24.06-.27-.68-.58-1.51-.89-2.31-.23-.62-.46-1.22-.66-1.74a6,6,0,0,0,.64-.33C13.57,8,15,6.71,15.63,3c.81,1.92,4.1,9.55,4.94,11.89A9.9,9.9,0,0,0,14.41,13.15Z"/></svg>