<svg xmlns="http://www.w3.org/2000/svg" width="24" height="24" viewBox="0 0 24 24"><path d="M3,3V21H21V3ZM20,20H4V16.18l2.75-3.39A2,2,0,0,1,8.34,12a2,2,0,0,1,1.59.76l.3.4h0l3.35,4.31a1.41,1.41,0,0,0,2.17.06L17.13,16a.84.84,0,0,1,.65-.29.83.83,0,0,1,.73.41L20,18.48Zm0-3.41-.61-1a1.85,1.85,0,0,0-1.61-.92,1.89,1.89,0,0,0-1.4.62h0L15,16.87a.42.42,0,0,1-.63,0l-3.65-4.7h0a3,3,0,0,0-4.76,0L4,14.59V4H20Z"/><path d="M15.5,11A2.5,2.5,0,1,0,13,8.5,2.5,2.5,0,0,0,15.5,11Zm0-4A1.5,1.5,0,1,1,14,8.5,1.5,1.5,0,0,1,15.5,7Z"/></svg>