<svg xmlns="http://www.w3.org/2000/svg" width="24" height="24" viewBox="0 0 24 24"><path d="M18,13.81a9.73,9.73,0,0,0,4-.88L16.63,4.59a9.71,9.71,0,0,1-4.2,1,9.82,9.82,0,0,1-4.13-.9,4.72,4.72,0,0,0-2.12-.44A4.72,4.72,0,0,0,3.69,5L3.1,4.08l-.83.56L13.11,20.7l.83-.56-4.7-7a4.89,4.89,0,0,1,2.53-.72C13.8,12.45,15,13.82,18,13.81ZM8.19,11.63,4.25,5.78a3.72,3.72,0,0,1,1.93-.54h0a4,4,0,0,1,1.69.35,10.78,10.78,0,0,0,4.51,1,10.89,10.89,0,0,0,3.86-.73l4.24,6.59a8.9,8.9,0,0,1-2.47.37H18a8.81,8.81,0,0,1-3.38-.71,7.78,7.78,0,0,0-2.8-.64,5.78,5.78,0,0,0-3.11.89Z"/></svg>