<svg xmlns="http://www.w3.org/2000/svg" width="24" height="24" viewBox="0 0 24 24"><path d="M12,2A10,10,0,1,0,22,12,10,10,0,0,0,12,2Zm8.94,9H18a16,16,0,0,0-.47-3h2.55A9,9,0,0,1,20.94,11ZM19.48,7H17.19a9.59,9.59,0,0,0-1.94-3.38A9.07,9.07,0,0,1,19.48,7Zm-7,0V3.1C14,3.38,15.3,4.87,16.12,7Zm3.95,1A13.94,13.94,0,0,1,17,11H12.5V8ZM11.5,3.1V7H7.88C8.7,4.87,10,3.38,11.5,3.1Zm0,4.9v3H7a13.85,13.85,0,0,1,.51-3Zm0,4v3H7.31A14.41,14.41,0,0,1,7,12Zm0,4v4.9c-1.71-.32-3.18-2.25-3.95-4.9Zm1,4.9V16h3.95C15.68,18.65,14.21,20.58,12.5,20.9Zm0-5.9V12H17a14.41,14.41,0,0,1-.31,3ZM8.75,3.62A9.59,9.59,0,0,0,6.81,7H4.52A9.07,9.07,0,0,1,8.75,3.62ZM6.5,8A16.07,16.07,0,0,0,6,11H3A8.86,8.86,0,0,1,4,8ZM6,12a15.88,15.88,0,0,0,.28,3H3.53A8.78,8.78,0,0,1,3,12ZM4,16H6.5a10.38,10.38,0,0,0,2.22,4.37A9,9,0,0,1,4,16Zm11.33,4.37A10.4,10.4,0,0,0,17.5,16h2.55a9,9,0,0,1-4.77,4.37ZM20.47,15H17.72A15.88,15.88,0,0,0,18,12h3A8.78,8.78,0,0,1,20.47,15Z"/></svg>