<svg xmlns="http://www.w3.org/2000/svg" width="24" height="24" viewBox="0 0 24 24"><path d="M12,3a9,9,0,1,0,9,9A9,9,0,0,0,12,3Zm0,17a8,8,0,1,1,8-8A8,8,0,0,1,12,20Z"/><path d="M12.35,6.33A3.15,3.15,0,0,0,9,9.23v.24l1.49.32V9.54c.23-1.19.83-1.77,1.83-1.77a1.77,1.77,0,0,1,1.15.38,1.18,1.18,0,0,1,.46,1,1.45,1.45,0,0,1-.48,1.08,6,6,0,0,1-.8.51,3.91,3.91,0,0,0-.77.5,1.55,1.55,0,0,0-.32.48,1.79,1.79,0,0,0-.17.6c0,.19-.08,1.44-.08,2.15v.25h1.5V12.89a.89.89,0,0,1,.12-.55,2.73,2.73,0,0,1,.83-.55,2.91,2.91,0,0,0,1.85-2.61,2.66,2.66,0,0,0-.91-2.06A3.41,3.41,0,0,0,12.35,6.33Z"/><circle cx="12" cy="17" r="1"/></svg>