<svg xmlns="http://www.w3.org/2000/svg" width="24" height="24" viewBox="0 0 24 24"><path d="M20.34,3.67a5,5,0,0,0-7.09,0L9,7.92a5.11,5.11,0,0,0-.52.63V8.43L6.64,10.28,3.53,13.39a5,5,0,1,0,7.08,7.09l4.25-4.25a5.11,5.11,0,0,0,.52-.63v.12l1.85-1.85,3.12-3.11A5,5,0,0,0,20.34,3.67ZM14.86,9.14a2.75,2.75,0,0,0-.26-.22l0,0-.25-.2,2-2a.74.74,0,0,1,.51-.2.73.73,0,0,1,.51.2.71.71,0,0,1,.21.51.68.68,0,0,1-.21.51l-2,2A4,4,0,0,0,14.86,9.14ZM9,15a2.75,2.75,0,0,0,.26.22l.05,0,.25.19-2,2a.72.72,0,1,1-1-1l2-2A4,4,0,0,0,9,15Zm5.16.51L9.91,19.77A4,4,0,0,1,4.23,14.1L7.34,11a5.42,5.42,0,0,0,.55,2.7l-2,2a1.72,1.72,0,0,0,2.44,2.43l4.25-4.25a1.72,1.72,0,0,0,0-2.43.28.28,0,0,1,0-.4l1.41-1.4c.07.06.15.11.22.18A4,4,0,0,1,14.16,15.52Zm5.47-5.47-3.11,3.11a5.42,5.42,0,0,0-.55-2.7l2-2A1.72,1.72,0,0,0,16.79,5.5a1.67,1.67,0,0,0-1.21.5l-4.26,4.25a1.72,1.72,0,0,0,0,2.43.28.28,0,0,1,0,.4l-1.4,1.4a2,2,0,0,1-.23-.18,4,4,0,0,1,0-5.67L14,4.38a4,4,0,0,1,5.67,0A4,4,0,0,1,19.63,10.05Z"/></svg>