<svg xmlns="http://www.w3.org/2000/svg" width="24" height="24" viewBox="0 0 24 24"><path d="M12,2A6.86,6.86,0,0,0,5,8.67a7.15,7.15,0,0,0,.4,2.42,81.08,81.08,0,0,0,4.82,8.07l1.34,2.13L12,22l.42-.71c.69-1.16,1.66-2.7,2.62-4.24a64.33,64.33,0,0,0,3.53-5.93A6.8,6.8,0,0,0,19,8.67,6.86,6.86,0,0,0,12,2Zm5.63,8.76c-.24.66-1.93,3.35-3.42,5.71-.8,1.28-1.6,2.54-2.24,3.59l-.88-1.4c-1.78-2.8-4.42-7-4.75-7.91A6.13,6.13,0,0,1,6,8.67,5.85,5.85,0,0,1,12,3a5.85,5.85,0,0,1,6,5.67A6,6,0,0,1,17.63,10.76Z"/><path d="M12,6a3,3,0,1,0,3,3A3,3,0,0,0,12,6Zm0,5a2,2,0,1,1,2-2A2,2,0,0,1,12,11Z"/></svg>