<svg xmlns="http://www.w3.org/2000/svg" width="24" height="24" viewBox="0 0 24 24"><path d="M20.43,18.33l.05-.18H22v-1.3H20.48l-.05-.18a2.7,2.7,0,0,0-.27-.66l-.09-.16,1.07-1.07-.92-.92-1.07,1.07L19,14.84a2.7,2.7,0,0,0-.66-.27l-.18-.05V13h-1.3v1.52l-.18.05a2.7,2.7,0,0,0-.66.27l-.16.09-1.07-1.07-.92.92,1.07,1.07-.09.16a2.7,2.7,0,0,0-.27.66l-.05.18H13v1.3h1.52l.05.18a2.7,2.7,0,0,0,.27.66l.09.16-1.07,1.07.92.92,1.07-1.07.16.09a2.7,2.7,0,0,0,.66.27l.18.05V22h1.3V20.48l.18-.05a2.7,2.7,0,0,0,.66-.27l.16-.09,1.07,1.07.92-.92-1.07-1.07.09-.16A2.7,2.7,0,0,0,20.43,18.33Zm-2.93,1a1.79,1.79,0,1,1,1.79-1.79A1.79,1.79,0,0,1,17.5,19.29Z"/><path d="M12.21,19H5V14.5a4.49,4.49,0,0,1,8.85-1.1,5.58,5.58,0,0,1,.87-.64,5.49,5.49,0,0,0-3.31-3.41A4.2,4.2,0,0,0,13,6,3.78,3.78,0,0,0,9.5,2,3.78,3.78,0,0,0,6,6,4.2,4.2,0,0,0,7.59,9.35,5.49,5.49,0,0,0,4,14.5V20h8.61A5.09,5.09,0,0,1,12.21,19ZM7,6A2.79,2.79,0,0,1,9.5,3,2.79,2.79,0,0,1,12,6,2.79,2.79,0,0,1,9.5,9,2.79,2.79,0,0,1,7,6Z"/></svg>