<svg xmlns="http://www.w3.org/2000/svg" width="24" height="24" viewBox="0 0 24 24"><polygon points="5 3 5 5 6 5 6 4 20 4 20 18 19 18 19 19 21 19 21 3 5 3"/><path d="M13.5,8A2.5,2.5,0,1,0,16,10.5,2.5,2.5,0,0,0,13.5,8Zm0,4A1.5,1.5,0,1,1,15,10.5,1.5,1.5,0,0,1,13.5,12Z" fill-rule="evenodd"/><path d="M2,6V22H18V6ZM17,21H3V17.62l2.43-3.09a1.63,1.63,0,0,1,2.63,0l.3.41h0l3,3.89a1.34,1.34,0,0,0,1.08.54,1.35,1.35,0,0,0,1-.48l1-1.22.18-.21a.66.66,0,0,1,.49-.22.63.63,0,0,1,.55.32L17,19.71Zm-.43-3.93a1.63,1.63,0,0,0-1.43-.85,1.61,1.61,0,0,0-1.24.57h0l-1.21,1.43a.37.37,0,0,1-.57,0L8.87,13.92h0a2.63,2.63,0,0,0-4.23,0L3,16V7H17V17.78Z"/></svg>