<svg xmlns="http://www.w3.org/2000/svg" width="24" height="24" viewBox="0 0 24 24"><rect x="5" y="6" width="10" height="1"/><polygon points="15 6 5 6 5 7 15 7 15 6 15 6"/><rect x="5" y="9" width="10" height="1"/><polygon points="15 9 5 9 5 10 15 10 15 9 15 9"/><path d="M16.5,11A5.5,5.5,0,1,0,22,16.5,5.5,5.5,0,0,0,16.5,11Zm0,10A4.5,4.5,0,1,1,21,16.5,4.49,4.49,0,0,1,16.5,21Z"/><polygon points="17 16 17 13 16 13 16 17 20 17 20 16 17 16"/><path d="M10.18,18H3V3H17v7a6.72,6.72,0,0,1,1,.16V2H2V19h8.5A6.85,6.85,0,0,1,10.18,18Z"/><path d="M11.82,12H5v1h6A6.51,6.51,0,0,1,11.82,12Z"/><path d="M11.82,12H5v1h6a6.32,6.32,0,0,1,.79-1Z"/></svg>