<?xml version="1.0" encoding="UTF-8"?><svg id="assets" xmlns="http://www.w3.org/2000/svg" width="24" height="24" viewBox="0 0 24 24"><path d="M3,19V7H7V3h10v5.15c.34,.07,.68,.17,1,.29V2H7L2,7v13h7.51c-.24-.32-.46-.65-.64-1H3ZM6,4.41v1.59h-1.59l1.59-1.59Z"/><path d="M15.5,9c-3.59,0-6.5,2.91-6.5,6.5s2.91,6.5,6.5,6.5,6.5-2.91,6.5-6.5-2.91-6.5-6.5-6.5Zm0,12c-3.04,0-5.5-2.46-5.5-5.5s2.46-5.5,5.5-5.5,5.5,2.46,5.5,5.5-2.46,5.5-5.5,5.5Z"/><polygon points="16 15 16 11 15 11 15 15 15 16 16 16 20 16 20 15 16 15"/></svg>