<svg xmlns="http://www.w3.org/2000/svg" width="24" height="24" viewBox="0 0 24 24"><path d="M20.68,11.35A2.4,2.4,0,0,0,18.26,9h-4.6c.06-.2.13-.42.21-.65a12.11,12.11,0,0,0,.8-4.12.89.89,0,0,0,0-.23,2.09,2.09,0,0,0-2.08-2h-.17a2.14,2.14,0,0,0-2.09,2.16c0,1.19-1.56,3.22-2.69,4.7A11.86,11.86,0,0,0,5.8,11.64a2.27,2.27,0,0,1-.66.41A2,2,0,0,0,4,13.81V18a2,2,0,0,0,1.6,2,2.15,2.15,0,0,1,.54.39q.18.16.36.3A6.24,6.24,0,0,0,10.24,22h4.53A3.37,3.37,0,0,0,18,19.67a2.34,2.34,0,0,0,1.59-2.24,2.31,2.31,0,0,0-.11-.69A2.39,2.39,0,0,0,20,13.05,2.39,2.39,0,0,0,20.68,11.35Zm-2.43,1.94a1.38,1.38,0,0,1,0,2.76.25.25,0,0,0-.23.21c0,.17.07.16.22.35a1.4,1.4,0,0,1,.28.82,1.37,1.37,0,0,1-1.27,1.37.16.16,0,0,0-.12.05.22.22,0,0,0-.06.13,2.35,2.35,0,0,1-2.35,2H10.24A5.19,5.19,0,0,1,7.1,19.94c-.38-.29-.78-.78-1.33-.87a1,1,0,0,1-.77-1V13.81A1,1,0,0,1,5.57,13c.45-.22,1-.54,1.14-.93.57-1.63,4.62-5.42,4.62-7.87A1.14,1.14,0,0,1,12.44,3h.08a1.09,1.09,0,0,1,1.15,1,.28.28,0,0,1,0,.13c0,2.79-1.21,4.37-1.21,5.82h5.8a1.39,1.39,0,0,1,1.42,1.37,1.41,1.41,0,0,1-1.43,1.42.26.26,0,0,0,0,.52Z"/></svg>