<svg xmlns="http://www.w3.org/2000/svg" width="24" height="24" viewBox="0 0 24 24"><path d="M22,5.93a8.41,8.41,0,0,1-2.36.63,4.06,4.06,0,0,0,1.8-2.23,8.21,8.21,0,0,1-2.61,1,4.12,4.12,0,0,0-7.1,2.73,4.06,4.06,0,0,0,.11.92,11.71,11.71,0,0,1-8.45-4.2,4,4,0,0,0-.56,2,4,4,0,0,0,1.83,3.35,4.17,4.17,0,0,1-1.86-.5V9.7a4.05,4.05,0,0,0,3.29,4,4.28,4.28,0,0,1-1.85.07,4.1,4.1,0,0,0,3.83,2.8A8.35,8.35,0,0,1,3,18.25a8.39,8.39,0,0,1-1-.06A11.75,11.75,0,0,0,8.29,20,11.48,11.48,0,0,0,20,8.75V8A8.28,8.28,0,0,0,22,5.93Z"/></svg>