<svg xmlns="http://www.w3.org/2000/svg" width="24" height="24" viewBox="0 0 24 24"><path d="M16.24,8C13,4.72,8.45,3,3,3H2V7H3c8.16,0,13.78,5.63,14,14.08l.07.92H21V21C21.06,15.68,19.41,11.17,16.24,8ZM18,21h0C17.77,12,11.74,6,3,6V4c10.43,0,17.11,6.57,17,17Z"/><path d="M3,9H2v4H3c4.88,0,7.8,2.91,8,8l0,.14.23.82H15V21C15,15.22,11.23,9,3,9Zm9,12A.43.43,0,0,1,12,21C11.78,15.34,8.42,12,3,12V10c7.11,0,11,5.2,11,11Z"/><path d="M5.5,16A2.5,2.5,0,1,0,8,18.5,2.5,2.5,0,0,0,5.5,16Zm0,4A1.5,1.5,0,1,1,7,18.5,1.5,1.5,0,0,1,5.5,20Z"/></svg>