<svg xmlns="http://www.w3.org/2000/svg" width="24" height="24" viewBox="0 0 24 24"><path d="M12,6a3,3,0,1,0,3,3A3,3,0,0,0,12,6Zm0,5a2,2,0,1,1,2-2A2,2,0,0,1,12,11Z"/><path d="M20,13V12l-.82-5.74A1.47,1.47,0,0,0,17.72,5H17V3a1,1,0,0,0-1-1H8A1,1,0,0,0,7,3V5H6.28A1.47,1.47,0,0,0,4.82,6.26L4,12v1H3v4H4v2a1,1,0,0,0,1,1H6v1H8v1h8V21h2V20h1a1,1,0,0,0,1-1V17h1V13ZM8,3h2V4a1,1,0,0,0,1,1h2a1,1,0,0,0,1-1V3h2V14H8ZM8,15h8v1H8ZM6,19H5V12.07l.81-5.66A.47.47,0,0,1,6.28,6H7V16H6Zm11,1H7V17H17Zm2-1H18V16H17V6h.72a.47.47,0,0,1,.47.41L19,12.07Z"/></svg>