<svg xmlns="http://www.w3.org/2000/svg" width="24" height="24" viewBox="0 0 24 24">
  <title>building-ops-24</title>
  <g id="final">
    <g>
      <path d="M20,10H19V4a1,1,0,0,0-1-1H17a1,1,0,0,0-1-1H8A1,1,0,0,0,7,3H6A1,1,0,0,0,5,4v6H4a1,1,0,0,0-1,1V21a1,1,0,0,0,1,1H20a1,1,0,0,0,1-1V11A1,1,0,0,0,20,10ZM5,21H4V11H5Zm2,0H6V4H7Zm3,0V17h4v4Zm6,0H15V16H9v5H8V3h8V21Zm2,0H17V4h1V21Zm2,0H19V11h1Z" fill="#2e4258"/>
      <rect x="9" y="5" width="2" height="2" fill="#2e4258"/>
      <rect x="13" y="5" width="2" height="2" fill="#2e4258"/>
      <rect x="9" y="8" width="2" height="2" fill="#2e4258"/>
      <rect x="13" y="8" width="2" height="2" fill="#2e4258"/>
      <rect x="9" y="11" width="2" height="2" fill="#2e4258"/>
      <rect x="13" y="11" width="2" height="2" fill="#2e4258"/>
    </g>
  </g>
</svg>
