<svg xmlns="http://www.w3.org/2000/svg" width="24" height="24" viewBox="0 0 24 24">
  <title>globe-24</title>
  <g id="final">
    <path d="M12,2A10,10,0,1,0,22,12,10,10,0,0,0,12,2Zm8.18,6.28a1.48,1.48,0,0,0-.68-.18,1.5,1.5,0,0,0-.38,0l-3,.79-.89-.44.59-1.77a1.51,1.51,0,0,0-.75-1.82l-.9-.45.28-1.12A9,9,0,0,1,20.18,8.28ZM3,12A9,9,0,0,1,5.44,5.86L7,7.42A1.5,1.5,0,0,0,8.9,7.6l1.72-1.14.41.83-.3-.1a1.5,1.5,0,0,0-1.82.75L7.49,10.78,6,10.27a1.5,1.5,0,0,0-2,1.42v2.1a1.51,1.51,0,0,0,.44,1.06l1.5,1.5a1.5,1.5,0,0,0,2.12,0L9,15.41l2.84,2.84-1,2.66A9,9,0,0,1,3,12Zm8.88,9,1-2.69a.5.5,0,0,0-.11-.53L9.35,14.35a.5.5,0,0,0-.71,0L7.35,15.65a.5.5,0,0,1-.71,0l-1.5-1.5A.5.5,0,0,1,5,13.79v-2.1a.5.5,0,0,1,.66-.47l1.93.64a.5.5,0,0,0,.61-.25L9.81,8.39a.5.5,0,0,1,.61-.25l1.44.48a.5.5,0,0,0,.61-.7L11.25,5.51a.5.5,0,0,0-.72-.19L8.34,6.77a.5.5,0,0,1-.63-.06L6.16,5.16a8.83,8.83,0,0,1,7.3-2L13.1,4.61a.5.5,0,0,0,.26.57l1.25.63a.5.5,0,0,1,.25.61l-.73,2.18a.5.5,0,0,0,.25.61l1.44.72a.5.5,0,0,0,.35,0l3.19-.84a.5.5,0,0,1,.59.3l.76,1.9a.5.5,0,0,1-.46.69h-2a.5.5,0,0,0-.45.28l-1.72,3.45a.5.5,0,0,0,0,.52L18,18.68A9,9,0,0,1,12,21Zm6.84-3-1.54-2.08L18.62,13h1.64a1.5,1.5,0,0,0,.7-.17A9,9,0,0,1,18.71,18Z" fill="#2e4258"/>
  </g>
</svg>
