<svg xmlns="http://www.w3.org/2000/svg" width="24" height="24" viewBox="0 0 24 24">
  <title>tag-24</title>
  <g id="assets">
    <path d="M11.19,21.5a.94.94,0,0,1-.65-.25L2.88,13.59a.85.85,0,0,1-.2-.3l0-.12L2,7.59a.82.82,0,0,1,.28-.82L5.79,3.27A.93.93,0,0,1,6.43,3H6.6l5.72.67a.91.91,0,0,1,.29.19l7.65,7.66a1,1,0,0,1,0,1.31l-8.43,8.42A.93.93,0,0,1,11.19,21.5ZM3.63,12.95,11.2,20.5l8.31-8.33L12,4.62,6.5,4,3,7.48Z"/>
    <path d="M7.52,10.5h0a2,2,0,1,1,0-4,2,2,0,0,1,0,4Zm0-3a1,1,0,1,0,0,2v0a1,1,0,0,0,0-2Z"/>
  </g>
</svg>
