<svg xmlns="http://www.w3.org/2000/svg" width="24" height="24" viewBox="0 0 24 24">
  <title>undo-24</title>
  <g id="final">
    <g id="undo">
      <path id="outline" d="M2.54,12.63c.57.57,5.89,6,5.94,6.06a1,1,0,0,0,1.47,0l1.86-1.85a1.27,1.27,0,0,0-.12-1.64L9.51,12.94c1.55,0,4.49.22,6.26,2A5.85,5.85,0,0,1,17.5,19c0,1.39.11,2.43.11,2.43a.5.5,0,0,0,.49.46h3.29a.49.49,0,0,0,.49-.47s0-1.06,0-2.52c-.14-3.19-1-5.57-2.71-7.25-2.33-2.33-6-2.82-8.68-2.82l-.83,0L11.72,7a1.29,1.29,0,0,0,.15-1.66L10.26,3.75a1,1,0,0,0-1.46,0S3.24,9,2.64,9.64A2.18,2.18,0,0,0,2.54,12.63Zm.8-2.29c.6-.6,6.17-5.91,6.17-5.91l1.66,1.64-3.3,3a.5.5,0,0,0,.4.86,17.31,17.31,0,0,1,2.22-.13c2.48,0,5.88.44,8,2.53C20,13.86,20.74,16,20.88,19c0,.83,0,1.53,0,2H18.57c0-.43-.06-1.12-.08-1.93a6.89,6.89,0,0,0-2-4.75c-2-2-5.15-2.28-6.85-2.28A11.6,11.6,0,0,0,8.35,12a.49.49,0,0,0-.3.83l3,3.24L9.25,18c-.24-.2-5.43-5.49-6-6.07A1.22,1.22,0,0,1,3.34,10.34Z" fill="#2e4258"/>
    </g>
  </g>
</svg>
