<svg width="28px" height="28px" viewBox="0 0 28 28" version="1.1" xmlns="http://www.w3.org/2000/svg" xmlns:xlink="http://www.w3.org/1999/xlink">
  <polygon class="hig__progress-ring__background" points="22.49 5.51 14 2 5.51 5.51 2 14 5.51 22.49 14 26 22.49 22.49 26 14"></polygon>
  <polygon class="hig__progress-ring__segment" fill="#0ED3BE" fill-rule="nonzero" points="5.52 5.52 14 6.33 14 2"></polygon>
  <polygon class="hig__progress-ring__segment" fill="#0ED3BE" fill-rule="nonzero" points="5.52 5.52 8.58 8.58 14 6.33"></polygon>
  <polygon class="hig__progress-ring__segment" fill="#0ED3BE" fill-rule="nonzero" points="2 14 8.58 8.58 5.52 5.52"></polygon>
  <polygon class="hig__progress-ring__segment" fill="#0ED3BE" fill-rule="nonzero" points="2 14 6.33 14 8.58 8.58"></polygon>
  <polygon class="hig__progress-ring__segment" fill="#0ED3BE" fill-rule="nonzero" points="5.52 22.48 6.33 14 2 14"></polygon>
  <polygon class="hig__progress-ring__segment" fill="#0ED3BE" fill-rule="nonzero" points="5.52 22.48 8.58 19.42 6.33 14"></polygon>
  <polygon class="hig__progress-ring__segment" fill="#0ED3BE" fill-rule="nonzero" points="14 26 8.58 19.42 5.52 22.48"></polygon>
  <polygon class="hig__progress-ring__segment" fill="#0ED3BE" fill-rule="nonzero" points="14 26 14 21.67 8.58 19.42"></polygon>
  <polygon class="hig__progress-ring__segment" fill="#0ED3BE" fill-rule="nonzero" points="22.48 22.48 14 21.67 14 26"></polygon>
  <polygon class="hig__progress-ring__segment" fill="#0ED3BE" fill-rule="nonzero" points="22.48 22.48 19.42 19.42 14 21.67"></polygon>
  <polygon class="hig__progress-ring__segment" fill="#0ED3BE" fill-rule="nonzero" points="26 14 19.42 19.42 22.48 22.48"></polygon>
  <polygon class="hig__progress-ring__segment" fill="#0ED3BE" fill-rule="nonzero" points="26 14 21.67 14 19.42 19.42"></polygon>
  <polygon class="hig__progress-ring__segment" fill="#0ED3BE" fill-rule="nonzero" points="22.48 5.52 21.67 14 26 14"></polygon>
  <polygon class="hig__progress-ring__segment" fill="#0ED3BE" fill-rule="nonzero" points="22.48 5.52 19.42 8.58 21.67 14"></polygon>
  <polygon class="hig__progress-ring__segment" fill="#0ED3BE" fill-rule="nonzero" points="14 2 19.42 8.58 22.48 5.52"></polygon>
  <polygon class="hig__progress-ring__segment" fill="#0ED3BE" fill-rule="nonzero" points="14 2 14 6.33 19.42 8.58"></polygon>
  <polygon class="hig__progress-ring__mask" fill="#FFFFFF" fill-rule="nonzero" points="19.42 19.42 14 21.67 8.58 19.42 6.33 14 8.58 8.58 14 6.33 19.42 8.58 21.67 14"></polygon>
</svg>
