<svg width="242px" height="24px" viewBox="0 0 242 24" version="1.1" xmlns="http://www.w3.org/2000/svg" xmlns:xlink="http://www.w3.org/1999/xlink">
    <!-- Generator: Sketch 49.2 (51160) - http://www.bohemiancoding.com/sketch -->
    <title>Autodesk-account</title>
    <desc>Created with Sketch.</desc>
    <defs>
        <linearGradient x1="40.2745583%" y1="53.8932746%" x2="60.9774493%" y2="-6.59142687%" id="linearGradient-1">
            <stop stop-color="#007272" offset="0%"></stop>
            <stop stop-color="#138A85" offset="9%"></stop>
            <stop stop-color="#229D95" offset="20%"></stop>
            <stop stop-color="#2DACA1" offset="33%"></stop>
            <stop stop-color="#32B7A9" offset="48%"></stop>
            <stop stop-color="#32BCAD" offset="72%"></stop>
            <stop stop-color="#32BCAD" offset="100%"></stop>
        </linearGradient>
        <linearGradient x1="20.2944282%" y1="69.4286256%" x2="91.0932972%" y2="33.3626476%" id="linearGradient-2">
            <stop stop-color="#87BC40" offset="0%"></stop>
            <stop stop-color="#80B53F" offset="20%"></stop>
            <stop stop-color="#71A73E" offset="41%"></stop>
            <stop stop-color="#58923C" offset="61%"></stop>
            <stop stop-color="#347737" offset="82%"></stop>
            <stop stop-color="#005E30" offset="100%"></stop>
        </linearGradient>
        <linearGradient x1="22.8607595%" y1="20.1629879%" x2="75.6476527%" y2="79.6727892%" id="linearGradient-3">
            <stop stop-color="#00ABE6" offset="0%"></stop>
            <stop stop-color="#00A7E2" offset="3%"></stop>
            <stop stop-color="#0083C7" offset="37%"></stop>
            <stop stop-color="#006BB5" offset="66%"></stop>
            <stop stop-color="#165DAB" offset="87%"></stop>
            <stop stop-color="#1B58A8" offset="100%"></stop>
        </linearGradient>
    </defs>
    <g id="Page-1" stroke="none" stroke-width="1" fill="none" fill-rule="evenodd">
        <g id="Autodesk-account" fill-rule="nonzero">
            <path d="M162.44,18 L161,13.68 L155.54,13.68 L154.18,18 L152.64,18 L157.22,4 L159.28,4 L164,18 L162.44,18 Z M158.24,5.1 L155.94,12.44 L160.6,12.44 L158.24,5.1 Z M171.44,18.24 C173.2,18.24 174.52,17.56 175.38,16.86 L174.72,15.9 C173.94,16.5 172.94,17.02 171.46,17.02 C169.02,17.02 167.76,15.5 167.76,12.98 L167.76,9.28 C167.76,6.62 169.12,4.98 171.58,4.98 C173.02,4.98 173.94,5.52 174.72,6.16 L175.52,5.26 C174.56,4.42 173.4,3.76 171.54,3.76 C168.22,3.76 166.26,5.96 166.26,9.32 L166.26,13.02 C166.26,16.12 168.1,18.24 171.44,18.24 Z M183.04,18.24 C184.8,18.24 186.12,17.56 186.98,16.86 L186.32,15.9 C185.54,16.5 184.54,17.02 183.06,17.02 C180.62,17.02 179.36,15.5 179.36,12.98 L179.36,9.28 C179.36,6.62 180.72,4.98 183.18,4.98 C184.62,4.98 185.54,5.52 186.32,6.16 L187.12,5.26 C186.16,4.42 185,3.76 183.14,3.76 C179.82,3.76 177.86,5.96 177.86,9.32 L177.86,13.02 C177.86,16.12 179.7,18.24 183.04,18.24 Z M194.9,3.76 C198.68,3.76 200.34,6.26 200.34,9.5 L200.34,12.58 C200.34,15.72 198.66,18.24 194.9,18.24 C191.14,18.24 189.46,15.72 189.46,12.58 L189.46,9.5 C189.46,6.2 191.16,3.76 194.9,3.76 Z M194.9,4.98 C192.16,4.98 190.96,6.86 190.96,9.48 L190.96,12.62 C190.96,15.08 192.12,17.02 194.9,17.02 C197.68,17.02 198.84,15.08 198.84,12.62 L198.84,9.48 C198.84,6.9 197.68,4.98 194.9,4.98 Z M214.06,4 L212.56,4 L212.56,13.5 C212.56,15.5 211.56,17.02 208.98,17.02 C206.42,17.02 205.42,15.5 205.42,13.5 L205.42,4 L203.92,4 L203.92,13.48 C203.92,16.12 205.46,18.24 208.98,18.24 C212.52,18.24 214.06,16.12 214.06,13.48 L214.06,4 Z M227.04,4 L227.04,16.1 L220.32,4 L218.5,4 L218.5,18 L219.86,18 L219.86,5.88 L226.6,18 L228.4,18 L228.4,4 L227.04,4 Z M241.16,4 L231.32,4 L231.32,5.24 L235.48,5.24 L235.48,18 L236.98,18 L236.98,5.24 L241.16,5.24 L241.16,4 Z" id="Account" fill="#00131C"></path>
            <g id="adsk-logo">
                <g id="Group" transform="translate(29.000000, 3.000000)" fill="#000000">
                    <g transform="translate(0.393814, 0.562887)">
                        <path d="M14.5484536,13.9843299 L11.9950515,13.9843299 L10.5698969,10.6292784 L4.03793814,10.6292784 L2.61278351,13.9843299 L0.207835052,13.9843299 L6.23505155,0.267216495 L8.46185567,0.267216495 L14.5484536,13.9843299 Z M7.36329897,3.14721649 L4.95835052,8.58061856 L9.7385567,8.58061856 L7.36329897,3.14721649 Z" id="Shape"></path>
                        <polygon id="Shape" points="36.697732 13.9843299 34.2927835 13.9843299 34.2927835 2.49402062 29.9876289 2.49402062 29.9876289 0.267216495 41.2997938 0.267216495 40.3496907 2.49402062 36.697732 2.49402062"></polygon>
                        <polygon id="Shape" points="82.777732 2.49402062 75.4441237 2.49402062 75.4441237 5.99752577 80.0758763 5.99752577 80.0758763 8.2243299 75.4441237 8.2243299 75.4441237 11.8762887 82.777732 11.8762887 82.777732 14.1030928 73.0391753 14.1030928 73.0391753 0.237525773 82.777732 0.237525773"></polygon>
                        <rect id="Rectangle-path" x="97.7418557" y="0.267216495" width="2.22680412" height="13.7171134"></rect>
                        <path d="M90.2597938,2.34556701 C88.8346392,2.34556701 87.7063918,2.82061856 87.7063918,3.62226804 C87.7063918,4.75051546 88.3298969,5.04742268 90.883299,5.84907216 C93.763299,6.79917526 95.1884536,7.74927835 95.1884536,10.0057732 C95.1884536,12.5591753 93.1101031,14.1624742 90.2597938,14.1624742 C88.1814433,14.1624742 86.2812371,13.5389691 84.8263918,12.262268 L85.7764948,10.1839175 C87.0531959,11.3121649 88.6564948,12.0841237 90.4082474,12.0841237 C91.8334021,12.0841237 92.9616495,11.4606186 92.9616495,10.3323711 C92.9616495,9.38226804 92.4865979,8.90721649 89.9331959,8.10556701 C87.0531959,7.15546392 85.3014433,6.20536082 85.3014433,3.80041237 C85.3014433,1.39546392 87.5282474,0.148453608 90.2301031,0.148453608 C92.9319588,0.148453608 94.5352577,1.0985567 94.6837113,1.27670103 L93.8820619,3.17690722 C93.2882474,2.82061856 92.0115464,2.34556701 90.2597938,2.34556701 Z" id="Shape"></path>
                        <polygon id="Shape" points="102.997113 6.94762887 109.054021 0.237525773 106.174021 0.237525773 99.9686598 6.94762887 106.827216 13.9546392 109.707216 13.9546392"></polygon>
                        <path d="M48.6630928,0.0890721649 C44.6845361,0.0890721649 41.6560825,3.26597938 41.6560825,7.09608247 C41.6560825,11.0746392 44.8329897,14.1030928 48.6630928,14.1030928 C52.6416495,14.1030928 55.6701031,10.9261856 55.6701031,7.09608247 C55.8185567,3.2956701 52.6416495,0.0890721649 48.6630928,0.0890721649 Z M48.6630928,12.054433 C45.9612371,12.054433 44.0313402,9.82762887 44.0313402,7.1257732 C44.0313402,4.42391753 45.9315464,2.1971134 48.6630928,2.1971134 C51.3649485,2.1971134 53.2948454,4.42391753 53.2948454,7.1257732 C53.443299,9.82762887 51.3649485,12.054433 48.6630928,12.054433 Z" id="Shape"></path>
                        <path d="M63.4787629,0.267216495 L58.2235052,0.267216495 L58.2235052,13.9843299 L63.4787629,13.9843299 C67.4573196,13.9843299 70.4857732,10.9558763 70.4857732,7.1257732 C70.6342268,3.14721649 67.4573196,0.267216495 63.4787629,0.267216495 Z M63.4787629,11.7278351 L60.7769072,11.7278351 L60.7769072,2.49402062 L63.4787629,2.49402062 C66.1806186,2.49402062 68.1105155,4.3942268 68.1105155,7.1257732 C68.1105155,9.82762887 66.1806186,11.7278351 63.4787629,11.7278351 Z" id="Shape"></path>
                        <path d="M27.2857732,7.92742268 C27.2857732,12.0841237 24.8808247,14.1327835 21.3773196,14.1327835 C17.8738144,14.1327835 15.468866,11.9059794 15.468866,7.92742268 L15.468866,0.267216495 L17.8738144,0.267216495 L17.8738144,8.2243299 C17.8738144,10.6292784 19.2989691,12.054433 21.3773196,12.054433 C23.4556701,12.054433 24.8808247,10.6292784 24.8808247,8.2243299 L24.8808247,0.267216495 L27.2857732,0.267216495 L27.2857732,7.92742268 Z" id="Shape"></path>
                    </g>
                </g>
                <g id="Group" transform="translate(140.140206, 13.954639)" fill="#000000">
                    <path d="M3.59257732,1.84082474 C3.59257732,0.890721649 2.79092784,0.0890721649 1.84082474,0.0890721649 C0.890721649,0.0890721649 0.0890721649,0.890721649 0.0890721649,1.84082474 C0.0890721649,2.79092784 0.890721649,3.59257732 1.84082474,3.59257732 C2.79092784,3.59257732 3.59257732,2.79092784 3.59257732,1.84082474 Z M3.41443299,1.84082474 C3.41443299,2.64247423 2.79092784,3.26597938 1.98927835,3.26597938 C1.18762887,3.26597938 0.564123711,2.64247423 0.564123711,1.84082474 C0.564123711,1.03917526 1.18762887,0.415670103 1.98927835,0.415670103 C2.79092784,0.385979381 3.41443299,1.03917526 3.41443299,1.84082474 Z" id="Shape"></path>
                    <path d="M2.61278351,2.79092784 L2.13773196,2.16742268 C2.13773196,2.01896907 1.98927835,2.01896907 1.98927835,2.01896907 C2.31587629,2.01896907 2.4643299,1.87051546 2.4643299,1.54391753 C2.4643299,1.21731959 2.31587629,1.06886598 1.98927835,1.06886598 L1.3657732,1.06886598 L1.3657732,2.82061856 L1.69237113,2.82061856 L1.69237113,2.01896907 C1.84082474,2.01896907 1.84082474,2.01896907 2.01896907,2.16742268 L2.49402062,2.79092784 L2.61278351,2.79092784 Z M2.13773196,1.5142268 C2.13773196,1.84082474 1.98927835,1.84082474 1.66268041,1.84082474 L1.5142268,1.84082474 L1.5142268,1.18762887 L1.84082474,1.18762887 C2.13773196,1.18762887 2.13773196,1.18762887 2.13773196,1.5142268 Z" id="Shape"></path>
                </g>
                <g id="Group">
                    <path d="M6.14597938,17.5472165 L1.98927835,17.5472165 C0.385979381,17.5472165 0.0890721649,16.5971134 0.385979381,15.7954639 L0.385979381,15.9439175 C0.237525773,16.5674227 0.385979381,17.0721649 0.71257732,17.3690722 C1.5142268,18.7942268 3.74103093,22.9509278 3.74103093,22.9509278 C4.06762887,23.4259794 4.36453608,23.7525773 5.01773196,23.7525773 C6.29443299,23.7525773 8.37278351,22.4758763 8.37278351,22.4758763 L16.0329897,17.6956701 L6.14597938,17.6956701 L6.14597938,17.5472165 Z" id="Shape" fill="url(#linearGradient-1)"></path>
                    <path d="M7.74927835,0 C6.94762887,0 6.62103093,0.475051546 6.62103093,0.623505155 L0.415670103,15.6173196 C0.0890721649,16.4189691 0.415670103,17.5175258 2.01896907,17.5175258 L6.1756701,17.5175258 L10.9558763,6.02721649 C9.82762887,2.99876289 8.87752577,0.771958763 8.87752577,0.771958763 C8.69938144,0.623505155 8.55092784,0 7.74927835,0 Z" id="Shape" fill="url(#linearGradient-2)"></path>
                    <path d="M15.3797938,0.623505155 C15.3797938,0.475051546 15.0531959,0 14.4296907,0 L7.71958763,0 C7.09608247,0 6.76948454,0.475051546 6.76948454,0.623505155 C6.76948454,0.623505155 6.91793814,0.148453608 7.71958763,0.148453608 C8.52123711,0.148453608 8.66969072,0.771958763 8.84783505,0.950103093 C8.84783505,0.950103093 9.79793814,3.17690722 11.0746392,6.20536082 C13.9546392,12.9154639 18.4082474,23.7525773 18.4082474,23.7525773 L25.1183505,23.7525773 C25.1183505,23.6041237 15.3797938,0.801649485 15.3797938,0.623505155 Z" id="Shape" fill="url(#linearGradient-3)"></path>
                </g>
            </g>
        </g>
    </g>
</svg>
