<svg xmlns="http://www.w3.org/2000/svg" width="24" height="24" viewBox="0 0 24 24">
  <title>add-member-24</title>
  <g id="assets">
    <path d="M11,19.08H5V16c0-5.11,2.67-5.71,4.64-5.71,2.64,0,4,1.28,4.36,4.05V12h.29a4.2,4.2,0,0,0-3-2.46A3.88,3.88,0,0,0,13,6c0-2.43-1.29-4-3.35-4A3.69,3.69,0,0,0,6,5.72Q6,5.86,6,6A3.93,3.93,0,0,0,7.88,9.54C5.35,10.17,4,12.33,4,16v3a.93.93,0,0,0,.91,1H11ZM7,6.23Q7,6.11,7,6A2.72,2.72,0,0,1,9.42,3h.19C11.4,3,12,4.55,12,6s-.59,3-2.35,3A2.72,2.72,0,0,1,7,6.23Z"/>
    <path d="M18,16V13H15v3H12v3h3v3h3V19h3V16Zm2,2H17v3H16V18H13V17h3V14h1v3h3Z"/>
  </g>
</svg>
