<svg xmlns="http://www.w3.org/2000/svg" width="24" height="24" viewBox="0 0 24 24"><title>alert-24</title><path d="M21.84,18.1,13.07,3.75a1.25,1.25,0,0,0-2.14,0L2.16,18.1A1.25,1.25,0,0,0,3.23,20H20.77A1.25,1.25,0,0,0,21.84,18.1Zm-.85.77a.24.24,0,0,1-.22.13H3.23A.24.24,0,0,1,3,18.87a.23.23,0,0,1,0-.25L11.79,4.27a.24.24,0,0,1,.42,0L21,18.62A.23.23,0,0,1,21,18.87Z"/><path d="M11.75,13.82h.5c.14,0,.25-.15.25-.33L13,8.67c0-.19-.53-.67-.67-.67h-.66c-.14,0-.67.48-.67.67l.5,4.82C11.5,13.67,11.61,13.82,11.75,13.82ZM12,15a1,1,0,1,0,1,1A1,1,0,0,0,12,15Z"/></svg>