<svg xmlns="http://www.w3.org/2000/svg" width="24" height="24" viewBox="0 0 24 24">
  <title>area-post-24</title>
  <g id="assets">
    <g>
      <rect x="9" y="3" width="4" height="1"/>
      <polygon points="15 3 15 4 18 4 18 7 19 7 19 3 15 3"/>
      <polygon points="4 4 7 4 7 3 3 3 3 7 4 7 4 4"/>
      <rect x="18" y="9" width="1" height="3"/>
      <polygon points="4 18 4 15 3 15 3 19 7 19 7 18 4 18"/>
      <rect x="9" y="18" width="3" height="1"/>
      <rect x="3" y="9" width="1" height="4"/>
      <path d="M19,16V13H16v3H13v3h3v3h3V19h3V16Zm2,2H18v3H17V18H14V17h3V14h1v3h3Z"/>
    </g>
  </g>
</svg>
