<svg xmlns="http://www.w3.org/2000/svg" width="24" height="24" viewBox="0 0 24 24">
  <title>attachment-24</title>
  <g id="final">
    <g id="attachment">
      <path id="outline" d="M5,19V6H8V4.5a1.5,1.5,0,1,1,3,0V13a1.8,1.8,0,0,1-.37,1.27.77.77,0,0,1-.62.21c-.68,0-1-.23-1-1.48V8.69a.5.5,0,0,0-1,0V13c0,.61,0,2.46,2,2.48h0a1.78,1.78,0,0,0,1.3-.5A2.69,2.69,0,0,0,12,13V4.52a2.49,2.49,0,1,0-5,0V5H5A1,1,0,0,0,4,6V19a1,1,0,0,0,1,1H6v1a1,1,0,0,0,1,1H19a1,1,0,0,0,1-1V8a1,1,0,0,0-1-1H18V6a1,1,0,0,0-1-1H14V6h3V19Zm14,2H7V20H17c.55,0,1-.28,1-.83V8h1Z" fill="#2e4258"/>
    </g>
  </g>
</svg>
