<?xml version="1.0" encoding="utf-8"?>
<!-- Generator: Adobe Illustrator 16.0.4, SVG Export Plug-In . SVG Version: 6.00 Build 0)  -->
<!DOCTYPE svg PUBLIC "-//W3C//DTD SVG 1.1//EN" "http://www.w3.org/Graphics/SVG/1.1/DTD/svg11.dtd">
<svg version="1.1" id="_x32_4x24_OUTLINED" xmlns="http://www.w3.org/2000/svg" xmlns:xlink="http://www.w3.org/1999/xlink" x="0px"
	 y="0px" width="24px" height="24px" viewBox="4651 2141 24 24" enable-background="new 4651 2141 24 24" xml:space="preserve">
<path d="M4666.496,2145.49c1.353,0,2.777,0.646,3.586,1.456c1.334,1.333,2.27,4.091,0.557,5.802l-7.432,7.429
	c-0.176,0.177-0.406,0.265-0.636,0.265s-0.459-0.088-0.634-0.265c-0.352-0.351-0.352-0.919,0-1.271l7.43-7.43
	c0.836-0.838,0.24-2.461-0.555-3.259c-0.498-0.496-1.506-0.922-2.33-0.922c-0.396,0-0.75,0.098-0.984,0.333l-8.904,8.9
	c-0.172,0.175-0.266,0.4-0.266,0.639c0.002,0.227,0.117,0.448,0.26,0.601c0.238,0.232,0.459,0.314,0.652,0.314
	c0.268,0,0.482-0.157,0.615-0.29l7.695-7.694c0.176-0.176,0.406-0.264,0.637-0.264s0.461,0.088,0.637,0.264
	c0.35,0.353,0.35,0.92,0,1.271l-7.695,7.695c-0.541,0.541-1.209,0.811-1.883,0.811c-0.676,0-1.357-0.272-1.916-0.818
	c-0.006-0.007-0.016-0.018-0.023-0.024c-0.496-0.496-0.771-1.154-0.777-1.855c-0.004-0.719,0.279-1.402,0.795-1.918l8.898-8.9
	C4664.842,2145.74,4665.654,2145.49,4666.496,2145.49 M4666.496,2144.49L4666.496,2144.49c-1.188,0-2.219,0.4-2.979,1.159
	l-8.899,8.901c-0.707,0.707-1.094,1.641-1.088,2.631c0.008,0.963,0.385,1.866,1.061,2.547l0.01,0.012l0.031,0.031
	c0.729,0.711,1.658,1.103,2.615,1.103c0.959,0,1.878-0.392,2.59-1.104l1.004-1.003c-0.312,0.698-0.181,1.547,0.391,2.117
	c0.355,0.357,0.832,0.557,1.341,0.557c0.508,0,0.985-0.198,1.344-0.559l7.431-7.428c1.003-1.002,1.408-2.395,1.143-3.922
	c-0.211-1.21-0.847-2.442-1.699-3.294C4669.729,2145.177,4668.043,2144.49,4666.496,2144.49L4666.496,2144.49z M4666.205,2148.336
	c0,0,0.078-0.041,0.277-0.041c0.584,0,1.325,0.332,1.624,0.63c0.546,0.549,0.847,1.55,0.553,1.845l-0.738,0.738
	c0.31-0.696,0.181-1.543-0.387-2.114c-0.362-0.362-0.839-0.56-1.347-0.56c-0.195,0-0.387,0.029-0.567,0.086L4666.205,2148.336
	L4666.205,2148.336L4666.205,2148.336z"/>
</svg>
