<?xml version="1.0" encoding="utf-8"?>
<!-- Generator: Adobe Illustrator 22.1.0, SVG Export Plug-In . SVG Version: 6.00 Build 0)  -->
<svg version="1.1" id="Layer_1" xmlns="http://www.w3.org/2000/svg" xmlns:xlink="http://www.w3.org/1999/xlink" x="0px" y="0px"
	 viewBox="0 0 24 24" style="enable-background:new 0 0 24 24;" xml:space="preserve" width="24" height="24">
<style type="text/css">
	.st0{fill:#2E4258;}
</style>
<g id="Layer_1">
	<g>
		<path class="st0" d="M15,10.1h-1V12H9v-1.9H8V12H4.2v1H8v3H4.2v1H8v2h1v-2h5v2h1v-2h4v-1h-4v-3h4v-1h-4V10.1z M14,16H9v-3h5V16z"
			/>
		<path class="st0" d="M20,4h-2V3c0-0.6-0.4-1-1-1h-1c-0.6,0-1,0.4-1,1v1H8V3c0-0.6-0.4-1-1-1H6C5.4,2,5,2.4,5,3v1H3
			C2.4,4,2,4.4,2,5v16c0,0.6,0.4,1,1,1h17c0.6,0,1-0.4,1-1V5C21,4.4,20.6,4,20,4z M16,3h1v3h-1V3z M6,3h1v3H6V3z M20,21H3V9h17V21z
			 M20,8H3V5h2v1c0,0.6,0.4,1,1,1h1c0.6,0,1-0.4,1-1V5h7v1c0,0.6,0.4,1,1,1h1c0.6,0,1-0.4,1-1V5h2V8z"/>
	</g>
	<g>
		<path class="st0" d="M15,10.1h-1V12H9v-1.9H8V12H4.2v1H8v3H4.2v1H8v2h1v-2h5v2h1v-2h4v-1h-4v-3h4v-1h-4V10.1z M14,16H9v-3h5V16z"
			/>
		<path class="st0" d="M20,4h-2V3c0-0.6-0.4-1-1-1h-1c-0.6,0-1,0.4-1,1v1H8V3c0-0.6-0.4-1-1-1H6C5.4,2,5,2.4,5,3v1H3
			C2.4,4,2,4.4,2,5v16c0,0.6,0.4,1,1,1h17c0.6,0,1-0.4,1-1V5C21,4.4,20.6,4,20,4z M16,3h1v3h-1V3z M6,3h1v3H6V3z M20,21H3V9h17V21z
			 M20,8H3V5h2v1c0,0.6,0.4,1,1,1h1c0.6,0,1-0.4,1-1V5h7v1c0,0.6,0.4,1,1,1h1c0.6,0,1-0.4,1-1V5h2V8z"/>
	</g>
</g>
</svg>
