<?xml version="1.0" encoding="utf-8"?>
<!-- Generator: Adobe Illustrator 16.0.4, SVG Export Plug-In . SVG Version: 6.00 Build 0)  -->
<!DOCTYPE svg PUBLIC "-//W3C//DTD SVG 1.1//EN" "http://www.w3.org/Graphics/SVG/1.1/DTD/svg11.dtd">
<svg version="1.1" id="_x32_4x24_OUTLINED" xmlns="http://www.w3.org/2000/svg" xmlns:xlink="http://www.w3.org/1999/xlink" x="0px"
	 y="0px" width="24px" height="24px" viewBox="4651 1783 24 24" enable-background="new 4651 1783 24 24" xml:space="preserve">
<path d="M4653.716,1799.453c-0.19,0-0.367-0.072-0.496-0.204c-0.151-0.155-0.226-0.375-0.22-0.652V1786c0-0.514,0.47-1,0.967-1
	h13.066c0.497,0,0.967,0.486,0.967,1v9c0,0.514-0.47,1-0.967,1h-10.459c-0.488,0.771-1.715,2.698-1.891,2.919
	C4654.511,1799.124,4654.124,1799.453,4653.716,1799.453z M4653.967,1786l0.032,12.159c0.31-0.461,1.27-1.967,1.877-2.927
	c0.092-0.145,0.251-0.232,0.423-0.232h10.734l-0.033-9H4653.967z"/>
<g>
	<path fill="none" stroke="#2E4258" stroke-miterlimit="10" d="M4664,1790.5"/>
</g>
<g>
	<path fill="none" stroke="#2E4258" stroke-miterlimit="10" d="M4664,1792.961"/>
</g>
<path d="M4672.278,1804.453c-0.406,0-0.793-0.319-0.965-0.523c-0.184-0.23-1.411-2.159-1.899-2.93H4659c-0.505,0-1-0.495-1-1v-2.501
	c0-0.276,0.224-0.5,0.5-0.5s0.5,0.224,0.5,0.5V1800h10.689c0.172,0,0.331,0.088,0.423,0.232c0.608,0.963,1.575,2.475,1.888,2.938
	V1791h-2.5c-0.276,0-0.5-0.224-0.5-0.5s0.224-0.5,0.5-0.5h2.5c0.495,0,1,0.505,1,1v12.607c0.011,0.559-0.322,0.746-0.467,0.8
	C4672.449,1804.439,4672.363,1804.453,4672.278,1804.453z"/>
<g>
	<path fill="none" stroke="#2E4258" stroke-miterlimit="10" d="M4661.977,1795.5"/>
</g>
<g>
	<path fill="none" stroke="#2E4258" stroke-miterlimit="10" d="M4661.977,1797.961"/>
</g>
</svg>
