<?xml version="1.0" encoding="UTF-8"?>
<svg xmlns="http://www.w3.org/2000/svg" width="24" height="24" viewBox="0 0 24 24">
  <title>close-24</title>
  <g id="final">
    <g id="close">
      <g id="outline">
        <path d="M12,22A10,10,0,1,1,22,12,10,10,0,0,1,12,22ZM12,3a9,9,0,1,0,9,9A9,9,0,0,0,12,3Z" fill="#2e4258"/>
        <polygon points="15.45 7.47 11.97 10.95 8.51 7.47 7.45 8.53 10.91 12.01 7.45 15.47 8.51 16.53 11.97 13.07 15.42 16.53 16.48 15.47 13.03 12.01 16.51 8.53 15.45 7.47" fill="#2e4258"/>
      </g>
    </g>
  </g>
</svg>
