<?xml version="1.0" encoding="utf-8"?>
<!-- Generator: Adobe Illustrator 16.0.4, SVG Export Plug-In . SVG Version: 6.00 Build 0)  -->
<!DOCTYPE svg PUBLIC "-//W3C//DTD SVG 1.1//EN" "http://www.w3.org/Graphics/SVG/1.1/DTD/svg11.dtd">
<svg version="1.1" id="_x32_4x24_OUTLINED" xmlns="http://www.w3.org/2000/svg" xmlns:xlink="http://www.w3.org/1999/xlink" x="0px"
	 y="0px" width="24px" height="24px" viewBox="4651 1305 24 24" enable-background="new 4651 1305 24 24" xml:space="preserve">
<g>
	<path d="M4657.676,1323c-2.906,0-4.676-2.424-4.676-6.484c0-4.141,1.738-6.516,4.707-6.516c2.372,0,3.749,1.321,4.21,4.039
		l0.074,0.441l-3.145,0.903l-0.102-0.539c-0.336-1.78-0.853-1.78-1.101-1.78c-0.568,0-1.232,0.899-1.232,3.436
		c0,2.12,0.49,3.438,1.279,3.438c0.645,0,0.987-1.122,1.163-2.064l0.103-0.555l3.043,0.98l-0.005,0.438
		C4661.446,1321.605,4660.033,1323,4657.676,1323z M4657.707,1311c-3.195,0-3.707,3.456-3.707,5.516
		c0,3.485,1.362,5.484,3.676,5.484c1.734,0,2.748-0.935,3.244-3.017l-1.197-0.376c-0.22,0.92-0.733,2.33-2.031,2.33
		c-0.852,0-2.279-0.576-2.279-4.438c0-4.003,1.562-4.436,2.232-4.436c1.205,0,1.705,1.012,1.967,2.06l1.233-0.354
		C4660.415,1311.858,4659.434,1311,4657.707,1311z"/>
</g>
<g>
	<path d="M4667.676,1323c-2.906,0-4.641-2.424-4.641-6.484c0-4.141,1.703-6.516,4.672-6.516c2.372,0,3.749,1.321,4.21,4.039
		l0.074,0.441l-3.145,0.903l-0.102-0.539c-0.336-1.78-0.853-1.78-1.101-1.78c-0.568,0-1.232,0.899-1.232,3.436
		c0,2.12,0.49,3.438,1.279,3.438c0.645,0,0.987-1.122,1.163-2.064l0.103-0.555l3.043,0.98v0.438
		C4671.451,1321.605,4670.033,1323,4667.676,1323z M4667.707,1311c-3.195,0-3.672,3.456-3.672,5.516
		c0,3.485,1.327,5.484,3.641,5.484c1.734,0,2.748-0.935,3.244-3.017l-1.197-0.376c-0.22,0.92-0.733,2.393-2.031,2.393
		c-0.852,0-2.279-0.639-2.279-4.5c0-4.003,1.562-4.5,2.232-4.5c1.205,0,1.705,1.076,1.967,2.124l1.233-0.354
		C4670.415,1311.858,4669.434,1311,4667.707,1311z"/>
</g>
</svg>
