<svg xmlns="http://www.w3.org/2000/svg" width="24" height="24" viewBox="0 0 24 24"><title>closed-captioning-24</title><path d="M7.85,12.87c-.17,1-.52,2.07-1.16,2.07-.79,0-1.28-1.32-1.28-3.44,0-2.54.67-3.44,1.23-3.44.25,0,.77,0,1.1,1.78l.11.54L11,9.48,10.92,9c-.46-2.72-1.84-4-4.21-4C3.74,5,2,7.38,2,11.52S3.77,18,6.68,18C9,18,10.45,16.6,11,13.74V13.3l-3-1ZM9.92,14c-.5,2.08-1.51,3-3.24,3C4.36,17,3,15,3,11.52,3,9.46,3.51,6,6.71,6c1.72,0,2.71.86,3.14,2.77l-1.24.35c-.26-1-.76-2.06-2-2.06-.67,0-2.24.44-2.24,4.44s1.43,4.44,2.28,4.44c1.3,0,1.81-1.41,2-2.33Z"/><path d="M18,12.32l-.11.55c-.17,1-.52,2.07-1.16,2.07-.79,0-1.28-1.32-1.28-3.44,0-2.54.66-3.44,1.23-3.44.25,0,.77,0,1.1,1.78l.11.54L21,9.48,20.92,9c-.46-2.72-1.84-4-4.21-4C13.74,5,12,7.38,12,11.52S13.77,18,16.68,18C19,18,20.45,16.6,21,13.74V13.3ZM16.68,17C14.36,17,13,15,13,11.52,13,9.46,13.51,6,16.71,6c1.72,0,2.71.86,3.14,2.77l-1.24.35c-.26-1-.76-2.12-2-2.12-.67,0-2.24.5-2.24,4.5S15.84,16,16.69,16c1.3,0,1.81-1.47,2-2.39l1.2.37C19.42,16.06,18.41,17,16.68,17Z"/></svg>