<?xml version="1.0" encoding="utf-8"?>
<!-- Generator: Adobe Illustrator 16.0.4, SVG Export Plug-In . SVG Version: 6.00 Build 0)  -->
<!DOCTYPE svg PUBLIC "-//W3C//DTD SVG 1.1//EN" "http://www.w3.org/Graphics/SVG/1.1/DTD/svg11.dtd">
<svg version="1.1" id="_x32_4x24_OUTLINED" xmlns="http://www.w3.org/2000/svg" xmlns:xlink="http://www.w3.org/1999/xlink" x="0px"
	 y="0px" width="24px" height="24px" viewBox="4651 2938 24 24" enable-background="new 4651 2938 24 24" xml:space="preserve">
<path d="M4655.518,2957c-1.463,0-2.518-1.371-2.518-2.754c0-0.752,0.404-1.439,0.867-1.938c0.387-0.415,1.106-0.92,2.4-0.882
	c-0.148-0.775,0.011-1.648,0.469-2.431c0.844-1.442,2.465-2.166,3.976-1.739c0.801-1.815,2.359-3.257,4.288-3.257
	c3.016,0,4.365,1.5,5.314,3.566c0.591,1.285,0.414,2.74-0.367,3.997c2.203,0.187,3.047,1.576,3.053,2.848
	c0.006,1.319-1.031,2.572-2.801,2.589C4669.743,2957.004,4655.518,2957,4655.518,2957z M4656.163,2952.426
	c-0.688,0-1.216,0.2-1.562,0.574c-0.291,0.312-0.601,0.748-0.601,1.246c0,0.905,0.699,1.754,1.518,1.754c0,0,13.482,0,14.673,0
	c1.188,0,1.813-0.766,1.81-1.584c-0.004-0.884-0.783-1.916-3-1.916c-0.196,0-0.374-0.114-0.455-0.293s-0.051-0.389,0.079-0.536
	c1.015-1.161,1.266-2.404,0.725-3.597c-0.688-1.518-1.364-3.074-4.349-3.074c-0.963,0-2.727,0.756-3.527,3.055
	c-0.046,0.132-0.145,0.238-0.273,0.294c-0.126,0.057-0.272,0.057-0.399,0c-1.199-0.524-2.514-0.021-3.2,1.151
	c-0.45,0.771-0.513,1.634-0.164,2.255c0.095,0.168,0.084,0.375-0.026,0.532s-0.306,0.243-0.492,0.206
	C4656.65,2952.448,4656.397,2952.426,4656.163,2952.426z"/>
</svg>
