<svg id="assets" xmlns="http://www.w3.org/2000/svg" width="24" height="24" viewBox="0 0 24 24">
  <title>dashboard-24</title>
  <path d="M11.79,4A9.5,9.5,0,0,0,3.86,19.14a.5.5,0,0,0,.61.15l5-2.34a2.47,2.47,0,0,0,1.45,1,2.65,2.65,0,0,0,.58.06,2.46,2.46,0,0,0,2-1.05l5,2.35a.5.5,0,0,0,.61-.15A9.46,9.46,0,0,0,21,13.55,9.6,9.6,0,0,0,11.79,4ZM13,15.8A1.51,1.51,0,0,1,11.5,17a1.65,1.65,0,0,1-.36,0,1.47,1.47,0,0,1-1-.94,1.51,1.51,0,0,1,.42-1.64l4.11-3.48Zm5.61,2.41L13.94,16l2.18-6.45,1-1-.71-.71L15.2,9.09,9.84,13.64A2.5,2.5,0,0,0,9.08,16L4.42,18.21A8.5,8.5,0,0,1,11.5,5h.26A8.66,8.66,0,0,1,20,13.55,8.43,8.43,0,0,1,18.58,18.21Z"/>
  <polygon id="tickMark_01" data-name="tickMark 01" points="4 14 7 14 7 13 4 13 4 14"/>
  <polygon id="tickMark_02" data-name="tickMark 02" points="16 14 19 14 19 13 16 13 16 14"/>
  <polygon id="tickMark_03" data-name="tickMark 03" points="6.55 7.84 5.84 8.55 7.96 10.67 8.67 9.96 6.55 7.84"/>
  <polygon id="tickMark_05" data-name="tickMark 05" points="11 9 12 9 12 6 11 6 11 9"/>
</svg>
