<svg width="24" height="24" viewBox="0 0 24 24" fill="none" xmlns="http://www.w3.org/2000/svg">
<path d="M19.909 6.72495C18.502 4.61495 16.358 3.17895 13.872 2.68195C9.07998 1.72195 4.26198 4.64295 2.89798 9.32795L5.76798 10.164C6.70298 6.95595 10.002 4.95796 13.286 5.61396C14.989 5.95496 16.458 6.93795 17.421 8.38295C18.384 9.82795 18.727 11.563 18.387 13.266C18.046 14.969 17.063 16.438 15.618 17.401C14.172 18.364 12.437 18.706 10.736 18.367C9.36398 18.093 8.12698 17.365 7.19598 16.332L9.47298 14.74L2.50498 12.201L2.50098 19.615L4.71998 18.063C6.10298 19.724 8.02498 20.873 10.149 21.298C10.776 21.424 11.406 21.485 12.031 21.485C13.885 21.485 15.699 20.94 17.277 19.888C19.387 18.482 20.822 16.338 21.319 13.852C21.816 11.366 21.316 8.83395 19.909 6.72495Z" stroke="#808080" stroke-miterlimit="10"/>
<path d="M12.0029 8.48401V11.998L14.6779 14.295" stroke="#808080" stroke-linecap="round" stroke-linejoin="round"/>
</svg>
