<svg id="assets" xmlns="http://www.w3.org/2000/svg" width="24" height="24" viewBox="0 0 24 24">
  <title>down-24</title>
  <path d="M12.7,20.72l7-6.84a1,1,0,0,0,.06-1.36L18.46,11a1,1,0,0,0-1.48,0L14,14V4a1,1,0,0,0-1-1H11a1,1,0,0,0-1,1V14L7,10.94A1,1,0,0,0,5.53,11l-1.3,1.52a1,1,0,0,0,.06,1.36l7,6.84A1,1,0,0,0,12.7,20.72Zm-1-1.06L5.33,13.49a.5.5,0,0,1,0-.68l.64-.75a.5.5,0,0,1,.74,0L11,16.45V4.5a.5.5,0,0,1,.5-.5h1a.5.5,0,0,1,.5.5v12L17.31,12a.5.5,0,0,1,.74,0l.64.75a.5.5,0,0,1,0,.68l-6.31,6.18A.5.5,0,0,1,11.65,19.67Z"/>
</svg>
