<?xml version="1.0" encoding="utf-8"?>
<!-- Generator: Adobe Illustrator 16.0.4, SVG Export Plug-In . SVG Version: 6.00 Build 0)  -->
<!DOCTYPE svg PUBLIC "-//W3C//DTD SVG 1.1//EN" "http://www.w3.org/Graphics/SVG/1.1/DTD/svg11.dtd">
<svg version="1.1" id="_x32_4x24_OUTLINED" xmlns="http://www.w3.org/2000/svg" xmlns:xlink="http://www.w3.org/1999/xlink" x="0px"
	 y="0px" width="24px" height="24px" viewBox="4651 2779 24 24" enable-background="new 4651 2779 24 24" xml:space="preserve">
<path d="M4672.438,2787.067l-8.507-4.009c-0.113-0.043-0.231-0.066-0.365-0.068c-0.11,0-0.218,0.018-0.34,0.06l-9.547,3.656
	c-0.379,0.129-0.644,0.472-0.675,0.872c-0.032,0.404,0.182,0.783,0.549,0.97l0.447,0.22v11.274c0,0.69,0.461,0.958,0.896,0.958
	h1.125c0.552,0,0.969-0.406,0.969-0.959l0.009-9.802l1.001,0.491v3.77c0,0.151,0.083,0.664,0.336,0.894
	c0.792,0.732,2.288,1.606,5.164,1.606c2.801,0,4.372-0.874,5.167-1.607c0.253-0.236,0.333-0.765,0.333-0.893v-3.836l3.476-1.782
	c0.356-0.173,0.577-0.54,0.562-0.936C4673.021,2787.554,4672.776,2787.205,4672.438,2787.067z M4656,2800h-1v-10.742l1,0.49V2800z
	 M4668,2794.486c-0.003,0.05-0.054,0.204-0.013,0.173c-0.663,0.611-1.948,1.497-4.503,1.497c-2.477,0-3.809-0.886-4.418-1.435
	c-0.025-0.046-0.062-0.183-0.066-0.222v-3.279l4.09,2.007c0.138,0.071,0.286,0.108,0.441,0.11h0.012
	c0.151,0,0.304-0.035,0.451-0.106l4.006-2.055V2794.486z M4663.547,2792.337c-0.003,0.001-0.004,0.001-0.004,0.001l-0.043-0.004
	l-6.417-3.179l6.505-1.163c0.271-0.049,0.453-0.309,0.404-0.58c-0.048-0.271-0.312-0.449-0.58-0.404l-7.844,1.402l-1.568-0.764
	l9.5-3.646l8.5,4L4663.547,2792.337z"/>
</svg>
