<svg xmlns="http://www.w3.org/2000/svg" width="24" height="24" viewBox="0 0 24 24">
  <title>move-file-24</title>
  <g id="final">
    <g id="move-file">
      <g id="outline">
        <path d="M14,20H3V4H14V6h1V4a1,1,0,0,0-1-1H3A1,1,0,0,0,2,4V20a1,1,0,0,0,1,1H14a1,1,0,0,0,1-1V17H14Z" fill="#2e4258"/>
        <path d="M21.5,10.59c-.44-.41-4-3.81-4.05-3.82a1,1,0,0,0-1.22,0l-1.05.82a.86.86,0,0,0-.18.24.84.84,0,0,0-.11.39.85.85,0,0,0,.11.4.79.79,0,0,0,.16.22L16.26,10H10a.84.84,0,0,0-.91.81v1.34A.88.88,0,0,0,10,13h6.3l-1.11,1.2a.86.86,0,0,0-.19.26.79.79,0,0,0,0,.73,1,1,0,0,0,.22.29l1,.75a.93.93,0,0,0,.62.24.94.94,0,0,0,.63-.24l4.06-3.72a1.31,1.31,0,0,0,.51-1A1.28,1.28,0,0,0,21.5,10.59Zm-.68,1.18-4,3.68L16,14.79,18.61,12H10V11h8.65L16,8.21l.81-.7s3.61,3.42,4.06,3.82A.26.26,0,0,1,20.82,11.77Z" fill="#2e4258"/>
      </g>
    </g>
  </g>
</svg>
