<svg xmlns="http://www.w3.org/2000/svg" width="24" height="24" viewBox="0 0 24 24"><path d="M22,13.66l-3.18-2.44L21.19,8l-4-.32.26-4L13.94,5.53,12,2,10.06,5.53,6.54,3.62l.26,4L2.81,8l2.37,3.25L2,13.66,5.74,15.1,4.36,18.89l3.91-.83L9.15,22,12,19.16,14.85,22l.88-3.94,3.91.83L18.26,15.1Zm-7,3.22L14.27,20,12,17.75,9.73,20,9,16.88l-3.12.66,1.09-3L4,13.37l2.54-2L4.67,8.82l3.18-.25-.2-3.21,2.81,1.52L12,4.08l1.54,2.81,2.81-1.52-.21,3.21,3.18.25-1.89,2.59,2.54,2-3,1.15,1.09,3Z"/><rect x="11" y="8" width="2" height="5"/><rect x="11" y="14" width="2" height="2"/></svg>