<?xml version="1.0" encoding="utf-8"?>
<!-- Generator: Adobe Illustrator 16.0.4, SVG Export Plug-In . SVG Version: 6.00 Build 0)  -->
<!DOCTYPE svg PUBLIC "-//W3C//DTD SVG 1.1//EN" "http://www.w3.org/Graphics/SVG/1.1/DTD/svg11.dtd">
<svg version="1.1" id="_x32_4x24_OUTLINED" xmlns="http://www.w3.org/2000/svg" xmlns:xlink="http://www.w3.org/1999/xlink" x="0px"
	 y="0px" width="24px" height="24px" viewBox="4651 2181.046 24 24" enable-background="new 4651 2181.046 24 24"
	 xml:space="preserve">
<path d="M4672.578,2195.58c-0.892-2.289-4.216-9.983-5.026-11.907c-0.104-0.253-0.301-0.451-0.555-0.557
	c-0.124-0.052-0.249-0.089-0.451-0.075c-0.478,0.024-0.872,0.361-0.941,0.798c-0.552,3.373-1.759,4.464-2.888,5.195
	c-0.273,0.177-1.117,0.56-1.456,0.644c-2.761,0.681-4.637,1.532-5.575,2.529c-0.223,0.236-0.506,0.542-0.487,0.926l-1.155,0.933
	c-0.729,0.589-0.67,1.13-0.498,1.47l1.111,2.328c0.293,0.586,0.702,0.738,1.08,0.738c0.167,0,0.329-0.03,0.471-0.065
	c0.342-0.085,1.054-0.248,1.451-0.338c0.957,1.062,3.596,4.375,3.669,4.46c0.358,0.656,1.315,0.323,1.437,0.256l1.857-0.64
	c0.359-0.179,0.607-0.508,0.646-0.859c0.033-0.304-0.092-0.597-0.279-0.737l-2.17-2.582c0.19-0.247,0.423-0.582,0.524-0.857
	c0.133-0.353,0.018-0.6-0.062-0.716c-0.212-0.304-0.586-0.33-0.813-0.33l-1.268,0.2c-0.078-0.092-0.173-0.206-0.266-0.325
	l1.773-0.568c0.01-0.003,1.154-0.299,2.701-0.299c1.55,0,3.825,0.163,5.623,1.588c0.041,0.036,0.148,0.095,0.198,0.115
	c0.351,0.144,0.765,0.084,1.069-0.173C4672.623,2196.444,4672.734,2195.981,4672.578,2195.58z M4655.965,2197.565
	c-0.306,0.077-0.312,0.053-0.41-0.142l-1.118-2.327c0,0,0.023-0.082,0.235-0.254l0.895-0.723l1.146,2.669
	c0.007,0.016,0.094,0.245,0.265,0.538C4656.61,2197.411,4656.199,2197.507,4655.965,2197.565z M4662.422,2194.54l-1.957,0.634
	c-0.156,0.08-0.532,0.305-0.627,0.669c-0.049,0.19-0.015,0.386,0.096,0.547c0.277,0.411,0.687,0.858,0.704,0.877
	c0.113,0.124,0.278,0.183,0.446,0.156l1.114-0.175c-0.128,0.187-0.287,0.389-0.406,0.526c-0.161,0.186-0.163,0.461-0.005,0.648
	l2.436,2.897c0.006,0.007,0.019,0.021,0.019,0.021c-0.004,0.006-0.005,0.012-0.005,0.012l-1.86,0.642
	c-0.126,0.062-0.278,0.011-0.314-0.013c-0.125-0.156-3.058-3.839-3.853-4.66c-0.369-0.382-0.557-0.875-0.567-0.903l-1.421-3.31
	c0.051-0.066,0.146-0.166,0.192-0.216c0.554-0.588,1.886-1.455,5.088-2.245c0.054-0.014,0.131-0.043,0.196-0.064
	c0.198,0.512,0.422,1.104,0.649,1.712c0.271,0.72,0.546,1.455,0.798,2.095C4662.699,2194.468,4662.428,2194.538,4662.422,2194.54z
	 M4665.408,2194.2c-0.451,0-0.868,0.023-1.24,0.058c-0.273-0.687-0.582-1.508-0.885-2.313c-0.232-0.617-0.459-1.22-0.66-1.737
	c0.258-0.121,0.497-0.243,0.637-0.333c1.313-0.851,2.717-2.115,3.369-5.816c0.808,1.917,4.105,9.545,4.942,11.885
	C4669.549,2194.39,4667.089,2194.2,4665.408,2194.2z"/>
</svg>
