<svg xmlns="http://www.w3.org/2000/svg" width="24" height="24" viewBox="0 0 24 24"><title>field-24</title><path d="M20.83,15.82a4.42,4.42,0,0,1-1.25-2c0-4.7-3.36-8.54-7.58-8.83H11c-4.22.29-7.58,4.13-7.58,8.83a4.42,4.42,0,0,1-1.25,2,.74.74,0,0,0-.17.43v.25a.5.5,0,0,0,.5.5H3L4.62,18.7a1,1,0,0,0,.72.31H17.63a1,1,0,0,0,.72-.31L20,17h.53a.5.5,0,0,0,.5-.5v-.25A.78.78,0,0,0,20.83,15.82ZM17.63,18H5.37l-1-1,0-.05C5.9,15.52,9,15,11.42,15S17,15.51,18.48,17l.05.05ZM19,16c-2.2-1.85-6.26-2-7.49-2S6.23,14.15,4,16H3.34a4.17,4.17,0,0,0,1.08-2.14A8,8,0,0,1,8,7V9.5a.5.5,0,0,0,1,0v-3A6.6,6.6,0,0,1,11,6V8.5a.5.5,0,0,0,1,0V6a6.31,6.31,0,0,1,2,.49v3a.5.5,0,1,0,1,0V7a8,8,0,0,1,3.58,6.82A4.1,4.1,0,0,0,19.66,16Z"/></svg>