<?xml version="1.0" encoding="utf-8"?>
<!-- Generator: Adobe Illustrator 16.0.4, SVG Export Plug-In . SVG Version: 6.00 Build 0)  -->
<!DOCTYPE svg PUBLIC "-//W3C//DTD SVG 1.1//EN" "http://www.w3.org/Graphics/SVG/1.1/DTD/svg11.dtd">
<svg version="1.1" id="_x32_4x24_OUTLINED" xmlns="http://www.w3.org/2000/svg" xmlns:xlink="http://www.w3.org/1999/xlink" x="0px"
	 y="0px" width="24px" height="24px" viewBox="4651 2261 24 24" enable-background="new 4651 2261 24 24" xml:space="preserve">
<path d="M4672.921,2271.26c-0.025-0.134-0.075-0.26-0.152-0.381l-3.654-5.62c-0.271-0.417-0.845-0.587-1.285-0.405
	c-0.209,0.084-0.344,0.262-0.53,0.509c-0.193,0.258-0.46,0.61-0.818,0.843c-0.564,0.365-0.889,0.442-1.061,0.442
	c-0.27,0-0.566-0.194-1.023-0.493c-0.524-0.345-1.242-0.817-2.269-1.13c-0.341-0.104-0.776-0.156-1.128-0.156
	c-2.098,0-3.691,1.83-4.479,2.962l-0.757-1.096c-0.438-0.546-1.067-0.567-1.486-0.193l-0.896,0.653
	c-0.44,0.384-0.514,1.028-0.193,1.394l9.596,13.866c0.177,0.205,0.44,0.322,0.723,0.322c0.26,0,0.518-0.097,0.675-0.237l0.937-0.67
	c0.217-0.187,0.342-0.424,0.36-0.686c0.015-0.198-0.027-0.503-0.278-0.786l-3.602-5.216c0.371-0.751,1.787-2.575,3.109-2.575
	c0.151,0,0.304,0.023,0.456,0.07c0.724,0.22,1.23,0.552,1.721,0.872c0.63,0.414,1.21,0.842,2.116,0.842
	c0.685,0,1.462-0.249,2.287-0.782C4672.818,2272.615,4673.021,2271.782,4672.921,2271.26z M4664.495,2281.087l-0.954,0.726
	c-0.019,0.016-9.548-13.829-9.548-13.829l0.965-0.691L4664.495,2281.087z M4670.744,2272.769c-1.484,0.96-2.315,0.596-3.313-0.057
	c-0.497-0.325-1.116-0.73-1.976-0.991c-0.246-0.076-0.497-0.114-0.748-0.114c-1.595,0-3.029,1.593-3.729,2.677l-0.964-1.396
	c-1.051-1.536-2.337-3.403-2.877-4.176c0.513-0.818,2.084-2.844,3.947-2.844c0.253,0,0.507,0.038,0.753,0.113
	c0.888,0.27,1.51,0.68,2.02,1.016c0.557,0.363,0.997,0.65,1.563,0.65c0.453,0,0.978-0.197,1.604-0.603
	c0.508-0.329,0.849-0.781,1.074-1.08c0.075-0.1,0.133-0.182,0.179-0.161l3.662,5.643
	C4671.974,2271.628,4671.761,2272.11,4670.744,2272.769z"/>
</svg>
