<?xml version="1.0" encoding="utf-8"?>
<!-- Generator: Adobe Illustrator 16.0.4, SVG Export Plug-In . SVG Version: 6.00 Build 0)  -->
<!DOCTYPE svg PUBLIC "-//W3C//DTD SVG 1.1//EN" "http://www.w3.org/Graphics/SVG/1.1/DTD/svg11.dtd">
<svg version="1.1" id="_x32_4x24_OUTLINED" xmlns="http://www.w3.org/2000/svg" xmlns:xlink="http://www.w3.org/1999/xlink" x="0px"
	 y="0px" width="24px" height="24px" viewBox="4651 2739 24 24" enable-background="new 4651 2739 24 24" xml:space="preserve">
<path d="M4670.871,2753.094c0.701-0.587,1.129-1.606,1.129-2.59c0-1.604-1.084-2.91-2.416-2.91c-1.449,0-2.584,1.279-2.584,2.91
	c0,1.125,0.482,2.083,1.213,2.623c-0.29,0.1-0.549,0.234-0.772,0.412l0.619,0.785c0.308-0.243,0.739-0.374,1.296-0.398h0.461
	c1.383,0.059,2.363,0.536,2.184,3.319V2759h-3.936v1h3.99c0.408-0.045,0.91-0.558,0.945-1v-1.755
	C4673,2754.436,4672.357,2753.511,4670.871,2753.094z M4669.584,2748.602c0.881,0,1.426,0.987,1.426,1.902
	c0,0.983-0.609,2.083-1.426,2.083c-0.894,0-1.594-0.914-1.594-2.083C4667.99,2749.42,4668.675,2748.602,4669.584,2748.602z"/>
<g>
	<path d="M4659,2750.504c0-1.631-1.135-2.91-2.584-2.91c-1.332,0-2.416,1.306-2.416,2.91c0,0.979,0.424,1.994,1.118,2.582
		c-1.446,0.378-2.118,1.504-2.118,4.159l0.002,1.795c0.032,0.402,0.535,0.912,0.998,0.96h3.98v-1H4654v-1.755
		c-0.23-2.912,0.852-3.261,2.207-3.319h0.463c0.579,0.024,1.009,0.155,1.314,0.397l0.621-0.783c-0.23-0.183-0.497-0.323-0.801-0.425
		C4658.525,2752.574,4659,2751.62,4659,2750.504z M4654.965,2750.504c0-0.915,0.555-1.902,1.451-1.902
		c0.923,0,1.619,0.818,1.619,1.902c0,1.169-0.711,2.083-1.619,2.083C4655.586,2752.587,4654.965,2751.487,4654.965,2750.504z"/>
</g>
<path d="M4664.415,2751.825c0.979-0.642,1.585-1.942,1.585-3.191c0-1.866-1.299-3.384-2.895-3.384c-1.742,0-3.105,1.486-3.105,3.384
	c0,1.383,0.646,2.546,1.608,3.152c-1.866,0.417-2.608,2.214-2.608,5.214v2c0,0.48,0.407,0.946,0.926,1c0,0,5.844,0,6.275,0
	s0.76-0.521,0.799-1v-2C4667,2754.088,4666.21,2752.324,4664.415,2751.825z M4663.105,2746.25c1.175,0,1.902,1.237,1.902,2.384
	c0,1.229-0.814,2.604-1.902,2.604c-1.186,0-2.113-1.144-2.113-2.604C4660.992,2747.274,4661.9,2746.25,4663.105,2746.25z M4666,2759
	h-6v-2c-0.257-3.462,1.025-4.336,2.697-4.336h0.562c1.715,0,2.92,0.823,2.74,4.336C4666,2757,4666.003,2758.986,4666,2759z"/>
</svg>
