<svg xmlns="http://www.w3.org/2000/svg" width="24" height="24" viewBox="0 0 24 24"><title>forums-24</title><path d="M20,11.36A3.23,3.23,0,0,0,21,9a2.78,2.78,0,0,0-2.5-3A2.78,2.78,0,0,0,16,9a3.23,3.23,0,0,0,1,2.36,4,4,0,0,0-.56.35,5.08,5.08,0,0,1,.39,1A2.49,2.49,0,0,1,21,14.5V18H17v1h5V14.5A3.5,3.5,0,0,0,20,11.36ZM18.5,11c-.81,0-1.5-.92-1.5-2s.69-2,1.5-2S20,7.92,20,9,19.31,11,18.5,11Z"/><path d="M13.69,10.39A3.69,3.69,0,0,0,15,7.5,3.28,3.28,0,0,0,12,4,3.28,3.28,0,0,0,9,7.5a3.69,3.69,0,0,0,1.31,2.89A4,4,0,0,0,8,14v5h8V14A4,4,0,0,0,13.69,10.39ZM10,7.5A2.3,2.3,0,0,1,12,5a2.3,2.3,0,0,1,2,2.5A2.3,2.3,0,0,1,12,10,2.3,2.3,0,0,1,10,7.5ZM15,18H9V14a3,3,0,0,1,6,0Z"/><path d="M7,18H3V14.5a2.49,2.49,0,0,1,4.19-1.83,5.08,5.08,0,0,1,.39-1A4,4,0,0,0,7,11.36,3.23,3.23,0,0,0,8,9,2.78,2.78,0,0,0,5.5,6,2.78,2.78,0,0,0,3,9a3.23,3.23,0,0,0,1,2.36A3.5,3.5,0,0,0,2,14.5V19H7ZM5.5,7C6.31,7,7,7.92,7,9s-.69,2-1.5,2S4,10.08,4,9,4.69,7,5.5,7Z"/></svg>