<svg id="assets" xmlns="http://www.w3.org/2000/svg" width="24" height="24" viewBox="0 0 24 24">
  <title>forward-24</title>
  <path d="M20.72,11.3l-6.84-7a1,1,0,0,0-1.36-.06L11,5.53A1,1,0,0,0,10.94,7L14,10H4a1,1,0,0,0-1,1v2a1,1,0,0,0,1,1H14l-3.06,3a1,1,0,0,0,0,1.48l1.52,1.3a1,1,0,0,0,1.36-.06l6.84-7A1,1,0,0,0,20.72,11.3Zm-1.06,1-6.18,6.31a.5.5,0,0,1-.68,0l-.75-.64a.5.5,0,0,1,0-.74L16.46,13H4.5a.5.5,0,0,1-.5-.5v-1a.5.5,0,0,1,.5-.5h12L12,6.68a.5.5,0,0,1,0-.74l.75-.64a.5.5,0,0,1,.68,0l6.18,6.31A.5.5,0,0,1,19.67,12.35Z"/>
</svg>
