<?xml version="1.0" encoding="utf-8"?>
<!-- Generator: Adobe Illustrator 22.1.0, SVG Export Plug-In . SVG Version: 6.00 Build 0)  -->
<svg version="1.1" id="Layer_1" xmlns="http://www.w3.org/2000/svg" xmlns:xlink="http://www.w3.org/1999/xlink" x="0px" y="0px"
	 viewBox="0 0 24 24" style="enable-background:new 0 0 24 24;" xml:space="preserve" width="24" height="24">
<style type="text/css">
	.st0{fill:#2E4258;}
</style>
<title>hidden-24</title>
<path class="st0" d="M21.6,10.8l-0.1-0.2c-0.9-1-1.9-2-3-2.8l2.2-2c0.3-0.3,0.3-0.8,0-1c0,0,0,0,0,0l-1.2-1.2
	c-0.3-0.3-0.8-0.3-1.1,0l-2.9,2.7c-1.1-0.5-2.3-0.7-3.6-0.7c-3.3,0-6.4,1.8-9.4,5.2l-0.1,0.1l0,0C2.2,11.3,2,11.7,2,12.2
	c0,0.6,0.2,1.1,0.6,1.5c0.7,0.8,1.5,1.6,2.4,2.3l-2.5,2.3c-0.3,0.3-0.3,0.8,0,1c0,0,0,0,0,0l1.2,1.2c0.3,0.3,0.8,0.3,1,0l3.1-2.9
	c1.3,0.6,2.8,0.9,4.3,0.9h0.1c3.6,0,6.5-1.6,9.3-5.1l0.1-0.1l0,0l0,0C22.1,12.6,22.1,11.6,21.6,10.8L21.6,10.8z M3.3,13.1
	c-0.4-0.5-0.4-1.2,0-1.7l0.1-0.1l0,0C6.2,8,9,6.4,11.9,6.4c0.9,0,1.9,0.2,2.7,0.5l-1.4,1.3C12.9,8.1,12.4,8,12,8
	c-2.2,0.1-4,1.9-4,4.2c0,0.3,0,0.6,0.1,0.8l-2.4,2.3C4.8,14.6,4,13.9,3.3,13.1z M12.4,9L9,12.1l0,0c0-1.7,1.3-3.1,3-3.2
	C12.1,8.9,12.3,9,12.4,9z M4.2,19.7l-0.9-0.9L18.9,4.3l0.9,0.9L4.2,19.7z M15.1,12.1c0,1.7-1.3,3-3,3c-0.4,0-0.8-0.1-1.2-0.3
	l0.9-0.8c0.1,0,0.2,0,0.3,0c0.6,0,1.1-0.5,1.1-1.4l1.7-1.6C15,11.4,15.1,11.8,15.1,12.1z M20.7,12.9L20.6,13l0,0
	c-3.3,4.1-6.4,4.6-8.4,4.6h-0.1c-1.2,0-2.4-0.3-3.5-0.7l1.5-1.4c0.6,0.3,1.2,0.5,1.9,0.5h0.1c2.1-0.1,3.9-1.8,3.9-3.9
	c0-0.6-0.1-1.2-0.4-1.7l2.1-1.9c1.1,0.8,2,1.7,2.9,2.6l0.1,0.1C21.1,11.7,21.1,12.4,20.7,12.9L20.7,12.9z"/>
</svg>
