<svg xmlns="http://www.w3.org/2000/svg" width="24" height="24" viewBox="0 0 24 24">
  <title>hidden-24</title>
  <g id="final">
    <g id="hidden">
      <g id="outline">
        <path d="M12,14.06a1,1,0,0,1-.28,0l-.87.82A2.82,2.82,0,0,0,12,15.1a3,3,0,0,0,3-3,3.09,3.09,0,0,0-.19-1l-1.67,1.57C13.1,13.52,12.64,14.06,12,14.06Z" fill="none"/>
        <path d="M8.17,13a3.63,3.63,0,0,1-.1-.82A4.18,4.18,0,0,1,12,8a3.55,3.55,0,0,1,1.22.24l1.42-1.32a8.59,8.59,0,0,0-2.74-.46C9,6.42,6.15,8,3.44,11.17h0l-.13.15a1.36,1.36,0,0,0,0,1.74,14,14,0,0,0,2.38,2.21Z" fill="none"/>
        <path d="M9,12.13H9L12.44,9a2.39,2.39,0,0,0-.4,0A3.24,3.24,0,0,0,9,12.13Z" fill="none"/>
        <path d="M20.59,11.1A17.63,17.63,0,0,0,17.7,8.45L15.62,10.4a4.12,4.12,0,0,1,.4,1.74,4,4,0,0,1-3.92,3.93H12a3.82,3.82,0,0,1-1.9-.54L8.66,16.91a9.74,9.74,0,0,0,3.46.7h.06c2.05,0,5.08-.48,8.41-4.59h0l.12-.15a1.28,1.28,0,0,0,0-1.61Z" fill="none"/>
        <path d="M21.59,10.75l-.12-.17a18.9,18.9,0,0,0-3-2.82l2.19-2a.74.74,0,0,0,0-1.07l-1.2-1.22a.78.78,0,0,0-1.06,0l-2.9,2.71a9.7,9.7,0,0,0-3.55-.7c-3.28,0-6.43,1.77-9.39,5.25l-.12.15h0A2.33,2.33,0,0,0,2,12.19a2.27,2.27,0,0,0,.56,1.53A14.93,14.93,0,0,0,4.95,16L2.46,18.29a.74.74,0,0,0,0,1.07l1.22,1.22a.76.76,0,0,0,1.05,0l3.12-2.92a10.89,10.89,0,0,0,4.27.94h.07c3.63,0,6.53-1.62,9.3-5.1l.07-.1h0l0,0a2.3,2.3,0,0,0,0-2.62ZM3.31,13.06a1.36,1.36,0,0,1,0-1.74l.13-.15h0C6.15,8,9,6.42,11.94,6.42a8.59,8.59,0,0,1,2.74.46L13.26,8.2A3.55,3.55,0,0,0,12,8a4.18,4.18,0,0,0-4,4.18,3.63,3.63,0,0,0,.1.82L5.69,15.27A14,14,0,0,1,3.31,13.06ZM12.44,9,9,12.14H9a3.24,3.24,0,0,1,3-3.21A2.39,2.39,0,0,1,12.44,9ZM4.21,19.7l-.87-.87L18.9,4.3l.85.86Zm10.85-7.57a3,3,0,0,1-3,3,2.82,2.82,0,0,1-1.16-.27l.88-.82a1,1,0,0,0,.28,0c.61,0,1.06-.53,1.15-1.39l1.67-1.57A3.09,3.09,0,0,1,15.06,12.13Zm5.66.73-.12.15h0c-3.32,4.11-6.35,4.59-8.41,4.59h-.06a9.74,9.74,0,0,1-3.46-.7l1.48-1.38a3.82,3.82,0,0,0,1.9.54h.06A4,4,0,0,0,16,12.13a4.12,4.12,0,0,0-.4-1.74L17.7,8.45a17.63,17.63,0,0,1,2.89,2.64l.13.15a1.28,1.28,0,0,1,0,1.61Z" fill="#2e4258"/>
      </g>
    </g>
  </g>
</svg>
