<svg xmlns="http://www.w3.org/2000/svg" width="24" height="24" viewBox="0 0 24 24"><title>hidden-24</title><path d="M11.23,9.11A3.25,3.25,0,0,1,12,9a3,3,0,0,1,3,3,3.25,3.25,0,0,1-.11.77l.79.79A3.89,3.89,0,0,0,16,12a4,4,0,0,0-4-4,3.89,3.89,0,0,0-1.56.32Z"/><path d="M12.77,14.89A3.25,3.25,0,0,1,12,15a3,3,0,0,1-3-3,3.25,3.25,0,0,1,.11-.77l-.79-.79A3.89,3.89,0,0,0,8,12a4,4,0,0,0,4,4,3.89,3.89,0,0,0,1.56-.32Z"/><rect x="11.5" y="0.19" width="1" height="23.63" transform="translate(-4.97 12) rotate(-45)"/><path d="M9.06,6.94A8.63,8.63,0,0,1,12,6.42c4.82,0,8,4.3,8.87,5.67a10.37,10.37,0,0,1-3,3.63l.7.71A11.52,11.52,0,0,0,22,12s-3.65-6.6-10-6.6a9.51,9.51,0,0,0-3.71.75Z"/><path d="M15,17.16a10.34,10.34,0,0,1-3,.44c-5.13,0-8-4.19-8.85-5.58A13.91,13.91,0,0,1,6.34,8.46l-.72-.72A14.74,14.74,0,0,0,2,12s3.17,6.6,10,6.6a10.82,10.82,0,0,0,3.82-.66Z"/></svg>