<svg id="assets" xmlns="http://www.w3.org/2000/svg" width="24" height="24" viewBox="0 0 24 24">
  <title>link-24</title>
  <path d="M20.57,4.94,19.19,3.57a3.65,3.65,0,0,0-2.6-1.07,3.6,3.6,0,0,0-2.69.94l-3,3a3.87,3.87,0,0,0-1,2.78,4.18,4.18,0,0,0,.14,1.14A3.79,3.79,0,0,0,9,10.2a3.39,3.39,0,0,0-2.57,1L3.34,14.31a3.37,3.37,0,0,0-1.09,2.53,3.7,3.7,0,0,0,1.07,2.68L4.69,20.9A3.51,3.51,0,0,0,7.29,22a3.92,3.92,0,0,0,2.79-1l3-3a3.75,3.75,0,0,0,1-2.73,4.16,4.16,0,0,0-.14-1.13,3.89,3.89,0,0,0,1.12.15,3.64,3.64,0,0,0,2.65-1.09l2.93-2.95a3.7,3.7,0,0,0,1.07-2.68A3.51,3.51,0,0,0,20.57,4.94ZM13.48,9.29a1.2,1.2,0,0,1,1,.32,1.27,1.27,0,0,1,.39,1.06L10.5,15.22a1.43,1.43,0,0,1-1.22-.32,1.3,1.3,0,0,1-.17-1.07Zm.84-.92c.4-.42,1.85-1.89,2.15-2.18,0,0,.89.81,1.43,1.36L15.72,9.77a2.84,2.84,0,0,0-.54-.9A2.27,2.27,0,0,0,14.33,8.37ZM8.68,15.71a2.44,2.44,0,0,0,.9.48c-.46.44-1.91,2-2,2.11L6.09,16.91,8.16,14.8A2.17,2.17,0,0,0,8.68,15.71Zm3.52,1.47-2.95,3A2.42,2.42,0,0,1,7.32,21,2.62,2.62,0,0,1,5.4,20.2L4,18.82A2.26,2.26,0,0,1,3.36,17a2.52,2.52,0,0,1,.77-1.89L7.2,12a2.52,2.52,0,0,1,1.89-.77,1.6,1.6,0,0,1,.84.16L5.31,16.15a1.14,1.14,0,0,0-.26.69,1,1,0,0,0,.26.69L6.9,19.09a.78.78,0,0,0,.6.26,1,1,0,0,0,.68-.25l4.66-4.84A2.7,2.7,0,0,1,13,15.34,2.23,2.23,0,0,1,12.2,17.17Zm7.52-7.8-2.91,3a2.39,2.39,0,0,1-1.81.82,2.3,2.3,0,0,1-1-.12S17.9,9,18.72,8.18a.94.94,0,0,0-.14-1.35L17.2,5.43a1.12,1.12,0,0,0-.79-.37.91.91,0,0,0-.66.27c-.71.7-4.64,4.84-4.64,4.84A2.22,2.22,0,0,1,11,9.23a2.72,2.72,0,0,1,.77-2l3-3a2.52,2.52,0,0,1,1.89-.77,2.65,2.65,0,0,1,1.89.77l1.37,1.37a2.12,2.12,0,0,1,.63,1.75A2.72,2.72,0,0,1,19.72,9.38Z"/>
</svg>
