<svg xmlns="http://www.w3.org/2000/svg" width="24" height="24" viewBox="0 0 24 24"><title>list-24</title><path d="M5.08,10h-3v4h3A.94.94,0,0,0,6,13V11a.94.94,0,0,0-.88-1ZM5,13H3V11H5Z"/><path d="M5.08,3h-3V7h3A.94.94,0,0,0,6,6V4a.94.94,0,0,0-.88-1ZM5,6H3V4H5Z"/><path d="M5.08,17h-3v4h3A.94.94,0,0,0,6,20V18a.94.94,0,0,0-.88-1ZM5,20H3V18H5Z"/><path d="M21,6H8V4H21Zm.08-3H7V7H21.08A.94.94,0,0,0,22,6V4a.94.94,0,0,0-.88-1Z"/><path d="M21,20H8V18H21Zm.08-3H7v4H21.08A.94.94,0,0,0,22,20V18a.94.94,0,0,0-.88-1Z"/><path d="M21.08,10H7v4H21.08A.94.94,0,0,0,22,13V11a.94.94,0,0,0-.88-1ZM21,13H8V11H21Z"/></svg>