<?xml version="1.0" encoding="utf-8"?>
<!-- Generator: Adobe Illustrator 16.0.4, SVG Export Plug-In . SVG Version: 6.00 Build 0)  -->
<!DOCTYPE svg PUBLIC "-//W3C//DTD SVG 1.1//EN" "http://www.w3.org/Graphics/SVG/1.1/DTD/svg11.dtd">
<svg version="1.1" id="_x32_4x24_OUTLINED" xmlns="http://www.w3.org/2000/svg" xmlns:xlink="http://www.w3.org/1999/xlink" x="0px"
	 y="0px" width="24px" height="24px" viewBox="4651 1424 24 24" enable-background="new 4651 1424 24 24" xml:space="preserve">
<path d="M4669.206,1441.818l1.294-0.193v-1.25l-1.287-0.175l-0.514-1.25l0.788-1.038l-0.906-0.887l-1.032,0.787l-1.248-0.513
	l-0.176-1.3h-1.25l-0.182,1.3l-1.25,0.513l-1.025-0.8l-0.9,0.906l0.795,1.044l-0.512,1.25l-1.301,0.162v1.25l1.301,0.182
	l0.506,1.212l-0.795,1.062l0.906,0.9l1.045-0.794l1.219,0.513l0.193,1.3h1.25l0.176-1.287l1.248-0.513l1.039,0.794l0.899-0.906
	l-0.788-1.031L4669.206,1441.818z M4665.5,1443.231c-1.232-0.004-2.229-1.006-2.225-2.237c0.003-1.232,1.004-2.229,2.236-2.226
	c1.23,0.004,2.226,1.002,2.226,2.231c0,1.232-0.999,2.231-2.231,2.231H4665.5z"/>
<path d="M4659.5,1435.32c1.457,0,2.548,0.38,3.272,1.16l0.732-0.68c-0.585-0.631-1.341-1.033-2.245-1.261
	c1.055-0.629,1.74-1.874,1.74-3.54c0-2.43-1.441-4-3.5-4c-2.093,0-3.5,1.683-3.5,4c0,1.602,0.687,2.884,1.825,3.533
	c-2.557,0.62-3.825,2.744-3.825,6.493V1444c0,0.589,0.411,1,1,1h5v-1h-5v-2.974C4655,1437.08,4656.367,1435.32,4659.5,1435.32z
	 M4657,1431c0-1.445,0.706-3,2.5-3c1.761,0,2.5,1.55,2.5,3s-0.739,3-2.5,3C4657.706,1434,4657,1432.445,4657,1431z"/>
</svg>
