<?xml version="1.0" encoding="utf-8"?>
<!-- Generator: Adobe Illustrator 16.0.4, SVG Export Plug-In . SVG Version: 6.00 Build 0)  -->
<!DOCTYPE svg PUBLIC "-//W3C//DTD SVG 1.1//EN" "http://www.w3.org/Graphics/SVG/1.1/DTD/svg11.dtd">
<svg version="1.1" id="_x32_4x24_OUTLINED" xmlns="http://www.w3.org/2000/svg" xmlns:xlink="http://www.w3.org/1999/xlink" x="0px"
	 y="0px" width="24px" height="24px" viewBox="4651 2221 24 24" enable-background="new 4651 2221 24 24" xml:space="preserve">
<path d="M4664,2243h-10c-0.515,0-1-0.563-1-1v-10c0-0.437,0.485-1,1-1h8.793l4-4H4666l0,0c-0.345,0-0.607-0.238-0.705-0.34
	c-0.116-0.122-0.31-0.374-0.294-0.685L4665,2225c0.018-0.48,0.51-0.975,0.974-0.999L4671,2224c0.579,0,1,0.421,1,1v5
	c-0.022,0.479-0.525,0.979-0.978,0.999L4670,2231l0,0c-0.341,0-0.603-0.234-0.7-0.336c-0.118-0.121-0.312-0.372-0.3-0.684v-0.773
	l-4,4V2242C4665,2242.437,4664.514,2243,4664,2243z M4654,2242c0.017,0,10,0,10,0v-9.207l6-6V2230h1v-5h-5v1h3.207l-6,6H4654
	C4654,2232,4653.992,2242,4654,2242z"/>
<path d="M4662,2241h-6c-0.532,0-1-0.468-1-1v-6c0-0.532,0.468-1,1-1h6c0.531,0,1,0.468,1,1v6C4663,2240.532,4662.531,2241,4662,2241
	z M4656,2234v6h6v-6H4656z"/>
</svg>
