<?xml version="1.0" encoding="utf-8"?>
<!-- Generator: Adobe Illustrator 16.0.4, SVG Export Plug-In . SVG Version: 6.00 Build 0)  -->
<!DOCTYPE svg PUBLIC "-//W3C//DTD SVG 1.1//EN" "http://www.w3.org/Graphics/SVG/1.1/DTD/svg11.dtd">
<svg version="1.1" id="_x32_4x24_OUTLINED" xmlns="http://www.w3.org/2000/svg" xmlns:xlink="http://www.w3.org/1999/xlink" x="0px"
	 y="0px" width="24px" height="24px" viewBox="4651 2061 24 24" enable-background="new 4651 2061 24 24" xml:space="preserve">
<path d="M4661,2080h-4.047c-0.589,0-0.953-0.52-0.953-1v-4c0-0.532,0.468-1,1-1h4c0.531,0,1,0.468,1,1v4
	C4662,2079.532,4661.531,2080,4661,2080z M4657,2075v4h4v-4H4657z"/>
<path d="M4663,2082h-8c-0.515,0-1-0.563-1-1v-8c0-0.437,0.485-1,1-1h6c0.276,0,0.5,0.224,0.5,0.5s-0.224,0.5-0.5,0.5h-6v8h8v-6
	c0-0.276,0.224-0.5,0.5-0.5s0.5,0.224,0.5,0.5v6C4664,2081.437,4663.514,2082,4663,2082z"/>
<path d="M4668.014,2074H4663c-0.453,0-1-0.446-1-1v-5c0.022-0.479,0.548-0.979,1-0.999l1-0.001l0,0c0.341,0,0.602,0.234,0.699,0.336
	c0.118,0.121,0.312,0.372,0.301,0.684v0.862l5.006-5.11c0.35-0.342,0.908-0.348,1.225-0.027l1.051,1.048
	c0.33,0.332,0.319,0.88-0.023,1.223l-5.103,4.985H4668l0,0c0.345,0,0.607,0.238,0.705,0.34c0.116,0.122,0.309,0.374,0.294,0.685
	V2073c-0.019,0.48-0.509,0.975-0.973,0.999L4668.014,2074z M4663,2068v5h5v-0.999c0-0.002-3.301,0-3.301,0l6.766-6.61l-0.854-0.854
	l-6.61,6.795V2068H4663z"/>
</svg>
