<svg xmlns="http://www.w3.org/2000/svg" width="24" height="24" viewBox="0 0 24 24"><title>not-editable-24</title><path d="M17.62,3h-.07l-.27,0a1.16,1.16,0,0,0-.59.31L11.07,9l.71.71L15,6.47,17.53,9l-3.19,3.18.71.71,5.62-5.62A1.16,1.16,0,0,0,21,6.72a2.45,2.45,0,0,0,0-.27V6.38A3.38,3.38,0,0,0,17.62,3ZM20,6.58,18.23,8.34,15.67,5.77,17.4,4l.15,0A2.4,2.4,0,0,1,20,6.38C20,6.5,20,6.54,20,6.58Z"/><path d="M8.75,17.82,6.18,15.25l3.48-3.47L9,11.07l-4.4,4.39L3,21l5.54-1.55,4.39-4.4-.71-.71ZM8,18.55l-3.57,1,1-3.57,0,0L8,18.53Z"/><rect x="11.5" y="1.77" width="1" height="20.46" transform="translate(-4.97 12) rotate(-45)"/></svg>