<svg xmlns="http://www.w3.org/2000/svg" width="24" height="24" viewBox="0 0 24 24"><path d="M10.33,5.29,11,5.06V3h2V5.06l.67.23A5,5,0,0,1,17,10v4.88l.58.58a5.48,5.48,0,0,1,2,2L21,18.87a5.47,5.47,0,0,0-3-4.33V10a6,6,0,0,0-4-5.65V2H10V4.35A5.91,5.91,0,0,0,7.83,5.71l.71.71A5,5,0,0,1,10.33,5.29Z"/><path d="M4.17,18a5.1,5.1,0,0,1,2.34-2.6L7,15.1V10a4.43,4.43,0,0,1,.07-.81l-.83-.83A5.91,5.91,0,0,0,6,10v4.54A5.4,5.4,0,0,0,3,19H9a3,3,0,0,0,6,0h1.88l-1-1ZM12,21a2,2,0,0,1-2-2h4A2,2,0,0,1,12,21Z"/><path d="M21,18.89l-.11.11H21S21,18.93,21,18.89Z"/><rect x="11.5" y="1.77" width="1" height="20.46" transform="translate(-4.97 12) rotate(-45)"/></svg>