<?xml version="1.0" encoding="utf-8"?>
<!-- Generator: Adobe Illustrator 16.0.4, SVG Export Plug-In . SVG Version: 6.00 Build 0)  -->
<!DOCTYPE svg PUBLIC "-//W3C//DTD SVG 1.1//EN" "http://www.w3.org/Graphics/SVG/1.1/DTD/svg11.dtd">
<svg version="1.1" id="_x32_4x24_OUTLINED" xmlns="http://www.w3.org/2000/svg" xmlns:xlink="http://www.w3.org/1999/xlink" x="0px"
	 y="0px" width="24px" height="24px" viewBox="4651 2819 24 24" enable-background="new 4651 2819 24 24" xml:space="preserve">
<g>
	<path d="M4665.705,2839.273c0.01-0.021,0.018-0.037,0.028-0.06l-0.908-0.418c-0.206,0.448-0.374,0.762-0.48,0.949
		c-0.402,0.096-0.858,0.213-1.345,0.255v-2.136l-0.98-0.008L4662,2840c-0.641-0.001-1.256-0.086-1.853-0.229
		c-0.089-0.15-0.906-1.569-1.508-3.771h1.101v-1h-1.342c-0.195-0.909-0.359-1.922-0.398-3h2.5v-1h-2.5
		c0.025-0.936,0.166-1.994,0.389-3h3.236v1.1h1v-1.1h6.377c0.215,0.38,0.404,0.857,0.557,1.276c0.085,0.236,0.16,0.479,0.225,0.727
		l0.968-0.252c-0.071-0.276-0.156-0.547-0.252-0.814c-1.287-3.551-4.714-5.937-8.499-5.937c-4.973,0-9,4.037-9,9s4.027,9,9,9
		c3.939,0,5.812-1.716,6.568-2.738l-0.805-0.594C4667.414,2838.141,4666.768,2838.78,4665.705,2839.273z M4657.383,2835h-2.793
		c-0.377-0.928-0.59-1.939-0.59-3h3.036C4657.073,2833.072,4657.197,2834.082,4657.383,2835z M4657.027,2831h-2.959
		c0.133-1.05,0.431-2.116,0.932-3h2.361C4657.153,2829.006,4657.049,2830.062,4657.027,2831z M4658.631,2827
		c0.266-0.903,0.64-1.744,1.121-2.67c0.713-0.21,1.092-0.327,1.873-0.329V2827H4658.631z M4662.625,2827v-2.923
		c0.562,0.069,1.109,0.194,1.635,0.377c0.443,0.849,0.809,1.646,1.086,2.546H4662.625z M4668.334,2827h-1.95
		c-0.191-0.665-0.49-1.375-0.769-2.017C4666.487,2825.492,4667.707,2826.201,4668.334,2827z M4658.391,2824.875
		c-0.326,0.743-0.59,1.398-0.789,2.125h-1.893C4656.429,2826.083,4657.342,2825.408,4658.391,2824.875z M4655,2836h2.615
		c0.369,1.427,0.829,2.568,1.181,3.32C4657.234,2838.633,4655.85,2837.463,4655,2836z"/>
</g>
<path d="M4672.578,2832.694l-0.123-0.169c-0.583-0.67-2.721-2.854-5.719-2.854c-1.991,0-3.896,0.972-5.666,2.89l-0.133,0.147v0.028
	c-0.165,0.252-0.254,0.553-0.254,0.868c0,0.394,0.138,0.763,0.375,1.025c1.054,1.251,3.098,2.717,5.678,2.729
	c0,0,3.409,0.307,5.733-2.857l0.108-0.14v-0.01c0.154-0.239,0.238-0.527,0.238-0.828
	C4672.816,2833.221,4672.732,2832.932,4672.578,2832.694z M4671.701,2833.858l-0.123,0.145v0.012c-1.69,2.058-3.203,2.34-4.842,2.34
	c-2.264,0-4.175-1.491-4.924-2.382c-0.082-0.09-0.129-0.224-0.129-0.367c0-0.143,0.047-0.277,0.13-0.371l0.038-0.046
	c1.559-1.67,3.201-2.517,4.885-2.517c1.971,0,3.768,1.2,4.842,2.372l0.128,0.151c0.069,0.077,0.11,0.2,0.11,0.33
	C4671.816,2833.654,4671.774,2833.776,4671.701,2833.858z"/>
<circle cx="4667" cy="2833.5" r="1.75"/>
</svg>
