<svg xmlns="http://www.w3.org/2000/svg" width="24" height="24" viewBox="0 0 24 24"><title>online-viewers-24</title><path d="M8.75,18.67A15.37,15.37,0,0,1,7.63,16H9.37c.24-.26.57-.61,1-1h-3A17,17,0,0,1,7,12h3.62v2.75c.3-.27.63-.55,1-.83V12h3.62c0,.06,0,.13,0,.19a3.84,3.84,0,0,1,.76-.08l.22,0V12h3A8.75,8.75,0,0,1,19,13a7.17,7.17,0,0,1,.75.46,8,8,0,0,0,.25-2A8.76,8.76,0,0,0,11,3a8.76,8.76,0,0,0-9,8.5A8.76,8.76,0,0,0,11,20h0c-.43-.37-.81-.73-1.12-1.05A10,10,0,0,1,8.75,18.67ZM19.18,11h-3a16.78,16.78,0,0,0-.33-3h2.36A8.22,8.22,0,0,1,19.18,11ZM17.54,7H15.65a14.44,14.44,0,0,0-.79-2.12A7.72,7.72,0,0,1,17.54,7ZM11.63,4a5.53,5.53,0,0,1,1.87.33A15.37,15.37,0,0,1,14.62,7h-3Zm3.23,4a16.14,16.14,0,0,1,.39,3H11.63V8Zm-4.24,3H7a17,17,0,0,1,.39-3h3.24ZM8.75,4.33A5.53,5.53,0,0,1,10.62,4V7h-3A15.37,15.37,0,0,1,8.75,4.33Zm-1.36.55A14.44,14.44,0,0,0,6.6,7H4.71A7.72,7.72,0,0,1,7.39,4.88ZM4,8H6.36A16.78,16.78,0,0,0,6,11h-3A8.22,8.22,0,0,1,4,8Zm0,7a8.22,8.22,0,0,1-.93-3H6a16.78,16.78,0,0,0,.33,3Zm.71,1H6.6a14.44,14.44,0,0,0,.79,2.12A7.72,7.72,0,0,1,4.71,16Z"/><path d="M16,13.36c-2.82,0-6,3.82-6,3.82S13.05,21,16,21s6-3.81,6-3.81S18.89,13.36,16,13.36Zm0,5.82a2,2,0,1,1,2-2A2,2,0,0,1,16,19.18Z"/><circle cx="16" cy="17.18" r="1"/></svg>