<?xml version="1.0" encoding="utf-8"?>
<!-- Generator: Adobe Illustrator 16.0.4, SVG Export Plug-In . SVG Version: 6.00 Build 0)  -->
<!DOCTYPE svg PUBLIC "-//W3C//DTD SVG 1.1//EN" "http://www.w3.org/Graphics/SVG/1.1/DTD/svg11.dtd">
<svg version="1.1" id="_x32_4x24_OUTLINED" xmlns="http://www.w3.org/2000/svg" xmlns:xlink="http://www.w3.org/1999/xlink" x="0px"
	 y="0px" width="24px" height="24px" viewBox="4651 1185 24 24" enable-background="new 4651 1185 24 24" xml:space="preserve">
<path d="M4661,1205h-5c-0.532,0-1-0.468-1-1v-14c0-0.532,0.468-1,1-1h5c0.531,0,1,0.468,1,1v14
	C4662,1204.532,4661.531,1205,4661,1205z M4656,1190v14h5v-14H4656z"/>
<path d="M4670,1205h-5c-0.532,0-1-0.468-1-1v-14c0-0.532,0.468-1,1-1h5c0.531,0,1,0.468,1,1v14
	C4671,1204.532,4670.531,1205,4670,1205z M4665,1190v14h5v-14H4665z"/>
</svg>
