<svg xmlns="http://www.w3.org/2000/svg" width="24" height="24" viewBox="0 0 24 24"><title>permission-group-24</title><path d="M9.9,11.67a4.34,4.34,0,0,0,2-3.74A3.65,3.65,0,0,0,8.51,4.09,3.62,3.62,0,0,0,5,7.83v.09a4,4,0,0,0,2,3.72C4.92,12.1,4,13.75,4,17V21h9V17.3C13,14,12.08,12.18,9.9,11.67ZM6,7.92A2.61,2.61,0,0,1,8.4,5.1h.15a2.66,2.66,0,0,1,2.39,2.84c0,1.46-1,3.09-2.39,3.09A2.86,2.86,0,0,1,6,7.92ZM5,20V17c.08-3.6,1.22-4.37,3.1-4.45h.65c2,.09,3.25.94,3.25,4.84V20Z"/><path d="M17.5,13.16A3.66,3.66,0,0,0,19,10.09a3,3,0,0,0-2.71-3.26h-.11a3.15,3.15,0,0,0-3.1,3.2v.07a3.52,3.52,0,0,0,1.63,3.05,3,3,0,0,0-1.07.52l.62.78A2.59,2.59,0,0,1,15.81,14h.54C18,14,19,14.72,19,17.89V20H14v1h6V17.89C20,15.14,19.21,13.65,17.5,13.16Zm-3.42-3.07a2.15,2.15,0,0,1,2-2.27h.09A2.06,2.06,0,0,1,18,10.09c0,1.17-.74,2.47-1.82,2.47a2.27,2.27,0,0,1-2.1-2.45Z"/></svg>