<svg id="assets" xmlns="http://www.w3.org/2000/svg" width="24" height="24" viewBox="0 0 24 24">
  <title>pin-24</title>
  <path d="M14.23,15l3.09-4.12.15.15a2.65,2.65,0,0,0,3.75,0l.25-.25a1,1,0,0,0,0-1.41L15.1,3a1,1,0,0,0-1.41,0l-.25.25a2.65,2.65,0,0,0,0,3.75l.15.15L9.47,10.27a4,4,0,0,0-5,.53l0,0a1,1,0,0,0,0,1.41l2.83,2.83L5.55,16.83,3.08,19.3l-.35,2.47,2.47-.35,2.47-2.47,1.77-1.77L12.27,20a1,1,0,0,0,1.41,0l0,0A4,4,0,0,0,14.23,15ZM4.73,20.48l-.82.12L4,19.77l4-4,.71.71ZM13,19.3,5.2,11.53a3,3,0,0,1,3.73-.42l.59.38,5.59-4.2-1-1a1.65,1.65,0,0,1,0-2.34l.25-.25,6.36,6.36-.25.25a1.65,1.65,0,0,1-2.34,0l-1-1L13,15l.38.59a3,3,0,0,1-.39,3.7Z"/>
</svg>
