<svg xmlns="http://www.w3.org/2000/svg" width="24" height="24" viewBox="0 0 24 24"><title>placeholder-24</title><path d="M20.11,6.17l-.81.59a9.07,9.07,0,0,1,1.33,2.7l1-.28A9.81,9.81,0,0,0,20.11,6.17Z"/><path d="M15.45,3.69A9,9,0,0,1,18,5.3l.66-.75a9.84,9.84,0,0,0-2.81-1.78Z"/><path d="M19.94,16.24a9.08,9.08,0,0,1-1.85,2.37l.68.74a10.13,10.13,0,0,0,2.05-2.64Z"/><path d="M2.09,10.75l1,.13A8.81,8.81,0,0,1,4,8l-.9-.45A10,10,0,0,0,2.09,10.75Z"/><path d="M21,12a8.63,8.63,0,0,1-.34,2.42l1,.26A10.1,10.1,0,0,0,22,12v-.68l-1,.08Z"/><path d="M9,3.52a8.6,8.6,0,0,1,4.55-.37l.17-1a9.75,9.75,0,0,0-5.05.41Z"/><path d="M5,6.34a8.77,8.77,0,0,1,2.25-2l-.53-.86a9.92,9.92,0,0,0-2.5,2.2Z"/><path d="M7.06,19.51a9.15,9.15,0,0,1-2.22-2.08L4,18a10,10,0,0,0,2.47,2.31Z"/><path d="M16.51,19.77a8.81,8.81,0,0,1-2.8,1.06l.19,1A9.91,9.91,0,0,0,17,20.64Z"/><path d="M3.83,15.76A9,9,0,0,1,3,12.83l-1,.09a10,10,0,0,0,.87,3.26Z"/><path d="M11.74,22V21a9,9,0,0,1-3-.59l-.36.94A9.88,9.88,0,0,0,11.74,22Z"/></svg>