<svg id="assets" xmlns="http://www.w3.org/2000/svg" width="24" height="24" viewBox="0 0 24 24">
  <title>placeholder-24</title>
  <path d="M12,2a9.81,9.81,0,0,0-3.27.55l.32.94.24-.08h.36A8.31,8.31,0,0,1,11,3.06h1V2ZM6.73,3.5A9.87,9.87,0,0,0,4.24,5.7L5,6.33A9.13,9.13,0,0,1,6.41,5h0a8,8,0,0,1,.84-.6L6.73,3.5ZM3,7.56a9.84,9.84,0,0,0-1,3.18l1,.12h0v0h0v0h0v0h0v0h0v-.07h0a.43.43,0,0,0,0-.11h0s0-.08,0-.11h0l0-.16h0v0h0v0h0v0h0l0-.16h0v0h0v0h0v0h0v0h0v0h0v0h0v0h0v0h0v0h0v0H3.4v0h0v0h0v0h0v0h0v0h0A9.22,9.22,0,0,1,3.93,8L3,7.56Zm0,5.3-1,.09a9.84,9.84,0,0,0,.85,3.21l.91-.42-.18-.43h0l0,0h0v0h0v0h0v0h0v0h0v0H3.43v0h0v0h0v0h0v0h0v0h0v0h0v0h0v0h0v0h0v0h0v0h0v0h0A7.86,7.86,0,0,1,3,12.86Zm1.8,4.6-.79.6a9.86,9.86,0,0,0,2.42,2.27L7,19.5l-.44-.31h0l0,0H6.46v0h-.4v0H6l0,0H6l0,0H6l0,0h0l0,0h0l0,0h0a10,10,0,0,1-1-1.13Zm3.95,2.95-.35.94a10.27,10.27,0,0,0,3.25.65l0-1c-.29,0-.57,0-.85-.07h-.39a8.79,8.79,0,0,1-1.69-.46Zm7.72-.62a8.87,8.87,0,0,1-2.58,1h-.22l.19,1A9.91,9.91,0,0,0,17,20.66l-.5-.87Zm3.43-3.55a8.49,8.49,0,0,1-1,1.54h0l0,0h0l0,0h0l0,0h0l0,0h0l0,0h0v0h0v0h0v0h0v0h-.11v0h0v0h0v0h0v0h0l0,0h0l0,0h0l0,0h0l0,0h0l0,0h0l0,0h0l0,0h0l.68.74a9.8,9.8,0,0,0,2-2.63l-.88-.47Zm2-4.89-1,.07v0h0v0h0v0h0v0h0v.08h0v0h0v0h0v0h0v0h0v0h0v0h0v0h0a8.51,8.51,0,0,1-.31,2l1,.26A9.85,9.85,0,0,0,22,12c0-.22,0-.43,0-.65ZM20.14,6.19l-.82.58a8.44,8.44,0,0,1,.89,1.54h0l0,0h0v0h.07v0h0a6.74,6.74,0,0,1,.3.86l1-.28a9.81,9.81,0,0,0-1.45-3ZM15.85,2.77l-.39.92h.06a8.3,8.3,0,0,1,1.07.55h0l0,0h.23l0,0h0A9.47,9.47,0,0,1,18,5.28l.67-.74a10,10,0,0,0-2.81-1.77ZM12,2V3h.35c.32,0,.64,0,1,.08h.09l.16,0,.17-1A9.91,9.91,0,0,0,12,2Z"/>
</svg>
