<svg xmlns="http://www.w3.org/2000/svg" width="24" height="24" viewBox="0 0 24 24"><path d="M15,15l-2.14-3L15,9v3l7-5L15,2V5a4.41,4.41,0,0,0-3.44,1.73L10.33,8.45l-.51-.72A4.36,4.36,0,0,0,6.35,6H2v4H6.35l1.43,2L6.35,14H2v4H6.35a4.36,4.36,0,0,0,3.47-1.73l.51-.72,1.23,1.72A4.41,4.41,0,0,0,15,19v3l7-5-7-5ZM7.16,9.42A1,1,0,0,0,6.35,9H3V7H6.35A3.35,3.35,0,0,1,9,8.31l.71,1L8.4,11.14ZM9,15.69A3.35,3.35,0,0,1,6.35,17H3V15H6.35a1,1,0,0,0,.81-.42l5.22-7.26A3.33,3.33,0,0,1,15,6h1V3.94L20.28,7,16,10.06V8H15a1,1,0,0,0-.81.42Zm7-1.75L20.28,17,16,20.06V18H15a3.33,3.33,0,0,1-2.66-1.32l-1.43-2,1.3-1.83,1.94,2.72A1,1,0,0,0,15,16h1Z"/></svg>