<?xml version="1.0" encoding="utf-8"?>
<!-- Generator: Adobe Illustrator 22.1.0, SVG Export Plug-In . SVG Version: 6.00 Build 0)  -->
<svg version="1.1" id="Layer_1" xmlns="http://www.w3.org/2000/svg" xmlns:xlink="http://www.w3.org/1999/xlink" x="0px" y="0px"
	 viewBox="0 0 24 24" style="enable-background:new 0 0 24 24;" xml:space="preserve">
<style type="text/css">
	.st0{fill:#2E4258;}
</style>
<title>print-24</title>
<g id="final">
	<g id="print">
		<g id="outline">
			<path class="st0" d="M21,7h-2V3c0-0.6-0.4-1-1-1H6C5.4,2,5,2.4,5,3v4H3C2.4,7,2,7.4,2,8v8c0,0.6,0.4,1,1,1h3v4c0,0.6,0.5,1,1.1,1
				h10c0.5,0,0.9-0.5,0.9-1v-4h2.9c0.6,0,1-0.4,1.1-1V8C22,7.4,21.6,7,21,7z M6,3h12v4H6V3z M17,21H7v-7h10V21z M21,16h-3v-2
				c0-0.5-0.4-1-0.9-1h-10c-0.6,0-1,0.4-1.1,1v2H3V8h18V16z"/>
			<rect x="15" y="9" class="st0" width="4" height="1"/>
			<rect x="8" y="16" class="st0" width="8" height="1"/>
			<rect x="8" y="18" class="st0" width="8" height="1"/>
		</g>
	</g>
</g>
</svg>
