<svg xmlns="http://www.w3.org/2000/svg" width="24" height="24" viewBox="0 0 24 24"><path d="M20.42,5.89l-8-3.7a1,1,0,0,0-.84,0l-8,3.7a1,1,0,0,0-.58.9V15.7a1,1,0,0,0,.47.84l8,5a1,1,0,0,0,1.06,0l8-5A1,1,0,0,0,21,15.7V6.79A1,1,0,0,0,20.42,5.89ZM20,15.56a.24.24,0,0,1-.12.21l-7.75,4.82a.24.24,0,0,1-.26,0L4.12,15.77A.24.24,0,0,1,4,15.56V7a.24.24,0,0,1,.15-.22L11.9,3.15a.23.23,0,0,1,.2,0l7.75,3.58A.24.24,0,0,1,20,7Z"/><path d="M18.93,7.4l-.39-.18a.08.08,0,0,0-.09,0l-6.45,4-6.45-4a.07.07,0,0,0-.09,0l-.39.18A.12.12,0,0,0,5,7.51V8a.11.11,0,0,0,0,.08l6.46,4v7a.11.11,0,0,0,0,.08l.4.24a.09.09,0,0,0,.12,0l.4-.24a.11.11,0,0,0,0-.08v-7l6.46-4A.14.14,0,0,0,19,8h0V7.5A.12.12,0,0,0,18.93,7.4Z"/></svg>