<svg xmlns="http://www.w3.org/2000/svg" width="24" height="24" viewBox="0 0 24 24"><path d="M12,2A10,10,0,1,0,22,12,10,10,0,0,0,12,2ZM8.12,20.11A.4.4,0,0,1,8,19.88v-2.3c0-3.63,2.51-4.17,4-4.17s4,.54,4,4.17v2.47A8.88,8.88,0,0,1,8.12,20.11ZM12,12c-1.2,0-2-1.29-2-2.5S10.8,7,12,7s2,1.29,2,2.5S13.2,12,12,12Zm4,8.05a8.91,8.91,0,0,0,1-.57v-1.9c0-2.71-1.32-4.49-3.59-5A3.7,3.7,0,0,0,15,9.5C15,7.82,13.85,6,12,6S9,7.82,9,9.5a3.7,3.7,0,0,0,1.59,3.08c-2.26.51-3.59,2.29-3.59,5v1.89a8.23,8.23,0,0,0,1.12.63A9,9,0,1,1,16,20.05Z"/></svg>