<svg xmlns="http://www.w3.org/2000/svg" width="24" height="24" viewBox="0 0 24 24">
  <title>project-management-24</title>
  <g id="final">
    <g>
      <g>
        <rect x="5" y="6" width="10" height="1" fill="#f2f7fa"/>
        <polygon points="15 6 5 6 5 7 15 7 15 6 15 6" fill="#2e4258"/>
      </g>
      <g>
        <rect x="5" y="9" width="10" height="1" fill="#f2f7fa"/>
        <polygon points="15 9 5 9 5 10 15 10 15 9 15 9" fill="#2e4258"/>
      </g>
      <path d="M16.5,11A5.5,5.5,0,1,0,22,16.5,5.5,5.5,0,0,0,16.5,11Zm0,10A4.5,4.5,0,1,1,21,16.5,4.51,4.51,0,0,1,16.5,21Z" fill="#2e4258"/>
      <polygon points="17 16 17 13 16 13 16 17 20 17 20 16 17 16" fill="#2e4258"/>
      <path d="M10.18,18H3V3H17v7a6.47,6.47,0,0,1,1,.16V3a1,1,0,0,0-1-1H3A1,1,0,0,0,2,3V18a1,1,0,0,0,1,1h7.5A6.45,6.45,0,0,1,10.18,18Z" fill="#2e4258"/>
      <g>
        <path d="M11.82,12H5v1h6A6.52,6.52,0,0,1,11.82,12Z" fill="#f2f7fa"/>
        <path d="M11.82,12H5v1h6a6.52,6.52,0,0,1,.79-1Z" fill="#2e4258"/>
      </g>
    </g>
  </g>
</svg>
