<?xml version="1.0" encoding="utf-8"?>
<!-- Generator: Adobe Illustrator 16.0.4, SVG Export Plug-In . SVG Version: 6.00 Build 0)  -->
<!DOCTYPE svg PUBLIC "-//W3C//DTD SVG 1.1//EN" "http://www.w3.org/Graphics/SVG/1.1/DTD/svg11.dtd">
<svg version="1.1" id="_x32_4x24_OUTLINED" xmlns="http://www.w3.org/2000/svg" xmlns:xlink="http://www.w3.org/1999/xlink" x="0px"
	 y="0px" width="24px" height="24px" viewBox="4651 1942 24 24" enable-background="new 4651 1942 24 24" xml:space="preserve">
<g>
	<path d="M4670,1944h-15c-0.532,0-1,0.468-1,1v18c0,0.532,0.468,1,1,1h15c0.531,0,1-0.468,1-1v-18
		C4671,1944.468,4670.531,1944,4670,1944z M4670,1963h-15v-18h15.02L4670,1963z"/>
	<path d="M4657,1952h11c0.531,0,1-0.468,1-1v-4c0-0.532-0.469-1-1-1h-11c-0.532,0-1,0.468-1,1v4
		C4656,1951.532,4656.468,1952,4657,1952z M4657,1947h11v4h-11V1947z"/>
	<path d="M4664,1957c0,0.532,0.468,1,1,1h1c0.531,0,1-0.468,1-1v-1h2v-1h-2v-1c0-0.532-0.469-1-1-1h-1c-0.532,0-1,0.468-1,1v1h-8v1
		h8V1957z M4665,1954h1v3h-1V1954z"/>
	<path d="M4658,1961c0,0.532,0.468,1,1,1h1c0.531,0,1-0.468,1-1v-1h8v-1h-8v-1c0-0.532-0.469-1-1-1h-1c-0.532,0-1,0.468-1,1v1h-2v1
		h2V1961z M4659,1958h1v3h-1V1958z"/>
</g>
</svg>
