<svg xmlns="http://www.w3.org/2000/svg" width="24" height="24" viewBox="0 0 24 24">
  <title>recommend-24</title>
  <g id="assets">
    <g id="Layer_201" data-name="Layer%201">
      <path d="M12.52,3.1a1.09,1.09,0,0,1,1.15,1.15c0,2.78-1.21,4.28-1.21,5.73h5.71a1.54,1.54,0,0,1,1.5,1.45,1.42,1.42,0,0,1-1.38,1.39.28.28,0,0,0-.31.25.28.28,0,0,0,.28.27h0a1.37,1.37,0,1,1,0,2.74.27.27,0,1,0,0,.55,1.34,1.34,0,0,1,.28.82,1.39,1.39,0,0,1-1.32,1.37c0,.08-.08.13-.12.13A2.35,2.35,0,0,1,14.74,21h-4.5A5.25,5.25,0,0,1,7.1,19.95a2,2,0,0,0-1.33-.87,1,1,0,0,1-.77-1V13.85A1,1,0,0,1,5.57,13c.45-.21,1-.53,1.14-.92.57-1.62,4.62-5.39,4.62-7.83A1.13,1.13,0,0,1,12.52,3.1m0-1a2.25,2.25,0,0,0-1.46.53,2.08,2.08,0,0,0-.72,1.61c0,1.18-1.56,3.2-2.69,4.67a12.81,12.81,0,0,0-1.85,2.78,2.24,2.24,0,0,1-.64.39A2,2,0,0,0,4,13.85v4.27a2,2,0,0,0,1.58,1.94,1,1,0,0,1,.67.44l.1.15.14.11A6.28,6.28,0,0,0,10.2,22h4.54A3.47,3.47,0,0,0,18,19.66a2.37,2.37,0,0,0,1.55-2.21,2.33,2.33,0,0,0-.1-.67,2.36,2.36,0,0,0,1.23-2.06A2.34,2.34,0,0,0,20,13.07a2.39,2.39,0,0,0,.67-1.65A2.54,2.54,0,0,0,18.17,9H13.66c.06-.19.13-.4.21-.62a11.8,11.8,0,0,0,.8-4.12A2.1,2.1,0,0,0,12.52,2.1Z"/>
    </g>
  </g>
</svg>
