<?xml version="1.0" encoding="utf-8"?>
<!-- Generator: Adobe Illustrator 16.0.4, SVG Export Plug-In . SVG Version: 6.00 Build 0)  -->
<!DOCTYPE svg PUBLIC "-//W3C//DTD SVG 1.1//EN" "http://www.w3.org/Graphics/SVG/1.1/DTD/svg11.dtd">
<svg version="1.1" id="_x32_4x24_OUTLINED" xmlns="http://www.w3.org/2000/svg" xmlns:xlink="http://www.w3.org/1999/xlink" x="0px"
	 y="0px" width="24px" height="24px" viewBox="4651 1584 24 24" enable-background="new 4651 1584 24 24" xml:space="preserve">
<path d="M4670,1606h-15c-0.532,0-1-0.468-1-1v-18c0-0.542,0.458-1,1-1h15c0.57,0,1,0.43,1,1v18
	C4671,1605.542,4670.542,1606,4670,1606z M4655,1587v18h15v-18H4655z"/>
<path d="M4656,1603v1h13v-1h-1v-7h-3v7h-1v-5h-3v5h-1v-9h-3v9H4656z M4659,1603h-1v-8h1V1603z M4663,1603h-1v-4h1V1603z M4667,1603
	h-1v-6h1V1603z"/>
<rect x="4656" y="1589" width="13" height="1"/>
<rect x="4656" y="1591" width="6" height="1"/>
</svg>
