<svg xmlns="http://www.w3.org/2000/svg" width="24" height="24" viewBox="0 0 24 24"><path d="M6,14H16v.37l1-1V13H5v5.59l-2-2V3H5v8H17V3h2v8.4a1.64,1.64,0,0,1,.73-.37L20,11V2H2V17l3,3h6.52l.28-1H6ZM6,3H16v7H6Z" fill-rule="evenodd"/><polygon points="12.86 18.93 12 22 15.07 21.14 15.08 21.14 12.86 18.92 12.86 18.93" fill-rule="evenodd"/><rect x="13.83" y="15.71" width="5.8" height="3.13" transform="translate(-7.31 16.89) rotate(-45)"/><path d="M20.12,12h-.19a.62.62,0,0,0-.32.17l-1.23,1.23,2.21,2.21,1.23-1.23a.62.62,0,0,0,.17-.32c0-.05,0-.1,0-.15v0A1.88,1.88,0,0,0,20.12,12Z" fill-rule="evenodd"/><rect x="7" y="15" width="2" height="3"/></svg>
