<?xml version="1.0" encoding="utf-8"?>
<!-- Generator: Adobe Illustrator 16.0.4, SVG Export Plug-In . SVG Version: 6.00 Build 0)  -->
<!DOCTYPE svg PUBLIC "-//W3C//DTD SVG 1.1//EN" "http://www.w3.org/Graphics/SVG/1.1/DTD/svg11.dtd">
<svg version="1.1" id="_x32_4x24_OUTLINED" xmlns="http://www.w3.org/2000/svg" xmlns:xlink="http://www.w3.org/1999/xlink" x="0px"
	 y="0px" width="24px" height="24px" viewBox="4651 3257 24 24" enable-background="new 4651 3257 24 24" xml:space="preserve">
<path d="M4670.798,3261.883c-0.033-0.248-0.245-0.433-0.495-0.433c-5.195,0-6.933-1.649-7.314-2.104
	c-0.053-0.152-0.174-0.277-0.344-0.321c-0.01-0.002-0.02,0-0.029-0.002c-0.133-0.037-0.277-0.025-0.4,0.052
	c-0.149,0.093-0.225,0.253-0.227,0.417c-0.23,0.433-1.451,1.958-7.291,1.958c-0.25,0-0.463,0.185-0.496,0.433
	c-0.016,0.117-1.591,11.454,7.979,15.905c0.04,0.03,0.081,0.046,0.128,0.063c0,0,0.006,0.002,0.009,0.004
	c0.009,0.004,0.019,0.002,0.019,0.002c0.053,0.018,0.094,0.043,0.143,0.043c0.008,0,0.015-0.004,0.022-0.005
	c0.008,0.001,0.015,0.005,0.015,0.005c0.057,0,0.098-0.025,0.143-0.039c0.009-0.004,0.018-0.002,0.026-0.006
	c0.003-0.002,0.006-0.003,0.006-0.003c0.05-0.019,0.091-0.034,0.131-0.064C4672.393,3273.337,4670.814,3262,4670.798,3261.883z
	 M4662.501,3276.825c-7.771-3.7-7.497-12.321-7.348-14.378c4.921-0.068,6.757-1.241,7.446-2.066
	c0.857,0.768,2.892,1.985,7.247,2.065C4669.996,3264.502,4670.272,3273.125,4662.501,3276.825z"/>
</svg>
