<?xml version="1.0" encoding="utf-8"?>
<!-- Generator: Adobe Illustrator 16.0.4, SVG Export Plug-In . SVG Version: 6.00 Build 0)  -->
<!DOCTYPE svg PUBLIC "-//W3C//DTD SVG 1.1//EN" "http://www.w3.org/Graphics/SVG/1.1/DTD/svg11.dtd">
<svg version="1.1" id="_x32_4x24_OUTLINED" xmlns="http://www.w3.org/2000/svg" xmlns:xlink="http://www.w3.org/1999/xlink" x="0px"
	 y="0px" width="24px" height="24px" viewBox="4651 1384 24 24" enable-background="new 4651 1384 24 24" xml:space="preserve">
<g>
	<path d="M4663.001,1406c-2.002,0-3.935-0.59-5.585-1.705l-0.496-0.334l0.417-0.429c0.888-0.911,2.48-2.517,3.171-3.031l0.214-0.162
		c0.752-0.567,1.194-0.903,2.516-0.821c0.147,0.011,0.299,0.017,0.451,0.017c1.228,0,2.208-0.408,3.085-1.283
		c1.17-1.17,1.336-3.127,1.007-4.09c-0.023-0.068-0.046-0.121-0.064-0.161c-0.055,0.06-0.135,0.143-0.19,0.201l-2.68,2.684
		l-0.417,0.011c-1.374,0-1.679-0.305-1.794-0.419c-0.413-0.414-0.438-1.439-0.415-2.014l0.008-0.195l2.563-2.563
		c0.153-0.153,0.229-0.271,0.263-0.339c-0.019-0.005-0.045-0.015-0.08-0.025c-0.304-0.09-0.673-0.137-1.068-0.137
		c-1.195,0-2.333,0.425-3.044,1.136c-1.252,1.254-1.334,2.548-1.267,3.536c0.091,1.308-0.253,1.762-0.822,2.516l-0.161,0.214
		c-0.479,0.646-1.921,2.091-3.045,3.189l-0.422,0.412l-0.338-0.482c-1.182-1.69-1.807-3.669-1.807-5.724
		c0-5.515,4.486-10.001,10.001-10.001c2.672,0,5.184,1.04,7.072,2.93c1.889,1.889,2.928,4.4,2.927,7.071
		C4673,1401.514,4668.514,1406,4663.001,1406z M4658.486,1403.787c1.367,0.795,2.916,1.213,4.515,1.213c4.962,0,8.999-4.037,8.999-9
		c0.001-2.404-0.935-4.664-2.635-6.364c-1.699-1.7-3.96-2.637-6.364-2.637c-4.963,0-9.001,4.038-9.001,9.001
		c0,1.65,0.447,3.247,1.301,4.652c1.3-1.281,2.203-2.233,2.509-2.645l0.165-0.221c0.528-0.698,0.688-0.909,0.622-1.844
		c-0.075-1.105,0.004-2.755,1.558-4.312c1.289-1.29,3.053-1.429,3.751-1.429c0.49,0,0.957,0.062,1.352,0.178
		c0.546,0.161,0.731,0.477,0.792,0.713c0.104,0.405-0.082,0.849-0.551,1.317l-2.282,2.282c-0.001,0.48,0.06,0.97,0.141,1.092
		c0.052,0.024,0.419,0.109,1.063,0.11l2.384-2.387c0.247-0.258,0.554-0.578,0.974-0.578c0.424,0,0.742,0.305,0.948,0.906
		c0.486,1.42,0.153,3.724-1.245,5.121c-1.062,1.061-2.303,1.576-3.792,1.576c-0.176,0-0.349-0.007-0.521-0.019
		c-0.915-0.066-1.117,0.072-1.843,0.622l-0.22,0.164C4660.559,1401.71,4659.299,1402.963,4658.486,1403.787z"/>
</g>
</svg>
