<svg xmlns="http://www.w3.org/2000/svg" width="24" height="24" viewBox="0 0 24 24"><title>service-24</title><path d="M12,2A10,10,0,0,0,2,12a9.88,9.88,0,0,0,1.62,5.43h0l0,.05c.18.26.36.53.56.78h0l4.92-4.92-.23-.61a4.11,4.11,0,0,1,.93-4.37,4.07,4.07,0,0,1,2.89-1.2A4.19,4.19,0,0,1,14,7.36l-2.86,2.86.14,2.4,2.44.22L16.64,10a4.11,4.11,0,0,1-5.36,5.14l-.61-.23L6.46,19.08h0l-.72.72c.25.2.52.38.78.56l.05,0h0A9.88,9.88,0,0,0,12,22,10,10,0,0,0,12,2Zm0,19a9,9,0,0,1-4.7-1.34L10.92,16a5.1,5.1,0,0,0,6-7.74l-3.5,3.51-1.12-.1-.07-1.09,3.51-3.5a5.1,5.1,0,0,0-7.74,6L4.34,16.7A9,9,0,1,1,12,21Z"/></svg>