<svg xmlns="http://www.w3.org/2000/svg" width="24" height="24" viewBox="0 0 24 24"><title>settings-24</title><path d="M12,7.67h0A4.33,4.33,0,1,0,16.33,12,4.34,4.34,0,0,0,12,7.67Zm0,7.66A3.33,3.33,0,1,1,15.33,12,3.33,3.33,0,0,1,12,15.33Z"/><path d="M22,14V10H19.05a7.22,7.22,0,0,0-.65-1.57l2.09-2.09L17.66,3.51,15.57,5.6A7.22,7.22,0,0,0,14,5V2H10V5a7.22,7.22,0,0,0-1.57.65L6.34,3.51,3.51,6.34,5.6,8.43A7.22,7.22,0,0,0,5,10H2v4H5a7.22,7.22,0,0,0,.65,1.57L3.51,17.66l2.83,2.83L8.43,18.4a7.22,7.22,0,0,0,1.57.65V22h4V19.05a7.22,7.22,0,0,0,1.57-.65l2.09,2.09,2.83-2.83L18.4,15.57A7.22,7.22,0,0,0,19.05,14Zm-2.93,3.66-1.41,1.41-1.91-1.91-.66.37a7.07,7.07,0,0,1-1.36.56l-.73.2V21H11V18.29l-.73-.2a7.07,7.07,0,0,1-1.36-.56l-.66-.37L6.34,19.07,4.93,17.66l1.91-1.92-.37-.66a6.73,6.73,0,0,1-.56-1.35L5.71,13H3V11H5.71l.2-.73a6.73,6.73,0,0,1,.56-1.35l.37-.66L4.93,6.34,6.34,4.93,8.25,6.84l.66-.37a7.07,7.07,0,0,1,1.36-.56l.73-.2V3h2V5.71l.73.2a7.07,7.07,0,0,1,1.36.56l.66.37,1.91-1.91,1.41,1.41L17.16,8.26l.37.66a6.73,6.73,0,0,1,.56,1.35l.2.73H21v2H18.29l-.2.73a6.73,6.73,0,0,1-.56,1.35l-.37.66Z"/></svg>