<?xml version="1.0" encoding="utf-8"?>
<!-- Generator: Adobe Illustrator 21.1.0, SVG Export Plug-In . SVG Version: 6.00 Build 0)  -->
<svg version="1.1" id="Layer_1" xmlns="http://www.w3.org/2000/svg" xmlns:xlink="http://www.w3.org/1999/xlink" x="0px" y="0px"
	 viewBox="0 0 24 24" style="enable-background:new 0 0 24 24;" xml:space="preserve" width="24" height="24">
<style type="text/css">
	.st0{fill:#2E4258;}
</style>
<title>share-24</title>
<g id="final">
	<path class="st0" d="M4.6,8.6c-1.6,1.1-2.1,3.2-1,4.8c1.1,1.6,3.2,2.1,4.8,1l4.6,2.8c0,0.1,0,0.2,0,0.2c0,0.7,0.2,1.4,0.6,2
		c1.1,1.6,3.3,2,4.9,0.9c1.6-1.1,2-3.3,0.9-4.9c-1.1-1.6-3.3-2-4.9-0.9L10,11.9c0-0.1,0-0.2,0-0.4c0-0.1,0-0.2,0-0.3l4.6-2.8
		C15.2,8.8,15.8,9,16.5,9C18.5,9,20,7.4,20,5.5C20,3.6,18.5,2,16.5,2S13,3.6,13,5.5c0,0.1,0,0.2,0,0.3L8.5,8.6C7.9,8.2,7.2,8,6.5,8
		C5.8,8,5.1,8.2,4.6,8.6z M4.6,13.1c-0.9-1-0.8-2.6,0.2-3.5c1-0.9,2.6-0.8,3.5,0.2l5.8-3.5c-0.4-1-0.1-2.1,0.7-2.8
		c1.1-1,2.7-0.9,3.6,0.2s0.9,2.7-0.2,3.6s-2.7,0.9-3.6-0.2l-5.8,3.5c0.2,0.5,0.2,1.1,0,1.6l5.8,3.5c0.5-0.6,1.2-0.9,1.9-0.9
		c1.4,0,2.5,1.2,2.5,2.6c0,1.4-1.2,2.5-2.6,2.5c-1.4,0-2.5-1.2-2.5-2.6c0-0.3,0-0.5,0.1-0.8l-5.8-3.5C7.9,13.7,7.2,14,6.5,14
		C5.8,14,5.1,13.7,4.6,13.1z"/>
</g>
</svg>
