<?xml version="1.0" encoding="utf-8"?>
<!-- Generator: Adobe Illustrator 16.0.4, SVG Export Plug-In . SVG Version: 6.00 Build 0)  -->
<!DOCTYPE svg PUBLIC "-//W3C//DTD SVG 1.1//EN" "http://www.w3.org/Graphics/SVG/1.1/DTD/svg11.dtd">
<svg version="1.1" id="_x32_4x24_OUTLINED" xmlns="http://www.w3.org/2000/svg" xmlns:xlink="http://www.w3.org/1999/xlink" x="0px"
	 y="0px" width="24px" height="24px" viewBox="4651 1066 24 24" enable-background="new 4651 1066 24 24" xml:space="preserve">
<path d="M4669,1088c-0.445,0-1.006-0.3-1.006-1c-0.215-8.5-5.708-14-13.994-14c-0.65,0-1-0.516-1-1v-2c0-0.484,0.35-1,1-1
	c11.4,0,17.994,7.062,17.994,17.992c0,0.654-0.514,1.008-0.996,1.008H4669z M4668.995,1087H4671c0.114-10.429-6.571-17-17-17v2
	c8.742,0,14.768,6.023,14.994,14.987L4668.995,1087z"/>
<path d="M4665.087,1088h-2.148c-0.396,0-0.88-0.255-0.946-0.988c-0.195-5.101-3.107-8.012-7.992-8.012c-0.65,0-1-0.516-1-1v-2.001
	c0-0.484,0.35-1.015,1-0.999c8.571,0.2,11.99,6.086,11.99,11.982c0,0.394-0.128,0.632-0.253,0.761
	C4665.574,1087.914,4665.343,1088,4665.087,1088z M4662.999,1087h1.983c0-5.8-3.868-11-10.982-11v2c5.416,0,8.776,3.345,8.99,8.947
	C4662.992,1086.969,4662.995,1086.986,4662.999,1087z"/>
<path d="M4656.5,1087c-1.379,0-2.5-1.121-2.5-2.5s1.121-2.5,2.5-2.5s2.5,1.121,2.5,2.5S4657.879,1087,4656.5,1087z M4656.5,1083
	c-0.827,0-1.5,0.673-1.5,1.5s0.673,1.5,1.5,1.5s1.5-0.673,1.5-1.5S4657.327,1083,4656.5,1083z"/>
</svg>
