<svg xmlns="http://www.w3.org/2000/svg" width="24" height="24" viewBox="0 0 24 24">
  <title>social-twitter-24</title>
  <g id="assets">
    <g id="Layer_201" data-name="Layer%201">
      <path d="M22,5.93a8.32,8.32,0,0,1-2.36.63,4.06,4.06,0,0,0,1.8-2.23,8.31,8.31,0,0,1-2.61,1,4.13,4.13,0,0,0-3-1.27,4.07,4.07,0,0,0-4.1,4,4,4,0,0,0,.11.92A11.72,11.72,0,0,1,3.39,4.78a4,4,0,0,0-.56,2,4,4,0,0,0,1.83,3.35,4.14,4.14,0,0,1-1.86-.5V9.7a4.05,4.05,0,0,0,3.29,4,4.19,4.19,0,0,1-1.85.07,4.1,4.1,0,0,0,3.83,2.8A8.33,8.33,0,0,1,3,18.25a8.47,8.47,0,0,1-1-.06A11.77,11.77,0,0,0,8.29,20,11.48,11.48,0,0,0,20,8.54q0-.26,0-.52A8.26,8.26,0,0,0,22,5.93Z"/>
    </g>
  </g>
</svg>
