<svg xmlns="http://www.w3.org/2000/svg" width="24" height="24" viewBox="0 0 24 24"><title>social-instagram-24</title><path d="M12,3.8c2.67,0,3,0,4,.06a5.66,5.66,0,0,1,1.86.34,3.35,3.35,0,0,1,1.9,1.9A5.41,5.41,0,0,1,20.14,8c0,1.05.06,1.37.06,4s0,3-.06,4a5.66,5.66,0,0,1-.34,1.86,3.35,3.35,0,0,1-1.9,1.9A5.66,5.66,0,0,1,16,20.1c-1,0-1.37.06-4,.06s-3,0-4-.06a5.55,5.55,0,0,1-1.94-.3,3.35,3.35,0,0,1-1.9-1.9A5.6,5.6,0,0,1,3.86,16c0-1.05-.06-1.37-.06-4s0-3,.06-4A5.6,5.6,0,0,1,4.2,6.1,3.35,3.35,0,0,1,6.1,4.2,5.6,5.6,0,0,1,8,3.86c1.05,0,1.37-.06,4-.06M12,2c-2.72,0-3.06,0-4.12.06a7.22,7.22,0,0,0-2.43.46A5.1,5.1,0,0,0,2.52,5.45a7.22,7.22,0,0,0-.46,2.43C2,8.94,2,9.28,2,12s0,3.06.06,4.12a7.22,7.22,0,0,0,.46,2.43,5.12,5.12,0,0,0,2.92,2.92,7.22,7.22,0,0,0,2.43.46C8.94,22,9.28,22,12,22s3.06,0,4.12-.06a7.22,7.22,0,0,0,2.43-.46,5.12,5.12,0,0,0,2.92-2.92,7.22,7.22,0,0,0,.46-2.43c0-1.07.06-1.41.06-4.12S22,9,21.93,7.89a7.22,7.22,0,0,0-.46-2.43,5.12,5.12,0,0,0-2.92-2.92,7.22,7.22,0,0,0-2.43-.46C15.06,2,14.72,2,12,2Z"/><path d="M12,6.86A5.14,5.14,0,1,0,17.14,12h0A5.14,5.14,0,0,0,12,6.86Zm0,8.47A3.33,3.33,0,1,1,15.33,12h0A3.33,3.33,0,0,1,12,15.33Z"/><circle cx="17.34" cy="6.66" r="1.2"/></svg>