<?xml version="1.0" encoding="utf-8"?>
<!-- Generator: Adobe Illustrator 16.0.4, SVG Export Plug-In . SVG Version: 6.00 Build 0)  -->
<!DOCTYPE svg PUBLIC "-//W3C//DTD SVG 1.1//EN" "http://www.w3.org/Graphics/SVG/1.1/DTD/svg11.dtd">
<svg version="1.1" id="_x32_4x24_OUTLINED" xmlns="http://www.w3.org/2000/svg" xmlns:xlink="http://www.w3.org/1999/xlink" x="0px"
	 y="0px" width="24px" height="24px" viewBox="4651 1544 24 24" enable-background="new 4651 1544 24 24" xml:space="preserve">
<path d="M4664,1566h-10c-0.532,0-1-0.468-1-1v-18c0-0.542,0.458-1,1-1h14c0.542,0,1,0.458,1,1v9h-1v-9h-14v18h10V1566z"/>
<path d="M4666,1549h-10c-0.542,0-1,0.458-1,1v11c0,0.532,0.468,1,1,1h7v-1h-4v-2h4v-1h-4v-2h8v-6
	C4667,1549.458,4666.542,1549,4666,1549z M4666,1552h-7v-2h7V1552z M4658,1550v2h-2v-2H4658z M4658,1553v2h-2v-2H4658z M4658,1561
	h-2v-2h2V1561z M4658,1558h-2v-2h2V1558z M4659,1555v-2h7v2H4659z"/>
<path d="M4670.156,1559.229l-1.432,0.356l0.239,1.091l3.523-0.877l-0.89-3.799l-1.084,0.271l0.299,1.372
	c-2.082-1.174-4.764-0.718-6.074,1.388c-1.343,2.162-0.721,4.967,1.38,6.273c2.099,1.306,4.894,0.611,6.237-1.553
	c0.4-0.643,0.577-1.24,0.644-1.941c0.014-0.165-0.129-0.626-0.29-0.633c-0.232-0.011-0.555-0.025-0.786-0.035
	c-0.162-0.006-0.294,0.121-0.312,0.286c-0.052,0.476-0.143,1.169-0.413,1.604c-0.936,1.504-2.88,1.987-4.338,1.078
	c-1.463-0.907-1.896-2.856-0.963-4.36c0.909-1.463,2.771-1.701,4.218-0.892L4670.156,1559.229z"/>
</svg>
