<svg xmlns="http://www.w3.org/2000/svg" width="24" height="24" viewBox="0 0 24 24"><title>subscription-24</title><path d="M12,17.46c0-.16,0-.31,0-.46H8V15h4.58a5.44,5.44,0,0,1,.63-1H8V12h7v.53a5.8,5.8,0,0,1,1-.4V5H4V18h8A4.89,4.89,0,0,1,12,17.46ZM8,6h7V8H8ZM8,9h7v2H8ZM7,17H5V15H7Zm0-3H5V12H7Zm0-3H5V9H7ZM7,8H5V6H7Z" fill-rule="evenodd"/><path d="M21.94,16.82l-1.4.13a2.84,2.84,0,0,1,.05.51,3.09,3.09,0,1,1-3.09-3.12,3.05,3.05,0,0,1,1.21.26l-.84,1.46,4-.37L20.21,12l-.79,1.37a4.27,4.27,0,0,0-1.92-.45,4.66,4.66,0,1,0,4.44,3.9Z" fill-rule="evenodd"/><path d="M12.62,20H3V3H17v8.94l.5,0c.17,0,.33,0,.5,0V2H2V21H13.27A5.53,5.53,0,0,1,12.62,20Z" fill-rule="evenodd"/></svg>