<svg id="assets" xmlns="http://www.w3.org/2000/svg" width="24" height="24" viewBox="0 0 24 24">
  <title>support-24</title>
  <path d="M9.5,10A1.5,1.5,0,1,0,11,11.5,1.5,1.5,0,0,0,9.5,10Zm0,2a.5.5,0,1,1,.5-.5A.5.5,0,0,1,9.5,12Z"/>
  <path d="M14.5,10A1.5,1.5,0,1,0,16,11.5,1.5,1.5,0,0,0,14.5,10Zm0,2a.5.5,0,1,1,.5-.5A.5.5,0,0,1,14.5,12Z"/>
  <path d="M19.87,9A8.15,8.15,0,0,0,12,2,8.15,8.15,0,0,0,4.13,9,2.27,2.27,0,0,0,2,11.28v3.45A2.28,2.28,0,0,0,4.28,17H6.41a7.15,7.15,0,0,0,2.68,2.31,3,3,0,0,1,.39-.92A6.56,6.56,0,0,1,6,12.5,6.27,6.27,0,0,1,12,6a6.27,6.27,0,0,1,6,6.5,6.56,6.56,0,0,1-3.48,5.89,3,3,0,0,1,.39.92A7.15,7.15,0,0,0,17.59,17h1.17a8.06,8.06,0,0,1-4.91,3.76A2,2,0,1,0,12,22a8.93,8.93,0,0,0,7.91-5A2.27,2.27,0,0,0,22,14.72V11.28A2.27,2.27,0,0,0,19.87,9ZM12,21a1,1,0,1,1,1-1A1,1,0,0,1,12,21ZM5,16H4.28A1.28,1.28,0,0,1,3,14.72V11.28A1.28,1.28,0,0,1,4.28,10H5ZM18.19,9A7,7,0,0,0,12,5,7,7,0,0,0,5.81,9H5.14A7.15,7.15,0,0,1,12,3a7.15,7.15,0,0,1,6.86,6ZM21,14.72A1.28,1.28,0,0,1,19.72,16H19V10h.72A1.28,1.28,0,0,1,21,11.28Z"/>
</svg>
