<svg xmlns="http://www.w3.org/2000/svg" width="24" height="24" viewBox="0 0 24 24"><title>sync-24</title><path d="M22,13.81l-.22-9.6L18.91,6.28A9,9,0,0,0,3.67,8.61l3.8,1.3A5,5,0,0,1,12,7a4.94,4.94,0,0,1,3.68,1.65l-2.82,2.06ZM16.42,8A5.94,5.94,0,0,0,7,8.7L5.06,8A8,8,0,0,1,18.14,6.92l.6.72,2-1.48.15,6.24-5.92-2L17.17,8.8Z"/><path d="M16.53,14.08A5,5,0,0,1,8.3,15.35l2.84-2.08-9.09-3.1.22,9.6,2.79-2a9,9,0,0,0,15.28-2.35ZM12,20a8,8,0,0,1-6.17-2.91l-.6-.73-2,1.47-.15-6.25L9,13.6,6.82,15.2l.74.82A6,6,0,0,0,17,15.29L19,16A8,8,0,0,1,12,20Z"/></svg>