<svg xmlns="http://www.w3.org/2000/svg" width="24" height="24" viewBox="0 0 24 24"><title>unlink-24</title><path d="M13.6,16.08,9.91,19.77A4,4,0,0,1,4.23,14.1L7.34,11a5.42,5.42,0,0,0,.55,2.7l-2,2a1.72,1.72,0,0,0,2.44,2.43L12,14.46l-1-1-1,1a2,2,0,0,1-.23-.18A4,4,0,0,1,8.57,11L7.22,9.7l-.58.58L3.53,13.39a5,5,0,1,0,7.08,7.09l3.7-3.7ZM8.54,14.45A4,4,0,0,0,9,15a2.75,2.75,0,0,0,.26.22l.05,0,.25.19-2,2a.72.72,0,1,1-1-1Z"/><path d="M10.4,7.93,14,4.38a4,4,0,0,1,5.67,0,4,4,0,0,1,0,5.67l-3.11,3.11a5.42,5.42,0,0,0-.55-2.7l2-2A1.72,1.72,0,0,0,16.79,5.5a1.67,1.67,0,0,0-1.21.5L12,9.55l1,1,.9-.89c.07.06.15.11.22.18a4,4,0,0,1,1.16,3l1.46,1.47.44-.44,3.12-3.11A5,5,0,0,0,16.79,2.2a5,5,0,0,0-3.54,1.47L9.7,7.22ZM15.32,9.7a4,4,0,0,0-.46-.56,2.75,2.75,0,0,0-.26-.22l0,0-.25-.2,2-2a.74.74,0,0,1,.51-.2.73.73,0,0,1,.51.2.71.71,0,0,1,.21.51.68.68,0,0,1-.21.51Z"/><rect x="11.5" y="0.19" width="1" height="23.63" transform="translate(-4.97 12) rotate(-45)"/></svg>