<svg xmlns="http://www.w3.org/2000/svg" width="24" height="24" viewBox="0 0 24 24"><title>unpin-24</title><path d="M10.35,8.23l.7.7,2.1-2.1,4,4L15.07,13l.7.7,1.89-1.88,1.08,1.09L22,9.6,14.4,2,11.14,5.26l1.09,1.08ZM14.4,3.41,20.59,9.6l-1.85,1.84-.52-.52h0l-5-5h0l-.61-.61Z"/><polygon points="13.4 15.52 13.4 18.96 13.31 19.04 4.96 10.69 5.04 10.6 8.48 10.6 7.48 9.6 4.63 9.6 3.54 10.69 7.96 15.11 3.29 20.69 8.87 16.01 13.31 20.46 14.4 19.37 14.4 16.52 13.4 15.52"/><rect x="11.5" y="1.77" width="1" height="20.46" transform="translate(-4.97 12) rotate(-45)"/></svg>