<svg id="assets" xmlns="http://www.w3.org/2000/svg" width="24" height="24" viewBox="0 0 24 24">
  <title>up-24</title>
  <path d="M11.3,3.28l-7,6.84a1,1,0,0,0-.06,1.36L5.53,13A1,1,0,0,0,7,13.06L10,10V20a1,1,0,0,0,1,1h2a1,1,0,0,0,1-1V10l3,3.06a1,1,0,0,0,1.48,0l1.3-1.52a1,1,0,0,0-.06-1.36l-7-6.84A1,1,0,0,0,11.3,3.28Zm1,1.06,6.31,6.18a.5.5,0,0,1,0,.68l-.64.75a.5.5,0,0,1-.74,0L13,7.54v12a.5.5,0,0,1-.5.5h-1a.5.5,0,0,1-.5-.5v-12L6.68,12a.5.5,0,0,1-.74,0l-.64-.75a.5.5,0,0,1,0-.68l6.31-6.18A.5.5,0,0,1,12.35,4.33Z"/>
</svg>
