<svg xmlns="http://www.w3.org/2000/svg" width="24" height="24" viewBox="0 0 24 24">
  <title>upload-24</title>
  <g id="final">
    <g id="upload">
      <g id="outline">
        <path d="M13,16H11a1,1,0,0,1-1-1V8.53L8.53,10a.93.93,0,0,1-.65.26,1,1,0,0,1-.7-.27l-1-1.17a.92.92,0,0,1-.25-.65,1,1,0,0,1,.28-.69h0s4.12-4.38,4.64-4.9a1.38,1.38,0,0,1,2.19,0c.51.51,4.77,4.9,4.77,4.9a1,1,0,0,1,0,1.37l-1,1.14a1,1,0,0,1-.71.31,1.75,1.75,0,0,1-.68-.28L14,8.57V15A1,1,0,0,1,13,16ZM11,6.24V15h2V6.24l3.16,3,.93-1.12h0s-4.24-4.37-4.74-4.88c-.31-.31-.46-.31-.78,0C11,3.78,6.92,8.15,6.92,8.15l1,1.12Z" fill="#2e4258"/>
        <path d="M20,22H4a1,1,0,0,1-1-1V17a1,1,0,0,1,1-1H6a1,1,0,0,1,1,1v1H17V17a1,1,0,0,1,1-1h2a1,1,0,0,1,1,1v3.94A1,1,0,0,1,20,22ZM4,17v4H20V17H18v2H6V17Z" fill="#2e4258"/>
      </g>
    </g>
  </g>
</svg>
