<svg xmlns="http://www.w3.org/2000/svg" width="24" height="24" viewBox="0 0 24 24"><title>user-inactive-24</title><path d="M12.21,19H5V14.5a4.49,4.49,0,0,1,8.85-1.1,5.58,5.58,0,0,1,.87-.64,5.49,5.49,0,0,0-3.31-3.41A4.2,4.2,0,0,0,13,6,3.78,3.78,0,0,0,9.5,2,3.78,3.78,0,0,0,6,6,4.2,4.2,0,0,0,7.59,9.35,5.49,5.49,0,0,0,4,14.5V20h8.61A5.09,5.09,0,0,1,12.21,19ZM7,6A2.79,2.79,0,0,1,9.5,3,2.79,2.79,0,0,1,12,6,2.79,2.79,0,0,1,9.5,9,2.79,2.79,0,0,1,7,6Z"/><path d="M17.5,13A4.5,4.5,0,1,0,22,17.5,4.49,4.49,0,0,0,17.5,13ZM15,18V17h5v1Z"/></svg>