<?xml version="1.0" encoding="utf-8"?>
<!-- Generator: Adobe Illustrator 16.0.4, SVG Export Plug-In . SVG Version: 6.00 Build 0)  -->
<!DOCTYPE svg PUBLIC "-//W3C//DTD SVG 1.1//EN" "http://www.w3.org/Graphics/SVG/1.1/DTD/svg11.dtd">
<svg version="1.1" id="_x32_4x24_OUTLINED" xmlns="http://www.w3.org/2000/svg" xmlns:xlink="http://www.w3.org/1999/xlink" x="0px"
	 y="0px" width="24px" height="24px" viewBox="4651 1265 24 24" enable-background="new 4651 1265 24 24" xml:space="preserve">
<path d="M4662.706,1270.178c-0.259-0.255-0.672-0.262-1.157,0.039c-0.772,0.478-4.498,3.217-5.266,3.783H4654
	c-0.458,0-1,0.543-1,1.001v5c0,0.458,0.542,0.999,1,0.999h2.287c1.909,1.367,2.996,2.165,3.695,2.679
	c0.814,0.597,1.118,0.807,1.582,1.093c0.25,0.154,0.471,0.229,0.67,0.229c0.188,0,0.36-0.066,0.485-0.189
	c0.084-0.082,0.28-0.275,0.28-0.563v-13.508C4663,1270.455,4662.81,1270.275,4662.706,1270.178z M4654,1275h2v5.005l-2-0.005
	C4653.975,1279.986,4654.048,1275,4654,1275z M4662,1283.878c-0.381-0.24-0.671-0.452-1.426-1.006
	c-0.691-0.508-1.771-1.299-3.637-2.635v-5.477c0.843-0.62,4.204-3.091,5.062-3.646V1283.878z"/>
<g>
	<path d="M4667,1277.5c0-1.229-0.748-2.5-2-2.5v1c0.598,0,1,0.775,1,1.5c0,0.722-0.383,1.5-1,1.5v1
		C4666.252,1280,4667,1278.729,4667,1277.5z"/>
	<path d="M4669.5,1277.5c0-2.469-1.392-4.959-4.5-4.959v1c2.583,0,3.5,2.133,3.5,3.959c0,1.854-0.917,4.021-3.5,4.021v1
		C4668.108,1282.521,4669.5,1279.999,4669.5,1277.5z"/>
	<path d="M4665,1270v1c3.477,0,6,2.733,6,6.5c0,3.253-2.061,6.5-6,6.5v1c4.056,0,7-3.128,7-7.5
		C4672,1273.154,4669.056,1270,4665,1270z"/>
</g>
</svg>
