<svg id="assets" xmlns="http://www.w3.org/2000/svg" width="24" height="24" viewBox="0 0 24 24">
  <title>zoom-in-24</title>
  <g>
    <polygon points="18 8 16 8 16 6 14 6 14 8 12 8 12 10 14 10 14 12 16 12 16 10 18 10 18 8"/>
    <path d="M15,2A7,7,0,0,0,9.4,13.19l-.69.69,0,0A1,1,0,0,0,8,13.57H8a1,1,0,0,0-.71.3l-4.83,5a1,1,0,0,0,0,1.41l1.31,1.3a1,1,0,0,0,1.42,0l4.83-5a1,1,0,0,0,.29-.71,1,1,0,0,0-.19-.56l.71-.72A7,7,0,1,0,15,2ZM4.46,20.91,3.16,19.6l4.83-5,1.3,1.31ZM15,15a6,6,0,1,1,6-6A6,6,0,0,1,15,15Z"/>
  </g>
</svg>
