<svg width="12" height="12" viewBox="0 0 12 12" fill="none" xmlns="http://www.w3.org/2000/svg">
<path fill-rule="evenodd" clip-rule="evenodd" d="M6 12C9.31371 12 12 9.31371 12 6C12 2.68629 9.31371 0 6 0C2.68629 0 0 2.68629 0 6C0 9.31371 2.68629 12 6 12ZM5.01034 3.10041C4.84746 3.29315 4.75 3.59286 4.75 3.97221H3.25C3.25 3.36546 3.40254 2.67906 3.86466 2.13222C4.34582 1.56284 5.07325 1.25 6 1.25C6.91621 1.25 7.64588 1.54552 8.13194 2.11259C8.59995 2.65859 8.75 3.35004 8.75 3.97221C8.75 4.54593 8.55127 4.99086 8.22549 5.32627C7.94787 5.61208 7.59838 5.79075 7.36756 5.90875L7.34189 5.92188C7.06543 6.06348 6.9305 6.13877 6.84206 6.22696C6.79503 6.27385 6.75 6.33042 6.75 6.5V8.01514L5.25 8.01575V6.5C5.25 5.93 5.45497 5.49178 5.78294 5.16476C6.05323 4.89526 6.39336 4.72182 6.6187 4.60692L6.65811 4.5868C6.92817 4.44849 7.06263 4.37059 7.14951 4.28115C7.19873 4.23048 7.25 4.16238 7.25 3.97221C7.25 3.56659 7.15005 3.27193 6.99306 3.08878C6.85412 2.92668 6.58379 2.75 6 2.75C5.42675 2.75 5.15418 2.93021 5.01034 3.10041ZM7 10C7 10.5523 6.55228 11 6 11C5.44772 11 5 10.5523 5 10C5 9.44771 5.44772 9 6 9C6.55228 9 7 9.44771 7 10Z" fill="#808080"/>
</svg>
