<?xml version="1.0" encoding="UTF-8"?>
<svg width="24px" height="24px" viewBox="0 0 24 24" version="1.1" xmlns="http://www.w3.org/2000/svg" xmlns:xlink="http://www.w3.org/1999/xlink">
    <!-- Generator: Sketch 44.1 (41455) - http://www.bohemiancoding.com/sketch -->
    <title>hig-light/globalnav/sidenav/icon/assets</title>
    <desc>Created with Sketch.</desc>
    <defs></defs>
    <g id="Sidenav" stroke="none" stroke-width="1" fill="none" fill-rule="evenodd">
        <g id="hig-light/globalnav/sidenav/icon/assets" fill="#221F20">
            <g id="Page-1" transform="translate(2.327099, 4.245324)">
                <path d="M10.1898101,0.916614844 L9.67284723,8.01491201 L9.15588441,0.916614844 C9.15588441,0.916614844 7.37499587,-0.81644658 2.12744709,0.48294645 L2.12744709,12.0829042 C2.12744709,12.0829042 6.89296297,11.6014087 8.33744951,12.3725539 C8.33744951,12.3725539 8.29284669,12.9427177 9.66048741,12.950241 L9.67284723,12.950241 L9.68574443,12.950241 C11.0528478,12.9427177 11.0082449,12.3725539 11.0082449,12.3725539 C12.4527315,11.6014087 17.2182474,12.0829042 17.2182474,12.0829042 L17.2182474,0.48294645 C11.9706986,-0.81644658 10.1898101,0.916614844 10.1898101,0.916614844" id="Fill-1"></path>
                <path d="M0.91156344,2.55923464 L0.885231654,13.9028606 L0.455862327,13.4729539 L7.29245378,13.4192155 C7.34887904,13.421365 7.39186971,13.4697296 7.38972017,13.52508 C7.38649587,13.5777436 7.3435052,13.6196595 7.29245378,13.6218091 L0.455862327,14.3333047 C0.229623921,14.3440523 0.0372406687,14.1694027 0.0270303844,13.9442391 L0.0259556176,13.925968 L0.0259556176,13.9028606 L0.000161215016,2.55923464 C-0.000376168371,2.3082766 0.203292135,2.10353353 0.453712794,2.10245876 C0.705745602,2.101384 0.911026056,2.30612707 0.91156344,2.55708511 L0.91156344,2.55923464 Z" id="Fill-3"></path>
                <path d="M19.3458019,2.55923464 L19.3200075,13.9028606 L19.3200075,13.9248933 C19.3183954,14.1516691 19.1351477,14.3343794 18.9089092,14.3343794 L18.8895634,14.3333047 L12.0535094,13.6218091 C11.9970841,13.6196595 11.9540934,13.571295 11.956243,13.5159445 C11.9594673,13.463281 12.002458,13.421365 12.0535094,13.4192155 L18.8895634,13.4729539 L18.4607315,13.9028606 L18.4343997,2.55923464 C18.4333249,2.3082766 18.6375306,2.10353353 18.8879513,2.10245876 C19.1405215,2.101384 19.3452646,2.30612707 19.3458019,2.55708511 L19.3458019,2.55923464 Z" id="Fill-5"></path>
            </g>
        </g>
    </g>
</svg>