<svg xmlns="http://www.w3.org/2000/svg" width="24" height="24" viewBox="0 0 24 24">
  <title>assets-24</title>
  <g id="final">
    <g>
      <path d="M7,18H3V3H13V6h1V3a1,1,0,0,0-1-1H3A1,1,0,0,0,2,3V18a1,1,0,0,0,1,1H7Z" fill="#2e4258"/>
      <path d="M21,8V21H9V8H21m0-1H9A1,1,0,0,0,8,8V21a1,1,0,0,0,1,1H21a1,1,0,0,0,1-1V8a1,1,0,0,0-1-1Z" fill="#2e4258"/>
      <path d="M19,16v3H11V16h8m1-1H10v5H20V15Z" fill="#2e4258"/>
      <path d="M10,9v5H20V9Zm9,4H16V12H14v1H11V10h8Z" fill="#2e4258"/>
      <polygon points="7 10 5 10 5 5 11 5 11 6 12 6 12 4 4 4 4 11 7 11 7 10" fill="#2e4258"/>
    </g>
  </g>
</svg>
