<?xml version="1.0" encoding="UTF-8"?>
<svg width="24px" height="24px" viewBox="0 0 24 24" version="1.1" xmlns="http://www.w3.org/2000/svg" xmlns:xlink="http://www.w3.org/1999/xlink">
    <!-- Generator: Sketch 44.1 (41455) - http://www.bohemiancoding.com/sketch -->
    <title>hig-light/globalnav/sidenav/icon/authoring-collaboration</title>
    <desc>Created with Sketch.</desc>
    <defs></defs>
    <g id="Sidenav" stroke="none" stroke-width="1" fill="none" fill-rule="evenodd">
        <g id="hig-light/globalnav/sidenav/icon/authoring-collaboration" fill="#353636">
            <path d="M11.8869602,18.2651991 L8.38987206,18.2934055 C8.38987206,18.2934055 7.01910469,17.7413034 6.82912187,16.8142069 C5.47371833,16.8142069 4.04149565,16.8142069 4.04149565,16.8142069 C4.04149565,16.8142069 3.07720892,16.5159622 3.07720892,15.6011562 C3.07720892,14.6863503 3.74057938,14.4777646 3.74057938,14.4777646 C3.74057938,14.4777646 3.53597614,11.8519197 4.80423538,9.71088832 C5.62198931,8.33038442 7.36611245,6.81686183 8.08540394,6.6742384 C8.08540394,9.18372101 8.17345684,11.7486437 8.17345684,11.7486437 C8.17345684,11.7486437 8.18212997,12.3983628 8.82650215,12.3983628 C9.47087432,12.3983628 9.47087432,11.7570437 9.47087432,11.7570437 L9.44386372,6.14645215 C9.44386372,6.14645215 9.7401401,5.93818778 10.3438306,5.79955896 C10.947521,5.66093014 11.3261805,5.71840503 11.3261805,5.71840503 L11.3165987,12.4444303 C11.3165987,12.4444303 11.2750782,13.1405412 11.9668908,13.1405412 C12.6587035,13.1405412 12.6587035,12.4034029 12.6587035,12.4034029 L12.6587035,5.71840503 C12.6587035,5.71840503 13.0970726,5.70860538 13.6402686,5.82901997 C14.1834647,5.94943456 14.5571275,6.12496579 14.5571275,6.12496579 L14.4830342,11.5684413 C14.4830342,11.5684413 14.439999,12.4804177 15.132858,12.4804177 C15.8257171,12.4804177 15.7942461,11.8075323 15.7942461,11.8075323 L15.8257171,6.6742384 C15.8257171,6.6742384 17.617503,7.81098159 18.8894793,10.1071922 C20.1614556,12.4034029 20.1568299,14.507651 20.1568299,14.507651 C20.1568299,14.507651 20.9227911,14.7697315 20.9227911,15.6011562 C20.9227911,16.432581 20.0392883,16.7091625 20.0392883,16.7091625 L17.1166091,16.7674321 C17.1166091,16.7674321 17.1346162,17.1716055 16.6140633,17.5882463 C16.0935103,18.0048871 15.5514811,18.2522012 15.5514811,18.2522012 L11.8869602,18.2651991 Z" id="icon-construction"></path>
        </g>
    </g>
</svg>