<svg xmlns="http://www.w3.org/2000/svg" width="24" height="24" viewBox="0 0 24 24">
  <title>document-management-24</title>
  <g id="final">
    <g>
      <path d="M21,3H6A1,1,0,0,0,5,4V6H6V4H21V16H20v1h1a1,1,0,0,0,1-1V4A1,1,0,0,0,21,3Z" fill="#2e4258"/>
      <path d="M14,7H3A1,1,0,0,0,2,8V20a1,1,0,0,0,1,1H18a1,1,0,0,0,1-1V12Zm4,13H3V8H14v4h4Z" fill="#2e4258"/>
      <polygon points="9 13 9 11 13 11 13 10 4 10 4 18 11 18 11 16 10 16 10 17 5 17 5 11 8 11 8 13 9 13" fill="#2e4258"/>
      <polygon points="17 13 16 13 16 17 14 17 14 16 13 16 13 18 17 18 17 13" fill="#2e4258"/>
    </g>
  </g>
</svg>
