<svg xmlns="http://www.w3.org/2000/svg" width="24" height="24" viewBox="0 0 24 24">
  <title>edit-24</title>
  <g id="final">
    <g id="edit">
      <g id="outline">
        <path d="M19,21H4V5h7V4H4A1,1,0,0,0,3,5V21a1,1,0,0,0,1,1H19a1,1,0,0,0,1-1V10H19Z" fill="#2e4258"/>
        <path d="M20.52,4.69,18.36,2.6a1,1,0,0,0-1.41,0L8.78,11.08l-.08.08L7.55,14.7a1.22,1.22,0,0,0,0,1.06.7.7,0,0,0,.59.3,1.22,1.22,0,0,0,.59-.17l3.54-1.25,8.25-8.53A1,1,0,0,0,20.52,4.69Zm-8.78,9.08-3.2,1.13,1-3.22,6.1-6.3L17.8,7.51Zm6.75-7L16.37,4.67l1.3-1.34,2.16,2.09Z" fill="#2e4258"/>
      </g>
    </g>
  </g>
</svg>
