<?xml version="1.0" encoding="UTF-8"?>
<svg width="26px" height="26px" viewBox="0 0 26 26" version="1.1" xmlns="http://www.w3.org/2000/svg" xmlns:xlink="http://www.w3.org/1999/xlink">
    <!-- Generator: Sketch 45.1 (43504) - http://www.bohemiancoding.com/sketch -->
    <title>Wiki Stuff  Copy</title>
    <desc>Created with Sketch.</desc>
    <defs></defs>
    <g id="Styles-on-Wiki-(Working-File-Isabela)" stroke="none" stroke-width="1" fill="none" fill-rule="evenodd">
        <g id="Wiki-Stuff-" transform="translate(-4037.000000, -2363.000000)" stroke-width="1.5" stroke="#969B9F">
            <g id="Group-2" transform="translate(4039.000000, 2369.000000)">
                <g id="Page-1">
                    <path d="M18.9993,2.961 C21.0993,4.561 22.6993,6.661 22.6993,6.661 C22.6993,6.661 18.7993,13.361 11.7993,13.361 C8.0993,13.361 5.4993,11.261 5.4993,11.261 C2.5993,9.361 0.8993,6.661 0.8993,6.661 C0.8993,6.661 4.9993,0.761 11.7993,0.761 C11.7993,0.761 15.6993,0.461 18.9993,2.961 Z" id="Stroke-1"></path>
                    <path d="M11.9993,3.3614 C14.0423,3.3614 15.6993,5.0174 15.6993,7.0614 C15.6993,9.1044 14.0423,10.7604 11.9993,10.7604 C9.9563,10.7604 8.2993,9.1044 8.2993,7.0614 C8.2993,5.0174 9.9563,3.3614 11.9993,3.3614 Z" id="Stroke-3"></path>
                </g>
            </g>
        </g>
    </g>
</svg>