<svg xmlns="http://www.w3.org/2000/svg" width="24" height="24" viewBox="0 0 24 24">
  <title>flip-horizontal-24</title>
  <g id="final">
    <g id="flip-horizontal">
      <g id="outline">
        <path d="M20.57,18l-.19-.37C20.13,17.16,14,6,13.76,5.48,13.38,4.8,13,4,12.57,4c-.61,0-.49,1.14-.49,1.5V19a1,1,0,0,0,1,1h7a.89.89,0,0,0,.84-.39C21.16,19.15,20.88,18.61,20.57,18ZM13,19V6.26c2.23,4.1,6.87,12.59,6.93,12.74Z" fill="#2e4258"/>
        <path d="M10.5,4c-.42,0-.81.8-1.19,1.48C9.05,6,3,17.16,2.7,17.67L2.51,18c-.3.56-.59,1.1-.32,1.56A.89.89,0,0,0,3,20h7a1,1,0,0,0,1-1V5.5C11,5.08,11.15,4,10.5,4ZM10,19H3.17c.07-.15,4.6-8.64,6.83-12.74Z" fill="#2e4258"/>
      </g>
    </g>
  </g>
</svg>
