<svg width="18px" height="18px" viewBox="0 0 18 18" version="1.1" xmlns="http://www.w3.org/2000/svg" xmlns:xlink="http://www.w3.org/1999/xlink">
    <!-- Generator: Sketch 46 (44423) - http://www.bohemiancoding.com/sketch -->
    <desc>Created with Sketch.</desc>
    <defs></defs>
    <g id="Symbols" stroke="none" stroke-width="1" fill="none" fill-rule="evenodd" opacity="0.572877799">
        <g id="components/header/light/BIM360" transform="translate(-1153.000000, -19.000000)" fill="#151E27">
            <g id="help" transform="translate(1152.000000, 18.000000)">
                <g id="basics/icons/light/help_20">
                    <g id="Group-2" transform="translate(1.000000, 1.000000)">
                        <path d="M9,17.125 C13.4873136,17.125 17.125,13.4873136 17.125,9 C17.125,4.51268641 13.4873136,0.875 9,0.875 C4.51268641,0.875 0.875,4.51268641 0.875,9 C0.875,13.4873136 4.51268641,17.125 9,17.125 Z M9,18 C4.02943725,18 0,13.9705627 0,9 C0,4.02943725 4.02943725,0 9,0 C13.9705627,0 18,4.02943725 18,9 C18,13.9705627 13.9705627,18 9,18 Z" id="Oval-4" fill-rule="nonzero"></path>
                        <path d="M8.016,10.678 L9.654,10.678 L9.654,10.328 C9.654,8.746 12.132,8.648 12.132,6.744 L12.132,6.324 C12.132,5.05 11.026,4 9.15,4 C7.75,4 6.826,4.476 6,5.134 L6.784,6.17 C7.554,5.638 8.1,5.344 8.996,5.344 C9.85,5.344 10.34,5.792 10.34,6.478 L10.34,6.814 C10.34,8.018 8.016,8.298 8.016,10.272 L8.016,10.678 Z M8.828,14.164 C9.458,14.164 9.934,13.674 9.934,13.058 C9.934,12.456 9.458,11.952 8.828,11.952 C8.226,11.952 7.736,12.456 7.736,13.058 C7.736,13.674 8.226,14.164 8.828,14.164 Z" id="?"></path>
                    </g>
                </g>
            </g>
        </g>
    </g>
</svg>