<svg width="22px" height="22px" viewBox="0 0 22 22" version="1.1" xmlns="http://www.w3.org/2000/svg" xmlns:xlink="http://www.w3.org/1999/xlink">
    <!-- Generator: Sketch 46.2 (44496) - http://www.bohemiancoding.com/sketch -->
    <desc>Created with Sketch.</desc>
    <defs></defs>
    <g id="Symbols" stroke="none" stroke-width="1" fill="none" fill-rule="evenodd">
        <g id="hig-web-light/basic/icon/help" transform="translate(-1.000000, -1.000000)">
            <rect id="Rectangle-30" stroke="#353636" stroke-width="1.5" stroke-linejoin="round" x="2.67278041" y="2.67278041" width="18.6544392" height="18.6544392" rx="9.32721959"></rect>
            <path d="M11.0622007,13.6077749 L12.6281276,13.6077749 L12.6281276,13.2731751 C12.6281276,11.7607842 14.9970939,11.6670963 14.9970939,9.84687362 L14.9970939,9.44535391 C14.9970939,8.2274108 13.9397586,7.22361152 12.1463039,7.22361152 C10.8079049,7.22361152 9.92456155,7.67866719 9.13490613,8.30771474 L9.88440958,9.29813002 C10.620529,8.78953839 11.1425047,8.50847459 11.99908,8.50847459 C12.8155035,8.50847459 13.2839431,8.93676228 13.2839431,9.59257781 L13.2839431,9.91379357 C13.2839431,11.0648167 11.0622007,11.3324965 11.0622007,13.2196392 L11.0622007,13.6077749 Z M11.8384722,16.9403885 C12.4407517,16.9403885 12.8958074,16.4719488 12.8958074,15.8830532 C12.8958074,15.3075417 12.4407517,14.825718 11.8384722,14.825718 C11.2629606,14.825718 10.7945209,15.3075417 10.7945209,15.8830532 C10.7945209,16.4719488 11.2629606,16.9403885 11.8384722,16.9403885 Z" id="?" fill="#353636"></path>
        </g>
    </g>
</svg>