<?xml version="1.0" encoding="UTF-8"?>
<svg width="24px" height="24px" viewBox="0 0 24 24" version="1.1" xmlns="http://www.w3.org/2000/svg" xmlns:xlink="http://www.w3.org/1999/xlink">
    <!-- Generator: Sketch 44.1 (41455) - http://www.bohemiancoding.com/sketch -->
    <title>hig-light/globalnav/sidenav/icon/insight</title>
    <desc>Created with Sketch.</desc>
    <defs></defs>
    <g id="Sidenav" stroke="none" stroke-width="1" fill="none" fill-rule="evenodd">
        <g id="hig-light/globalnav/sidenav/icon/insight" fill="#353636">
            <path d="M14.3589603,13.9949825 C14.6335263,14.4299634 14.7869011,14.9378602 14.7869011,15.4739176 C14.7869011,17.0111855 13.5367709,18.2623213 12.0000059,18.2623213 C10.4627381,18.2623213 9.21311082,17.0111855 9.21311082,15.4739176 C9.21311082,14.9388659 9.36648559,14.4299634 9.64054872,13.9949825 L4.60080441,13.9949825 C4.43234359,13.3633801 4.34082159,12.7005999 4.34082159,12.0166993 C4.34082159,7.7936128 7.7764166,4.35801779 12.0000059,4.35801779 C16.2230924,4.35801779 19.6586874,7.7936128 19.6586874,12.0166993 C19.6586874,12.7005999 19.5671654,13.3633801 19.3987046,13.9949825 L14.3589603,13.9949825 Z M3.16231471,12 C3.16231471,16.8734925 7.12699853,20.8376853 12,20.8376853 C16.8725105,20.8376853 20.8376853,16.8734925 20.8376853,12 C20.8376853,7.12699853 16.8725105,3.16231471 12,3.16231471 C7.12699853,3.16231471 3.16231471,7.12699853 3.16231471,12 Z" id="Fill-1"></path>
            <path d="M13.412677,14.5473155 L14.6882496,10.3911485 C14.7785903,10.1171803 14.7108348,9.82651865 14.4442312,9.6929714 C14.4309747,9.68757059 14.4182092,9.68069684 14.4049526,9.67480505 C14.1309844,9.56286104 13.91888,9.73715983 13.7794409,10.0180018 L11.7610118,13.8682867 C11.1983458,13.9625554 10.6955797,14.3327562 10.462854,14.898368 C10.1054188,15.7669161 10.519808,16.7626286 11.388847,17.119082 C12.2573951,17.4770082 13.2526167,17.061637 13.6100519,16.1930889 C13.8427777,15.6269861 13.7470361,15.0093301 13.412677,14.5473155" id="Fill-4"></path>
            <path d="M12,7.60866031 C11.718667,7.60866031 11.4903601,7.38035344 11.4903601,7.09852947 L11.4903601,5.56911893 C11.4903601,5.28680399 11.718667,5.0589881 12,5.0589881 C12.281333,5.0589881 12.5096399,5.28680399 12.5096399,5.56911893 L12.5096399,7.09852947 C12.5096399,7.38035344 12.281333,7.60866031 12,7.60866031" id="Fill-6"></path>
            <path d="M15.6722001,9.26273792 C15.5415987,9.26273792 15.4114883,9.21363966 15.3118189,9.11298825 C15.11248,8.91463131 15.11248,8.59254678 15.3118189,8.39320788 L16.3929624,7.31108242 C16.5923013,7.11272548 16.9148768,7.11272548 17.1142157,7.31108242 C17.3135546,7.5109123 17.3135546,7.83299683 17.1142157,8.03135377 L16.0325812,9.11298825 C15.9329118,9.21363966 15.8028014,9.26273792 15.6722001,9.26273792" id="Fill-8"></path>
            <path d="M8.25440157,9.26273792 C8.12380023,9.26273792 7.99368986,9.21363966 7.89402041,9.11298825 L6.81238593,8.03135377 C6.61304702,7.83299683 6.61304702,7.5109123 6.81238593,7.31108242 C7.01172483,7.11272548 7.33430034,7.11272548 7.53363924,7.31108242 L8.61478274,8.39320788 C8.81412164,8.59254678 8.81412164,8.91463131 8.61478274,9.11298825 C8.51511329,9.21363966 8.38500292,9.26273792 8.25440157,9.26273792" id="Fill-10"></path>
        </g>
    </g>
</svg>