<?xml version="1.0" encoding="UTF-8"?>
<svg width="24px" height="24px" viewBox="0 0 24 24" version="1.1" xmlns="http://www.w3.org/2000/svg" xmlns:xlink="http://www.w3.org/1999/xlink">
    <!-- Generator: Sketch 44.1 (41455) - http://www.bohemiancoding.com/sketch -->
    <title>hig-light/globalnav/sidenav/icon/locations</title>
    <desc>Created with Sketch.</desc>
    <defs></defs>
    <g id="Sidenav" stroke="none" stroke-width="1" fill="none" fill-rule="evenodd">
        <g id="hig-light/globalnav/sidenav/icon/locations" fill="#353636">
            <path d="M11.6005253,11.8263289 C10.0543774,11.8263289 8.80026267,10.5722141 8.80026267,9.02606618 C8.80026267,7.47991824 10.0543774,6.22682105 11.6005253,6.22682105 C13.1471821,6.22682105 14.3997705,7.47991824 14.3997705,9.02606618 C14.3997705,10.5722141 13.1471821,11.8263289 11.6005253,11.8263289 M11.5995078,3.42655837 C8.50721193,3.42655837 6,5.9337703 6,9.02606618 C6,10.0476736 6.27829645,11.0016149 6.75552145,11.8263289 L10.7106306,19.8279467 C11.2012629,20.8205496 11.9960273,20.8233293 12.4888605,19.8279467 L16.4506169,11.8263289 C16.9227542,11.0016149 17.1990156,10.0476736 17.1990156,9.02606618 C17.1990156,5.9337703 14.6928212,3.42655837 11.5995078,3.42655837 Z" id="icon-locations"></path>
        </g>
    </g>
</svg>