<svg xmlns="http://www.w3.org/2000/svg" width="24" height="24" viewBox="0 0 24 24">
  <title>permission-individual-24</title>
  <g id="final">
    <g id="permission-individual">
      <path id="outline" d="M13.34,10.54A3.88,3.88,0,0,0,15,7c0-2.43-1.29-4-3.35-4A3.69,3.69,0,0,0,8,7a3.93,3.93,0,0,0,1.88,3.54C7.35,11.17,6,13.33,6,17v3.05A.93.93,0,0,0,7,21h9.13a.83.83,0,0,0,.88-.92V17C17,13.29,15.87,11.17,13.34,10.54ZM9,7a2.72,2.72,0,0,1,2.61-3C13.4,4,14,5.55,14,7s-.59,3-2.35,3A2.72,2.72,0,0,1,9,7Zm7.09,13.08H7V17c0-5.11,2.67-5.71,4.64-5.71,3.12,0,4.47,1.76,4.47,5.71Z" fill="#2e4258"/>
    </g>
  </g>
</svg>
