<svg id="assets" xmlns="http://www.w3.org/2000/svg" width="16" height="16" viewBox="0 0 16 16">
  <title>permission-group-16</title>
  <g>
    <path d="M3.72,7.49C1.39,7.6.07,8.84,0,12.19V15a1,1,0,0,0,1,1H8V12.5c0-3.64-1.2-4.9-3.63-5H3.72Z"/>
    <path d="M4,7C5.62,7,6.86,5.24,6.86,3.61A3.08,3.08,0,0,0,4,.44,2.93,2.93,0,0,0,1.14,3.61C1.14,5.58,2.38,7,4,7Z"/>
    <path d="M11.33,9a2.74,2.74,0,0,0-2.64,1.57S9,13,9,14.1C9,14.46,9,16,9,16h4.87a1,1,0,0,0,1-1V13.1c0-3-1-4.06-3-4.14h-.53Z"/>
    <path d="M11.56,8.57c1.34,0,2.37-1.48,2.37-2.83a2.55,2.55,0,0,0-2.37-2.62A2.43,2.43,0,0,0,9.19,5.75,2.56,2.56,0,0,0,11.56,8.57Z"/>
  </g>
</svg>
