<svg xmlns="http://www.w3.org/2000/svg" width="24" height="24" viewBox="0 0 24 24">
  <title>photos-24</title>
  <g id="final">
    <g>
      <path d="M20,3H6A1,1,0,0,0,5,4V5H6V4H20V18H19v1h1a1,1,0,0,0,1-1V4A1,1,0,0,0,20,3Z" fill="#2e4258"/>
      <path d="M17,6H3A1,1,0,0,0,2,7V21a1,1,0,0,0,1,1H17a1,1,0,0,0,1-1V7A1,1,0,0,0,17,6Zm0,15H3V7H17Z" fill="#2e4258"/>
      <path d="M13,9a2,2,0,1,0,2,2A2,2,0,0,0,13,9Zm0,3a1,1,0,1,1,1-1A1,1,0,0,1,13,12Z" fill="#2e4258"/>
      <polygon points="17 19.07 17 18 14 15 11.51 17.48 7 13 3 17 3 18.09 7 14 14.03 21 15.04 21 12.01 17.98 14 16 17 19.07" fill="#2e4258"/>
    </g>
  </g>
</svg>
