<?xml version="1.0" encoding="UTF-8"?>
<svg width="24px" height="24px" viewBox="0 0 24 24" version="1.1" xmlns="http://www.w3.org/2000/svg" xmlns:xlink="http://www.w3.org/1999/xlink">
    <!-- Generator: Sketch 44.1 (41455) - http://www.bohemiancoding.com/sketch -->
    <title>hig-light/globalnav/sidenav/icon/placeholder</title>
    <desc>Created with Sketch.</desc>
    <defs>
        <polygon id="path-1" points="8.890075 0 17.78 0 17.78 18 8.890075 18 0.00015 18 0.00015 0"></polygon>
    </defs>
    <g id="Sidenav" stroke="none" stroke-width="1" fill="none" fill-rule="evenodd">
        <g id="hig-light/globalnav/sidenav/icon/placeholder">
            <g id="Page-1" transform="translate(3.000000, 3.000000)">
                <mask id="mask-2" fill="white">
                    <use xlink:href="#path-1"></use>
                </mask>
                <g id="Clip-2"></g>
                <path d="M8.88965885,0.159283711 C8.88965885,0.159283711 0.15748691,4.99810243 0.15748691,10.308426 C0.15748691,14.982218 4.72617263,16.5435867 7.75313566,14.1963766 C7.72808696,14.2366509 7.69419755,14.2739784 7.67700726,14.3162174 L6.50954156,17.1540873 C6.35335558,17.5317824 6.56062126,17.8407163 6.96925881,17.8407163 L10.8110412,17.8407163 C11.2186964,17.8407163 11.4259621,17.5317824 11.2707584,17.1540873 L10.1032927,14.3162174 C10.0861025,14.2739784 10.052213,14.2366509 10.0271643,14.1963766 C13.0541274,16.5435867 17.6228131,14.982218 17.6228131,10.308426 C17.6228131,4.99810243 8.88965885,0.159283711 8.88965885,0.159283711" id="Fill-1" fill="#221F20" mask="url(#mask-2)"></path>
            </g>
        </g>
    </g>
</svg>