<?xml version="1.0" encoding="UTF-8"?>
<svg width="24px" height="24px" viewBox="0 0 24 24" version="1.1" xmlns="http://www.w3.org/2000/svg" xmlns:xlink="http://www.w3.org/1999/xlink">
    <!-- Generator: Sketch 44.1 (41455) - http://www.bohemiancoding.com/sketch -->
    <title>hig-light/globalnav/sidenav/icon/project-admin</title>
    <desc>Created with Sketch.</desc>
    <defs></defs>
    <g id="Sidenav" stroke="none" stroke-width="1" fill="none" fill-rule="evenodd">
        <g id="hig-light/globalnav/sidenav/icon/project-admin" fill-rule="nonzero" fill="#353636">
            <path d="M18.9340432,10.6494583 C18.6354603,10.6064914 18.3179428,10.3377668 18.2254549,10.0522923 L17.7819499,8.97375239 C17.642854,8.70794072 17.6756253,8.29283758 17.854775,8.05324295 L18.5757437,7.09340795 C18.7548934,6.85308507 18.7410567,6.47148148 18.5415159,6.24718012 L17.7520916,5.45629939 C17.527062,5.25821508 17.1461867,5.2429218 16.9044073,5.42352809 L15.9460288,6.14304021 C15.7057059,6.32364649 15.2920593,6.3564178 15.0255194,6.21659358 L13.9477077,5.77308863 C13.6600485,5.68132899 13.3913238,5.36381149 13.3505417,5.06595678 L13.180131,3.87963567 C13.1386207,3.58178095 12.8589722,3.31305628 12.5611175,3.28101323 C12.5611175,3.28101323 12.3754135,3.2620787 12.0003641,3.2620787 C11.626043,3.2620787 11.440339,3.28101323 11.440339,3.28101323 C11.141756,3.31305628 10.8621076,3.58178095 10.819869,3.87963567 L10.6501865,5.06595678 C10.6079479,5.36381149 10.3392233,5.68132899 10.0530206,5.77308863 L8.97520889,6.21659358 C8.70866898,6.35568954 8.29502233,6.32364649 8.05469945,6.14304021 L7.09486445,5.42279984 C6.85454158,5.24219355 6.47293798,5.25675858 6.24790838,5.45557114 L5.45848414,6.24645187 C5.26039983,6.47148148 5.24437831,6.85235682 5.42498459,7.0926797 L6.14449671,8.0525147 C6.32583125,8.29283758 6.3578743,8.70721247 6.21877833,8.97302414 L5.77381688,10.0522923 C5.68278549,10.338495 5.36453974,10.6072197 5.06668503,10.6494583 L3.88036392,10.8176843 C3.58323746,10.8606511 3.31451279,11.1395713 3.28319799,11.4388825 C3.28319799,11.4388825 3.26353521,11.6245865 3.26353521,11.9996359 C3.26353521,12.3746852 3.28319799,12.5603893 3.28319799,12.5603893 C3.31451279,12.8597005 3.58323746,13.1378924 3.88036392,13.1808592 L5.06668503,13.3498135 C5.36381149,13.3927803 5.68278549,13.661505 5.77381688,13.9469794 L6.21877833,15.0247911 C6.3578743,15.2906028 6.325103,15.7064342 6.14449671,15.9453005 L5.42498459,16.9051355 C5.24437831,17.1454584 5.20068324,17.4724432 5.32885544,17.6290172 C5.45629939,17.7870477 5.82188146,18.176662 5.82260971,18.1781185 C5.82333796,18.179575 5.94714066,18.2917257 6.09570389,18.4286369 C6.24426712,18.5655481 6.85454158,18.7556217 7.09486445,18.5764719 L8.0539712,17.8555033 C8.29429408,17.6763535 8.70794072,17.6421257 8.97448064,17.7826782 L10.0522923,18.2261831 C10.3392233,18.3172145 10.6079479,18.6354603 10.6494583,18.933315 L10.8191408,20.1196361 C10.8613793,20.4167625 11.1402995,20.6869437 11.4396107,20.7182585 C11.4396107,20.7182585 11.6253148,20.7379213 11.9996359,20.7379213 C12.3746852,20.7379213 12.5603893,20.7182585 12.5603893,20.7182585 C12.858244,20.6869437 13.1378924,20.4167625 13.1794027,20.1196361 L13.3498135,18.933315 C13.3913238,18.6361885 13.6600485,18.3172145 13.9469794,18.2261831 L15.0247911,17.7812217 C15.2906028,17.6421257 15.7049777,17.674897 15.9453005,17.8555033 L16.9051355,18.5764719 C17.1469149,18.7556217 17.527062,18.7417849 17.7528199,18.5422441 L18.5407876,17.7528199 C18.7396002,17.5263338 18.7541652,17.1454584 18.5750154,16.9051355 L17.8540468,15.9453005 C17.674897,15.7064342 17.6421257,15.291331 17.7812217,15.0247911 L18.2247266,13.9469794 C18.3172145,13.6607767 18.6340038,13.3920521 18.933315,13.3498135 L20.1181796,13.1808592 C20.4167625,13.1378924 20.6854872,12.8597005 20.716802,12.5603893 C20.716802,12.5603893 20.7364648,12.3746852 20.7364648,11.9996359 C20.7364648,11.6245865 20.716802,11.4388825 20.716802,11.4388825 C20.6854872,11.1402995 20.4167625,10.8606511 20.1181796,10.8176843 L18.9340432,10.6494583 Z M12.0003641,14.981539 C10.3533597,14.981539 9.01846105,13.6456464 9.01846105,11.9996359 C9.01846105,10.3526314 10.3533597,9.0177328 12.0003641,9.0177328 C13.6473686,9.0177328 14.9822672,10.3536254 14.9822672,11.9996359 C14.9822672,13.6456464 13.6463746,14.981539 12.0003641,14.981539 Z" id="Shape"></path>
        </g>
    </g>
</svg>