<?xml version="1.0" encoding="UTF-8"?>
<svg width="24px" height="24px" viewBox="0 0 24 24" version="1.1" xmlns="http://www.w3.org/2000/svg" xmlns:xlink="http://www.w3.org/1999/xlink">
    <!-- Generator: Sketch 44.1 (41455) - http://www.bohemiancoding.com/sketch -->
    <title>hig-light/globalnav/sidenav/icon/quantities</title>
    <desc>Created with Sketch.</desc>
    <defs>
        <polygon id="path-1" points="19.799835 -5.5e-05 0 -5.5e-05 0 14.577475 19.799835 14.577475"></polygon>
    </defs>
    <g id="Sidenav" stroke="none" stroke-width="1" fill="none" fill-rule="evenodd">
        <g id="hig-light/globalnav/sidenav/icon/quantities">
            <g id="Page-1" transform="translate(2.100000, 5.075000)">
                <mask id="mask-2" fill="white">
                    <use xlink:href="#path-1"></use>
                </mask>
                <g id="Clip-2"></g>
                <path d="M12.587135,8.146875 L15.832685,2.184875 L18.945685,8.146875 L12.587135,8.146875 Z M7.201535,8.146875 L0.843535,8.146875 L4.089635,2.184875 L7.201535,8.146875 Z M19.787185,8.146875 L16.275985,1.456675 L16.454735,1.456675 C16.855685,1.456675 17.182935,1.127775 17.182935,0.728475 C17.182935,0.327525 16.855685,-0.000275 16.454735,-0.000275 L3.346035,-0.000275 C2.946185,-0.000275 2.617835,0.327525 2.617835,0.728475 C2.617835,1.127775 2.946185,1.456675 3.346035,1.456675 L3.657885,1.456675 L0.007535,8.213425 C0.004235,8.237075 -0.000165,8.259625 -0.000165,8.283275 C-0.000165,9.464675 1.803835,10.423325 4.028035,10.423325 C6.252785,10.423325 8.056785,9.464675 8.056785,8.283275 C8.056785,8.237075 8.049635,8.193075 8.043585,8.146875 L4.531835,1.456675 L9.171635,1.456675 L9.171635,13.078175 L5.725335,13.078175 C5.174785,13.078175 4.728185,13.524775 4.728185,14.075325 L4.728185,14.577475 L5.064235,14.577475 L14.729385,14.577475 L15.084685,14.577475 L15.084685,14.075325 C15.084685,13.524775 14.638085,13.078175 14.088085,13.078175 L10.628035,13.078175 L10.628035,1.456675 L15.400935,1.456675 L11.750585,8.213425 C11.747835,8.237075 11.743435,8.259625 11.743435,8.283275 C11.743435,9.464675 13.546885,10.423325 15.771635,10.423325 C17.996385,10.423325 19.799835,9.464675 19.799835,8.283275 C19.799835,8.237075 19.793785,8.193075 19.787185,8.146875 L19.787185,8.146875 Z" id="Fill-1" fill="#221F20" mask="url(#mask-2)"></path>
            </g>
        </g>
    </g>
</svg>