<svg xmlns="http://www.w3.org/2000/svg" width="24" height="24" viewBox="0 0 24 24">
  <title>rotate-counter-clockwise-24</title>
  <g id="final">
    <g id="rotate-counter-clockwise">
      <g id="outline">
        <path d="M19.88,7.57a9.08,9.08,0,0,0-5.48-2L15.05,5a.82.82,0,0,0,.24-.58.81.81,0,0,0-.23-.57L14,2.74a.83.83,0,0,0-1.19,0c-.86,1-3.14,3.55-3.44,3.84A1.27,1.27,0,0,0,9,7.52a1.7,1.7,0,0,0,.49,1.18c.34.34,3.31,3.55,3.36,3.59a.85.85,0,0,0,1.16,0l1-1a.82.82,0,0,0,.24-.58.75.75,0,0,0-.19-.53L14.18,9a5.39,5.39,0,0,1,3.43,1.21c1.46,1.46,1.44,4.3,1.44,4.33a.5.5,0,0,0,.5.51h2a.46.46,0,0,0,.45-.48C22,14.33,21.92,9.42,19.88,7.57ZM20,14a7.38,7.38,0,0,0-1.72-4.56,6.62,6.62,0,0,0-4.55-1.51c-.38,0-.62,0-.62,0a.5.5,0,0,0-.35.8l1.44,1.92-.79.77c-.59-.63-2.92-3.15-3.24-3.47a.71.71,0,0,1-.2-.47.27.27,0,0,1,.07-.2c.34-.34,2.77-3.08,3.34-3.73l.8.85L12.71,5.71a.5.5,0,0,0-.14.57.49.49,0,0,0,.5.31s.24,0,.6,0c1.14,0,4,.17,5.5,1.71S21,12.85,21,14Z" fill="#2e4258"/>
        <path d="M20.74,20.2c-.09-.05-8.88-5.6-9-5.67a2.47,2.47,0,0,0-1-.47l-.29,0-.15.16A1.71,1.71,0,0,0,10,15.6c0,.22,0,3.5,0,5.65,0,.44.3.76,1,.76H21c.38,0,1-.11,1-.56C22,20.78,21.67,20.78,20.74,20.2ZM11,21V15.37L20,21Z" fill="#2e4258"/>
        <path d="M8.42,10c-.43,0-.78.39-1.21,1.32-1.87,3.46-4.7,8.71-4.89,9C1.83,21,2,22,3.16,22h5c.43,0,.87,0,.87-.5V11C9,10.07,8.59,10,8.42,10ZM8,21H3l5-9.27Z" fill="#2e4258"/>
      </g>
    </g>
  </g>
</svg>
