<svg xmlns="http://www.w3.org/2000/svg" width="24" height="24" viewBox="0 0 24 24">
  <title>share-24</title>
  <g id="final">
    <path d="M17.5,9a3.48,3.48,0,0,0-2,.62L11,6.84a3.43,3.43,0,0,0,0-.34A3.51,3.51,0,1,0,9.43,9.42l4.6,2.8c0,.09,0,.18,0,.28a3.45,3.45,0,0,0,0,.37L9.5,15.63A3.5,3.5,0,1,0,11,18.5c0-.09,0-.17,0-.25l4.62-2.82A3.5,3.5,0,1,0,17.5,9Zm0,6a2.49,2.49,0,0,1-1.82-.79L9.87,17.75a2.47,2.47,0,0,1,.13.75,2.53,2.53,0,1,1-.62-1.63l5.78-3.52a2.33,2.33,0,0,1,0-1.63L9.33,8.19a2.58,2.58,0,1,1,.52-.86l5.78,3.53A2.5,2.5,0,1,1,17.5,15Z" fill="#2e4258"/>
  </g>
</svg>
