<svg xmlns="http://www.w3.org/2000/svg" width="24" height="24" viewBox="0 0 24 24">
  <title>sync-24</title>
  <g id="assets">
    <path d="M6,22H4a1,1,0,0,1-.7-.3A1,1,0,0,1,3,21c0-.22,0-6,0-6.49A1.39,1.39,0,0,1,4.49,13C5.21,13,11,13,11,13a1,1,0,0,1,.71.34A.94.94,0,0,1,12,14v2a1.08,1.08,0,0,1-1,1H9.92a6.25,6.25,0,0,0,3.26,1h.15a4.16,4.16,0,0,0,2.88-.89c.75-.68,1.41-1.45,1.42-1.46A.5.5,0,0,1,18,15.5a.55.55,0,0,1,.37.15l2,2a.5.5,0,0,1,0,.65,13.81,13.81,0,0,1-1.71,1.89A8,8,0,0,1,13.38,22h-.22A10.49,10.49,0,0,1,7,19.61V21A1.1,1.1,0,0,1,6,22ZM4,21H6V18.5a.49.49,0,0,1,.3-.46.5.5,0,0,1,.55.12A10.06,10.06,0,0,0,13.18,21h.2A7,7,0,0,0,18,19.48a11.82,11.82,0,0,0,1.3-1.4L18,16.73c-.28.3-.69.73-1.14,1.14A5.1,5.1,0,0,1,13.33,19h-.17a7.32,7.32,0,0,1-5-2.17A.5.5,0,0,1,8.5,16H11V14s-5.88,0-6.51,0c-.3,0-.49.08-.49.5Z"/>
    <path d="M19.53,12h0S19,12,13,12a1,1,0,0,1-.72-.31A1,1,0,0,1,12,11V9a1.08,1.08,0,0,1,1-1h1.1a6.27,6.27,0,0,0-3.27-1h-.15A4.15,4.15,0,0,0,7.8,7.9c-.75.68-1.41,1.45-1.42,1.46A.5.5,0,0,1,6,9.53a.49.49,0,0,1-.37-.15l-2-2a.5.5,0,0,1,0-.65A13.87,13.87,0,0,1,5.3,4.8,8,8,0,0,1,10.63,3h.22A10.49,10.49,0,0,1,17,5.42V4a1.12,1.12,0,0,1,1-1h2a1,1,0,0,1,.69.33A1,1,0,0,1,21,4c0,.22,0,6,0,6.5A1.36,1.36,0,0,1,19.53,12Zm-2-1h2c.3,0,.47,0,.47-.46C20,9.89,20,4,20,4H18s0,2.54,0,2.54a.49.49,0,0,1-.31.46.5.5,0,0,1-.55-.11A10.07,10.07,0,0,0,10.83,4h-.2A7,7,0,0,0,6,5.56,11.91,11.91,0,0,0,4.66,7L6,8.31c.28-.3.69-.73,1.14-1.14A5.09,5.09,0,0,1,10.68,6h.17a7.31,7.31,0,0,1,5,2.19.5.5,0,0,1,.08.54.46.46,0,0,1-.46.25H13v2Z"/>
  </g>
</svg>
