<svg xmlns="http://www.w3.org/2000/svg" width="24" height="24" viewBox="0 0 24 24">
  <title>visible-24</title>
  <g id="final">
    <g>
      <path d="M12,8a4,4,0,1,0,4,4A4,4,0,0,0,12,8Zm0,7a3,3,0,1,1,3-3A3,3,0,0,1,12,15Z"/>
      <circle cx="12" cy="12" r="1.54"/>
    </g>
    <g id="hidden">
      <path d="M12.14,18.61h-.07c-4,0-7.55-2.54-9.52-4.89A2.27,2.27,0,0,1,2,12.19a2.33,2.33,0,0,1,.43-1.37h0l.12-.15C5.48,7.2,8.6,5.43,11.85,5.42h.06c4.43,0,7.89,3.23,9.56,5.17l.12.17a2.31,2.31,0,0,1,0,2.62l0,0h0l-.07.1C18.73,17,15.76,18.61,12.14,18.61ZM3.43,11.17h0l-.13.15a1.37,1.37,0,0,0,0,1.74c1.84,2.2,5.1,4.53,8.77,4.55,2.09,0,5.18-.46,8.51-4.59h0l.12-.15a1.29,1.29,0,0,0,0-1.61l-.12-.15C19,9.27,15.85,6.41,11.86,6.42,9,6.43,6.12,8,3.43,11.17Z"/>
    </g>
  </g>
</svg>
