<svg width="18px" height="20px" viewBox="0 0 18 20" version="1.1" xmlns="http://www.w3.org/2000/svg" xmlns:xlink="http://www.w3.org/1999/xlink">
    <!-- Generator: Sketch 49.3 (51167) - http://www.bohemiancoding.com/sketch -->
    <desc>Created with Sketch.</desc>
    <defs></defs>
    <g id="Symbols" stroke="none" stroke-width="1" fill="none" fill-rule="evenodd">
        <g id="P&amp;S-icon-selected" transform="translate(-3.000000, -2.000000)" fill="#66BFE9" fill-rule="nonzero">
            <g id="Group" transform="translate(3.000000, 2.000000)">
                <path d="M8.80839133,0.0428315844 C8.92928936,-0.0140616034 9.06921812,-0.0142865687 9.19029846,0.0422175873 C13.6970519,2.14536921 16.2456422,3.34470579 16.8512461,3.64750776 C17.6369998,4.0403846 18,4.94788515 18,6.3 L18,13.95 C18,14.102945 17.9223164,14.2454194 17.7937524,14.3282655 C12.2050503,17.9295981 9.54127566,19.5278631 9.00178007,19.5299972 C8.46004745,19.5321401 5.79917096,17.935614 0.206090136,14.328164 C0.0776165306,14.2453005 0,14.1028785 0,13.95 L0,6.3 C0,4.94788515 0.363000221,4.0403846 1.15839133,3.64283158 L8.80839133,0.0428315844 Z M1.55124612,4.45249224 C1.13699978,4.65961541 0.9,5.25211485 0.9,6.3 C0.9,8.73525849 0.9,8.77436186 0.9,13.7046835 C5.79374383,16.8573802 8.75312939,18.6309737 8.99821993,18.6300042 C9.24551702,18.629026 12.2021215,16.8570923 17.1,13.7045631 L17.1,6.3 C17.1,5.25211485 16.8630002,4.65961541 16.4487539,4.45249224 C15.8628362,4.15953339 13.3753355,2.98869904 9.0007887,0.946962528 L1.55124612,4.45249224 Z" id="Path-3"></path>
                <path d="M9,9.81503624 L15.0566591,5.92146969 C15.2657156,5.78707621 15.5441368,5.84760256 15.6785303,6.05665908 C15.8129238,6.2657156 15.7523974,6.54413684 15.5433409,6.67853031 L9.45,10.595678 L9.45,17.1 C9.45,17.3485281 9.24852814,17.55 9,17.55 C8.75147186,17.55 8.55,17.3485281 8.55,17.1 L8.55,10.595678 L2.45665908,6.67853031 C2.24760256,6.54413684 2.18707621,6.2657156 2.32146969,6.05665908 C2.45586316,5.84760256 2.7342844,5.78707621 2.94334092,5.92146969 L9,9.81503624 Z" id="Combined-Shape"></path>
            </g>
        </g>
    </g>
</svg>
