<svg id="assets" xmlns="http://www.w3.org/2000/svg" width="16" height="16" viewBox="0 0 16 16">
  <title>calendar-16</title>
  <g>
    <rect x="6" y="10" width="4" height="2"/>
    <path d="M0,6v9a1,1,0,0,0,1,1H15a1,1,0,0,0,1-1V6Zm14,4H11v2h3v1H11v2H10V13H6v2H5V13H2V12H5V10H2V9H5V7H6V9h4V7h1V9h3Z"/>
  </g>
  <path d="M15,1H12.5A1.5,1.5,0,1,1,11,2.5,1.5,1.5,0,0,1,12.5,1h-9A1.5,1.5,0,1,1,2,2.5,1.5,1.5,0,0,1,3.5,1H1A1,1,0,0,0,0,2V5H16V2A1,1,0,0,0,15,1Z"/>
  <path d="M3.5,3h0A.5.5,0,0,1,3,2.5V.5A.5.5,0,0,1,3.5,0h0A.5.5,0,0,1,4,.5v2A.5.5,0,0,1,3.5,3Z"/>
  <path d="M12.5,3h0a.5.5,0,0,1-.5-.5V.5a.5.5,0,0,1,.5-.5h0a.5.5,0,0,1,.5.5v2A.5.5,0,0,1,12.5,3Z"/>
</svg>
