<svg xmlns="http://www.w3.org/2000/svg" width="24" height="24" viewBox="0 0 24 24">
  <title>checklist-24</title>
  <g id="final">
    <g id="checklist">
      <g id="outline">
        <path d="M20,2H7A1,1,0,0,0,6,3V6H3A1,1,0,0,0,2,7V21a1,1,0,0,0,1,1H16a1,1,0,0,0,1-1V18h3a1,1,0,0,0,1-1V3A1,1,0,0,0,20,2Zm0,15H17V13H16v8H3V7h9V6H7V3H20Z" fill="#2e4258"/>
        <path d="M17,5.32a.77.77,0,0,0-1.11,0L9.28,13,7.08,10.67a.8.8,0,0,0-1.1,0L4.7,11.85a.77.77,0,0,0,0,1.1L9,17.43a.75.75,0,0,0,.54.23.76.76,0,0,0,.56-.25l8.44-9.49a.79.79,0,0,0,0-1.08ZM9.51,16.55l-4-4.13,1-.9,2.25,2.35a.77.77,0,0,0,1.11,0l6.62-7.63L17.64,7.4Z" fill="#2e4258"/>
      </g>
    </g>
  </g>
</svg>
