<svg xmlns="http://www.w3.org/2000/svg" width="24" height="24" viewBox="0 0 24 24">
  <title>compare-24</title>
  <g id="final">
    <path d="M21,15H14.74l1.11-1.19a.79.79,0,0,0,.16-.22.85.85,0,0,0,.11-.4.84.84,0,0,0-.11-.39.86.86,0,0,0-.18-.24l-1.05-.82a1,1,0,0,0-1.22,0S9.94,15.18,9.5,15.59a1.28,1.28,0,0,0-.5,1,1.31,1.31,0,0,0,.51,1l4.06,3.72a.94.94,0,0,0,.63.24.93.93,0,0,0,.62-.24l1-.75a1,1,0,0,0,.22-.29.79.79,0,0,0,0-.73.86.86,0,0,0-.19-.26L14.7,18H21a1.09,1.09,0,0,0,1-1V16A1.09,1.09,0,0,0,21,15Zm0,2H12.39L15,19.79l-.83.66-4-3.68a.26.26,0,0,1,0-.45c.45-.41,4.06-3.82,4.06-3.82l.81.7L12.35,16H21Z" fill="#2e4258"/>
    <path d="M14.5,6.59c-.44-.41-4-3.81-4.05-3.82a1,1,0,0,0-1.22,0l-1.05.82A.86.86,0,0,0,8,3.81a.84.84,0,0,0-.11.39.85.85,0,0,0,.11.4.79.79,0,0,0,.16.22L9.26,6H3A1.09,1.09,0,0,0,2,7V8A1.09,1.09,0,0,0,3,9H9.3L8.19,10.2a.86.86,0,0,0-.19.26.79.79,0,0,0,0,.73,1,1,0,0,0,.22.29l1,.75a.93.93,0,0,0,.62.24.94.94,0,0,0,.63-.24l4.06-3.72a1.31,1.31,0,0,0,.51-1A1.28,1.28,0,0,0,14.5,6.59Zm-.68,1.18-4,3.68L9,10.79,11.61,8H3V7h8.65L9,4.21l.81-.7s3.61,3.42,4.06,3.82A.26.26,0,0,1,13.82,7.77Z" fill="#2e4258"/>
  </g>
</svg>
