<svg xmlns="http://www.w3.org/2000/svg" width="24" height="24" viewBox="0 0 24 24">
  <title>download-24</title>
  <g id="final">
    <g id="download">
      <g id="outline">
        <path d="M20,22H4a1,1,0,0,1-1-1V17a1,1,0,0,1,1-1H6a1,1,0,0,1,1,1v1H17V17a1,1,0,0,1,1-1h2a1,1,0,0,1,1,1v3.94A1,1,0,0,1,20,22ZM4,17v4H20V17H18v2H6V17Z" fill="#2e4258"/>
        <path d="M14,3v7.46L15.46,9a1,1,0,0,1,.68-.28h0a1,1,0,0,1,.71.31l1,1.14a1,1,0,0,1,0,1.37S13.56,16,13,16.46a1.38,1.38,0,0,1-2.19,0c-.53-.53-4.64-4.9-4.64-4.9h0a1,1,0,0,1-.28-.69.92.92,0,0,1,.25-.65L7.18,9a1,1,0,0,1,.69-.27A.93.93,0,0,1,8.53,9L10,10.47V3a1,1,0,0,1,1-1H13A1,1,0,0,1,14,3ZM7.91,9.72l-1,1.12s4.12,4.38,4.64,4.91c.32.31.47.31.78,0,.51-.51,4.75-4.88,4.74-4.88h0l-.93-1.12-3.16,3V3H11v9.8Z" fill="#2e4258"/>
      </g>
    </g>
  </g>
</svg>
