<svg xmlns="http://www.w3.org/2000/svg" width="24" height="24" viewBox="0 0 24 24">
  <title>external-24</title>
  <g id="final">
    <g id="outline">
      <path d="M17,20H5V6h6V5H5A1,1,0,0,0,4,6V20a1,1,0,0,0,1,1H17a1,1,0,0,0,1-1V12H17Z"/>
      <path d="M13.34,11.69a.83.83,0,0,1-.59-.24l-1-1a.84.84,0,0,1-.24-.63.9.9,0,0,1,.26-.6l4-4.18H15a1,1,0,0,1-1-1V3a1,1,0,0,1,1-1h5a1,1,0,0,1,1,1V8a1,1,0,0,1-1,1H19a1,1,0,0,1-1-1V7.4l-4,4A.9.9,0,0,1,13.34,11.69ZM12.51,9.8l.83.83L19,5V8h1V3H15V4h3.1Zm-.08.08ZM15,3h0Z"/>
    </g>
  </g>
</svg>
