<svg xmlns="http://www.w3.org/2000/svg" width="24" height="24" viewBox="0 0 24 24">
  <title>favorite-24</title>
  <g id="assets">
    <path d="M17.48,21a.75.75,0,0,1-.44-.14l-5-3.68L7,20.84a.77.77,0,0,1-.89,0A.75.75,0,0,1,5.8,20l1.94-5.93L2.69,10.42a.75.75,0,0,1-.27-.85A.79.79,0,0,1,3.13,9H9.37l1.91-5.87a.75.75,0,0,1,1.43,0L14.63,9h6.24a.8.8,0,0,1,.71.58.74.74,0,0,1-.27.84l-5.06,3.66L18.19,20a.75.75,0,0,1-.71,1ZM3.82,10l5.1,3.69L7,19.58l5-3.65,5,3.65-1.93-5.89L20.18,10H13.9L12,4.17,10.1,10Z"/>
  </g>
</svg>
