<svg xmlns="http://www.w3.org/2000/svg" width="16" height="16" viewBox="0 0 16 16">
  <title>globe-16</title>
  <g id="assets">
    <circle cx="8" cy="8" r="7.2" fill="none"/>
    <circle cx="8" cy="8" r="7.2" fill="none"/>
    <path d="M8,0a8,8,0,1,0,8,8A8,8,0,0,0,8,0Zm.71,13L7.9,15.2A7.19,7.19,0,0,1,3.33,2.53L4.57,3.77a.4.4,0,0,0,.5,0L6.82,2.65a.4.4,0,0,1,.58.15l1,1.93a.4.4,0,0,1-.48.56L6.73,4.91a.4.4,0,0,0-.48.2L5,7.69a.4.4,0,0,1-.48.2L2.93,7.38a.4.4,0,0,0-.53.38V9.43a.4.4,0,0,0,.12.28l1.2,1.2a.4.4,0,0,0,.57,0l1-1a.4.4,0,0,1,.57,0l2.74,2.74A.4.4,0,0,1,8.71,13Zm4.1.3L11.35,11.4a.4.4,0,0,1,0-.42l1.38-2.76A.4.4,0,0,1,13,8h1.56A.4.4,0,0,0,15,7.45l-.61-1.52a.4.4,0,0,0-.47-.24l-2.55.67a.4.4,0,0,1-.28,0L9.91,5.76a.4.4,0,0,1-.2-.48l.58-1.74a.4.4,0,0,0-.2-.48l-1-.5a.4.4,0,0,1-.21-.45L9.17.9a7.18,7.18,0,0,1,3.63,12.44Z"/>
  </g>
</svg>
