<svg xmlns="http://www.w3.org/2000/svg" width="24" height="24" viewBox="0 0 24 24">
  <title>insight-24</title>
  <g id="final">
    <g>
      <path d="M11,12v8H9V12h2m0-1H9a1,1,0,0,0-1,1v8a1,1,0,0,0,1,1h2a1,1,0,0,0,1-1V12a1,1,0,0,0-1-1Z" fill="#2e4258"/>
      <path d="M6,17v3H4V17H6m0-1H4a.93.93,0,0,0-1,.83v3.33A.93.93,0,0,0,4,21H6a.93.93,0,0,0,1-.83V16.83A.93.93,0,0,0,6,16Z" fill="#2e4258"/>
      <path d="M16,14v6H14V14h2m0-1H14a1,1,0,0,0-1,1v6a1,1,0,0,0,1,1h2a1,1,0,0,0,1-1V14a1,1,0,0,0-1-1Z" fill="#2e4258"/>
      <path d="M21,9a.14.14,0,0,1,0,.08V19.92C21,20,21,20,21,20H19a.12.12,0,0,1,0-.09V9.08C19,9,19,9,19,9h2m0-1H19a1,1,0,0,0-1,1.08V19.92A1,1,0,0,0,19,21h2a1,1,0,0,0,1-1.08V9.08A1,1,0,0,0,21,8Z" fill="#2e4258"/>
      <polygon points="2.88 13.83 2.12 13.17 9.44 4.81 14.44 8.81 21.12 1.17 21.88 1.83 14.56 10.19 9.56 6.19 2.88 13.83" fill="#2e4258"/>
    </g>
  </g>
</svg>
