<svg xmlns="http://www.w3.org/2000/svg" width="24" height="24" viewBox="0 0 24 24">
  <title>list-24</title>
  <g id="final">
    <g id="view-list">
      <g id="outline">
        <path d="M5.08,10h-2a1,1,0,0,0-1,1v2a1,1,0,0,0,1,1h2A.94.94,0,0,0,6,13V11A.94.94,0,0,0,5.08,10ZM5,13H3V11H5Z" fill="#2e4258"/>
        <path d="M5.08,3h-2a1,1,0,0,0-1,1V6a1,1,0,0,0,1,1h2A.94.94,0,0,0,6,6V4A.94.94,0,0,0,5.08,3ZM5,6H3V4H5Z" fill="#2e4258"/>
        <path d="M5.08,17h-2a1,1,0,0,0-1,1v2a1,1,0,0,0,1,1h2A.94.94,0,0,0,6,20V18A.94.94,0,0,0,5.08,17ZM5,20H3V18H5Z" fill="#2e4258"/>
        <path d="M21,6H8V4H21Zm.08-3H8A1,1,0,0,0,7,4V6A1,1,0,0,0,8,7H21.08A.94.94,0,0,0,22,6V4A.94.94,0,0,0,21.08,3Z" fill="#2e4258"/>
        <path d="M21,20H8V18H21Zm.08-3H8a1,1,0,0,0-1,1v2a1,1,0,0,0,1,1H21.08A.94.94,0,0,0,22,20V18A.94.94,0,0,0,21.08,17Z" fill="#2e4258"/>
        <path d="M21.08,10H8a1,1,0,0,0-1,1v2a1,1,0,0,0,1,1H21.08A.94.94,0,0,0,22,13V11A.94.94,0,0,0,21.08,10ZM21,13H8V11H21Z" fill="#2e4258"/>
      </g>
    </g>
  </g>
</svg>
