<svg xmlns="http://www.w3.org/2000/svg" width="24" height="24" viewBox="0 0 24 24">
  <title>model-coordination</title>
  <g id="final">
    <g>
      <path d="M7.79,11.31A1,1,0,0,1,7.27,10L9,6H3A1,1,0,0,0,2,7V20a1,1,0,0,0,1,1H17a1,1,0,0,0,1-1V15.73ZM17,20H3V7H7.48L5.55,11.43l11.45,5Z" fill="#2e4258"/>
      <path d="M20.08,4.93,14.24,2.4a1,1,0,0,0-1.32.52L10.4,8.76a1,1,0,0,0,.52,1.32l5.84,2.53a1,1,0,0,0,1.32-.52L20.6,6.24A1,1,0,0,0,20.08,4.93Zm-2.93,6.76L11.31,9.15l2.53-5.84,5.84,2.53Z" fill="#2e4258"/>
    </g>
  </g>
</svg>
