<svg xmlns="http://www.w3.org/2000/svg" width="24" height="24" viewBox="0 0 24 24">
  <title>permission-group-24</title>
  <g id="final">
    <g id="permission-group">
      <g id="outline">
        <path d="M9.9,11.67a4.34,4.34,0,0,0,2-3.74c0-1.85-1.29-3.84-3.39-3.84A3.63,3.63,0,0,0,5,7.92a4,4,0,0,0,2,3.72c-2.08.46-3,2.11-3,5.31V20a1,1,0,0,0,.95,1h7.17A1,1,0,0,0,13,20v-2.7C13,14,12.08,12.18,9.9,11.67ZM6,7.92A2.62,2.62,0,0,1,8.55,5.09a2.66,2.66,0,0,1,2.39,2.84c0,1.46-1,3.09-2.39,3.09S6,9.66,6,7.92ZM5,20V17c.08-3.6,1.22-4.37,3.1-4.45h.65c2,.09,3.25.94,3.25,4.84V20Z" fill="#2e4258"/>
        <path d="M17.5,13.16A3.67,3.67,0,0,0,19,10.09a3,3,0,0,0-2.82-3.27,3.15,3.15,0,0,0-3.1,3.27,3.5,3.5,0,0,0,1.63,3.05,3,3,0,0,0-1.07.52l.62.78A2.62,2.62,0,0,1,15.81,14h.54C18,14,19,14.72,19,17.89V20H14.31v1h4.88a.92.92,0,0,0,.81-.87V17.89C20,15.14,19.21,13.65,17.5,13.16Zm-3.42-3.07a2.14,2.14,0,0,1,2.1-2.27A2.07,2.07,0,0,1,18,10.09c0,1.17-.74,2.47-1.82,2.47A2.28,2.28,0,0,1,14.08,10.09Z" fill="#2e4258"/>
      </g>
    </g>
  </g>
</svg>
