<svg xmlns="http://www.w3.org/2000/svg" width="24" height="24" viewBox="0 0 24 24">
  <title>unlock-24</title>
  <g id="final">
    <g id="unlock">
      <path d="M18.51,1A5.15,5.15,0,0,0,14,6.21V10H5a1,1,0,0,0-1,1v9a1,1,0,0,0,1,1H19a1,1,0,0,0,1-1V11a1,1,0,0,0-1-1H17V6.11A2.08,2.08,0,0,1,18.66,4,2,2,0,0,1,21,6V7a1,1,0,0,0,1,1h1a1,1,0,0,0,1-1V6A5,5,0,0,0,18.51,1ZM19,11v9H5V11Zm4-4H22V6a3,3,0,0,0-6,0v4H15V6a4,4,0,0,1,8,0Z" fill="#2e4258"/>
      <g>
        <rect x="6" y="13" width="12" height="1" fill="#2e4258"/>
        <rect x="6" y="15" width="12" height="1" fill="#2e4258"/>
        <rect x="6" y="17" width="12" height="1" fill="#2e4258"/>
      </g>
    </g>
  </g>
</svg>
