<?xml version="1.0" encoding="UTF-8"?>
<svg width="76px" height="89px" viewBox="0 0 76 89" version="1.1" xmlns="http://www.w3.org/2000/svg" xmlns:xlink="http://www.w3.org/1999/xlink">
    <!-- Generator: Sketch 48.2 (47327) - http://www.bohemiancoding.com/sketch -->
    <title>empty-illustration</title>
    <desc>Created with Sketch.</desc>
    <defs>
        <polygon id="path-1" points="7.27272727e-05 0.347078061 75.7163636 0.347078061 75.7163636 88.6382114 7.27272727e-05 88.6382114"></polygon>
    </defs>
    <g id="notifications-statuses" stroke="none" stroke-width="1" fill="none" fill-rule="evenodd" transform="translate(-1625.000000, -288.000000)">
        <g id="4-empty-state" transform="translate(1499.000000, 158.000000)">
            <g id="notifications-flyout-background" transform="translate(14.000000, 54.000000)">
                <g id="empty-illustration" transform="translate(112.000000, 76.000000)">
                    <path d="M1.15629091,61.1970512 C1.15629091,63.0635187 1.15629091,64.9053846 1.18174545,66.424535 C1.24356364,71.7938398 4.85083636,77.1627829 12.0072,81.2578683 C26.3781091,89.5142463 49.6035636,89.5540431 63.8835636,81.3522951 C70.9672,77.2821732 74.5199273,71.9457911 74.5493818,66.6018114 L74.5493818,61.1749821 L1.15629091,61.1970512 Z" id="Fill-1" fill="#B4C1C9"></path>
                    <path d="M1.15683636,60.9935451 C1.22010909,49.3566142 17.7015636,40.0116142 37.9692,40.1208744 C58.2368364,40.2297728 74.6157455,49.7520492 74.5521091,61.3886183 C74.4888364,73.0255492 58.0073818,82.3705492 37.7401091,82.261289 C17.4724727,82.1520289 1.09356364,72.6301142 1.15683636,60.9935451" id="Fill-3" fill="#F3F5F7"></path>
                    <path d="M63.7271273,46.3237764 C61.9700364,45.3241545 60.1394909,44.4583943 58.2507636,43.7333699 L45.6944,45.1805244 L46.7671273,70.2995081 C58.2980364,70.0100772 62.2834909,72.6149553 68.2911273,73.0816626 C77.9634909,64.8980041 76.4293091,53.6319065 63.7271273,46.3237764" id="Fill-5" fill="#CFD8DD"></path>
                    <path d="M63.8326182,45.4663012 L47.3675273,45.2709354 C47.3675273,45.2709354 41.2148,58.7475614 40.6548,58.729472 L39.6762545,68.7003663 C40.2362545,68.7188175 48.4035273,68.2698378 53.6548,65.2886996 C60.6835273,61.2873175 66.7708,55.6832118 64.9780727,51.09935 C64.2482545,49.3088581 63.8595273,47.3986142 63.8326182,45.4663012" id="Fill-7" fill="#7992A0"></path>
                    <path d="M11.9237091,45.4663012 L28.3891636,45.2709354 C28.3891636,45.2709354 34.5418909,58.7475614 35.1018909,58.729472 L36.0764364,68.7003663 C35.5164364,68.7188175 27.3491636,68.2698378 22.0982545,65.2886996 C15.0691636,61.2873175 8.98189091,55.6832118 10.7746182,51.09935 C11.5026182,49.3081346 11.8924364,47.3986142 11.9237091,45.4663012" id="Fill-9" fill="#7992A0"></path>
                    <g id="Group-13" transform="translate(0.000000, 0.014833)">
                        <mask id="mask-2" fill="white">
                            <use xlink:href="#path-1"></use>
                        </mask>
                        <g id="Clip-12"></g>
                        <path d="M39.3709818,0.347317073 C38.6855273,0.339719512 38.0106182,0.513378049 37.4146182,0.850203252 L32.9309818,3.42613821 C32.1346182,3.87113821 30.7818909,5.04695122 30.7818909,7.82910569 C30.7928,8.77807724 30.9386182,9.72089837 31.2146182,10.6293496 C26.9513455,11.5189878 22.9622545,13.4068008 19.5782545,16.1357724 C14.6328,20.1986585 11.9164364,25.6218699 11.9418909,31.4068699 L11.9418909,44.4602033 L11.9418909,44.8219919 C11.6982545,44.9558537 11.4655273,45.0824797 11.2473455,45.2091057 C4.40370909,49.1562195 0.454618182,54.3768293 0.0400727273,60.0207317 L7.27272727e-05,61.1856911 C7.27272727e-05,63.2876829 7.27272727e-05,65.0495935 0.0255272727,66.4207724 C0.0909818182,72.4517886 4.14552727,78.0776016 11.4328,82.2634959 C18.5855273,86.3734146 28.0400727,88.6382114 38.0946182,88.6382114 C48.0509818,88.6382114 57.4182545,86.4059756 64.4691636,82.357561 C71.6764364,78.2078455 75.6764364,72.6145935 75.7164364,66.6089024 L75.7164364,61.1820732 L75.6764364,60.0207317 C75.1455273,54.4238618 71.1564364,49.2394309 64.3237091,45.3176423 C64.1564364,45.2199593 63.9851636,45.1262561 63.8146182,45.0318293 L63.8146182,44.4312602 L63.8146182,31.4068699 C63.8146182,25.618252 61.0655273,20.2131301 56.1091636,16.1502439 C53.7648,14.2436179 51.1091636,12.7505163 48.2578909,11.7364228 L48.2578909,11.3529268 C48.2578909,7.57947154 45.6691636,3.13308943 42.3673455,1.22284553 C41.4640727,0.677268293 40.4313455,0.380239837 39.3746182,0.361788618 L39.3709818,0.347317073 Z M39.3746182,1.52313008 C40.2193455,1.55352033 41.0418909,1.80315447 41.7600727,2.24670732 C44.6909818,3.92902439 47.0691636,8.01 47.0691636,11.3565447 C47.0709818,11.7512561 47.0331636,12.1452439 46.9560727,12.5323577 C50.0022545,13.5081016 52.8386182,15.0406382 55.3197091,17.0510976 C60.1600727,21.0307724 62.5924364,26.2152033 62.5924364,31.4141057 L62.5924364,44.4384959 C62.5924364,44.8762602 62.6146182,45.3140244 62.6400727,45.7517886 C63.0037091,45.9402805 63.3673455,46.1316667 63.7018909,46.3306504 C70.8618909,50.444187 74.4728,55.816748 74.5306182,61.1893089 L74.5306182,66.6161382 C74.5015273,71.963374 70.9491636,77.2961382 63.8651636,81.3662602 C56.7818909,85.4363821 47.4251636,87.4913415 38.0764364,87.4913415 C28.6509818,87.4913415 19.2037091,85.4182927 11.9891636,81.2721951 C4.8328,77.1622764 1.22552727,71.7933333 1.16370909,66.4388618 C1.14552727,64.9193496 1.13825455,63.0778455 1.13825455,61.2110163 C1.07643636,55.784187 4.62916364,50.379065 11.8037091,46.2582927 C12.2146182,46.0231301 12.6364364,45.7952033 13.0618909,45.5745122 C13.0800727,45.2127236 13.0873455,44.850935 13.0873455,44.4891463 L13.0873455,31.4321951 C13.0873455,26.2296748 15.4764364,21.0271545 20.3055273,17.0619512 C23.9022545,14.1665569 28.1989818,12.2595691 32.7673455,11.5302033 C32.2564364,10.3659675 31.9782545,9.11345528 31.9491636,7.84357724 C31.9491636,6.16487805 32.5491636,4.98906504 33.5164364,4.44638211 C33.7928,4.28357724 37.0800727,2.39865854 37.9964364,1.87044715 C38.4146182,1.63166667 38.8888,1.50684959 39.3709818,1.50865854 L39.3746182,1.52313008 Z" id="Fill-11" fill="#7F909A" mask="url(#mask-2)"></path>
                    </g>
                    <path d="M64.1745818,52.3367394 C63.1404,49.833524 62.6113091,47.1523085 62.6182182,44.4461297 L62.6182182,31.4217394 C62.6182182,26.222837 60.1782182,21.0275524 55.3454909,17.0587313 C45.6582182,9.12470691 29.9854909,9.12108902 20.3345818,17.0587313 C15.5054909,21.0384061 13.1018545,26.2264549 13.1164,31.4289752 L13.1164,44.4859264 C13.1342182,47.1747394 12.6127636,49.840398 11.5818545,52.3258858 C9.44367273,57.3692191 11.8509455,62.9226744 18.8036727,66.8766622 C29.4000364,72.9080402 46.5273091,72.9366215 57.0545818,66.9493817 C63.8796727,63.0673898 66.2400364,57.3004793 64.1745818,52.3367394" id="Fill-14" fill="#CFD8DD"></path>
                    <path d="M58.3564,23.3429634 C57.1294909,20.9482846 55.4414909,18.8169878 53.3891273,17.0695488 C48.9127636,13.2201179 43.0909455,11.2302805 37.2364,11.1253618 C31.0945818,11.2302805 25.0000364,13.2165 20.3236727,17.062313 C17.5287636,19.3003374 15.3931273,22.2478293 14.1418545,25.5932886 C14.1262182,25.6312764 14.1131273,25.669626 14.1018545,25.709061 C13.9600364,29.8768659 16.1454909,34.0808496 20.6691273,37.2862967 C29.3964,43.4367033 43.5527636,43.4584106 52.2545818,37.3224756 C57.6182182,33.5200772 59.6545818,28.2632886 58.3564,23.3429634" id="Fill-16" fill="#F3F5F7"></path>
                    <path d="M59.8326182,22.1236996 C58.6169818,20.2054963 57.0980727,18.4953215 55.3344364,17.0586589 C51.8744364,14.284102 47.7697091,12.4179963 43.3966182,11.6318297 L37.8580727,17.2214638 C43.2620727,20.9261793 49.4617091,20.1989841 54.7889818,20.5607728 C57.0617091,20.7163419 58.6548,21.3060573 59.8326182,22.1236996" id="Fill-18" fill="#CFD8DD"></path>
                    <path d="M75.2289091,61.2945533 L74.5561818,61.2945533 C74.5561818,66.67435 71.0183636,72.046911 63.8907273,76.1278866 C56.7638182,80.2088622 47.4398182,82.2529679 38.0725455,82.2529679 C28.6438182,82.2529679 19.1925455,80.1763012 11.9743636,76.0338215 C4.86163636,71.949228 1.25109091,66.6273175 1.14890909,61.2836996 L0.694363636,61.2836996 L0.694363636,65.3682931 C2.14890909,69.78935 5.82163636,73.8341467 11.4070909,77.0399557 C18.5634545,81.1495126 28.0398182,83.4143093 38.0870909,83.4143093 C48.0470909,83.4143093 57.4183636,81.1820736 64.4729091,77.1336589 C70.2474545,73.8196752 73.9525455,69.5831305 75.2289091,64.9522362 L75.2289091,61.2945533 Z" id="Fill-20" fill="#7F909A"></path>
                    <path d="M39.7019273,17.6954793 L42.7455636,17.6954793 C43.8652,17.0514955 45.4910182,16.1180809 46.0906545,15.7779996 C46.7819273,15.3872679 47.8692,14.4574711 48.1601091,12.4423085 L46.9892,12.3373898 C46.9670182,12.4784874 46.9379273,12.6123492 46.9055636,12.746211 L46.9055636,12.7715362 C46.8164727,13.1199386 46.6782909,13.4535077 46.4946545,13.762837 C46.4833818,13.7802028 46.4735636,13.7982923 46.4655636,13.8171053 C46.4215636,13.8822272 46.3779273,13.9437313 46.3306545,14.0052354 L46.2219273,14.1535687 L46.0982909,14.2910484 L45.9273818,14.4502354 C45.8935636,14.4824346 45.8586545,14.512463 45.8219273,14.5406825 C45.7248364,14.620276 45.6215636,14.6915484 45.5124727,14.7541378 L45.3601091,14.8409671 L45.3342909,14.8409671 L44.6833818,15.2027557 L44.6110182,15.2425524 L44.4106545,15.3583248 L44.2910182,15.4270646 C44.2364727,15.4596256 44.1815636,15.4921866 44.1237455,15.5211297 L44.0328364,15.575398 L43.8033818,15.7056419 L43.5888364,15.8322679 L43.4582909,15.9046256 L41.0219273,17.3047476 C40.6204727,17.5362923 40.1655636,17.6611093 39.7019273,17.6665362 L39.7019273,17.6954793 Z" id="Fill-22" fill="#7F909A"></path>
                    <path d="M31.2582182,11.3459805 C31.2582182,11.3459805 33.9964,16.733013 37.4000364,16.3458992 C38.8145818,16.1830943 34.3854909,9.62386667 34.3854909,9.62386667 L31.2582182,11.3459805 Z" id="Fill-24" fill="#7F909A"></path>
                    <path d="M47.0691273,11.3749598 C47.0691273,13.0500411 46.4764,14.2222362 45.5127636,14.768537 C44.5491273,15.3148378 41.0218545,17.344472 41.0218545,17.344472 L33.4945818,4.47203293 L37.9964,1.88524431 C38.9560364,1.33532561 40.2873091,1.42215488 41.7564,2.26512236 C44.6909455,3.94743943 47.0691273,8.02841504 47.0691273,11.3749598" id="Fill-26" fill="#F3F5F7"></path>
                    <path d="M45.6145818,6.37862276 L37.3964,11.1433789 L41.0327636,17.3444358 C41.0327636,17.3444358 44.5636727,15.3111837 45.5236727,14.7685008 C46.4836727,14.2258179 47.0800364,13.0500049 47.0800364,11.3749236 C47.0156727,9.61446016 46.5120364,7.89741138 45.6145818,6.37862276" id="Fill-28" fill="#B4C1C9"></path>
                    <path d="M33.4874545,4.48031789 C35.5474545,3.28207398 38.9078182,5.18906179 40.994,8.73893171 C43.0798182,12.2888016 43.1009091,16.1378707 41.0409091,17.3361146 C38.9812727,18.5339967 35.6205455,16.6273707 33.5347273,13.077139 C31.4489091,9.52726911 31.4278182,5.6782 33.4874545,4.48031789" id="Fill-30" fill="#CFD8DD"></path>
                    <path d="M35.6147636,8.27519106 C36.4798545,7.77194309 37.8911273,8.57221951 38.7667636,10.0624268 C39.6427636,11.5529959 39.6511273,13.1691057 38.7860364,13.6719919 C37.9205818,14.1756016 36.5093091,13.3753252 35.6336727,11.8847561 C34.7580364,10.394187 34.7496727,8.77843902 35.6147636,8.27519106" id="Fill-32" fill="#7F909A"></path>
                    <path d="M34.8800364,2.95259309 L34.7418545,2.95259309 C33.4764,3.72320285 33.4873091,3.71596707 31.9745818,4.65299959 L31.6764,6.78755244 L31.9891273,7.21808089 C32.1854909,5.23909715 33.3091273,4.11393455 34.8982182,4.11393455 C35.7418545,4.1443248 36.5629455,4.39359715 37.2800364,4.83751179 C40.1927636,6.52706463 42.5854909,10.6008045 42.5854909,13.9473492 C42.5854909,16.3170646 41.3927636,17.6846256 39.6582182,17.6846256 L39.6254909,17.6846256 L42.4364,17.6846256 C43.2618545,16.8235687 43.7454909,15.5138939 43.7454909,13.9401134 C43.7454909,10.1666581 41.1564,5.7238939 37.8509455,3.81003211 C36.9578545,3.26264593 35.9356727,2.95946707 34.8873091,2.93088577 L34.8800364,2.95259309 Z" id="Fill-34" fill="#7F909A"></path>
                </g>
            </g>
        </g>
    </g>
</svg>