<svg width="72px" height="72px" viewBox="0 0 72 72" version="1.1" xmlns="http://www.w3.org/2000/svg" xmlns:xlink="http://www.w3.org/1999/xlink">
  <polygon class="hig__progress-ring__background" points="54.81 10.11 36 4 17.19 10.11 5.57 26.11 5.57 45.89 17.19 61.89 36 68 54.81 61.89 66.43 45.89 66.43 26.11"></polygon>
  <polygon class="hig__progress-ring__segment" fill="#0ED3BE" fill-rule="nonzero" points="36 10.31 36 4 17.19 10.11"></polygon>
  <polygon class="hig__progress-ring__segment" fill="#0CA899" fill-rule="nonzero" points="36 10.31 17.19 10.11 20.9 15.215"></polygon>
  <polygon class="hig__progress-ring__segment" fill="#0ED3BE" fill-rule="nonzero" points="20.9 15.215 17.19 10.11 5.565 26.11"></polygon>
  <polygon class="hig__progress-ring__segment" fill="#0CA899" fill-rule="nonzero" points="20.9 15.215 5.565 26.11 11.565 28.06"></polygon>
  <polygon class="hig__progress-ring__segment" fill="#0ED3BE" fill-rule="nonzero" points="11.565 28.06 5.565 26.11 5.565 45.89"></polygon>
  <polygon class="hig__progress-ring__segment" fill="#0CA899" fill-rule="nonzero" points="11.565 28.06 5.565 45.89 11.565 43.94"></polygon>
  <polygon class="hig__progress-ring__segment" fill="#0ED3BE" fill-rule="nonzero" points="11.565 43.94 5.565 45.89 17.19 61.89"></polygon>
  <polygon class="hig__progress-ring__segment" fill="#0CA899" fill-rule="nonzero" points="11.565 43.94 17.19 61.89 20.9 56.785"></polygon>
  <polygon class="hig__progress-ring__segment" fill="#0ED3BE" fill-rule="nonzero" points="20.9 56.785 17.19 61.89 36 68"></polygon>
  <polygon class="hig__progress-ring__segment" fill="#0CA899" fill-rule="nonzero" points="20.9 56.785 36 68 36 61.69"></polygon>
  <polygon class="hig__progress-ring__segment" fill="#0ED3BE" fill-rule="nonzero" points="36 61.69 36 68 54.81 61.89"></polygon>
  <polygon class="hig__progress-ring__segment" fill="#0CA899" fill-rule="nonzero" points="36 61.69 54.81 61.89 51.1 56.785"></polygon>
  <polygon class="hig__progress-ring__segment" fill="#0ED3BE" fill-rule="nonzero" points="51.1 56.785 54.81 61.89 66.435 45.89"></polygon>
  <polygon class="hig__progress-ring__segment" fill="#0CA899" fill-rule="nonzero" points="51.1 56.785 66.435 45.89 60.435 43.94"></polygon>
  <polygon class="hig__progress-ring__segment" fill="#0ED3BE" fill-rule="nonzero" points="60.435 43.94 66.435 45.89 66.435 26.11"></polygon>
  <polygon class="hig__progress-ring__segment" fill="#0CA899" fill-rule="nonzero" points="60.435 43.94 66.435 26.11 60.435 28.06"></polygon>
  <polygon class="hig__progress-ring__segment" fill="#0ED3BE" fill-rule="nonzero" points="60.435 28.06 66.435 26.11 54.81 10.11"></polygon>
  <polygon class="hig__progress-ring__segment" fill="#0CA899" fill-rule="nonzero" points="60.435 28.06 54.81 10.11 51.1 15.215"></polygon>
  <polygon class="hig__progress-ring__segment" fill="#0ED3BE" fill-rule="nonzero" points="51.1 15.215 54.81 10.11 36 4"></polygon>
  <polygon class="hig__progress-ring__segment" fill="#0CA899" fill-rule="nonzero" points="51.1 15.215 36 4 36 10.31"></polygon>
  <polygon class="hig__progress-ring__mask" fill="#FFFFFF" fill-rule="nonzero" points="60.43 43.94 51.1 56.78 36 61.69 20.9 56.78 11.57 43.94 11.57 28.06 20.9 15.22 36 10.31 51.1 15.22 60.43 28.07"></polygon>
</svg>
