<svg xmlns="http://www.w3.org/2000/svg" width="16" height="16" viewBox="0 0 16 16"><path d="M3.72,7.49C1.39,7.6.07,8.84,0,12.19V16H8V12.5c0-3.64-1.2-4.9-3.63-5H3.72Z"/><path d="M4,7C5.62,7,6.86,5.24,6.86,3.61A3.08,3.08,0,0,0,4,.44,2.93,2.93,0,0,0,1.14,3.61C1.14,5.58,2.38,7,4,7Z"/><path d="M11.56,8.57c1.34,0,2.37-1.48,2.37-2.82a2.56,2.56,0,0,0-2.37-2.63A2.43,2.43,0,0,0,9.19,5.75,2.56,2.56,0,0,0,11.56,8.57Z"/><path d="M11.86,9h-.53A2.78,2.78,0,0,0,8.82,10.3,11.94,11.94,0,0,1,9,12.5V16h5.87V13.1C14.87,10.09,13.88,9.05,11.86,9Z"/></svg>