<svg xmlns="http://www.w3.org/2000/svg" width="16" height="16" viewBox="0 0 16 16"><polygon points="6.86 12.93 6 16 9.07 15.14 9.08 15.14 6.86 12.92 6.86 12.93"/><rect x="7.83" y="9.71" width="5.8" height="3.13" transform="translate(-4.83 10.89) rotate(-45)"/><path d="M14.12,6h-.19a.62.62,0,0,0-.32.17L12.38,7.41l2.21,2.21,1.23-1.23A.62.62,0,0,0,16,8.07c0-.05,0-.1,0-.15v0A1.88,1.88,0,0,0,14.12,6Z"/><path d="M5,11v2H4V10H8.37L12.9,5.47A1.67,1.67,0,0,1,13.73,5L14,5V0H0V11l3,3H5.52L6,12.4,7.37,11ZM3,1H4V5h6V1h1V6H3Z"/></svg>
