<svg xmlns="http://www.w3.org/2000/svg" width="16" height="16" viewBox="0 0 16 16"><path d="M16,3.54a6.61,6.61,0,0,1-1.89.52,3.32,3.32,0,0,0,1.45-1.82,6.62,6.62,0,0,1-2.09.8A3.28,3.28,0,0,0,7.79,5.28,3.08,3.08,0,0,0,7.88,6,9.32,9.32,0,0,1,1.11,2.6,3.29,3.29,0,0,0,2.13,7,3.29,3.29,0,0,1,.64,6.57v0A3.28,3.28,0,0,0,3.28,9.83a3.22,3.22,0,0,1-1.49.06,3.3,3.3,0,0,0,3.07,2.28,6.58,6.58,0,0,1-4.08,1.4A5.11,5.11,0,0,1,0,13.52,9.22,9.22,0,0,0,5,15a9.27,9.27,0,0,0,9.34-9.34c0-.14,0-.28,0-.42A6.79,6.79,0,0,0,16,3.54Z"/></svg>