<?xml version="1.0" encoding="utf-8"?>
<!-- Generator: Adobe Illustrator 16.0.4, SVG Export Plug-In . SVG Version: 6.00 Build 0)  -->
<!DOCTYPE svg PUBLIC "-//W3C//DTD SVG 1.1//EN" "http://www.w3.org/Graphics/SVG/1.1/DTD/svg11.dtd">
<svg version="1.1" id="_x2D_--SET_2_16x16_EDITABLE"
	 xmlns="http://www.w3.org/2000/svg" xmlns:xlink="http://www.w3.org/1999/xlink" x="0px" y="0px" width="16px" height="16px"
	 viewBox="5361 2145 16 16" enable-background="new 5361 2145 16 16" xml:space="preserve">
<g>
	<path d="M5361.872,2158.544c-0.456-0.457-0.707-1.058-0.712-1.701c-0.004-0.656,0.254-1.284,0.727-1.755l8.148-8.152
		c1.479-1.476,4.166-0.666,5.367,0.54c1.223,1.219,2.141,3.841,0.571,5.405l-6.806,6.807c-0.323,0.321-0.843,0.321-1.164,0
		c-0.322-0.322-0.322-0.843,0-1.168l6.712-6.692c1.021-1.164,0.253-2.457-0.476-3.189c-0.674-0.672-2.157-1.491-3.197-0.45l-7.98,8
		c-0.563,0.525-0.229,1.167-0.045,1.364c0.561,0.599,1.211,0.053,1.42-0.156l7.229-7.291c0.32-0.322,0.845-0.322,1.167,0
		c0.317,0.323,0.214,0.945-0.104,1.269l-7.357,7.198c-0.992,0.993-2.459,0.991-3.481-0.006
		C5361.887,2158.56,5361.879,2158.55,5361.872,2158.544z"/>
</g>
</svg>
