<svg xmlns="http://www.w3.org/2000/svg" width="16" height="16" viewBox="0 0 16 16"><title>bill-stack-16</title><rect x="6" y="2" width="4" height="12"/><rect y="11" width="5" height="1"/><rect x="11" y="11" width="5" height="1"/><polygon points="0 10 5 10 5 8 2 8 2 4 5 4 5 2 0 2 0 10"/><polygon points="11 2 11 4 14 4 14 8 11 8 11 10 16 10 16 2 11 2"/><rect x="3" y="5" width="2" height="2"/><rect x="11" y="5" width="2" height="2"/><rect x="11" y="13" width="5" height="1"/><rect y="13" width="5" height="1"/></svg>