<?xml version="1.0" encoding="utf-8"?>
<!-- Generator: Adobe Illustrator 16.0.4, SVG Export Plug-In . SVG Version: 6.00 Build 0)  -->
<!DOCTYPE svg PUBLIC "-//W3C//DTD SVG 1.1//EN" "http://www.w3.org/Graphics/SVG/1.1/DTD/svg11.dtd">
<svg version="1.1" id="_x2D_--SET_2_16x16_EDITABLE"
	 xmlns="http://www.w3.org/2000/svg" xmlns:xlink="http://www.w3.org/1999/xlink" x="0px" y="0px" width="16px" height="16px"
	 viewBox="5361 1309 16 16" enable-background="new 5361 1309 16 16" xml:space="preserve">
<g>
	<path d="M5364.693,1320.799c-0.881,0-1.531-1.019-1.531-3.395c0-2.377,0.664-3.394,1.492-3.394c0.719,0,1.125,0.584,1.371,1.887
		l1.887-0.543c-0.352-2.079-1.342-3.125-3.203-3.125c-2.295,0-3.6,1.876-3.6,5.187c0,3.342,1.359,5.161,3.57,5.161
		c1.902,0,2.895-1.195,3.301-3.326l-1.859-0.585C5365.861,1320.052,5365.414,1320.799,5364.693,1320.799z"/>
	<path d="M5374.094,1318.666c-0.258,1.386-0.705,2.133-1.426,2.133c-0.883,0-1.533-1.019-1.533-3.395
		c0-2.377,0.664-3.394,1.494-3.394c0.719,0,1.125,0.584,1.369,1.887l1.891-0.543c-0.354-2.079-1.344-3.125-3.205-3.125
		c-2.293,0-3.598,1.876-3.598,5.187c0,3.342,1.355,5.161,3.57,5.161c1.9,0,2.891-1.195,3.301-3.326L5374.094,1318.666z"/>
</g>
</svg>
