<svg xmlns="http://www.w3.org/2000/svg" width="16" height="16" viewBox="0 0 16 16"><path d="M3.69,11.8c-.88,0-1.53-1-1.53-3.4S2.83,5,3.65,5,4.78,5.59,5,6.9l1.88-.55c-.35-2.08-1.34-3.12-3.2-3.12C1.41,3.23.11,5.1.11,8.42s1.36,5.16,3.57,5.16c1.9,0,2.89-1.2,3.3-3.33L5.12,9.67C4.86,11.05,4.41,11.8,3.69,11.8Z"/><path d="M13.09,9.67c-.25,1.38-.7,2.13-1.42,2.13-.88,0-1.53-1-1.53-3.4S10.8,5,11.63,5,12.75,5.59,13,6.9l1.89-.55c-.35-2.07-1.34-3.12-3.21-3.12-2.29,0-3.59,1.87-3.59,5.19s1.35,5.16,3.57,5.16c1.9,0,2.89-1.2,3.3-3.33Z"/></svg>