<svg xmlns="http://www.w3.org/2000/svg" width="16" height="16" viewBox="0 0 16 16">
  <title>cost-control-16</title>
  <g id="assets">
    <rect x="6" y="2" width="4" height="12"/>
    <rect y="11" width="5" height="1"/>
    <rect x="11" y="11" width="5" height="1"/>
    <path d="M5,4V2H1A1,1,0,0,0,0,3v7H5V8H2V4Z"/>
    <path d="M11,2V4h3V8H11v2h5V3a1,1,0,0,0-1-1Z"/>
    <rect x="3" y="5" width="2" height="2"/>
    <rect x="11" y="5" width="2" height="2"/>
    <path d="M16,13a1,1,0,0,1-1,1H11V13Z"/>
    <path d="M0,13a1,1,0,0,0,1,1H5V13Z"/>
  </g>
</svg>
