<svg xmlns="http://www.w3.org/2000/svg" width="16" height="16" viewBox="0 0 16 16"><title>dashboard-16</title><path d="M6,2.15A7.51,7.51,0,0,0,.15,11,7.29,7.29,0,0,0,1,13.25a1,1,0,0,0,1.25.42l3-1.22A2.47,2.47,0,0,0,7,13.94a2.6,2.6,0,0,0,.56.06,2.52,2.52,0,0,0,2.28-1.55l3,1.23A1,1,0,0,0,14,13.25,7.51,7.51,0,0,0,6,2.15ZM4,11H1V10H4Zm.65-3.65-2-2,.71-.71,2,2Zm7-2.71.71.71-.9.9a1.33,1.33,0,0,0-1-.46ZM7,3H8V6H7Zm2,8.86A1.5,1.5,0,0,1,7.23,13l-.07,0a1.46,1.46,0,0,1-1.07-1,1.51,1.51,0,0,1,.42-1.64l3.77-3.5a.29.29,0,0,1,.42,0,.3.3,0,0,1,.06.3S9.4,10.67,9,11.86ZM11,11V10h3v1Z"/></svg>