<svg id="assets" xmlns="http://www.w3.org/2000/svg" width="16" height="16" viewBox="0 0 16 16">
  <title>dashboard-16</title>
  <path d="M6,2.15A7.5,7.5,0,0,0,1,13.25a1,1,0,0,0,1.25.42L5.2,12.45a2.47,2.47,0,0,0,1.74,1.49A2.65,2.65,0,0,0,7.5,14a2.51,2.51,0,0,0,2.28-1.55l3,1.23A1,1,0,0,0,14,13.25,7.51,7.51,0,0,0,6,2.15ZM4,11H1V10H4Zm.65-3.65-2-2,.71-.71,2,2Zm7-2.71.71.71-.9.9a1.3,1.3,0,0,0-1-.46ZM7,3H8V6H7Zm2,8.86A1.5,1.5,0,0,1,7.15,13a1.49,1.49,0,0,1-1.07-1,1.53,1.53,0,0,1,.42-1.64l3.77-3.5a.3.3,0,0,1,.48.33S9.39,10.67,9,11.86ZM11,11V10h3v1Z"/>
</svg>
