<svg width="17" height="18" viewBox="0 0 17 18" fill="none" xmlns="http://www.w3.org/2000/svg">
<g clip-path="url(#clip0_3078_327318)">
<path d="M8 5.79346V9.37246L8.003 9.45646L10.252 11.0375" stroke="#808080" stroke-width="2" stroke-linecap="round" stroke-linejoin="round"/>
<path d="M14.667 4.55542C13.479 2.77442 11.67 1.56242 9.571 1.14342C7.47 0.725421 5.335 1.14642 3.554 2.33342C1.774 3.51942 0.562 5.33042 0.142 7.42842L2.103 7.82142C2.418 6.24642 3.328 4.88742 4.664 3.99742C6 3.10642 7.605 2.79142 9.179 3.10442C10.754 3.41942 12.112 4.32842 13.003 5.66542C13.894 7.00142 14.211 8.60542 13.896 10.1804C13.246 13.4324 10.071 15.5494 6.82 14.8984C5.604 14.6554 4.506 14.0224 3.657 13.1294L5.739 11.6734L0.003 9.58242L0 15.6864L1.992 14.2934C3.147 15.6044 4.707 16.5144 6.428 16.8584C6.956 16.9634 7.482 17.0144 8.001 17.0144C11.741 17.0144 15.096 14.3764 15.856 10.5724C16.276 8.47342 15.854 6.33742 14.667 4.55542Z" fill="#808080"/>
</g>
<defs>
<clipPath id="clip0_3078_327318">
<rect width="16.015" height="16.029" fill="white" transform="translate(0 0.985474)"/>
</clipPath>
</defs>
</svg>
