<svg xmlns="http://www.w3.org/2000/svg" width="16" height="16" viewBox="0 0 16 16"><path d="M4,7.29A3.91,3.91,0,0,0,0,11H0v4H5.24L6,12.4l1.94-1.94A3.94,3.94,0,0,0,4,7.29Z"/><polygon points="6.86 12.93 6 16 9.07 15.14 9.08 15.14 6.86 12.92 6.86 12.93"/><rect x="7.83" y="9.71" width="5.8" height="3.13" transform="translate(-4.83 10.89) rotate(-45)"/><path d="M14.12,6h-.19a.62.62,0,0,0-.32.17L12.38,7.41l2.21,2.21,1.23-1.23A.62.62,0,0,0,16,8.07c0-.05,0-.1,0-.15v0A1.88,1.88,0,0,0,14.12,6Z"/><ellipse cx="4" cy="3.51" rx="2.63" ry="3"/></svg>