<?xml version="1.0" encoding="utf-8"?>
<!-- Generator: Adobe Illustrator 16.0.4, SVG Export Plug-In . SVG Version: 6.00 Build 0)  -->
<!DOCTYPE svg PUBLIC "-//W3C//DTD SVG 1.1//EN" "http://www.w3.org/Graphics/SVG/1.1/DTD/svg11.dtd">
<svg version="1.1" id="_x2D_--SET_2_16x16_EDITABLE"
	 xmlns="http://www.w3.org/2000/svg" xmlns:xlink="http://www.w3.org/1999/xlink" x="0px" y="0px" width="16px" height="16px"
	 viewBox="5361 2783 16 16" enable-background="new 5361 2783 16 16" xml:space="preserve">
<g>
	<path d="M5369.58,2793.375c-0.061-0.001-0.117-0.016-0.172-0.043l-4.408-1.795v2.052c0,0.092,0.066,0.349,0.135,0.411
		c0.52,0.479,2.498,2,4.365,2c1.865,0,3.844-1.521,4.363-2c0.068-0.062,0.137-0.319,0.137-0.411v-2.261l-4.242,2.006
		C5369.701,2793.362,5369.641,2793.376,5369.58,2793.375z"/>
	<polygon points="5364,2798 5364,2789.438 5363,2789.031 5363,2798 	"/>
	<path d="M5376.754,2787.634l-7.006-3.49c-0.047-0.018-0.092-0.027-0.139-0.027c-0.047-0.001-0.09,0.006-0.133,0.021l-8.213,3.481
		c-0.148,0.051-0.252,0.186-0.264,0.342s0.072,0.305,0.213,0.375l1.787,0.696l5.543-2.489l1.478,0.5l-5.562,2.604l4.95,1.969
		c0.055,0.027,0.111,0.042,0.172,0.043s0.121-0.013,0.178-0.041l4.242-1.976l2.781-1.296c0.139-0.066,0.223-0.21,0.217-0.363
		S5376.896,2787.691,5376.754,2787.634z"/>
</g>
</svg>
