<svg xmlns="http://www.w3.org/2000/svg" width="16" height="16" viewBox="0 0 16 16"><title>education-16</title><path d="M8.58,10.38a.55.55,0,0,1-.17-.05L4,8.54v2.05a.84.84,0,0,0,.14.41A7.68,7.68,0,0,0,8.5,13a7.64,7.64,0,0,0,4.36-2,.84.84,0,0,0,.14-.41V8.33l-4.24,2A.41.41,0,0,1,8.58,10.38Z"/><polygon points="3 15 3 6.44 2 6.03 2 15 3 15"/><path d="M15.76,4.63l-7-3.49-.14,0a.27.27,0,0,0-.13,0L.27,4.62A.39.39,0,0,0,0,5a.39.39,0,0,0,.21.38L2,6,7.54,3.54,9,4,3.46,6.65l5,2a.53.53,0,0,0,.17,0,.39.39,0,0,0,.18,0l4.24-2,2.78-1.29A.39.39,0,0,0,16,5,.41.41,0,0,0,15.76,4.63Z"/></svg>