<svg xmlns="http://www.w3.org/2000/svg" width="16" height="16" viewBox="0 0 16 16">
  <title>field-16</title>
  <g id="assets">
    <path d="M2.75,14,2,13l0-.05C3.19,11.51,5.6,11,7.48,11s4.33.51,5.48,1.95L13,13l-.75,1Z"/>
    <g>
      <path d="M8,2.5a.5.5,0,0,0-1,0V3H8Z"/>
      <path d="M14,10.07a7.23,7.23,0,0,0-3-6V6H10V4h1V3.5a.5.5,0,0,0-1,0v0A6,6,0,0,0,8,3V6H7V3a6,6,0,0,0-2,.52v0a.5.5,0,0,0-1,0V4H5V6H4V4.13a7.21,7.21,0,0,0-3,5.94C1,10.36,0,11,0,11v1H1.55c1.84-1.85,5-2,5.93-2s4.17.15,6,2H15V11S14,10.36,14,10.07Z"/>
    </g>
  </g>
</svg>
