<svg xmlns="http://www.w3.org/2000/svg" width="16" height="16" viewBox="0 0 16 16"><path d="M13.29,8.81A2.05,2.05,0,0,0,12,9.23V14h4V12c0-2.28-.78-3.11-2.31-3.18h-.4Z"/><path d="M8.24,8h-.5C5.92,8.08,5.06,9,5,11.49V14h6V11.77C11,9.06,10.14,8.08,8.24,8Z"/><path d="M13.5,7.88a1.91,1.91,0,0,0,1.69-2,1.91,1.91,0,0,0-1.69-2,1.8,1.8,0,0,0-1.69,2A1.77,1.77,0,0,0,13.5,7.88Z"/><path d="M0,12v2H4V9.23a2.05,2.05,0,0,0-1.29-.42h-.4C.78,8.87,0,9.7,0,12Z"/><path d="M2.5,3.88a1.91,1.91,0,0,0-1.69,2,1.91,1.91,0,0,0,1.69,2,1.77,1.77,0,0,0,1.69-2A1.8,1.8,0,0,0,2.5,3.88Z"/><path d="M8,6.75A2.32,2.32,0,0,0,10.06,4.3,2.32,2.32,0,0,0,8,1.85,2.21,2.21,0,0,0,5.94,4.3,2.17,2.17,0,0,0,8,6.75Z"/></svg>