<?xml version="1.0" encoding="utf-8"?>
<!-- Generator: Adobe Illustrator 16.0.4, SVG Export Plug-In . SVG Version: 6.00 Build 0)  -->
<!DOCTYPE svg PUBLIC "-//W3C//DTD SVG 1.1//EN" "http://www.w3.org/Graphics/SVG/1.1/DTD/svg11.dtd">
<svg version="1.1" id="_x2D_--SET_2_16x16_EDITABLE"
	 xmlns="http://www.w3.org/2000/svg" xmlns:xlink="http://www.w3.org/1999/xlink" x="0px" y="0px" width="16px" height="16px"
	 viewBox="5361 2743 16 16" enable-background="new 5361 2743 16 16" xml:space="preserve">
<g>
	<path d="M5374.291,2753.806c-0.559,0.023-0.955,0.155-1.291,0.421V2759h3c0.553,0,1-0.447,1-1v-1.016
		c0-2.281-0.783-3.114-2.307-3.179H5374.291z"/>
	<path d="M5369.233,2752.893h-0.485c-1.769,0.077-2.607,1.017-2.662,3.556v2.136c0,0.186,0.176,0.396,0.354,0.416h5.202
		c0.17-0.019,0.256-0.245,0.271-0.416v-1.852C5371.914,2753.977,5371.076,2752.972,5369.233,2752.893z"/>
	<path d="M5374.5,2752.875c0.953,0,1.685-0.983,1.685-2c0-1.018-0.731-2-1.685-2c-0.955,0-1.688,0.826-1.688,2
		C5372.812,2752.109,5373.545,2752.875,5374.5,2752.875z"/>
	<path d="M5361,2756.984V2758c0,0.553,0.447,1,1,1h3v-4.773c-0.336-0.266-0.732-0.397-1.291-0.421h-0.402
		C5361.783,2753.87,5361,2754.703,5361,2756.984z"/>
	<path d="M5363.5,2748.875c-0.953,0-1.686,0.982-1.686,2c0,1.017,0.732,2,1.686,2c0.955,0,1.688-0.766,1.688-2
		C5365.188,2749.701,5364.455,2748.875,5363.5,2748.875z"/>
	<path d="M5369.002,2751.75c1.168,0,2.062-1.204,2.062-2.449c0-1.246-0.895-2.449-2.062-2.449c-1.169,0-2.066,1.012-2.066,2.449
		C5366.936,2750.812,5367.833,2751.75,5369.002,2751.75z"/>
</g>
</svg>
