<svg xmlns="http://www.w3.org/2000/svg" width="16" height="16" viewBox="0 0 16 16"><title>globe-16</title><path d="M2.76,7.25H7.25V3.75h-4A13.43,13.43,0,0,0,2.76,7.25Z"/><path d="M7.25,3.25V0A7.57,7.57,0,0,0,5,.45a9,9,0,0,0-1.52,2.8Z"/><path d="M3.28,11.25h4V7.75H2.76A13.43,13.43,0,0,0,3.28,11.25Z"/><path d="M12.1,3.25h1.58A7.54,7.54,0,0,0,11,.86,10.31,10.31,0,0,1,12.1,3.25Z"/><path d="M7.25,15V11.75H3.44A9,9,0,0,0,5,14.55,7.57,7.57,0,0,0,7.25,15Z"/><path d="M12.25,3.75a14,14,0,0,1,.49,3.5H15a7.45,7.45,0,0,0-1-3.5Z"/><path d="M10,.45A7.57,7.57,0,0,0,7.75,0V3.25h3.81A9,9,0,0,0,10,.45Z"/><path d="M12.25,11.25H14a7.45,7.45,0,0,0,1-3.5H12.74A14,14,0,0,1,12.25,11.25Z"/><path d="M12.24,7.75H7.75v3.5h4A13.43,13.43,0,0,0,12.24,7.75Z"/><path d="M2.9,11.75H1.32A7.54,7.54,0,0,0,4,14.14,10.31,10.31,0,0,1,2.9,11.75Z"/><path d="M0,7.75a7.45,7.45,0,0,0,1,3.5H2.75a14,14,0,0,1-.49-3.5Z"/><path d="M12.1,11.75A10.31,10.31,0,0,1,11,14.14a7.54,7.54,0,0,0,2.69-2.39Z"/><path d="M1,3.75a7.45,7.45,0,0,0-1,3.5H2.26a14,14,0,0,1,.49-3.5Z"/><path d="M7.75,11.75V15A7.57,7.57,0,0,0,10,14.55a9,9,0,0,0,1.52-2.8Z"/><path d="M11.72,3.75h-4v3.5h4.49A13.43,13.43,0,0,0,11.72,3.75Z"/><path d="M2.9,3.25A10.31,10.31,0,0,1,4,.86,7.54,7.54,0,0,0,1.32,3.25Z"/></svg>