<?xml version="1.0" encoding="utf-8"?>
<!-- Generator: Adobe Illustrator 16.0.4, SVG Export Plug-In . SVG Version: 6.00 Build 0)  -->
<!DOCTYPE svg PUBLIC "-//W3C//DTD SVG 1.1//EN" "http://www.w3.org/Graphics/SVG/1.1/DTD/svg11.dtd">
<svg version="1.1" id="_x2D_--SET_2_16x16_EDITABLE"
	 xmlns="http://www.w3.org/2000/svg" xmlns:xlink="http://www.w3.org/1999/xlink" x="0px" y="0px" width="16px" height="16px"
	 viewBox="5361 2305 16 16" enable-background="new 5361 2305 16 16" xml:space="preserve">
<path d="M5373.324,2305.527c-1.516,0-2.125,0.662-3.146,1.687s-1.773,1.627-1.773,3.148c0,0.6,0.068,1.179,0.346,1.664l-0.719,0.789
	c-0.482-0.278-1.133-0.328-1.73-0.328c-1.516,0-2.047,0.733-3.07,1.758c-1.021,1.024-1.672,1.642-1.672,3.162
	c0,1.827,1.297,3.128,3.119,3.128c1.518,0,2.125-0.662,3.146-1.687c1.023-1.024,1.773-1.628,1.773-3.148
	c0-0.6-0.066-1.179-0.346-1.664l0.719-0.789c0.482,0.278,1.131,0.328,1.73,0.328c1.516,0,2.047-0.733,3.07-1.758
	c1.021-1.024,1.672-1.642,1.672-3.162C5376.443,2306.828,5375.148,2305.527,5373.324,2305.527z M5366.389,2317.985
	c-0.645,0.632-1.092,1.003-1.711,1.003c-0.865,0-1.58-0.716-1.58-1.581c0-0.619,0.244-1.03,1.283-2.011
	c1.467-1.384,1.391-1.294,2.008-1.294c0.113,0,0.221,0.011,0.326,0.034l-0.709,0.768c-0.336,0.336-0.484,1.057-0.15,1.394
	c0.338,0.338,0.883,0.338,1.217,0l0.861-0.938c0.023,0.104,0.033,0.213,0.033,0.326
	C5367.967,2316.303,5367.838,2316.563,5366.389,2317.985z M5373.623,2310.666c-1.467,1.384-1.393,1.294-2.01,1.294
	c-0.111,0-0.221-0.011-0.326-0.034l0.711-0.768c0.334-0.336,0.51-1.024,0.174-1.361c-0.338-0.338-0.883-0.338-1.219,0l-0.887,0.906
	c-0.021-0.104-0.031-0.213-0.031-0.326c0-0.617,0.129-0.878,1.578-2.3c0.645-0.632,1.094-1.003,1.711-1.003
	c0.865,0,1.58,0.716,1.58,1.581C5374.904,2309.274,5374.66,2309.686,5373.623,2310.666z"/>
</svg>
