<svg xmlns="http://www.w3.org/2000/svg" width="16" height="16" viewBox="0 0 16 16"><title>link-16</title><path d="M14.66,1.35a3.49,3.49,0,0,0-4.95,0L6,5.06a3.49,3.49,0,0,0,0,5l.19.16L7.42,8.94a.26.26,0,0,0,0-.35,1.51,1.51,0,0,1,0-2.12l3.71-3.71a1.51,1.51,0,0,1,2.12,0,1.49,1.49,0,0,1,0,2.12L11.47,6.66A4.7,4.7,0,0,1,11.94,9L14.66,6.3A3.51,3.51,0,0,0,14.66,1.35Z"/><path d="M9.69,6,8.46,7.19a.26.26,0,0,0,0,.35,1.51,1.51,0,0,1,0,2.12L4.76,13.37a1.51,1.51,0,0,1-2.12,0,1.49,1.49,0,0,1,0-2.12L4.41,9.47a4.7,4.7,0,0,1-.47-2.35L1.22,9.83a3.5,3.5,0,0,0,5,4.95l3.71-3.71a3.49,3.49,0,0,0,0-4.95Z"/></svg>