<svg xmlns="http://www.w3.org/2000/svg" width="16" height="16" viewBox="0 0 16 16"><title>manage-access-16</title><path d="M5,6.63C6.51,6.63,7.66,5,7.66,3.45A2.87,2.87,0,0,0,5,.5a2.72,2.72,0,0,0-2.66,3C2.34,5.29,3.49,6.63,5,6.63Z"/><path d="M15,13.2V11.8H14a2.66,2.66,0,0,0-.23-.55l.73-.73-1-1-.73.73A2.66,2.66,0,0,0,12.2,10V9H10.8v1a2.66,2.66,0,0,0-.55.23l-.73-.73-1,1,.73.73A2.66,2.66,0,0,0,9,11.8H8v1.4H9a2.66,2.66,0,0,0,.23.55l-.73.73,1,1,.73-.73a2.66,2.66,0,0,0,.55.23v1h1.4V15a2.66,2.66,0,0,0,.55-.23l.73.73,1-1-.73-.73A2.66,2.66,0,0,0,14,13.2Zm-3.49.47a1.17,1.17,0,1,1,1.16-1.17A1.18,1.18,0,0,1,11.51,13.67Z"/><path d="M8.44,9.22A4.26,4.26,0,0,0,5,7.12H5a4.12,4.12,0,0,0-4,4.33V15H7.76a4.47,4.47,0,0,1,.68-5.78Z"/></svg>