<svg id="assets" xmlns="http://www.w3.org/2000/svg" width="16" height="16" viewBox="0 0 16 16">
  <title>manage-access-16</title>
  <g>
    <path d="M5,6.63C6.51,6.63,7.67,5,7.67,3.45A2.87,2.87,0,0,0,5,.5a2.73,2.73,0,0,0-2.66,3C2.34,5.29,3.49,6.63,5,6.63Z"/>
    <path d="M7.63,15l-.25-.25.6-.81-1-.14V11.18l1-.12-.61-.8,1-1.05A4.25,4.25,0,0,0,5,7.12H5a4.12,4.12,0,0,0-4,4.33V14a1,1,0,0,0,1,1H7.63Z"/>
    <path d="M15,12.94v-.87l-.9-.12-.36-.88.55-.73-.64-.62-.72.55-.87-.36L11.94,9h-.87l-.13.91-.87.36-.72-.56-.63.63.56.73-.36.88L8,12.06v.88l.91.13.35.85-.56.74.63.63.73-.56.85.36.13.91h.88l.12-.9.87-.36.73.56.63-.63-.55-.72.36-.87Zm-3.5,1.13h0a1.56,1.56,0,1,1,1.57-1.56A1.56,1.56,0,0,1,11.5,14.06Z"/>
  </g>
</svg>
