<?xml version="1.0" encoding="utf-8"?>
<!-- Generator: Adobe Illustrator 21.1.0, SVG Export Plug-In . SVG Version: 6.00 Build 0)  -->
<svg version="1.1" id="Layer_1" xmlns="http://www.w3.org/2000/svg" xmlns:xlink="http://www.w3.org/1999/xlink" x="0px" y="0px"
	 viewBox="0 0 16 16" style="enable-background:new 0 0 16 16;" xml:space="preserve">
<path d="M13,15v-3.7L5.2,8l1.7-4H2C1.4,4,1,4.4,1,5v10c0,0.6,0.4,1,1,1h10C12.6,16,13,15.6,13,15z"/>
<path d="M16,4c0-0.4-0.2-0.7-0.6-0.9l-4.7-2.1c-0.5-0.2-1.1,0-1.3,0.5L7.3,6.4c-0.2,0.5,0,1.1,0.5,1.3l4.7,2.1
	c0.5,0.2,1.1,0,1.3-0.5l2.1-4.7C16,4.4,16,4.2,16,4L16,4z"/>
</svg>
