<svg id="assets" xmlns="http://www.w3.org/2000/svg" width="16" height="16" viewBox="0 0 16 16">
  <title>online-viewers-16</title>
  <g>
    <path d="M7.25,3.25V0A7.46,7.46,0,0,0,5,.45a9,9,0,0,0-1.52,2.8Z"/>
    <path d="M7.25,15V12.11c-.2-.12-.39-.24-.56-.36H3.44A9,9,0,0,0,5,14.55,7.46,7.46,0,0,0,7.25,15Z"/>
    <path d="M3.28,11.25H6a7.06,7.06,0,0,1-.74-.73,2.12,2.12,0,0,1-.53-1.44,2.17,2.17,0,0,1,.45-1.33H2.76A13.31,13.31,0,0,0,3.28,11.25Z"/>
    <path d="M2.76,7.25H5.69A10.15,10.15,0,0,1,7.25,6V3.75h-4A13.31,13.31,0,0,0,2.76,7.25Z"/>
    <path d="M2.9,11.75H1.32A7.53,7.53,0,0,0,4,14.14,10.21,10.21,0,0,1,2.9,11.75Z"/>
    <path d="M7.75,0V3.25h3.81A9,9,0,0,0,10,.45,7.46,7.46,0,0,0,7.75,0Z"/>
    <path d="M12,4.86c-.08-.38-.17-.75-.27-1.11h-4V5.66A6.56,6.56,0,0,1,11,4.77,6.31,6.31,0,0,1,12,4.86Z"/>
    <path d="M12.1,3.25h1.57A7.53,7.53,0,0,0,11,.86,10.21,10.21,0,0,1,12.1,3.25Z"/>
    <path d="M1,3.75a7.45,7.45,0,0,0-1,3.5H2.26a14,14,0,0,1,.49-3.5Z"/>
    <path d="M7.75,12.39V15a7.46,7.46,0,0,0,2.3-.44,7.88,7.88,0,0,0,.88-1.33A7.51,7.51,0,0,1,7.75,12.39Z"/>
    <path d="M2.9,3.25A10.21,10.21,0,0,1,4,.86,7.53,7.53,0,0,0,1.32,3.25Z"/>
    <path d="M0,7.75a7.45,7.45,0,0,0,1,3.5H2.75a14,14,0,0,1-.49-3.5Z"/>
    <path d="M12.53,5a7.75,7.75,0,0,1,2.32,1A7.44,7.44,0,0,0,14,3.75H12.25C12.36,4.15,12.45,4.56,12.53,5Z"/>
    <path d="M11.52,13.21a9.15,9.15,0,0,1-.53.92,7.5,7.5,0,0,0,1.47-1A7.22,7.22,0,0,1,11.52,13.21Z"/>
  </g>
  <path d="M15.77,8.42h0c-1.3-1.49-5.26-4.55-9.51,0h0a1,1,0,0,0,0,1.25A6.71,6.71,0,0,0,11.08,12,5.42,5.42,0,0,0,15.77,9.6h0A.9.9,0,0,0,16,9,.89.89,0,0,0,15.77,8.42ZM11,11a2,2,0,1,1,2-2A2,2,0,0,1,11,11Z"/>
  <circle cx="11" cy="9" r="1"/>
</svg>
