<svg xmlns="http://www.w3.org/2000/svg" width="16" height="16" viewBox="0 0 16 16"><path d="M3.29,11.25H5.71A10,10,0,0,1,7.25,10V7.75H2.76A13,13,0,0,0,3.29,11.25Z"/><path d="M2.76,7.25H7.25V3.75h-4A13.43,13.43,0,0,0,2.76,7.25Z"/><path d="M7.75,0V3.25h3.81A9,9,0,0,0,10,.45,7.57,7.57,0,0,0,7.75,0Z"/><path d="M7.25,3.25V0A7.57,7.57,0,0,0,5,.45a9,9,0,0,0-1.52,2.8Z"/><path d="M4.77,13.08a2.17,2.17,0,0,1,.46-1.33H3.45A9,9,0,0,0,5,14.55l.54.17-.19-.2A2.13,2.13,0,0,1,4.77,13.08Z"/><path d="M12.17,8.89a10.57,10.57,0,0,0,.07-1.14H7.75V9.66A6.59,6.59,0,0,1,11,8.77,6.37,6.37,0,0,1,12.17,8.89Z"/><path d="M11.72,3.75h-4v3.5h4.49A13.43,13.43,0,0,0,11.72,3.75Z"/><path d="M12.74,7.25H15a7.45,7.45,0,0,0-1-3.5H12.25A14,14,0,0,1,12.74,7.25Z"/><path d="M2.75,11.25a14.42,14.42,0,0,1-.49-3.5H0a7.45,7.45,0,0,0,1,3.5Z"/><path d="M2.75,3.75H1a7.45,7.45,0,0,0-1,3.5H2.26A14,14,0,0,1,2.75,3.75Z"/><path d="M2.9,11.75H1.32A7.58,7.58,0,0,0,4,14.14,10.33,10.33,0,0,1,2.9,11.75Z"/><path d="M12.74,7.75c0,.43,0,.85-.07,1.27a8,8,0,0,1,1.94.84A7.3,7.3,0,0,0,15,7.75Z"/><path d="M12.1,3.25h1.58A7.54,7.54,0,0,0,11,.86,10.31,10.31,0,0,1,12.1,3.25Z"/><path d="M2.9,3.25A10.31,10.31,0,0,1,4,.86,7.54,7.54,0,0,0,1.32,3.25Z"/><path d="M15.77,12.42h0c-1.31-1.49-5.26-4.55-9.52,0h0a.91.91,0,0,0-.23.62,1,1,0,0,0,.23.63A6.77,6.77,0,0,0,11.08,16a5.47,5.47,0,0,0,4.69-2.38h0A1,1,0,0,0,16,13,.94.94,0,0,0,15.77,12.42ZM11,15a2,2,0,1,1,2-2A2,2,0,0,1,11,15Z"/><circle cx="11" cy="13" r="1"/></svg>