<svg xmlns="http://www.w3.org/2000/svg" width="16" height="16" viewBox="0 0 16 16"><path d="M13.3,12.58a7.22,7.22,0,0,1-2.38,1.79l.41.91a8,8,0,0,0,2.72-2l-.75-.65Z"/><path d="M8.51,15a7.08,7.08,0,0,1-2.95-.42l-.35.94A8.05,8.05,0,0,0,8.58,16l-.07-1Z"/><path d="M3.42,13.3a7.36,7.36,0,0,1-1.79-2.38l-.9.41a7.92,7.92,0,0,0,2,2.72l.65-.75Z"/><path d="M1,8.51a7.08,7.08,0,0,1,.42-2.95L.5,5.21A8.05,8.05,0,0,0,0,8.58l1-.07Z"/><path d="M2.7,3.42A7.29,7.29,0,0,1,5.09,1.63L4.67.73A8,8,0,0,0,2,2.77l.75.65Z"/><path d="M7.49,1a7.08,7.08,0,0,1,2.95.42L10.79.5A8.05,8.05,0,0,0,7.42,0l.07,1Z"/><path d="M12.58,2.7a7.16,7.16,0,0,1,1.79,2.39l.91-.42a8,8,0,0,0-2-2.72l-.65.75Z"/><path d="M15,7.49a7.08,7.08,0,0,1-.42,2.95l.94.35A8.05,8.05,0,0,0,16,7.42l-1,.07Z"/></svg>