<?xml version="1.0" encoding="UTF-8"?><svg id="assets" xmlns="http://www.w3.org/2000/svg" width="16" height="16" viewBox="0 0 16 16"><defs><style>.cls-1{fill-rule:evenodd;}</style></defs><polygon class="cls-1" points="4 0 0 4 4 4 4 0"/><path class="cls-1" d="M11.5,6c.52,0,1.02,.08,1.5,.21V0H5V5H0V15H7.26c-.79-.95-1.26-2.17-1.26-3.5,0-3.04,2.46-5.5,5.5-5.5Z"/><path class="cls-1" d="M11.5,7c-2.49,0-4.5,2.01-4.5,4.5s2.01,4.5,4.5,4.5,4.5-2.01,4.5-4.5-2.01-4.5-4.5-4.5Zm.5,5h-1v-4h1v3h3v1h-3Z"/></svg>