<svg xmlns="http://www.w3.org/2000/svg" width="16" height="16" viewBox="0 0 16 16"><title>recommend-16</title><path d="M12.72,14.11s.07,0,.11-.11A1.26,1.26,0,0,0,14,12.75a1.23,1.23,0,0,0-.25-.75.25.25,0,0,1,0-.5,1.25,1.25,0,0,0,0-2.5h0a.25.25,0,0,1-.25-.25.26.26,0,0,1,.27-.23A1.28,1.28,0,0,0,15,7.25,1.25,1.25,0,0,0,13.75,6h-5c0-1.44,1-2.56,1-4.95a1,1,0,1,0-2,0c0,2.24-4.17,5.24-4.17,6.8a1.08,1.08,0,0,1-.8.63,1,1,0,0,0-.72,1v3.91a1,1,0,0,0,.82,1,1.56,1.56,0,0,1,1,.72,4.52,4.52,0,0,0,2.78,1h4A2.1,2.1,0,0,0,12.72,14.11Z"/></svg>