<svg xmlns="http://www.w3.org/2000/svg" width="16" height="16" viewBox="0 0 16 16">
  <title>recommend-16</title>
  <g id="assets">
    <g id="Layer_201" data-name="Layer%201">
      <path d="M12.72,14.11s.07,0,.11-.12a1.25,1.25,0,0,0,.92-2,.25.25,0,0,1,0-.5,1.25,1.25,0,0,0,0-2.5h0a.24.24,0,1,1,0-.48A1.28,1.28,0,0,0,15,7.25,1.25,1.25,0,0,0,13.75,6h-5c0-1.44,1-2.56,1-5a1,1,0,1,0-2,0c0,2.23-4.17,5.24-4.17,6.8a1.13,1.13,0,0,1-.81.63,1,1,0,0,0-.72,1v3.91a1,1,0,0,0,.82,1,1.56,1.56,0,0,1,1,.72,4.56,4.56,0,0,0,2.79,1h4A2.1,2.1,0,0,0,12.72,14.11Z"/>
    </g>
  </g>
</svg>
