<?xml version="1.0" encoding="utf-8"?>
<!-- Generator: Adobe Illustrator 16.0.4, SVG Export Plug-In . SVG Version: 6.00 Build 0)  -->
<!DOCTYPE svg PUBLIC "-//W3C//DTD SVG 1.1//EN" "http://www.w3.org/Graphics/SVG/1.1/DTD/svg11.dtd">
<svg version="1.1" id="_x31_6x16_OUTLINED" xmlns="http://www.w3.org/2000/svg" xmlns:xlink="http://www.w3.org/1999/xlink" x="0px"
	 y="0px" width="16px" height="16px" viewBox="5361 1588 16 16" enable-background="new 5361 1588 16 16" xml:space="preserve">
<g>
</g>
<path d="M5375,1588h-12c-0.542,0-1,0.458-1,1v14c0,0.532,0.468,1,1,1h12c0.543,0,1-0.458,1-1v-14
	C5376,1588.43,5375.57,1588,5375,1588z M5364,1592h5v1h-5V1592z M5374,1602h-10v-1h1v-5h2v5h1v-3h2v3h1v-7h2v7h1V1602z M5374,1591
	h-10v-1h10V1591z"/>
</svg>
