<?xml version="1.0" encoding="utf-8"?>
<!-- Generator: Adobe Illustrator 16.0.4, SVG Export Plug-In . SVG Version: 6.00 Build 0)  -->
<!DOCTYPE svg PUBLIC "-//W3C//DTD SVG 1.1//EN" "http://www.w3.org/Graphics/SVG/1.1/DTD/svg11.dtd">
<svg version="1.1" id="_x2D_--SET_2_16x16_EDITABLE"
	 xmlns="http://www.w3.org/2000/svg" xmlns:xlink="http://www.w3.org/1999/xlink" x="0px" y="0px" width="16px" height="16px"
	 viewBox="5361 3261 16 16" enable-background="new 5361 3261 16 16" xml:space="preserve">
<path d="M5375.914,3263.868c-0.031-0.231-0.229-0.403-0.461-0.403c-5.621,0-5.979-2.188-5.982-2.196
	c-0.086-0.181-0.275-0.288-0.471-0.266c-0.148,0.017-0.283,0.104-0.355,0.229c-0.025,0.042-0.145,2.233-6.111,2.233
	c-0.232,0-0.432,0.172-0.461,0.403c-0.014,0.095-1.059,9.413,6.629,13.011c0.082,0.069,0.188,0.106,0.295,0.106
	c0.014,0,0.023,0,0.037,0c0.107,0,0.213-0.037,0.297-0.106C5377.018,3273.281,5375.928,3263.963,5375.914,3263.868z"/>
</svg>
