<?xml version="1.0" encoding="utf-8"?>
<!-- Generator: Adobe Illustrator 16.0.4, SVG Export Plug-In . SVG Version: 6.00 Build 0)  -->
<!DOCTYPE svg PUBLIC "-//W3C//DTD SVG 1.1//EN" "http://www.w3.org/Graphics/SVG/1.1/DTD/svg11.dtd">
<svg version="1.1" id="_x31_6x16_OUTLINED" xmlns="http://www.w3.org/2000/svg" xmlns:xlink="http://www.w3.org/1999/xlink" x="0px"
	 y="0px" width="16px" height="16px" viewBox="5361 1388 16 16" enable-background="new 5361 1388 16 16" xml:space="preserve">
<g>
</g>
<g>
	<g>
		<path d="M5369,1388c-4.391,0-8,3.612-8,8.001c0,1.999,0.586,3.258,1.488,4.547c0.674-0.658,2.086-2.054,2.504-2.618
			c0.562-0.752,0.812-0.98,0.74-2.006c-0.068-1.025,0.084-2.182,1.182-3.282c1.1-1.098,2.877-1.229,3.855-0.94
			c0.662,0.195,0.336,0.691,0.025,1.002s-2.029,2.027-2.029,2.027s-0.043,1.104,0.225,1.372c0.27,0.27,1.373,0.226,1.373,0.226
			s1.719-1.717,2.029-2.027c0.309-0.311,0.703-0.847,1.001,0.025c0.33,0.963,0.155,2.755-0.942,3.853s-2.254,1.252-3.283,1.182
			c-1.023-0.071-1.252,0.18-2.003,0.74c-0.565,0.422-1.952,1.824-2.603,2.492c1.266,0.855,2.795,1.407,4.438,1.407
			c4.392,0,8-3.611,8-7.999C5377.002,1391.612,5373.392,1388,5369,1388z"/>
	</g>
</g>
</svg>
