<svg xmlns="http://www.w3.org/2000/svg" width="16" height="16" viewBox="0 0 16 16"><title>settings-16</title><path d="M15,9V6H12.79a5.34,5.34,0,0,0-.49-1.18l1.56-1.56L11.74,1.14,10.18,2.7A5.34,5.34,0,0,0,9,2.21V0H6V2.21a5.34,5.34,0,0,0-1.18.49L3.26,1.14,1.14,3.26,2.7,4.82A5.34,5.34,0,0,0,2.21,6H0V9H2.21a5.34,5.34,0,0,0,.49,1.18L1.14,11.74l2.12,2.12L4.82,12.3A5.34,5.34,0,0,0,6,12.79V15H9V12.79a5.34,5.34,0,0,0,1.18-.49l1.56,1.56,2.12-2.12L12.3,10.18A5.34,5.34,0,0,0,12.79,9ZM10,7.5A2.48,2.48,0,1,1,7.52,5,2.5,2.5,0,0,1,10,7.5Z"/></svg>