<?xml version="1.0" encoding="utf-8"?>
<!-- Generator: Adobe Illustrator 21.1.0, SVG Export Plug-In . SVG Version: 6.00 Build 0)  -->
<svg version="1.1" id="Layer_1" xmlns="http://www.w3.org/2000/svg" xmlns:xlink="http://www.w3.org/1999/xlink" x="0px" y="0px"
	 viewBox="0 0 16 16" style="enable-background:new 0 0 16 16;" xml:space="preserve">
<title>share-16</title>
<g id="assets">
	<g id="Layer_202">
		<path d="M10,2.5c0,0.3,0.1,0.6,0.2,0.9L5,6.5C3.9,5.7,2.3,5.9,1.5,7s-0.6,2.7,0.4,3.5c1,0.8,2.5,0.7,3.4-0.3l4.7,2.8
			c0,0.2-0.1,0.3-0.1,0.5c0,1.4,1.1,2.5,2.5,2.5s2.5-1.1,2.5-2.5S13.9,11,12.5,11c-0.7,0-1.4,0.3-1.9,0.8L5.9,9C6,8.8,6,8.7,6,8.5
			c0-0.3-0.1-0.6-0.2-0.9L11,4.5c1.1,0.8,2.7,0.6,3.5-0.5s0.6-2.7-0.5-3.5S11.3-0.1,10.5,1C10.2,1.4,10,1.9,10,2.5L10,2.5z"/>
	</g>
</g>
</svg>
