<svg xmlns="http://www.w3.org/2000/svg" width="16" height="16" viewBox="0 0 16 16">
  <title>social-twitter-16_1</title>
  <g id="assets">
    <g id="Layer_201" data-name="Layer%201">
      <path d="M16,3.54a6.56,6.56,0,0,1-1.89.52,3.29,3.29,0,0,0,1.44-1.82,6.57,6.57,0,0,1-2.08.8A3.29,3.29,0,0,0,7.88,6,9.32,9.32,0,0,1,1.11,2.6,3.28,3.28,0,0,0,2.13,7,3.27,3.27,0,0,1,.64,6.57v0A3.28,3.28,0,0,0,3.28,9.83a3.29,3.29,0,0,1-1.48.06,3.29,3.29,0,0,0,3.07,2.28,6.59,6.59,0,0,1-4.08,1.4,6.66,6.66,0,0,1-.78,0A9.29,9.29,0,0,0,5,15a9.27,9.27,0,0,0,9.34-9.34q0-.21,0-.42A6.67,6.67,0,0,0,16,3.54Z"/>
    </g>
  </g>
</svg>
