<svg xmlns="http://www.w3.org/2000/svg" width="16" height="16" viewBox="0 0 16 16">
  <title>social-instagram-16</title>
  <g id="assets">
    <g>
      <path d="M8,1.44c2.14,0,2.39,0,3.23,0a4.43,4.43,0,0,1,1.49.28,2.48,2.48,0,0,1,.92.6,2.48,2.48,0,0,1,.6.92,4.43,4.43,0,0,1,.28,1.49c0,.84,0,1.1,0,3.23s0,2.39,0,3.23a4.43,4.43,0,0,1-.28,1.49,2.65,2.65,0,0,1-1.52,1.52,4.43,4.43,0,0,1-1.49.28c-.84,0-1.1,0-3.23,0s-2.39,0-3.23,0a4.43,4.43,0,0,1-1.49-.28,2.48,2.48,0,0,1-.92-.6,2.48,2.48,0,0,1-.6-.92,4.43,4.43,0,0,1-.28-1.49c0-.84,0-1.1,0-3.23s0-2.39,0-3.23a4.43,4.43,0,0,1,.28-1.49,2.48,2.48,0,0,1,.6-.92,2.48,2.48,0,0,1,.92-.6,4.43,4.43,0,0,1,1.49-.28c.84,0,1.1,0,3.23,0M8,0C5.83,0,5.55,0,4.7,0A5.87,5.87,0,0,0,2.76.42a3.92,3.92,0,0,0-1.42.92A3.92,3.92,0,0,0,.42,2.76,5.87,5.87,0,0,0,0,4.7C0,5.55,0,5.83,0,8s0,2.45,0,3.3a5.87,5.87,0,0,0,.37,1.94,3.92,3.92,0,0,0,.92,1.42,3.92,3.92,0,0,0,1.42.92A5.87,5.87,0,0,0,4.7,16c.85,0,1.13,0,3.3,0s2.45,0,3.3,0a5.87,5.87,0,0,0,1.94-.37,4.09,4.09,0,0,0,2.34-2.34A5.87,5.87,0,0,0,16,11.3c0-.85,0-1.13,0-3.3s0-2.45,0-3.3a5.87,5.87,0,0,0-.37-1.94,3.92,3.92,0,0,0-.92-1.42A3.92,3.92,0,0,0,13.24.42,5.87,5.87,0,0,0,11.3,0C10.45,0,10.17,0,8,0Z"/>
      <path d="M8,3.89A4.11,4.11,0,1,0,12.11,8,4.11,4.11,0,0,0,8,3.89Zm0,6.77A2.67,2.67,0,1,1,10.67,8,2.67,2.67,0,0,1,8,10.67Z"/>
      <circle cx="12.27" cy="3.73" r="0.96"/>
    </g>
  </g>
</svg>
