<svg xmlns="http://www.w3.org/2000/svg" width="16" height="16" viewBox="0 0 16 16"><title>subscription-16</title><rect x="3" y="3" width="2" height="2"/><rect x="6" y="3" width="4" height="2"/><rect x="3" y="6" width="2" height="2"/><rect x="3" y="9" width="2" height="2"/><path d="M8,9H6v2H7.1A4.84,4.84,0,0,1,8,9Z"/><path d="M15.94,11.44l-1.24.11a2.3,2.3,0,0,1,.05.45,2.79,2.79,0,1,1-1.68-2.52l-.74,1.29,3.55-.33L14.41,7.19l-.7,1.21A3.94,3.94,0,0,0,12,8a4,4,0,1,0,4,4A3.43,3.43,0,0,0,15.94,11.44Z" fill-rule="evenodd"/><path d="M10,7.42V6H6V8H9A5.53,5.53,0,0,1,10,7.42Z"/><path d="M7,12H2V2h9V7.1a5.05,5.05,0,0,1,2,0V0H0V15H8A4.92,4.92,0,0,1,7,12Z"/></svg>