<svg id="assets" xmlns="http://www.w3.org/2000/svg" width="16" height="16" viewBox="0 0 16 16">
  <title>subscriptions-16</title>
  <g>
    <rect x="3" y="6" width="2" height="2"/>
    <rect x="3" y="3" width="2" height="2"/>
    <rect x="6" y="3" width="4" height="2"/>
    <rect x="3" y="9" width="2" height="2"/>
    <path d="M14.74,11.8l-.7,0a.27.27,0,0,0-.28.25,3.59,3.59,0,0,1-.37,1.41,2.85,2.85,0,0,1-3.87.95,2.74,2.74,0,0,1-.86-3.83,2.78,2.78,0,0,1,3.76-.78l0,.32-1.28.31.21,1,3.14-.77-.79-3.33-1,.24L13,8.7A4,4,0,0,0,7.63,9.92a4,4,0,0,0,1.23,5.51,4.09,4.09,0,0,0,5.56-1.36,3.68,3.68,0,0,0,.57-1.7C15,12.21,14.88,11.81,14.74,11.8Z"/>
    <path d="M10,6.73V6H6V8H7.32A5.34,5.34,0,0,1,10,6.73Z"/>
    <path d="M5.64,13.32A5.47,5.47,0,0,1,5.52,12H2V2h9V6.64h.06L11,6.39l2-.49V1a1,1,0,0,0-1-1H1A1,1,0,0,0,0,1V15a1,1,0,0,0,1,1H7.18A5.36,5.36,0,0,1,5.64,13.32Z"/>
  </g>
</svg>
