<?xml version="1.0" encoding="utf-8"?>
<!-- Generator: Adobe Illustrator 16.0.4, SVG Export Plug-In . SVG Version: 6.00 Build 0)  -->
<!DOCTYPE svg PUBLIC "-//W3C//DTD SVG 1.1//EN" "http://www.w3.org/Graphics/SVG/1.1/DTD/svg11.dtd">
<svg version="1.1" id="_x2D_--SET_2_16x16_EDITABLE"
	 xmlns="http://www.w3.org/2000/svg" xmlns:xlink="http://www.w3.org/1999/xlink" x="0px" y="0px" width="16px" height="16px"
	 viewBox="5361 1269 16 16" enable-background="new 5361 1269 16 16" xml:space="preserve">
<g>
	<path d="M5368.655,1271.109c-0.47,0.298-2.253,1.517-3.431,2.295l-0.225,0.148v7.903l0.209,0.149
		c1.855,1.329,2.574,1.687,3.05,1.926c0.17,0.085,0.247,0.154,0.409,0.258c0.226,0.142,0.425,0.211,0.61,0.211
		c0.178,0,0.341-0.065,0.474-0.193c0.073-0.076,0.248-0.254,0.248-0.524v-11.667c0-0.27-0.179-0.443-0.268-0.53
		C5369.486,1270.839,5369.094,1270.828,5368.655,1271.109z"/>
	<path d="M5361,1274.967v5.066c0,0.398,0.454,0.967,0.918,0.967H5364v-7h-2.082C5361.454,1274,5361,1274.568,5361,1274.967z"/>
</g>
<path d="M5373.875,1277.5c0-1.407-0.674-3.5-2.875-3.5v1c1.641,0,1.875,1.805,1.875,2.5c0,0.864-0.293,2.5-1.875,2.5v1
	C5372.969,1281,5373.875,1279.239,5373.875,1277.5z"/>
<path d="M5371,1271v1c2.885,0,4.875,2.288,4.875,5.5c0,2.772-1.606,5.5-4.875,5.5v1c3.464,0,5.875-2.688,5.875-6.5
	C5376.875,1273.709,5374.464,1271,5371,1271z"/>
</svg>
