<?xml version="1.0" encoding="UTF-8"?>
<svg width="24px" height="24px" viewBox="0 0 24 24" version="1.1" xmlns="http://www.w3.org/2000/svg" xmlns:xlink="http://www.w3.org/1999/xlink">
    <!-- Generator: Sketch 44.1 (41455) - http://www.bohemiancoding.com/sketch -->
    <title>hig-light/globalnav/sidenav/icon/buildingops</title>
    <desc>Created with Sketch.</desc>
    <defs>
        <polygon id="path-1" points="7.62713577 0 0 0 0 7.35425399 15.2542715 7.35425399 15.2542715 0"></polygon>
        <polygon id="path-3" points="0 5.55203997 0 0.332311051 15.2543663 0.332311051 15.2543663 5.55203997"></polygon>
        <polygon id="path-5" points="1.28455635e-20 0.467424972 1.28455635e-20 5.68701172 15.2543663 5.68701172 15.2543663 0.467424972"></polygon>
    </defs>
    <g id="Sidenav" stroke="none" stroke-width="1" fill="none" fill-rule="evenodd">
        <g id="hig-light/globalnav/sidenav/icon/buildingops">
            <g id="Page-1" transform="translate(4.680359, 3.469482)">
                <g id="Group-3">
                    <mask id="mask-2" fill="white">
                        <use xlink:href="#path-1"></use>
                    </mask>
                    <g id="Clip-2"></g>
                    <path d="M15.251428,2.36864038 C15.2059319,1.05778418 11.8107859,0 7.62704098,0 C3.44329603,0 0.0472021973,1.05778418 0.00170610352,2.36864038 L-0.000189567057,2.36864038 L-0.000189567057,4.96428731 C0.00928878581,6.28509578 3.42007406,7.35425399 7.62704098,7.35425399 C11.8330601,7.35425399 15.2438453,6.28509578 15.2533237,4.96428731 L15.2542715,4.96428731 L15.2542715,2.36864038 L15.251428,2.36864038 Z" id="Fill-1" fill="#221F20" mask="url(#mask-2)"></path>
                </g>
                <g id="Group-6" transform="translate(0.000000, 6.634847)">
                    <mask id="mask-4" fill="white">
                        <use xlink:href="#path-3"></use>
                    </mask>
                    <g id="Clip-5"></g>
                    <path d="M15.2069746,0.332311051 C14.7885053,1.52990094 11.5544913,2.46304478 7.62713577,2.46304478 C3.69883242,2.46304478 0.46576626,1.52990094 0.0472969808,0.332311051 C0.0202836751,0.40908571 0.0046443929,0.487756038 0.00180088704,0.566426367 L-9.47835286e-05,0.566426367 L-9.47835286e-05,3.1620733 C0.00938356934,4.48193394 3.42016885,5.55203997 7.62713577,5.55203997 C11.8331549,5.55203997 15.2439401,4.48193394 15.2534185,3.1620733 L15.2543663,3.1620733 L15.2543663,0.566426367 L15.2515228,0.566426367 C15.2486793,0.487756038 15.23304,0.40908571 15.2069746,0.332311051" id="Fill-4" fill="#221F20" mask="url(#mask-4)"></path>
                </g>
                <g id="Group-9" transform="translate(0.000000, 11.374023)">
                    <mask id="mask-6" fill="white">
                        <use xlink:href="#path-5"></use>
                    </mask>
                    <g id="Clip-8"></g>
                    <path d="M15.2069746,0.467424972 C14.7885053,1.66596269 11.5544913,2.5981587 7.62713577,2.5981587 C3.69883242,2.5981587 0.46576626,1.66596269 0.0472969808,0.467424972 C0.0202836751,0.54419963 0.0046443929,0.622869958 0.00180088704,0.702488123 L-9.47835286e-05,0.702488123 L-9.47835286e-05,3.29718722 C0.00938356934,4.61799569 3.42016885,5.68715389 7.62713577,5.68715389 C11.8331549,5.68715389 15.2439401,4.61799569 15.2534185,3.29718722 L15.2543663,3.29718722 L15.2543663,0.702488123 L15.2515228,0.702488123 C15.2486793,0.622869958 15.23304,0.54419963 15.2069746,0.467424972" id="Fill-7" fill="#221F20" mask="url(#mask-6)"></path>
                </g>
            </g>
        </g>
    </g>
</svg>