<?xml version="1.0" encoding="UTF-8"?>
<svg width="24px" height="24px" viewBox="0 0 24 24" version="1.1" xmlns="http://www.w3.org/2000/svg" xmlns:xlink="http://www.w3.org/1999/xlink">
    <!-- Generator: Sketch 44.1 (41455) - http://www.bohemiancoding.com/sketch -->
    <title>hig/icon/construction-management</title>
    <desc>Created with Sketch.</desc>
    <defs></defs>
    <g id="Symbols" stroke="none" stroke-width="1" fill="none" fill-rule="evenodd">
        <g id="hig/icon/construction-management" fill="#353636">
            <path d="M11.8615301,19.7996624 L7.57771669,19.8342143 C7.57771669,19.8342143 5.89857353,19.1579081 5.66585106,18.0222466 C4.00552806,18.0222466 2.25110424,18.0222466 2.25110424,18.0222466 C2.25110424,18.0222466 1.06988597,17.6569069 1.06988597,16.536301 C1.06988597,15.415695 1.8824921,15.1601847 1.8824921,15.1601847 C1.8824921,15.1601847 1.63186012,11.9436144 3.18543434,9.32092413 C4.18715494,7.62985405 6.32364616,5.77584061 7.20475365,5.60113179 C7.20475365,8.6751622 7.31261545,11.8171048 7.31261545,11.8171048 C7.31261545,11.8171048 7.32323974,12.6129885 8.11257362,12.6129885 C8.9019075,12.6129885 8.9019075,11.8273946 8.9019075,11.8273946 L8.86882044,4.95461167 C8.86882044,4.95461167 9.23174888,4.69949494 9.97124906,4.52967937 C10.7107492,4.35986381 11.1745941,4.43026858 11.1745941,4.43026858 L11.1628568,12.6694196 C11.1628568,12.6694196 11.1119955,13.5221317 11.9594424,13.5221317 C12.8068893,13.5221317 12.8068893,12.6191624 12.8068893,12.6191624 L12.8068893,4.43026858 C12.8068893,4.43026858 13.3438764,4.41826436 14.009273,4.56576811 C14.6746696,4.71327186 15.1323938,4.92829162 15.1323938,4.92829162 L15.041632,11.596363 C15.041632,11.596363 14.9889153,12.713503 15.837644,12.713503 C16.6863727,12.713503 16.6478217,11.8892413 16.6478217,11.8892413 L16.6863727,5.60113179 C16.6863727,5.60113179 18.8812491,6.99360334 20.4393766,9.80638286 C21.9975041,12.6191624 21.9918378,15.1967945 21.9918378,15.1967945 C21.9918378,15.1967945 22.930114,15.5178341 22.930114,16.536301 C22.930114,17.5547678 21.8478534,17.8935708 21.8478534,17.8935708 L18.2676713,17.964949 C18.2676713,17.964949 18.2897293,18.4600476 17.6520698,18.9704183 C17.0144102,19.4807891 16.3504429,19.7837404 16.3504429,19.7837404 L11.8615301,19.7996624 Z" id="icon-construction"></path>
        </g>
    </g>
</svg>