<?xml version="1.0" encoding="UTF-8"?>
<svg width="24px" height="24px" viewBox="0 0 24 24" version="1.1" xmlns="http://www.w3.org/2000/svg" xmlns:xlink="http://www.w3.org/1999/xlink">
    <!-- Generator: Sketch 44.1 (41455) - http://www.bohemiancoding.com/sketch -->
    <title>hig-light/globalnav/sidenav/icon/costcontrol</title>
    <desc>Created with Sketch.</desc>
    <defs></defs>
    <g id="Sidenav" stroke="none" stroke-width="1" fill="none" fill-rule="evenodd">
        <g id="hig-light/globalnav/sidenav/icon/costcontrol" fill="#221F20">
            <g id="Page-1" transform="translate(3.000000, 5.250000)">
                <path d="M14.1323,8.8506 C13.6123,8.8506 13.1918,8.4286 13.1918,7.9101 C13.1918,7.3896 13.6123,6.9676 14.1323,6.9676 C14.6533,6.9676 15.0738,7.3896 15.0738,7.9101 C15.0738,8.4286 14.6533,8.8506 14.1323,8.8506 M17.2053,5.6571 L12.9343,5.6571 C12.4948,5.6571 12.1393,6.0136 12.1393,6.4531 L12.1393,9.3661 C12.1393,9.8046 12.4948,10.1611 12.9343,10.1611 L17.2053,10.1611 C17.6443,10.1611 17.9998,9.8046 17.9998,9.3661 L17.9998,6.4531 C17.9998,6.0136 17.6443,5.6571 17.2053,5.6571" id="Fill-1"></path>
                <path d="M0.8242,1.59765 C0.8242,1.10365 1.2247,0.70315 1.7182,0.70315 L16.2462,0.70315 C16.7392,0.70315 17.1397,1.10365 17.1397,1.59765 C17.1397,2.09065 16.7392,2.49115 16.2462,2.49115 L1.7182,2.49115 C1.2247,2.49115 0.8242,2.09065 0.8242,1.59765 L0.8242,1.59765 Z M17.9542,10.96765 C17.8787,11.28915 17.2042,11.18965 16.5892,11.20215 C16.5807,11.20215 16.3832,11.20715 16.0887,11.20915 C16.0687,11.20915 16.0522,11.20615 16.0317,11.20615 L12.4112,11.20615 C11.7262,11.20615 11.1687,10.64965 11.1687,9.96465 L11.1687,5.85465 C11.1687,5.17015 11.7262,4.61315 12.4112,4.61315 L17.4592,4.61315 C17.9567,4.61315 17.9727,4.19815 17.9727,4.19815 L17.9727,1.57215 C17.9727,0.70715 17.2652,0.00015 16.4007,0.00015 L1.5717,0.00015 C0.7077,0.00015 0.0002,0.70715 0.0002,1.57215 L0.0002,12.89165 C0.0002,13.75565 0.7077,14.46265 1.5717,14.46265 L16.4007,14.46265 C17.2652,14.46265 17.9727,13.75565 17.9727,12.89165 L17.9727,12.63765 C17.9727,12.63765 17.9732,12.60665 17.9687,12.55665 L17.9772,10.95715 L17.9542,10.96765 Z" id="Fill-3"></path>
            </g>
        </g>
    </g>
</svg>