<?xml version="1.0" encoding="UTF-8"?>
<svg width="24px" height="24px" viewBox="0 0 24 24" version="1.1" xmlns="http://www.w3.org/2000/svg" xmlns:xlink="http://www.w3.org/1999/xlink">
    <!-- Generator: Sketch 44.1 (41455) - http://www.bohemiancoding.com/sketch -->
    <title>hig-light/globalnav/sidenav/icon/document-management</title>
    <desc>Created with Sketch.</desc>
    <defs></defs>
    <g id="Sidenav" stroke="none" stroke-width="1" fill="none" fill-rule="evenodd">
        <g id="hig-light/globalnav/sidenav/icon/document-management" fill="#353636">
            <g id="Page-1" transform="translate(5.250000, 3.000000)">
                <path d="M1.334,16.6455 L12.8955,16.6455 L12.8955,3.8855 L1.334,3.8855 L1.334,16.6455 Z M2.547,0 L0.9695,0 C0.4375,0 0,0.489 0,1.085 L0,16.917 C0,17.5125 0.4375,18 0.9695,18 L13.2595,18 C13.792,18 14.2285,17.5125 14.2285,16.917 L14.2285,1.085 C14.2285,0.489 13.792,0 13.2595,0 L11.6825,0 L2.547,0 Z" id="Fill-1"></path>
                <path d="M10.96675,6.6025 L3.26175,6.6025 C2.87125,6.6025 2.55375,6.285 2.55375,5.8935 C2.55375,5.503 2.87125,5.1855 3.26175,5.1855 L10.96675,5.1855 C11.35825,5.1855 11.67575,5.503 11.67575,5.8935 C11.67575,6.285 11.35825,6.6025 10.96675,6.6025" id="Fill-3"></path>
                <path d="M6.956,9.74705 L3.2615,9.74705 C2.871,9.74705 2.5535,9.42855 2.5535,9.03805 C2.5535,8.64655 2.871,8.33005 3.2615,8.33005 L6.956,8.33005 C7.3465,8.33005 7.664,8.64655 7.664,9.03805 C7.664,9.42855 7.3465,9.74705 6.956,9.74705" id="Fill-4"></path>
                <path d="M6.956,12.8906 L3.2615,12.8906 C2.871,12.8906 2.5535,12.5731 2.5535,12.1826 C2.5535,11.7911 2.871,11.4736 3.2615,11.4736 L6.956,11.4736 C7.3465,11.4736 7.664,11.7911 7.664,12.1826 C7.664,12.5731 7.3465,12.8906 6.956,12.8906" id="Fill-5"></path>
            </g>
        </g>
    </g>
</svg>