<?xml version="1.0" encoding="UTF-8"?>
<svg width="24px" height="24px" viewBox="0 0 24 24" version="1.1" xmlns="http://www.w3.org/2000/svg" xmlns:xlink="http://www.w3.org/1999/xlink">
    <!-- Generator: Sketch 44.1 (41455) - http://www.bohemiancoding.com/sketch -->
    <title>hig-light/globalnav/sidenav/icon/home</title>
    <desc>Created with Sketch.</desc>
    <defs></defs>
    <g id="Sidenav" stroke="none" stroke-width="1" fill="none" fill-rule="evenodd">
        <g id="hig-light/globalnav/sidenav/icon/home" fill-rule="nonzero" fill="#353636">
            <path d="M18.7567133,12.8199382 C18.7443826,12.8199382 18.5506145,12.6543939 18.3251388,12.4534392 L12.409926,7.16045051 C12.1835695,6.95949576 11.8162908,6.95949576 11.5899344,7.16045051 L5.67472151,12.4534392 C5.44924585,12.6543939 5.25547771,12.8199382 5.24314701,12.8199382 L5.22200867,12.8394139 L5.21672408,12.8633161 L5.21672408,12.8739392 L5.22200867,13.3971298 L5.22200867,19.0769785 C5.22112791,19.361148 5.4827149,19.5948575 5.8006708,19.5948575 L10.2203459,19.5948575 L10.2124191,19.5311185 L10.2124191,15.3836604 C10.2124191,15.0986057 10.4731253,14.8657815 10.791962,14.8657815 L13.2061369,14.8657815 C13.5258543,14.8657815 13.7865605,15.0994909 13.7865605,15.3836604 L13.7865605,19.5311185 L13.7786336,19.5948575 L18.1983088,19.5948575 C18.5171455,19.5948575 18.7778517,19.361148 18.7778517,19.0778638 L18.7778517,13.3971298 L18.7831363,12.8739392 L18.7831363,12.8633161 L18.7778517,12.8394139 L18.7567133,12.8199382 L18.7567133,12.8199382 Z M21.2853876,10.8378338 L16.7010095,6.73640943 L16.699248,6.73463891 L12.6723937,3.13250293 C12.2919035,2.79344712 11.6189996,2.79344712 11.2385095,3.13250293 L2.77084169,10.7085854 C2.37449776,11.0626907 2.32781726,11.551356 2.71359201,11.9151992 C2.82544907,12.0196602 2.97077518,12.0825139 3.12667045,12.1126129 C3.35390764,12.1710402 3.59964087,12.1489087 3.81278583,12.0453329 L3.86210863,12.022316 L3.88412773,12.0116929 C3.98453486,11.9647739 4.08141893,11.9063465 4.16333001,11.833755 L11.5723191,5.20578936 C11.7977948,5.00483461 12.1659543,5.00483461 12.3914299,5.20578936 L19.8418149,11.8656244 L19.9025877,11.9098876 L19.9950679,11.9922171 C20.3517774,12.3109118 20.9304396,12.3109118 21.2862683,11.9922171 C21.6412164,11.672637 21.6412164,11.1565286 21.2853876,10.8378338 L21.2853876,10.8378338 Z" id="icon-home"></path>
        </g>
    </g>
</svg>