<?xml version="1.0" encoding="UTF-8"?>
<svg width="24px" height="24px" viewBox="0 0 24 24" version="1.1" xmlns="http://www.w3.org/2000/svg" xmlns:xlink="http://www.w3.org/1999/xlink">
    <!-- Generator: Sketch 44.1 (41455) - http://www.bohemiancoding.com/sketch -->
    <title>hig-light/globalnav/sidenav/icon/layout</title>
    <desc>Created with Sketch.</desc>
    <defs>
        <polygon id="path-1" points="18 15.99985 18 0.4405 0.00015 0.4405 0.00015 15.99985 18 15.99985"></polygon>
    </defs>
    <g id="Sidenav" stroke="none" stroke-width="1" fill="none" fill-rule="evenodd">
        <g id="hig-light/globalnav/sidenav/icon/layout">
            <g id="Page-1" transform="translate(3.000000, 3.400390)">
                <g id="Group-3" transform="translate(0.000000, 0.059550)">
                    <mask id="mask-2" fill="white">
                        <use xlink:href="#path-1"></use>
                    </mask>
                    <g id="Clip-2"></g>
                    <path d="M16.84765,1.94535 C16.84765,1.75485 16.68565,1.59285 16.49415,1.59285 L1.50565,1.59285 C1.31465,1.59285 1.15215,1.75485 1.15215,1.94535 L1.15215,14.49435 C1.15215,14.68535 1.31465,14.84785 1.50565,14.84785 L16.49415,14.84785 C16.68565,14.84785 16.84765,14.68535 16.84765,14.49435 L16.84765,1.94535 Z M0.00015,14.49435 L0.00015,1.94535 C0.00015,1.11535 0.67465,0.44035 1.50565,0.44035 L16.49415,0.44035 C17.32415,0.44035 18.00015,1.11535 18.00015,1.94535 L18.00015,14.49435 C18.00015,15.32435 17.32415,15.99985 16.49415,15.99985 L1.50565,15.99985 C0.67465,15.99985 0.00015,15.32435 0.00015,14.49435 L0.00015,14.49435 Z" id="Fill-1" fill="#221F20" mask="url(#mask-2)"></path>
                </g>
                <path d="M9.583,13.4209 C9.583,13.6404 9.4035,13.8214 9.1835,13.8214 L2.6495,13.8214 C2.4295,13.8214 2.25,13.6404 2.25,13.4209 L2.25,3.1379 C2.25,2.9179 2.4295,2.7384 2.6495,2.7384 L9.1835,2.7384 C9.4035,2.7384 9.583,2.9179 9.583,3.1379 L9.583,13.4209 Z" id="Fill-4" fill="#221F20"></path>
                <path d="M15.75,13.4209 C15.75,13.6404 15.5695,13.8214 15.3495,13.8214 L10.9835,13.8214 C10.7635,13.8214 10.583,13.6404 10.583,13.4209 L10.583,9.2734 C10.583,9.0539 10.7635,8.8739 10.9835,8.8739 L15.3495,8.8739 C15.5695,8.8739 15.75,9.0539 15.75,9.2734 L15.75,13.4209 Z" id="Fill-6" fill="#221F20"></path>
                <path d="M15.75,7.28515 C15.75,7.50465 15.5695,7.68565 15.3495,7.68565 L10.9835,7.68565 C10.7635,7.68565 10.583,7.50465 10.583,7.28515 L10.583,3.13765 C10.583,2.91815 10.7635,2.73815 10.9835,2.73815 L15.3495,2.73815 C15.5695,2.73815 15.75,2.91815 15.75,3.13765 L15.75,7.28515 Z" id="Fill-8" fill="#221F20"></path>
            </g>
        </g>
    </g>
</svg>