<?xml version="1.0" encoding="UTF-8"?>
<svg width="24px" height="24px" viewBox="0 0 24 24" version="1.1" xmlns="http://www.w3.org/2000/svg" xmlns:xlink="http://www.w3.org/1999/xlink">
    <!-- Generator: Sketch 46 (44423) - http://www.bohemiancoding.com/sketch -->
    <title>location</title>
    <desc>Created with Sketch.</desc>
    <defs></defs>
    <g id="Form-Elements---all-basic-styles" stroke="none" stroke-width="1" fill="none" fill-rule="evenodd">
        <g id="FORM-STYLES-FOR-DEV---Updated-Type" transform="translate(-206.000000, -1266.000000)">
            <g id="11-Field-with-icon" transform="translate(44.000000, 1242.000000)">
                <g id="hig-web-light/basic/icon/location-24" transform="translate(162.000000, 24.000000)" fill="#2E4258">
                    <g id="location-24" transform="translate(5.000000, 1.000000)">
                        <path d="M7,1 C3.22792922,0.916101034 0.0982116918,3.89827473 -8.67361738e-18,7.67 C-0.00646054276,8.49363867 0.12884677,9.31224791 0.4,10.09 C1.84909644,12.8710355 3.4584723,15.5655715 5.22,18.16 L6.56,20.29 L7,21 L7.42,20.29 C8.11,19.13 9.08,17.59 10.04,16.05 C11.3189671,14.1360514 12.4972344,12.1566959 13.57,10.12 C13.8620914,9.33653865 14.0078414,8.50610263 14,7.67 C13.9017883,3.89827473 10.7720708,0.916101034 7,1 Z M12.63,9.76 C12.39,10.42 10.7,13.11 9.21,15.47 C8.41,16.75 7.61,18.01 6.97,19.06 L6.09,17.66 C4.31,14.86 1.67,10.66 1.34,9.75 C1.10917091,9.08105561 0.994187258,8.37762623 1,7.67 C1.09800968,4.45050458 3.78011071,1.9159191 7,2 C10.2198893,1.9159191 12.9019903,4.45050458 13,7.67 C13.0046895,8.38336184 12.8793069,9.09160401 12.63,9.76 Z" id="Shape" fill-rule="nonzero"></path>
                        <path d="M7,5 C5.34314575,5 4,6.34314575 4,8 C4,9.65685425 5.34314575,11 7,11 C8.65685425,11 10,9.65685425 10,8 C10,7.20435053 9.68392948,6.44128879 9.12132034,5.87867966 C8.55871121,5.31607052 7.79564947,5 7,5 Z M7,10 C5.8954305,10 5,9.1045695 5,8 C5,6.8954305 5.8954305,6 7,6 C8.1045695,6 9,6.8954305 9,8 C9,9.1045695 8.1045695,10 7,10 Z" id="Shape" fill-rule="nonzero"></path>
                    </g>
                </g>
            </g>
        </g>
    </g>
</svg>