<?xml version="1.0" encoding="UTF-8"?>
<svg width="24px" height="24px" viewBox="0 0 24 24" version="1.1" xmlns="http://www.w3.org/2000/svg" xmlns:xlink="http://www.w3.org/1999/xlink">
    <!-- Generator: Sketch 44.1 (41455) - http://www.bohemiancoding.com/sketch -->
    <title>hig-light/globalnav/sidenav/icon/photos</title>
    <desc>Created with Sketch.</desc>
    <defs></defs>
    <g id="Sidenav" stroke="none" stroke-width="1" fill="none" fill-rule="evenodd">
        <g id="hig-light/globalnav/sidenav/icon/photos" fill="#221F20">
            <path d="M16.3835495,16.9423129 L5.28399952,18.8509504 L3.92456452,10.9392004 L15.023537,9.03171789 L16.3835495,16.9423129 Z M16.0705445,8.26248789 C16.015682,7.94544039 15.7159595,7.73407539 15.400067,7.78720539 L3.15591202,9.89334789 C2.83886452,9.94763289 2.62692202,10.2473554 2.68120702,10.5632479 L4.23814702,19.6207579 C4.29243202,19.9366504 4.59273202,20.1485929 4.90920202,20.0943079 L17.153357,17.9893204 C17.4692495,17.9356129 17.681192,17.6347354 17.6263295,17.3182654 L16.0705445,8.26248789 Z" id="Fill-1"></path>
            <polygon id="Fill-4" points="12.7008898 13.7863331 11.5458898 15.9369431 8.43836227 13.1123906 5.90775727 17.8259456 15.3591223 16.2014381"></polygon>
            <path d="M13.5484865,11.4724061 C13.662254,12.1330661 13.2193115,12.7596536 12.5586515,12.8734211 C11.8979915,12.9866111 11.271404,12.5430911 11.1576365,11.8830086 C11.043869,11.2229261 11.487389,10.5951836 12.1474715,10.4819936 C12.8081315,10.3693811 13.4352965,10.8117461 13.5484865,11.4724061" id="Fill-6"></path>
            <path d="M20.7468864,3.89720987 L8.32312887,3.89720987 C8.00203887,3.89720987 7.74158637,4.15708487 7.74158637,4.47817487 L7.74158637,7.87907237 L16.4300739,6.38507987 C16.7459664,6.33137237 17.0462664,6.54273737 17.1011289,6.85920737 L18.3710514,14.2483199 L20.7468864,14.2483199 C21.0673989,14.2483199 21.3272739,13.9884449 21.3272739,13.6673549 L21.3272739,4.47817487 C21.3272739,4.15708487 21.0673989,3.89720987 20.7468864,3.89720987" id="Fill-8"></path>
        </g>
    </g>
</svg>