<?xml version="1.0" encoding="UTF-8"?>
<svg width="24px" height="24px" viewBox="0 0 24 24" version="1.1" xmlns="http://www.w3.org/2000/svg" xmlns:xlink="http://www.w3.org/1999/xlink">
    <!-- Generator: Sketch 44.1 (41455) - http://www.bohemiancoding.com/sketch -->
    <title>hig-light/globalnav/sidenav/icon/projectmanagement</title>
    <desc>Created with Sketch.</desc>
    <defs></defs>
    <g id="Sidenav" stroke="none" stroke-width="1" fill="none" fill-rule="evenodd">
        <g id="hig-light/globalnav/sidenav/icon/projectmanagement" fill="#353636">
            <path d="M18.7218835,9.95008557 L16.0615124,9.95008557 C15.6768579,9.95008557 15.3612918,10.2677045 15.3612918,10.6569526 L15.3612918,11.4689072 L13.1201194,11.4689072 L13.1201194,7.61695307 C13.1201194,6.81065339 12.8745754,6.17353056 12.3890892,5.72254939 C11.753289,5.13255103 10.9046217,5.06846175 10.5694495,5.06846175 C10.5059628,5.06846175 10.4606819,5.07081797 10.4476111,5.07176046 L8.63870815,5.07176046 L8.63870815,4.2244625 C8.63870815,3.83474313 8.32360892,3.51759545 7.93848765,3.51759545 L5.27811653,3.51759545 C4.89252843,3.51759545 4.57789602,3.83474313 4.57789602,4.2244625 L4.57789602,6.91008603 C4.57789602,7.29839166 4.89252843,7.61695307 5.27811653,7.61695307 L7.93848765,7.61695307 C8.32360892,7.61695307 8.63870815,7.29839166 8.63870815,6.91008603 L8.63870815,6.13206103 L10.4588147,6.13206103 L10.4998943,6.13111854 C10.5040956,6.1306473 10.5269695,6.12970481 10.565715,6.12970481 C10.7323675,6.12970481 11.3042142,6.15609451 11.6767315,6.50245936 C11.9376804,6.74515038 12.0697886,7.11978992 12.0697886,7.61695307 L12.0697886,11.4689072 L8.63870815,11.4689072 L8.63870815,10.6569526 C8.63870815,10.2677045 8.32360892,9.95008557 7.93848765,9.95008557 L5.27811653,9.95008557 C4.89252843,9.95008557 4.57789602,10.2677045 4.57789602,10.6569526 L4.57789602,13.3416337 C4.57789602,13.7308818 4.89252843,14.0485007 5.27811653,14.0485007 L7.93848765,14.0485007 C8.32360892,14.0485007 8.63870815,13.7308818 8.63870815,13.3416337 L8.63870815,12.5292078 L12.0851935,12.5292078 L12.0627864,16.4952032 C12.0590519,16.9895389 11.9255432,17.3627647 11.6659948,17.6040419 C11.3056147,17.9372119 10.7739139,17.9730265 10.5619805,17.9730265 C10.5190336,17.9730265 10.490558,17.9711416 10.4723523,17.9711416 L8.63870815,17.9593604 L8.63870815,17.0885002 C8.63870815,16.7001946 8.32360892,16.3816332 7.93848765,16.3816332 L5.27811653,16.3816332 C4.89252843,16.3816332 4.57789602,16.7001946 4.57789602,17.0885002 L4.57789602,19.7755375 C4.57789602,20.1638431 4.89252843,20.4824045 5.27811653,20.4824045 L7.93848765,20.4824045 C8.32360892,20.4824045 8.63870815,20.1638431 8.63870815,19.7755375 L8.63870815,19.0187185 L10.4140005,19.0290859 C10.4406089,19.0309709 10.4924252,19.0333271 10.5638477,19.0333271 C10.8962191,19.0333271 11.7388178,18.9711228 12.3708835,18.3900781 C12.8573033,17.9419244 13.1079823,17.3066865 13.1131172,16.5003869 L13.1369247,12.5292078 L15.3612918,12.5292078 L15.3612918,13.3416337 C15.3612918,13.7308818 15.6768579,14.0485007 16.0615124,14.0485007 L18.7218835,14.0485007 C19.1074716,14.0485007 19.422104,13.7308818 19.422104,13.3416337 L19.422104,10.6569526 C19.422104,10.2677045 19.1074716,9.95008557 18.7218835,9.95008557" id="icon-coordination"></path>
        </g>
    </g>
</svg>