<?xml version="1.0" encoding="UTF-8"?>
<svg width="24px" height="24px" viewBox="0 0 24 24" version="1.1" xmlns="http://www.w3.org/2000/svg" xmlns:xlink="http://www.w3.org/1999/xlink">
    <!-- Generator: Sketch 44.1 (41455) - http://www.bohemiancoding.com/sketch -->
    <title>hig-light/globalnav/sidenav/icon/schedule</title>
    <desc>Created with Sketch.</desc>
    <defs>
        <polygon id="path-1" points="0 16.3633 18 16.3633 18 -0.0002 0 -0.0002"></polygon>
    </defs>
    <g id="Sidenav" stroke="none" stroke-width="1" fill="none" fill-rule="evenodd">
        <g id="hig-light/globalnav/sidenav/icon/schedule">
            <g id="Page-1" transform="translate(3.000000, 4.250000)">
                <path d="M6.46755,8.8877 C6.64905,8.8742 6.81905,8.8342 6.97655,8.7677 C7.13405,8.7002 7.26355,8.6047 7.36555,8.4787 C7.46655,8.3527 7.51805,8.1847 7.51805,7.9747 C7.51805,7.6602 7.41255,7.4182 7.20305,7.2502 C6.99255,7.0822 6.75105,6.9982 6.47805,6.9982 C6.10005,6.9982 5.81505,7.1222 5.62255,7.3702 C5.42955,7.6192 5.33655,7.9327 5.34405,8.3107 L3.92655,8.3107 C3.94055,7.9327 4.00905,7.5877 4.13105,7.2762 C4.25355,6.9647 4.42555,6.6972 4.64605,6.4737 C4.86655,6.2492 5.13005,6.0752 5.43855,5.9532 C5.74705,5.8312 6.08955,5.7697 6.46755,5.7697 C6.76105,5.7697 7.05555,5.8137 7.34955,5.9002 C7.64405,5.9882 7.90755,6.1192 8.14255,6.2947 C8.37705,6.4697 8.56755,6.6827 8.71455,6.9347 C8.86205,7.1867 8.93505,7.4777 8.93505,7.8067 C8.93505,8.1642 8.84955,8.4787 8.67805,8.7522 C8.50605,9.0242 8.24905,9.2102 7.90605,9.3077 L7.90605,9.3292 C8.31155,9.4197 8.63055,9.6162 8.86205,9.9172 C9.09255,10.2177 9.20805,10.5782 9.20805,10.9982 C9.20805,11.3837 9.13305,11.7267 8.98255,12.0272 C8.83205,12.3282 8.63055,12.5802 8.37855,12.7842 C8.12655,12.9862 7.83555,13.1407 7.50705,13.2452 C7.17805,13.3507 6.83505,13.4022 6.47805,13.4022 C6.06455,13.4022 5.68905,13.3437 5.34905,13.2247 C5.01005,13.1057 4.72055,12.9327 4.48355,12.7052 C4.24555,12.4777 4.06155,12.1992 3.93205,11.8702 C3.80205,11.5412 3.74055,11.1632 3.74805,10.7362 L5.16555,10.7362 C5.17255,10.9327 5.20405,11.1192 5.25955,11.2977 C5.31605,11.4767 5.39655,11.6297 5.50155,11.7597 C5.60705,11.8897 5.73805,11.9932 5.89555,12.0692 C6.05305,12.1467 6.23955,12.1847 6.45705,12.1847 C6.79255,12.1847 7.07705,12.0812 7.30755,11.8752 C7.53855,11.6687 7.65405,11.3867 7.65405,11.0292 C7.65405,10.7502 7.60005,10.5372 7.49155,10.3897 C7.38305,10.2422 7.24455,10.1357 7.07705,10.0692 C6.90855,10.0027 6.72455,9.9637 6.52555,9.9542 C6.32605,9.9432 6.13505,9.9377 5.95355,9.9377 L5.95355,8.8877 C6.11355,8.9022 6.28505,8.9022 6.46755,8.8877 Z" id="Fill-1" fill="#221F20"></path>
                <path d="M12.0222,13.26665 L12.0222,8.49915 L10.1742,8.49915 L10.1742,7.37615 C10.4327,7.38265 10.6832,7.36415 10.9252,7.31865 C11.1667,7.27365 11.3837,7.19265 11.5762,7.07715 C11.7682,6.96115 11.9312,6.80865 12.0637,6.62015 C12.1972,6.43065 12.2842,6.19615 12.3267,5.91715 L13.5132,5.91715 L13.5132,13.26665 L12.0222,13.26665 Z" id="Fill-3" fill="#221F20"></path>
                <mask id="mask-2" fill="white">
                    <use xlink:href="#path-1"></use>
                </mask>
                <g id="Clip-6"></g>
                <path d="M1.6875,14.8293 L16.3125,14.8293 L16.3125,4.3988 L1.6875,4.3988 L1.6875,14.8293 Z M4.6715,1.2158 C5.224,1.2158 5.6715,1.6638 5.6715,2.2158 C5.6715,2.7683 5.224,3.2158 4.6715,3.2158 C4.1195,3.2158 3.6715,2.7683 3.6715,2.2158 C3.6715,1.6638 4.1195,1.2158 4.6715,1.2158 L4.6715,1.2158 Z M13.3285,1.2158 C13.8805,1.2158 14.3285,1.6638 14.3285,2.2158 C14.3285,2.7683 13.8805,3.2158 13.3285,3.2158 C12.776,3.2158 12.3285,2.7683 12.3285,2.2158 C12.3285,1.6638 12.776,1.2158 13.3285,1.2158 L13.3285,1.2158 Z M16.773,-0.0002 L1.227,-0.0002 C0.553,-0.0002 0,0.5528 0,1.2268 L0,15.1368 C0,15.8108 0.553,16.3633 1.227,16.3633 L16.773,16.3633 C17.447,16.3633 18,15.8108 18,15.1368 L18,1.2268 C18,0.5528 17.447,-0.0002 16.773,-0.0002 L16.773,-0.0002 Z" id="Fill-5" fill="#221F20" mask="url(#mask-2)"></path>
            </g>
        </g>
    </g>
</svg>