<?xml version="1.0" encoding="UTF-8"?>
<svg width="24px" height="24px" viewBox="0 0 24 24" version="1.1" xmlns="http://www.w3.org/2000/svg" xmlns:xlink="http://www.w3.org/1999/xlink">
    <!-- Generator: Sketch 44.1 (41455) - http://www.bohemiancoding.com/sketch -->
    <title>hig/icon/search-small</title>
    <desc>Created with Sketch.</desc>
    <defs></defs>
    <g id="Symbols" stroke="none" stroke-width="1" fill="none" fill-rule="evenodd">
        <g id="hig/icon/search-small" fill="#353636">
            <path d="M15.8702459,15.1631391 L18.9748737,18.267767 C19.1701359,18.4630291 19.1701359,18.7796116 18.9748737,18.9748737 C18.7796116,19.1701359 18.4630291,19.1701359 18.267767,18.9748737 L15.2403215,15.9474283 C14.0545271,17.2108151 12.3694256,18 10.5,18 C6.91014913,18 4,15.0898509 4,11.5 C4,7.91014913 6.91014913,5 10.5,5 C14.0898509,5 17,7.91014913 17,11.5 C17,12.8587306 16.5831026,14.1200897 15.8702459,15.1631391 Z M16,11.5 C16,8.46243388 13.5375661,6 10.5,6 C7.46243388,6 5,8.46243388 5,11.5 C5,14.5375661 7.46243388,17 10.5,17 C13.5375661,17 16,14.5375661 16,11.5 Z" id="Combined-Shape"></path>
        </g>
    </g>
</svg>