<?xml version="1.0" encoding="utf-8"?>
<!-- Generator: Adobe Illustrator 16.0.4, SVG Export Plug-In . SVG Version: 6.00 Build 0)  -->
<!DOCTYPE svg PUBLIC "-//W3C//DTD SVG 1.1//EN" "http://www.w3.org/Graphics/SVG/1.1/DTD/svg11.dtd">
<svg version="1.1" id="_x32_4x24_OUTLINED" xmlns="http://www.w3.org/2000/svg" xmlns:xlink="http://www.w3.org/1999/xlink" x="0px"
	 y="0px" width="24px" height="24px" viewBox="4651 2500 24 24" enable-background="new 4651 2500 24 24" xml:space="preserve">
<path d="M4664.041,2517.779c-0.233,0-0.454-0.084-0.623-0.236l-1.201-0.989c-0.21-0.19-0.312-0.42-0.312-0.657
	c-0.001-0.236,0.101-0.467,0.278-0.632l1.111-1.265H4657c-0.501,0-0.908-0.305-0.908-0.784v-1.339c0-0.481,0.407-0.873,0.908-0.873
	h6.258l-1.135-1.149c-0.161-0.147-0.265-0.379-0.264-0.618c0.001-0.237,0.104-0.467,0.285-0.63l1.23-1.106
	c0.279-0.258,0.879-0.282,1.219,0.021c0.008,0.008,3.615,3.667,4.057,4.072c0.336,0.303,0.475,0.693,0.476,1.031
	c0.001,0.341-0.118,0.729-0.459,1.042l-4,3.875C4664.494,2517.696,4664.273,2517.779,4664.041,2517.779z M4663,2515.879l0.896,0.829
	l4.166-4.161l-4.159-4.096l-0.903,0.825l2.648,2.724H4657v1h8.813L4663,2515.879z"/>
<path d="M4662.531,2522c-5.256,0-9.531-4.244-9.531-9.5s4.275-9.5,9.531-9.5s9.469,4.244,9.469,9.5S4667.787,2522,4662.531,2522z
	 M4662.531,2504c-4.704,0-8.531,3.796-8.531,8.5s3.827,8.5,8.531,8.5c4.703,0,8.469-3.796,8.469-8.5S4667.234,2504,4662.531,2504z"
	/>
</svg>
