<svg xmlns="http://www.w3.org/2000/svg" width="24" height="24" viewBox="0 0 24 24">
  <title>field-24</title>
  <g id="final">
    <path d="M20.83,15.82a4.43,4.43,0,0,1-1.25-2c0-4.7-3.36-8.54-7.58-8.83V5H11V5c-4.22.29-7.58,4.13-7.58,8.83a4.43,4.43,0,0,1-1.25,2,.72.72,0,0,0-.17.43v.25a.5.5,0,0,0,.5.5H3l1.62,1.69a1,1,0,0,0,.72.31H17.63a1,1,0,0,0,.72-.31L20,17h.53a.5.5,0,0,0,.5-.5v-.25A.72.72,0,0,0,20.83,15.82ZM17.63,18H5.37l-1-1,.05-.05c1.48-1.43,4.59-1.95,7-1.95s5.58.51,7.06,1.95l.05.05ZM19,16c-2.2-1.85-6.26-2-7.49-2S6.23,14.15,4,16H3.34a4.14,4.14,0,0,0,1.08-2.14A8,8,0,0,1,8,7V9.5a.5.5,0,0,0,1,0v-3A6.43,6.43,0,0,1,11,6V8.5a.5.5,0,0,0,1,0V6a6.43,6.43,0,0,1,2,.49v3a.5.5,0,0,0,1,0V7a8,8,0,0,1,3.58,6.82A4.15,4.15,0,0,0,19.66,16Z" fill="#2e4258"/>
  </g>
</svg>
