<svg xmlns="http://www.w3.org/2000/svg" width="24" height="24" viewBox="0 0 24 24">
  <title>layout-24</title>
  <g id="final">
    <g>
      <path d="M12,12A3,3,0,1,0,9,9,3,3,0,0,0,12,12Zm0-5a2,2,0,1,1-2,2A2,2,0,0,1,12,7Z" fill="#2e4258"/>
      <path d="M21,13H20V12l-.82-5.74A1.47,1.47,0,0,0,17.72,5H17V3a1,1,0,0,0-1-1H8A1,1,0,0,0,7,3V5H6.28A1.47,1.47,0,0,0,4.82,6.26L4,12v1H3v4H4v2a1,1,0,0,0,1,1H6a1,1,0,0,0,1,1H8v1h8V21h1a1,1,0,0,0,1-1h1a1,1,0,0,0,1-1V17h1ZM8,15h8v1H8ZM13,3V4H11V3ZM8,3h2V4a1,1,0,0,0,1,1h2a1,1,0,0,0,1-1V3h2V14H8V3ZM6,17v2H5V12.07l.81-5.67A.47.47,0,0,1,6.28,6H7V16A1,1,0,0,0,6,17Zm11,3H7V17H17Zm2-1H18V17a1,1,0,0,0-1-1V6h.72a.47.47,0,0,1,.47.41L19,12.07V19Z" fill="#2e4258"/>
    </g>
  </g>
</svg>
