<svg id="assets" xmlns="http://www.w3.org/2000/svg" width="16" height="16" viewBox="0 0 16 16">
  <title>pin-16</title>
  <g>
    <polygon points="3.54 11.24 2.73 12.04 0.61 14.16 0 15.98 1.82 15.37 3.95 13.25 4.75 12.45 3.54 11.24"/>
    <path d="M15.72,5,11,.29a.94.94,0,0,0-1.33,0h0a2.48,2.48,0,0,0-.11,3.38L6.11,6.44a3.43,3.43,0,0,0-4.29.45.86.86,0,0,0,0,1.21L2.71,9l1.54,1.54h0l1.21,1.21h0l2.42,2.42a.87.87,0,0,0,1.22,0A3.41,3.41,0,0,0,9.6,10l2.68-3.54a2.49,2.49,0,0,0,3.44-.07A.94.94,0,0,0,15.72,5Z"/>
  </g>
</svg>
