<svg xmlns="http://www.w3.org/2000/svg" width="16" height="16" viewBox="0 0 16 16">
  <title>products-and-services-16</title>
  <g id="assets">
    <path d="M14.52,3.07,7.85.07a.94.94,0,0,0-.7,0l-6.67,3A.82.82,0,0,0,0,3.81V11a.82.82,0,0,0,.39.69l6.67,4a.82.82,0,0,0,.88,0l6.67-4A.82.82,0,0,0,15,11V3.81A.82.82,0,0,0,14.52,3.07ZM13.33,4.8a.07.07,0,0,1,0,.06L7.92,8.12v5.7a.1.1,0,0,1,0,.07l-.33.2h-.1l-.33-.2a.1.1,0,0,1,0-.07V8.12L1.7,4.86a.07.07,0,0,1,0-.06V4.39a.11.11,0,0,1,.05-.09l.33-.14h.07L7.5,7.42l5.38-3.26H13l.33.14a.11.11,0,0,1,.05.09Z"/>
  </g>
</svg>
