<svg xmlns="http://www.w3.org/2000/svg" width="24" height="24" viewBox="0 0 24 24">
  <title>redo-24</title>
  <g id="final">
    <g id="redo">
      <path id="outline" d="M21.37,9.64c-.6-.6-6.16-5.9-6.17-5.91a1,1,0,0,0-1.46,0L12.13,5.39A1.29,1.29,0,0,0,12.29,7l2.07,1.8-.83,0c-2.67,0-6.34.49-8.68,2.82-1.69,1.69-2.57,4.06-2.71,7.25-.07,1.46,0,2.48,0,2.52a.49.49,0,0,0,.49.47H5.91a.49.49,0,0,0,.49-.46s.07-1,.11-2.43a5.85,5.85,0,0,1,1.72-4.08c1.78-1.77,4.72-2,6.26-2l-2.17,2.27a1.27,1.27,0,0,0-.12,1.64l1.86,1.85a1,1,0,0,0,1.47,0c0-.05,5.37-5.49,5.94-6.06A2.18,2.18,0,0,0,21.37,9.64Zm-.6,2.29c-.58.58-5.77,5.87-6,6.06L12.9,16.09l3-3.24a.5.5,0,0,0-.3-.83A11.77,11.77,0,0,0,14.38,12c-1.71,0-4.87.3-6.85,2.28a6.9,6.9,0,0,0-2,4.75c0,.81-.05,1.5-.08,1.93H3.1c0-.43,0-1.13,0-2,.13-2.93.92-5.09,2.42-6.6,2.09-2.09,5.49-2.53,8-2.53a17.31,17.31,0,0,1,2.22.13.5.5,0,0,0,.4-.86l-3.3-3L14.5,4.44s5.56,5.3,6.17,5.91A1.22,1.22,0,0,1,20.77,11.93Z" fill="#2e4258"/>
    </g>
  </g>
</svg>
