<svg width="260" height="150" viewBox="0 0 260 150" fill="none" xmlns="http://www.w3.org/2000/svg">
<g opacity="0.3">
<path d="M177.49 60.2712L156.19 90.9012L123.78 108.611L124.27 132.751L137.72 129.081L179.92 104.721L194.27 113.001L204.66 111.291L235.27 93.6212L177.49 60.2712Z" fill="#588A99"/>
<path d="M104.48 70.6913L65.63 93.1313L66.27 115.751L80.02 112.251L130.88 82.8713L104.48 70.6913Z" fill="#588A99"/>
</g>
<path d="M175.68 101.611L124.3 131.271L113.22 98.6112L175.68 82.0012V101.611Z" fill="#CCD9E0"/>
<path d="M124.3 131.771C124.213 131.767 124.127 131.743 124.05 131.701L98.33 116.851C98.2544 116.808 98.1916 116.745 98.1477 116.67C98.1039 116.594 98.0805 116.509 98.08 116.421V96.8113C98.0776 96.7382 98.0927 96.6656 98.124 96.5996C98.1553 96.5335 98.202 96.4758 98.26 96.4313C98.3478 96.3526 98.4621 96.3097 98.58 96.3113H98.67L124.39 101.021C124.506 101.04 124.611 101.1 124.686 101.19C124.761 101.28 124.802 101.394 124.8 101.511V131.321C124.802 131.409 124.779 131.495 124.735 131.571C124.691 131.647 124.627 131.709 124.55 131.751C124.469 131.777 124.384 131.784 124.3 131.771Z" fill="#E7F0F4"/>
<path d="M98.58 96.8113L124.3 101.521V131.321L98.58 116.421V96.8113ZM98.58 95.8113C98.3464 95.8108 98.1199 95.8922 97.94 96.0413C97.8271 96.1353 97.7363 96.253 97.6741 96.3861C97.6119 96.5192 97.5798 96.6644 97.58 96.8113V116.421C97.5811 116.596 97.6278 116.767 97.7155 116.918C97.8032 117.069 97.9289 117.194 98.08 117.281L123.8 132.131C123.951 132.221 124.124 132.269 124.3 132.271C124.565 132.271 124.82 132.166 125.007 131.978C125.195 131.791 125.3 131.536 125.3 131.271V101.521C125.304 101.284 125.224 101.054 125.073 100.871C124.923 100.688 124.713 100.564 124.48 100.521L98.76 95.8313H98.58V95.8113Z" fill="#B0C3CE"/>
<path d="M124.3 112.161C124.212 112.162 124.125 112.138 124.05 112.091L98.33 97.2412C98.2528 97.1991 98.1884 97.1369 98.1435 97.0612C98.0986 96.9856 98.0749 96.8992 98.0749 96.8112C98.0749 96.7233 98.0986 96.6369 98.1435 96.5613C98.1884 96.4856 98.2528 96.4234 98.33 96.3812L149.7 66.7212C149.775 66.6749 149.862 66.6506 149.95 66.6512C150.039 66.6483 150.126 66.6727 150.2 66.7212L175.96 81.5712C176.037 81.6134 176.102 81.6756 176.146 81.7513C176.191 81.8269 176.215 81.9133 176.215 82.0012C176.215 82.0892 176.191 82.1756 176.146 82.2512C176.102 82.3269 176.037 82.3891 175.96 82.4312L124.58 112.091C124.497 112.145 124.398 112.169 124.3 112.161V112.161Z" fill="white"/>
<path d="M149.96 67.1513L175.69 82.0013L124.31 111.661L98.58 96.8113L149.96 67.1513ZM149.96 66.1513C149.785 66.1501 149.612 66.1949 149.46 66.2813L98.08 95.9413C97.9261 96.0285 97.7981 96.155 97.709 96.3078C97.62 96.4606 97.5731 96.6344 97.5731 96.8113C97.5731 96.9882 97.62 97.1619 97.709 97.3147C97.7981 97.4676 97.9261 97.5941 98.08 97.6813L123.8 112.531C123.952 112.618 124.125 112.662 124.3 112.661C124.475 112.662 124.648 112.618 124.8 112.531L176.18 82.8713C176.334 82.7841 176.462 82.6576 176.551 82.5047C176.64 82.3519 176.687 82.1782 176.687 82.0013C176.687 81.8244 176.64 81.6506 176.551 81.4978C176.462 81.345 176.334 81.2185 176.18 81.1313L150.45 66.3213C150.298 66.2349 150.125 66.1901 149.95 66.1913L149.96 66.1513Z" fill="#B0C3CE"/>
<g opacity="0.3">
<path d="M132.03 77.4912L107.38 91.7312L126.83 102.951L151.48 88.7212L132.03 77.4912Z" fill="#588A99"/>
<path d="M131.803 88.3631C131.815 86.0767 128.722 84.2064 124.895 84.1857C121.068 84.165 117.955 86.0017 117.943 88.2882C117.93 90.5746 121.023 92.4449 124.85 92.4656C128.678 92.4863 131.79 90.6496 131.803 88.3631Z" fill="#588A99"/>
<path d="M118.38 95.9641C118.392 93.6777 115.3 91.8074 111.472 91.7867C107.645 91.766 104.532 93.6027 104.52 95.8891C104.508 98.1755 107.6 100.046 111.428 100.067C115.255 100.087 118.367 98.2505 118.38 95.9641Z" fill="#588A99"/>
<path d="M146.383 95.9708C146.394 93.6843 143.045 91.815 138.903 91.7955C134.761 91.7759 131.394 93.6136 131.384 95.9001C131.373 98.1865 134.722 100.056 138.864 100.075C143.006 100.095 146.373 98.2572 146.383 95.9708Z" fill="#588A99"/>
<path d="M132.94 103.586C132.951 101.3 129.602 99.4307 125.46 99.4112C121.318 99.3917 117.951 101.229 117.94 103.516C117.929 105.802 121.278 107.672 125.421 107.691C129.563 107.711 132.929 105.873 132.94 103.586Z" fill="#588A99"/>
<path d="M146.384 80.7591C146.394 78.4727 143.045 76.6033 138.903 76.5838C134.761 76.5643 131.394 78.402 131.384 80.6884C131.373 82.9748 134.722 84.8442 138.864 84.8637C143.006 84.8832 146.373 83.0455 146.384 80.7591Z" fill="#588A99"/>
<path d="M159.797 88.3651C159.808 86.0786 156.458 84.2093 152.316 84.1898C148.174 84.1702 144.808 86.0079 144.797 88.2944C144.786 90.5808 148.135 92.4501 152.277 92.4697C156.419 92.4892 159.786 90.6515 159.797 88.3651Z" fill="#588A99"/>
</g>
<path d="M149.96 67.1512L175.69 82.0012V101.611L124.3 131.321L98.58 116.421V96.8112L149.96 67.1512ZM149.96 65.6512C149.697 65.6523 149.439 65.7212 149.21 65.8512L97.83 95.5112C97.6011 95.6422 97.4111 95.8315 97.2794 96.0599C97.1476 96.2883 97.0788 96.5476 97.08 96.8112V116.421C97.0785 116.684 97.1473 116.942 97.2792 117.168C97.411 117.395 97.6012 117.583 97.83 117.711L123.55 132.571C123.778 132.702 124.037 132.771 124.3 132.771C124.563 132.771 124.822 132.702 125.05 132.571L176.43 102.901C176.657 102.771 176.846 102.583 176.978 102.357C177.11 102.13 177.179 101.873 177.18 101.611V82.0012C177.179 81.738 177.11 81.4795 176.978 81.2515C176.846 81.0234 176.657 80.8337 176.43 80.7012L150.7 65.8512C150.471 65.7212 150.213 65.6523 149.95 65.6512H149.96Z" fill="#588A99"/>
<path d="M123.26 52.6013V70.9513L110.29 78.4413L102.18 51.1013L123.26 52.6013Z" fill="#CCD9E0"/>
<path d="M110.29 78.9413C110.203 78.9417 110.117 78.9211 110.04 78.8813L58.04 48.8813C57.963 48.8393 57.899 48.777 57.855 48.7012C57.8109 48.6254 57.7884 48.539 57.79 48.4513V30.0513C57.79 29.969 57.8111 29.888 57.8514 29.8162C57.8917 29.7444 57.9497 29.6842 58.02 29.6413C58.0975 29.5822 58.1925 29.5505 58.29 29.5513C58.3596 29.5526 58.428 29.5697 58.49 29.6013L110.49 52.6613C110.579 52.7013 110.654 52.7659 110.707 52.8475C110.76 52.929 110.789 53.024 110.79 53.1213V78.4413C110.791 78.5302 110.769 78.6179 110.725 78.6952C110.681 78.7726 110.617 78.8368 110.54 78.8813C110.463 78.9211 110.377 78.9417 110.29 78.9413Z" fill="#E7F0F4"/>
<path d="M58.27 30.0513L110.27 53.1213V78.4413L58.27 48.4413V30.0513ZM58.27 29.0513C58.074 29.0528 57.8827 29.1119 57.72 29.2213C57.5824 29.3119 57.4694 29.435 57.3909 29.5798C57.3124 29.7246 57.2709 29.8866 57.27 30.0513V48.4113C57.2711 48.5858 57.3178 48.757 57.4055 48.9079C57.4932 49.0587 57.6189 49.184 57.77 49.2713L109.77 79.2713C109.922 79.3576 110.095 79.4025 110.27 79.4013C110.445 79.4025 110.618 79.3576 110.77 79.2713C110.923 79.1832 111.049 79.0563 111.137 78.9035C111.225 78.7507 111.271 78.5775 111.27 78.4013V53.1213C111.272 52.9272 111.217 52.7369 111.112 52.5735C111.007 52.4102 110.857 52.2808 110.68 52.2013L58.68 29.1413C58.555 29.0819 58.4184 29.0511 58.28 29.0513H58.27Z" fill="#B0C3CE"/>
<path d="M110.29 60.5913C110.202 60.593 110.115 60.5687 110.04 60.5213L58.04 30.5213C57.9631 30.4777 57.899 30.4144 57.8545 30.338C57.81 30.2616 57.7865 30.1747 57.7865 30.0863C57.7865 29.9978 57.81 29.911 57.8545 29.8346C57.899 29.7581 57.9631 29.6949 58.04 29.6513L71.04 22.1613C71.1168 22.1203 71.2029 22.0996 71.29 22.1013C71.3768 22.102 71.4623 22.1225 71.54 22.1613L123.54 52.1613C123.617 52.2035 123.682 52.2657 123.726 52.3413C123.771 52.417 123.795 52.5033 123.795 52.5913C123.795 52.6793 123.771 52.7656 123.726 52.8413C123.682 52.9169 123.617 52.9791 123.54 53.0213L110.54 60.5113C110.466 60.5622 110.379 60.5901 110.29 60.5913V60.5913Z" fill="white"/>
<path d="M71.24 22.5713L123.24 52.5713L110.24 60.0613L58.24 30.0613L71.24 22.5813M71.24 21.5813C71.0648 21.5801 70.8924 21.6249 70.74 21.7113L57.74 29.2013C57.5885 29.2892 57.4627 29.4154 57.3752 29.5672C57.2878 29.719 57.2418 29.8911 57.2418 30.0663C57.2418 30.2415 57.2878 30.4136 57.3752 30.5654C57.4627 30.7172 57.5885 30.8434 57.74 30.9313L109.74 60.9313C109.894 61.0127 110.066 61.0572 110.24 61.0613C110.415 61.0587 110.586 61.0141 110.74 60.9313L123.74 53.4413C123.893 53.3532 124.019 53.2264 124.107 53.0736C124.195 52.9208 124.241 52.7475 124.24 52.5713C124.239 52.3968 124.192 52.2256 124.105 52.0747C124.017 51.9239 123.891 51.7986 123.74 51.7113L71.74 21.7113C71.5876 21.6249 71.4152 21.5801 71.24 21.5813V21.5813Z" fill="#B0C3CE"/>
<path d="M71.24 22.5713L123.24 52.5713V70.9513L110.24 78.4413L58.24 48.4413V30.0513L71.24 22.5713ZM71.24 21.0713C70.9763 21.0676 70.7168 21.1368 70.49 21.2713L57.49 28.7613C57.2612 28.8898 57.071 29.0772 56.9391 29.3041C56.8073 29.5309 56.7385 29.7889 56.74 30.0513V48.4113C56.7398 48.6748 56.8091 48.9336 56.9407 49.1619C57.0724 49.3901 57.2618 49.5796 57.49 49.7113L109.49 79.7113C109.718 79.842 109.977 79.9107 110.24 79.9107C110.503 79.9107 110.762 79.842 110.99 79.7113L123.99 72.2213C124.218 72.0896 124.408 71.9001 124.539 71.6719C124.671 71.4436 124.74 71.1848 124.74 70.9213V52.6013C124.738 52.3382 124.668 52.0802 124.537 51.8523C124.405 51.6244 124.217 51.4346 123.99 51.3013L71.96 21.3213C71.7332 21.1868 71.4737 21.1176 71.21 21.1213L71.24 21.0713Z" fill="#588A99"/>
<path opacity="0.4" d="M80.142 28.4017C80.1528 26.1152 76.8037 24.2459 72.6616 24.2264C68.5195 24.2069 65.153 26.0446 65.1422 28.331C65.1314 30.6174 68.4805 32.4868 72.6226 32.5063C76.7647 32.5258 80.1313 30.6881 80.142 28.4017Z" fill="#588A99"/>
<path d="M70.79 21.7513C72.2029 21.7361 73.5965 22.0802 74.84 22.7513C75.2694 22.9535 75.6446 23.2548 75.935 23.6303C76.2253 24.0058 76.4224 24.4448 76.51 24.9113V24.9113V28.3213C76.4777 28.8281 76.3068 29.3163 76.0158 29.7325C75.7248 30.1487 75.3249 30.477 74.86 30.6813C73.6113 31.3154 72.2305 31.646 70.83 31.646C69.4295 31.646 68.0487 31.3154 66.8 30.6813C66.3371 30.4717 65.9384 30.1426 65.6448 29.7278C65.3513 29.313 65.1736 28.8275 65.13 28.3213V28.3213V24.9213C65.2017 24.4518 65.3892 24.0077 65.6755 23.6288C65.9618 23.25 66.338 22.9484 66.77 22.7513C67.9953 22.0798 69.3729 21.7354 70.77 21.7513M70.77 20.0013C69.0919 19.9855 67.4372 20.3949 65.96 21.1913C65.3193 21.5104 64.7612 21.9735 64.3292 22.5443C63.8972 23.115 63.6032 23.778 63.47 24.4813C63.4547 24.6142 63.4547 24.7484 63.47 24.8813V28.3213C63.5135 29.1217 63.7664 29.8968 64.2034 30.5689C64.6404 31.241 65.2461 31.7866 65.96 32.1513C67.4677 32.9505 69.1539 33.3532 70.86 33.3213C72.562 33.3516 74.243 32.9417 75.74 32.1313C76.4637 31.7803 77.0802 31.2417 77.5251 30.5716C77.9701 29.9016 78.2273 29.1245 78.27 28.3213V24.8813C78.271 24.7193 78.2508 24.558 78.21 24.4013C78.0561 23.7187 77.753 23.0787 77.3225 22.5272C76.892 21.9757 76.3447 21.5263 75.72 21.2113C74.2081 20.3906 72.5101 19.9738 70.79 20.0013H70.77Z" fill="#588A99"/>
<path d="M76.52 25.8812H65.13V30.1812C65.1759 30.6856 65.3559 31.1686 65.6513 31.58C65.9467 31.9915 66.3467 32.3164 66.81 32.5212C68.059 33.1546 69.4396 33.4847 70.84 33.4847C72.2404 33.4847 73.621 33.1546 74.87 32.5212C75.333 32.3142 75.731 31.9852 76.0216 31.5696C76.3122 31.1539 76.4845 30.6672 76.52 30.1612V30.1612V25.8812Z" fill="#B0C3CE"/>
<path d="M76.52 24.8812H65.13V29.1812C65.1759 29.6856 65.3559 30.1686 65.6513 30.58C65.9467 30.9915 66.3467 31.3164 66.81 31.5212C68.059 32.1546 69.4396 32.4847 70.84 32.4847C72.2404 32.4847 73.621 32.1546 74.87 31.5212C75.333 31.3142 75.731 30.9852 76.0216 30.5696C76.3122 30.1539 76.4845 29.6672 76.52 29.1612V29.1612V24.8812Z" fill="#E9EFF2"/>
<path d="M71.76 32.4512C72.8493 32.3707 73.9092 32.0606 74.87 31.5412C75.333 31.3342 75.731 31.0052 76.0216 30.5896C76.3122 30.1739 76.4845 29.6872 76.52 29.1812V29.1812V24.8812H71.76V32.4512Z" fill="#CCD9E0"/>
<path d="M76.5211 26.0687C76.5309 24.2573 73.9914 22.775 70.8489 22.758C67.7065 22.741 65.1511 24.1957 65.1413 26.0072C65.1315 27.8186 67.671 29.3009 70.8135 29.3179C73.9559 29.3349 76.5113 27.8802 76.5211 26.0687Z" fill="#B0C3CE"/>
<path d="M76.5211 25.0634C76.5309 23.2519 73.9914 21.7696 70.849 21.7526C67.7065 21.7356 65.1511 23.1903 65.1413 25.0018C65.1315 26.8133 67.671 28.2955 70.8135 28.3125C73.9559 28.3295 76.5113 26.8748 76.5211 25.0634Z" fill="#FFFFFD"/>
<path opacity="0.4" d="M93.1231 36.0076C93.1339 33.7212 89.7848 31.8519 85.6427 31.8323C81.5006 31.8128 78.1341 33.6505 78.1233 35.937C78.1125 38.2234 81.4616 40.0927 85.6037 40.1122C89.7458 40.1318 93.1123 38.2941 93.1231 36.0076Z" fill="#588A99"/>
<path d="M83.77 29.3213C85.1665 29.3107 86.5428 29.6548 87.77 30.3213C88.1982 30.5226 88.5727 30.8223 88.8629 31.1959C89.1532 31.5696 89.3509 32.0066 89.44 32.4713V32.4713V35.8813C89.4067 36.3878 89.2352 36.8755 88.9444 37.2916C88.6535 37.7076 88.2543 38.036 87.79 38.2413C86.5636 38.9098 85.1867 39.2541 83.79 39.2413C82.3941 39.2471 81.0189 38.9033 79.79 38.2413C79.3266 38.0339 78.9267 37.707 78.6315 37.294C78.3363 36.881 78.1563 36.3968 78.11 35.8913V35.8913V32.4813C78.1852 32.0116 78.3765 31.5681 78.6663 31.1909C78.9562 30.8138 79.3355 30.5149 79.77 30.3213C80.9953 29.6498 82.3729 29.3054 83.77 29.3213ZM83.77 27.5713C82.068 27.5409 80.387 27.9508 78.89 28.7613C78.2516 29.0823 77.6958 29.546 77.2657 30.1166C76.8356 30.6872 76.5428 31.3492 76.41 32.0513C76.3787 32.179 76.3619 32.3098 76.36 32.4413V35.8513C76.3987 36.6761 76.6611 37.4748 77.1192 38.1618C77.5772 38.8489 78.2135 39.3983 78.96 39.7513C80.4729 40.54 82.1539 40.9518 83.86 40.9518C85.5661 40.9518 87.2471 40.54 88.76 39.7513C89.4824 39.3986 90.0977 38.8596 90.5424 38.1899C90.9872 37.5202 91.2452 36.744 91.29 35.9413V32.4813C91.2903 32.3227 91.2702 32.1647 91.23 32.0113C91.0738 31.3271 90.7688 30.6857 90.3367 30.1326C89.9046 29.5795 89.3561 29.1284 88.73 28.8113C87.2201 27.9958 85.5258 27.5825 83.81 27.6113L83.77 27.5713Z" fill="#588A99"/>
<path d="M89.5 33.4813H78.11V37.7913C78.158 38.2951 78.3387 38.7772 78.6339 39.1883C78.929 39.5994 79.328 39.9248 79.79 40.1313C81.0397 40.7624 82.42 41.0912 83.82 41.0912C85.22 41.0912 86.6003 40.7624 87.85 40.1313C88.313 39.9243 88.711 39.5953 89.0016 39.1797C89.2922 38.764 89.4645 38.2773 89.5 37.7713V37.7713V33.4813Z" fill="#B0C3CE"/>
<path d="M89.5 32.4813H78.11V36.7913C78.158 37.2951 78.3387 37.7772 78.6339 38.1883C78.929 38.5994 79.328 38.9248 79.79 39.1313C81.0397 39.7624 82.42 40.0912 83.82 40.0912C85.22 40.0912 86.6003 39.7624 87.85 39.1313C88.313 38.9243 88.711 38.5953 89.0016 38.1797C89.2922 37.764 89.4645 37.2773 89.5 36.7713V32.4813Z" fill="#E9EFF2"/>
<path d="M84.74 40.0613C85.8284 39.9761 86.8873 39.6663 87.85 39.1513C88.313 38.9443 88.711 38.6153 89.0016 38.1997C89.2922 37.784 89.4645 37.2972 89.5 36.7913V36.7913V32.4813H84.74V40.0613Z" fill="#CCD9E0"/>
<path d="M89.4912 33.67C89.501 31.8586 86.9615 30.3763 83.8191 30.3593C80.6766 30.3423 78.1212 31.797 78.1114 33.6085C78.1016 35.4199 80.6411 36.9022 83.7836 36.9192C86.926 36.9362 89.4814 35.4815 89.4912 33.67Z" fill="#B0C3CE"/>
<path d="M89.4913 32.6747C89.5011 30.8632 86.9615 29.381 83.8191 29.364C80.6766 29.3469 78.1212 30.8016 78.1114 32.6131C78.1016 34.4246 80.6411 35.9068 83.7836 35.9239C86.926 35.9409 89.4814 34.4862 89.4913 32.6747Z" fill="#FFFFFD"/>
<path opacity="0.4" d="M106.536 43.6136C106.547 41.3272 103.198 39.4578 99.0559 39.4383C94.9138 39.4188 91.5473 41.2565 91.5365 43.5429C91.5257 45.8293 94.8748 47.6987 99.0169 47.7182C103.159 47.7377 106.526 45.9 106.536 43.6136Z" fill="#588A99"/>
<path d="M97.2 36.9712C98.6134 36.9521 100.008 37.2965 101.25 37.9712C101.685 38.1598 102.068 38.4512 102.366 38.8205C102.664 39.1898 102.868 39.6258 102.96 40.0912V40.0912V43.5012C102.929 44.0084 102.758 44.4971 102.467 44.9135C102.176 45.3299 101.776 45.6579 101.31 45.8612C100.085 46.5328 98.7071 46.8772 97.31 46.8612C95.9139 46.8684 94.5385 46.5245 93.31 45.8612C92.8441 45.6574 92.442 45.3314 92.1462 44.9177C91.8505 44.504 91.6721 44.018 91.63 43.5112V43.5112V40.0912C91.7034 39.6224 91.8916 39.179 92.1777 38.8004C92.4638 38.4219 92.839 38.1198 93.27 37.9212C94.4977 37.256 95.8737 36.912 97.27 36.9212M97.27 35.1712C95.568 35.1409 93.887 35.5508 92.39 36.3613C91.7493 36.6804 91.1912 37.1435 90.7592 37.7143C90.3272 38.285 90.0332 38.948 89.9 39.6512C89.8848 39.7808 89.8848 39.9117 89.9 40.0412V43.4513C89.9277 44.2546 90.1682 45.0361 90.5969 45.7161C91.0256 46.396 91.6271 46.9499 92.34 47.3212C93.8549 48.1035 95.5351 48.5117 97.24 48.5117C98.9449 48.5117 100.625 48.1035 102.14 47.3212C102.862 46.9686 103.478 46.4296 103.922 45.7599C104.367 45.0901 104.625 44.3139 104.67 43.5112C104.674 43.4881 104.674 43.4644 104.67 43.4412V40.0912C104.667 39.9322 104.644 39.7742 104.6 39.6212C104.446 38.9374 104.143 38.296 103.713 37.7429C103.282 37.1897 102.735 36.7384 102.11 36.4212C100.599 35.6083 98.9055 35.1952 97.19 35.2212L97.27 35.1712Z" fill="#588A99"/>
<path d="M102.96 41.0913H91.54V45.3913C91.5821 45.8981 91.7605 46.3841 92.0562 46.7978C92.352 47.2115 92.7541 47.5375 93.22 47.7413C94.4607 48.3664 95.8307 48.692 97.22 48.692C98.6093 48.692 99.9793 48.3664 101.22 47.7413C101.702 47.5529 102.12 47.2324 102.428 46.8167C102.736 46.4011 102.92 45.907 102.96 45.3913V45.3913V41.0913Z" fill="#B0C3CE"/>
<path d="M102.96 40.0913H91.54V44.3913C91.5821 44.8981 91.7605 45.3841 92.0562 45.7978C92.352 46.2115 92.7541 46.5375 93.22 46.7413C94.4607 47.3664 95.8307 47.692 97.22 47.692C98.6093 47.692 99.9793 47.3664 101.22 46.7413C101.702 46.5529 102.12 46.2324 102.428 45.8167C102.736 45.4011 102.92 44.907 102.96 44.3913V44.3913V40.0913Z" fill="#E9EFF2"/>
<path d="M98.16 47.6613C99.2504 47.587 100.312 47.2764 101.27 46.7513C101.744 46.5547 102.153 46.2295 102.452 45.8124C102.75 45.3954 102.926 44.9032 102.96 44.3913V44.3913V40.0913H98.16V47.6613Z" fill="#CCD9E0"/>
<path d="M102.924 41.2814C102.934 39.4699 100.394 37.9876 97.2516 37.9706C94.1091 37.9536 91.5537 39.4083 91.5439 41.2198C91.5341 43.0313 94.0736 44.5135 97.2161 44.5305C100.359 44.5475 102.914 43.0928 102.924 41.2814Z" fill="#B0C3CE"/>
<path d="M102.924 40.286C102.934 38.4745 100.394 36.9923 97.2516 36.9753C94.1091 36.9583 91.5537 38.413 91.5439 40.2244C91.5341 42.0359 94.0736 43.5182 97.2161 43.5352C100.359 43.5522 102.914 42.0975 102.924 40.286Z" fill="#FFFFFD"/>
<path opacity="0.4" d="M119.527 52.1238C119.538 49.8374 116.189 47.9681 112.047 47.9486C107.905 47.929 104.538 49.7667 104.528 52.0532C104.517 54.3396 107.866 56.2089 112.008 56.2285C116.15 56.248 119.517 54.4103 119.527 52.1238Z" fill="#588A99"/>
<path d="M110.17 45.4713C111.583 45.4512 112.978 45.7956 114.22 46.4713C114.648 46.6726 115.023 46.9723 115.313 47.3459C115.603 47.7196 115.801 48.1566 115.89 48.6213V48.6213V52.0313C115.845 52.5244 115.67 52.9967 115.381 53.3993C115.093 53.8019 114.703 54.1202 114.25 54.3213C113.024 54.9911 111.647 55.3354 110.25 55.3213C108.854 55.3271 107.479 54.9833 106.25 54.3213C105.787 54.1139 105.387 53.7869 105.091 53.374C104.796 52.961 104.616 52.4768 104.57 51.9713V51.9713V48.5913C104.643 48.1224 104.832 47.679 105.118 47.3005C105.404 46.9219 105.779 46.6199 106.21 46.4213C107.437 45.7543 108.813 45.4102 110.21 45.4213M110.21 43.6713C108.511 43.6408 106.833 44.0508 105.34 44.8613C104.699 45.1804 104.141 45.6435 103.709 46.2143C103.277 46.785 102.983 47.448 102.85 48.1513C102.835 48.2809 102.835 48.4117 102.85 48.5413V51.9513C102.894 52.7644 103.155 53.551 103.605 54.2296C104.055 54.9082 104.678 55.4543 105.41 55.8113C106.923 56.6 108.604 57.0118 110.31 57.0118C112.016 57.0118 113.697 56.6 115.21 55.8113C115.934 55.4603 116.55 54.9217 116.995 54.2516C117.44 53.5816 117.697 52.8045 117.74 52.0013V48.5913C117.74 48.4327 117.72 48.2747 117.68 48.1213C117.526 47.4374 117.223 46.796 116.793 46.2429C116.362 45.6897 115.815 45.2384 115.19 44.9213C113.676 44.1083 111.979 43.6952 110.26 43.7213L110.21 43.6713Z" fill="#588A99"/>
<path d="M115.9 49.5913H104.51V53.9013C104.558 54.4051 104.739 54.8872 105.034 55.2983C105.329 55.7094 105.728 56.0348 106.19 56.2413C107.44 56.8724 108.82 57.2012 110.22 57.2012C111.62 57.2012 113 56.8724 114.25 56.2413C114.713 56.0342 115.111 55.7053 115.402 55.2897C115.692 54.874 115.864 54.3872 115.9 53.8813V53.8813V49.5913Z" fill="#B0C3CE"/>
<path d="M115.9 48.5913H104.51V52.9013C104.558 53.4051 104.739 53.8872 105.034 54.2983C105.329 54.7094 105.728 55.0348 106.19 55.2413C107.44 55.8724 108.82 56.2012 110.22 56.2012C111.62 56.2012 113 55.8724 114.25 55.2413C114.713 55.0342 115.111 54.7053 115.402 54.2897C115.692 53.874 115.864 53.3872 115.9 52.8813V52.8813V48.5913Z" fill="#E9EFF2"/>
<path d="M111.14 56.1713C112.228 56.0861 113.287 55.7763 114.25 55.2613C114.713 55.0542 115.111 54.7253 115.402 54.3097C115.692 53.894 115.864 53.4072 115.9 52.9013V52.9013V48.5913H111.14V56.1713Z" fill="#CCD9E0"/>
<path d="M115.894 49.7876C115.904 47.9761 113.364 46.4939 110.222 46.4769C107.079 46.4599 104.524 47.9146 104.514 49.726C104.504 51.5375 107.044 53.0198 110.186 53.0368C113.329 53.0538 115.884 51.5991 115.894 49.7876Z" fill="#B0C3CE"/>
<path d="M115.894 48.7822C115.904 46.9708 113.364 45.4885 110.222 45.4715C107.079 45.4545 104.524 46.9092 104.514 48.7207C104.504 50.5321 107.044 52.0144 110.186 52.0314C113.329 52.0484 115.884 50.5937 115.894 48.7822Z" fill="#FFFFFD"/>
<path d="M56.76 82.4313L66.34 114.471L92.02 99.6513V80.5413L56.76 82.4313Z" fill="#CCD9E0"/>
<path d="M66.34 114.971C66.2517 114.972 66.1651 114.948 66.09 114.901L40.25 100.081C40.1757 100.036 40.1139 99.9731 40.0703 99.898C40.0266 99.8229 40.0024 99.738 40 99.6512V80.4512C40.0026 80.3194 40.0561 80.1937 40.1493 80.1005C40.2425 80.0072 40.3682 79.9537 40.5 79.9512H40.59L66.43 84.3912C66.5457 84.4103 66.6506 84.4703 66.7258 84.5602C66.8011 84.6501 66.8416 84.764 66.84 84.8812V114.461C66.8416 114.549 66.8191 114.635 66.775 114.711C66.731 114.787 66.667 114.849 66.59 114.891C66.517 114.943 66.4296 114.971 66.34 114.971V114.971Z" fill="#E7F0F4"/>
<path d="M40.5 80.4512L66.34 84.8912V114.471L40.5 99.6412V80.4512ZM40.5 79.4512C40.2663 79.4507 40.0399 79.5321 39.86 79.6812C39.7471 79.7752 39.6563 79.8929 39.5941 80.026C39.5319 80.1591 39.4998 80.3043 39.5 80.4512V99.6412C39.5003 99.8184 39.5477 99.9923 39.6373 100.145C39.7269 100.298 39.8555 100.424 40.01 100.511L65.84 115.321C65.9924 115.408 66.1648 115.452 66.34 115.451C66.5152 115.452 66.6876 115.408 66.84 115.321C66.9926 115.233 67.1192 115.106 67.207 114.953C67.2948 114.801 67.3407 114.627 67.34 114.451V84.8912C67.3435 84.6529 67.2618 84.4213 67.1096 84.238C66.9574 84.0546 66.7448 83.9317 66.51 83.8912L40.67 79.4612L40.5 79.4512Z" fill="#B0C3CE"/>
<path d="M66.34 95.8712C66.2525 95.8667 66.1671 95.8428 66.09 95.8012L40.25 80.8812C40.1728 80.839 40.1084 80.7769 40.0635 80.7012C40.0186 80.6255 39.9949 80.5392 39.9949 80.4512C39.9949 80.3632 40.0186 80.2769 40.0635 80.2012C40.1084 80.1256 40.1728 80.0634 40.25 80.0212L65.96 65.1912C66.0353 65.1453 66.1218 65.121 66.21 65.121C66.2982 65.121 66.3847 65.1453 66.46 65.1912L92.27 80.1112C92.347 80.1532 92.411 80.2155 92.455 80.2913C92.4991 80.3671 92.5216 80.4535 92.52 80.5412C92.5227 80.6291 92.5007 80.716 92.4565 80.792C92.4124 80.868 92.3477 80.9301 92.27 80.9712L66.59 95.8012C66.5139 95.8453 66.4279 95.8694 66.34 95.8712V95.8712Z" fill="white"/>
<path d="M66.18 65.6212L92.02 80.5412L66.34 95.3712L40.5 80.4512L66.18 65.6212ZM66.18 64.6212C66.0039 64.623 65.8314 64.6713 65.68 64.7612L39.96 79.5812C39.8074 79.6693 39.6808 79.7962 39.593 79.949C39.5052 80.1017 39.4593 80.275 39.46 80.4512C39.4593 80.6274 39.5052 80.8007 39.593 80.9535C39.6808 81.1062 39.8074 81.2331 39.96 81.3212L65.84 96.2312C65.9914 96.3211 66.1639 96.3694 66.34 96.3712C66.5161 96.3694 66.6886 96.3211 66.84 96.2312L92.52 81.4112C92.6726 81.3231 92.7992 81.1962 92.887 81.0435C92.9748 80.8907 93.0207 80.7174 93.02 80.5412C93.0189 80.3667 92.9722 80.1955 92.8845 80.0446C92.7968 79.8938 92.6711 79.7685 92.52 79.6812L66.68 64.7612C66.5286 64.6713 66.3561 64.623 66.18 64.6212Z" fill="#B0C3CE"/>
<path d="M66.18 65.6212L92.02 80.5412V99.6412L66.34 114.471L40.5 99.6412V80.4512L66.18 65.6212ZM66.18 64.1212C65.917 64.1223 65.6587 64.1912 65.43 64.3212L39.75 79.1512C39.5225 79.2837 39.3336 79.4734 39.2021 79.7014C39.0705 79.9295 39.0008 80.1879 39 80.4512V99.6412C39.0001 99.9072 39.0704 100.168 39.2039 100.398C39.3373 100.628 39.5292 100.819 39.76 100.951L65.6 115.771C65.825 115.901 66.0801 115.97 66.34 115.971C66.603 115.97 66.8613 115.901 67.09 115.771L92.77 100.941C92.9982 100.809 93.1876 100.62 93.3193 100.392C93.4509 100.164 93.5202 99.9047 93.52 99.6412V80.5412C93.5182 80.2782 93.4481 80.0201 93.3166 79.7922C93.1852 79.5643 92.9968 79.3745 92.77 79.2412L66.96 64.3212C66.7313 64.1912 66.473 64.1223 66.21 64.1212H66.18Z" fill="#588A99"/>
<path opacity="0.4" d="M75.1983 72.2181C75.209 69.9317 71.86 68.0623 67.7179 68.0428C63.5758 68.0233 60.2092 69.861 60.1984 72.1474C60.1877 74.4338 63.5368 76.3032 67.6788 76.3227C71.8209 76.3422 75.1875 74.5045 75.1983 72.2181Z" fill="#588A99"/>
<path d="M65.85 65.5713C67.2459 65.5654 68.6211 65.9092 69.85 66.5713C70.2809 66.77 70.6571 67.0704 70.9463 67.4466C71.2355 67.8229 71.4289 68.2637 71.51 68.7313V68.7313V72.1313C71.4845 72.6243 71.3273 73.1014 71.0547 73.513C70.782 73.9246 70.404 74.2555 69.96 74.4713C68.7121 75.1023 67.3333 75.431 65.935 75.431C64.5367 75.431 63.1579 75.1023 61.91 74.4713C61.4441 74.2674 61.042 73.9414 60.7462 73.5277C60.4505 73.114 60.2721 72.6281 60.23 72.1213V72.1213V68.7213C60.3034 68.2525 60.4916 67.809 60.7777 67.4305C61.0638 67.0519 61.439 66.7499 61.87 66.5513C63.0964 65.8827 64.4733 65.5385 65.87 65.5513M65.87 63.8013C64.1567 63.7773 62.466 64.1939 60.96 65.0113C60.3202 65.3355 59.7637 65.8027 59.3336 66.3768C58.9035 66.9508 58.6114 67.6161 58.48 68.3213C58.4647 68.4542 58.4647 68.5884 58.48 68.7213V72.1213C58.5151 72.9252 58.7632 73.7054 59.199 74.3819C59.6348 75.0584 60.2425 75.6069 60.96 75.9713C62.4952 76.7959 64.2177 77.2093 65.96 77.1713C67.6619 77.2007 69.3427 76.7909 70.84 75.9813C71.5611 75.6269 72.1753 75.0875 72.6198 74.4181C73.0643 73.7488 73.3232 72.9734 73.37 72.1713V68.7013C73.3678 68.5389 73.3443 68.3775 73.3 68.2213C73.1461 67.5387 72.8431 66.8987 72.4125 66.3472C71.982 65.7957 71.4348 65.3463 70.81 65.0313C69.3022 64.2093 67.607 63.7924 65.89 63.8213L65.87 63.8013Z" fill="#588A99"/>
<path d="M71.58 69.7013H60.19V74.0013C60.2373 74.5028 60.4181 74.9825 60.7135 75.3905C61.009 75.7985 61.4083 76.1199 61.87 76.3213C63.1231 76.9588 64.5091 77.2912 65.915 77.2912C67.3209 77.2912 68.7069 76.9588 69.96 76.3213C70.4256 76.1179 70.826 75.7899 71.1172 75.3735C71.4083 74.9571 71.5789 74.4684 71.61 73.9613V73.9613L71.58 69.7013Z" fill="#B0C3CE"/>
<path d="M71.58 68.7013H60.19V73.0013C60.2373 73.5028 60.4181 73.9825 60.7135 74.3905C61.009 74.7985 61.4083 75.1199 61.87 75.3213C63.1231 75.9588 64.5091 76.2912 65.915 76.2912C67.3209 76.2912 68.7069 75.9588 69.96 75.3213C70.4256 75.1179 70.826 74.7899 71.1172 74.3735C71.4083 73.9571 71.5789 73.4684 71.61 72.9613V72.9613L71.58 68.7013Z" fill="#E9EFF2"/>
<path d="M66.82 76.3213C67.9266 76.2187 68.9979 75.8776 69.96 75.3213C70.4256 75.1179 70.826 74.7899 71.1172 74.3735C71.4083 73.9571 71.5789 73.4684 71.61 72.9613V72.9613V68.6613H66.82V76.3213Z" fill="#CCD9E0"/>
<path d="M71.7992 70.2036C71.8173 68.3921 69.2845 66.8981 66.142 66.8666C62.9995 66.8352 60.4373 68.2783 60.4192 70.0898C60.4011 71.9012 62.9339 73.3952 66.0764 73.4267C69.2189 73.4581 71.7811 72.015 71.7992 70.2036Z" fill="#B0C3CE"/>
<path d="M71.7992 69.1937C71.8173 67.3822 69.2845 65.8882 66.142 65.8568C62.9995 65.8253 60.4373 67.2684 60.4192 69.0799C60.4011 70.8914 62.9339 72.3853 66.0764 72.4168C69.2189 72.4482 71.7811 71.0052 71.7992 69.1937Z" fill="#FFFFFD"/>
<path opacity="0.4" d="M61.7951 79.3616C61.8059 77.0752 58.4568 75.2059 54.3147 75.1863C50.1726 75.1668 46.806 77.0045 46.7953 79.291C46.7845 81.5774 50.1336 83.4467 54.2757 83.4663C58.4178 83.4858 61.7843 81.6481 61.7951 79.3616Z" fill="#588A99"/>
<path d="M52.46 72.7213C53.8565 72.7107 55.2328 73.0548 56.46 73.7213C56.8897 73.9191 57.2651 74.2179 57.5542 74.5923C57.8433 74.9667 58.0374 75.4056 58.12 75.8713V75.8713V79.2813C58.0847 79.7886 57.9113 80.2766 57.6188 80.6926C57.3262 81.1085 56.9255 81.4366 56.46 81.6413C55.2301 82.2955 53.8527 82.6226 52.46 82.5913C51.0466 82.6104 49.652 82.2661 48.41 81.5913C47.9442 81.3901 47.5419 81.0661 47.246 80.6539C46.9501 80.2418 46.7717 79.757 46.73 79.2513V79.2513V75.8413C46.8034 75.3725 46.9916 74.9291 47.2777 74.5505C47.5638 74.1719 47.939 73.8699 48.37 73.6713C49.6027 73.0246 50.9781 72.698 52.37 72.7213M52.37 70.9713C50.668 70.941 48.987 71.3509 47.49 72.1613C46.8507 72.4824 46.2937 72.946 45.862 73.5164C45.4302 74.0868 45.1353 74.7488 45 75.4513C44.9848 75.5809 44.9848 75.7118 45 75.8413V79.2513C45.04 80.0642 45.2978 80.8514 45.7465 81.5305C46.1951 82.2096 46.818 82.7556 47.55 83.1113C49.0667 83.8936 50.7485 84.3018 52.455 84.3018C54.1615 84.3018 55.8433 83.8936 57.36 83.1113C58.0902 82.7664 58.7156 82.2337 59.1724 81.5678C59.6292 80.9019 59.901 80.1267 59.96 79.3213V75.8413C59.9571 75.6823 59.9336 75.5243 59.89 75.3713C59.7362 74.6875 59.4332 74.0461 59.0028 73.4929C58.5723 72.9398 58.025 72.4885 57.4 72.1713C55.8913 71.3528 54.1962 70.9394 52.48 70.9713H52.37Z" fill="#588A99"/>
<path d="M58.19 76.8413H46.8V81.1413C46.8421 81.6481 47.0205 82.1341 47.3162 82.5478C47.612 82.9615 48.0141 83.2875 48.48 83.4913C49.7272 84.1246 51.1062 84.4547 52.505 84.4547C53.9038 84.4547 55.2828 84.1246 56.53 83.4913C56.9962 83.2875 57.3974 82.9597 57.6901 82.5435C57.9829 82.1274 58.1557 81.6389 58.19 81.1313V81.1313V76.8413Z" fill="#B0C3CE"/>
<path d="M58.19 75.8413H46.8V80.1413C46.8421 80.6481 47.0205 81.1341 47.3162 81.5478C47.612 81.9615 48.0141 82.2875 48.48 82.4913C49.7272 83.1246 51.1062 83.4547 52.505 83.4547C53.9038 83.4547 55.2828 83.1246 56.53 82.4913C56.9962 82.2875 57.3974 81.9597 57.6901 81.5435C57.9829 81.1274 58.1557 80.6389 58.19 80.1313V80.1313V75.8413Z" fill="#E9EFF2"/>
<path d="M53.43 83.4113C54.5169 83.3355 55.5746 83.0251 56.53 82.5013C56.9962 82.2975 57.3974 81.9697 57.6901 81.5535C57.9828 81.1374 58.1557 80.6489 58.19 80.1413V80.1413V75.8413H53.43V83.4113Z" fill="#CCD9E0"/>
<path d="M58.1811 77.0342C58.191 75.2227 55.6514 73.7404 52.509 73.7234C49.3665 73.7064 46.8111 75.1611 46.8013 76.9726C46.7915 78.7841 49.331 80.2663 52.4735 80.2833C55.6159 80.3004 58.1713 78.8457 58.1811 77.0342Z" fill="#B0C3CE"/>
<path d="M58.3453 76.3751C58.3634 74.5636 55.8306 73.0696 52.6881 73.0382C49.5456 73.0067 46.9834 74.4498 46.9653 76.2613C46.9472 78.0728 49.48 79.5667 52.6225 79.5982C55.765 79.6296 58.3272 78.1866 58.3453 76.3751Z" fill="#FFFFFD"/>
<path opacity="0.4" d="M75.2282 87.0479C75.239 84.7615 71.8899 82.8921 67.7478 82.8726C63.6057 82.8531 60.2392 84.6908 60.2284 86.9772C60.2176 89.2637 63.5667 91.133 67.7088 91.1525C71.8509 91.172 75.2175 89.3344 75.2282 87.0479Z" fill="#588A99"/>
<path d="M65.88 80.4013C67.2766 80.3898 68.6531 80.7339 69.88 81.4013C70.3082 81.6026 70.6827 81.9023 70.9729 82.2759C71.2632 82.6496 71.4609 83.0866 71.55 83.5513V86.9613C71.5201 87.4609 71.3568 87.9433 71.0772 88.3583C70.7975 88.7734 70.4118 89.1059 69.96 89.3213C68.7341 89.9911 67.3569 90.3354 65.96 90.3213C64.5472 90.3355 63.1538 89.9915 61.91 89.3213C61.4466 89.1139 61.0467 88.787 60.7515 88.374C60.4562 87.961 60.2763 87.4768 60.23 86.9713V86.9713V83.5213C60.2998 83.0461 60.4873 82.5959 60.7755 82.2116C61.0636 81.8274 61.4433 81.5213 61.88 81.3213C63.107 80.6544 64.4835 80.3103 65.88 80.3213M65.88 78.5713C64.1574 78.5594 62.4616 78.9971 60.96 79.8413C60.3216 80.1623 59.7658 80.6261 59.3357 81.1966C58.9056 81.7672 58.6128 82.4292 58.48 83.1313C58.4487 83.259 58.4319 83.3898 58.43 83.5213V86.9313C58.4741 87.7444 58.7347 88.531 59.1848 89.2096C59.6348 89.8883 60.2581 90.4343 60.99 90.7913C62.5029 91.58 64.1839 91.9918 65.89 91.9918C67.5961 91.9918 69.2771 91.58 70.79 90.7913C71.5137 90.4403 72.1302 89.9017 72.5751 89.2317C73.0201 88.5616 73.2773 87.7845 73.32 86.9813V83.5213C73.3203 83.3627 73.3002 83.2047 73.26 83.0513C73.1062 82.3675 72.8032 81.7261 72.3728 81.1729C71.9423 80.6197 71.395 80.1684 70.77 79.8513C69.2556 79.0383 67.5587 78.6253 65.84 78.6513L65.88 78.5713Z" fill="#588A99"/>
<path d="M71.61 84.5212H60.22V88.8312C60.268 89.335 60.4487 89.8171 60.7439 90.2282C61.039 90.6393 61.438 90.9647 61.9 91.1712C63.1496 91.8023 64.53 92.1311 65.93 92.1311C67.33 92.1311 68.7103 91.8023 69.96 91.1712C70.423 90.9642 70.821 90.6353 71.1116 90.2196C71.4022 89.804 71.5745 89.3172 71.61 88.8112V84.5212Z" fill="#B0C3CE"/>
<path d="M71.61 83.5212H60.22V87.8312C60.268 88.335 60.4487 88.8171 60.7439 89.2282C61.039 89.6393 61.438 89.9647 61.9 90.1712C63.1496 90.8023 64.53 91.1311 65.93 91.1311C67.33 91.1311 68.7103 90.8023 69.96 90.1712C70.423 89.9642 70.821 89.6353 71.1116 89.2196C71.4022 88.804 71.5745 88.3172 71.61 87.8112V83.5212Z" fill="#E9EFF2"/>
<path d="M66.85 91.1012C67.9384 91.0161 68.9973 90.7062 69.96 90.1912C70.423 89.9842 70.821 89.6553 71.1116 89.2396C71.4022 88.824 71.5745 88.3372 71.61 87.8312V83.5212H66.85V91.1012Z" fill="#CCD9E0"/>
<path d="M71.6037 84.7159C71.6135 82.9045 69.074 81.4222 65.9315 81.4052C62.7891 81.3882 60.2337 82.8429 60.2239 84.6544C60.2141 86.4658 62.7536 87.9481 65.896 87.9651C69.0385 87.9821 71.5939 86.5274 71.6037 84.7159Z" fill="#B0C3CE"/>
<path d="M71.6037 83.7106C71.6135 81.8991 69.074 80.4168 65.9315 80.3998C62.7891 80.3828 60.2337 81.8375 60.2239 83.649C60.2141 85.4605 62.7536 86.9427 65.896 86.9597C69.0385 86.9767 71.5939 85.522 71.6037 83.7106Z" fill="#FFFFFD"/>
<path opacity="0.4" d="M88.1894 79.3719C88.2002 77.0855 84.8511 75.2161 80.709 75.1966C76.5669 75.1771 73.2003 77.0148 73.1896 79.3012C73.1788 81.5876 76.5279 83.457 80.67 83.4765C84.8121 83.496 88.1786 81.6583 88.1894 79.3719Z" fill="#588A99"/>
<path d="M78.84 72.7213C80.2534 72.7021 81.648 73.0465 82.89 73.7213C83.3182 73.9226 83.6927 74.2223 83.9829 74.5959C84.2732 74.9696 84.4709 75.4066 84.56 75.8713V79.2813C84.5239 79.7766 84.3567 80.2535 84.0756 80.663C83.7944 81.0724 83.4094 81.3997 82.96 81.6113C81.7103 82.2423 80.33 82.5711 78.93 82.5711C77.53 82.5711 76.1496 82.2423 74.9 81.6113C74.4367 81.4065 74.0367 81.0815 73.7413 80.6701C73.4459 80.2586 73.2659 79.7757 73.22 79.2713V79.2713V75.8413C73.2961 75.372 73.4864 74.9287 73.7741 74.5503C74.0619 74.1719 74.4382 73.87 74.87 73.6713C76.1016 73.0217 77.4778 72.6949 78.87 72.7213M78.87 70.9713C77.158 70.9366 75.4662 71.3466 73.96 72.1613C73.3216 72.4823 72.7658 72.946 72.3357 73.5166C71.9056 74.0872 71.6128 74.7492 71.48 75.4513C71.448 75.5788 71.4313 75.7097 71.43 75.8413V79.2513C71.4712 80.0613 71.7273 80.8458 72.1719 81.5241C72.6166 82.2025 73.2337 82.7503 73.96 83.1113C75.4749 83.8935 77.1551 84.3017 78.86 84.3017C80.5649 84.3017 82.2451 83.8935 83.76 83.1113C84.4852 82.7643 85.1047 82.2302 85.5547 81.5639C86.0047 80.8977 86.2689 80.1236 86.32 79.3213V75.8413C86.3203 75.6827 86.3002 75.5247 86.26 75.3713C86.1062 74.6875 85.8032 74.046 85.3728 73.4929C84.9423 72.9397 84.395 72.4884 83.77 72.1713C82.2572 71.3541 80.5592 70.9408 78.84 70.9713H78.87Z" fill="#588A99"/>
<path d="M84.57 76.8413H73.18V81.1413C73.2263 81.6469 73.4062 82.131 73.7015 82.544C73.9967 82.957 74.3966 83.284 74.86 83.4913C76.109 84.1247 77.4896 84.4548 78.89 84.4548C80.2904 84.4548 81.671 84.1247 82.92 83.4913C83.3843 83.2861 83.7835 82.9576 84.0744 82.5416C84.3652 82.1256 84.5366 81.6378 84.57 81.1313V81.1313V76.8413Z" fill="#B0C3CE"/>
<path d="M84.57 75.8413H73.18V80.1413C73.2263 80.6469 73.4062 81.131 73.7015 81.544C73.9967 81.957 74.3966 82.284 74.86 82.4913C76.109 83.1247 77.4896 83.4548 78.89 83.4548C80.2904 83.4548 81.671 83.1247 82.92 82.4913C83.3843 82.2861 83.7835 81.9576 84.0744 81.5416C84.3652 81.1256 84.5366 80.6378 84.57 80.1313V80.1313V75.8413Z" fill="#E9EFF2"/>
<path d="M79.81 83.4113C80.9138 83.3414 81.989 83.0308 82.96 82.5013C83.4243 82.2961 83.8235 81.9676 84.1144 81.5516C84.4052 81.1356 84.5767 80.6478 84.61 80.1413V80.1413V75.8413H79.81V83.4113Z" fill="#CCD9E0"/>
<path d="M84.5639 77.0346C84.5737 75.2231 82.0342 73.7408 78.8918 73.7238C75.7493 73.7068 73.1939 75.1615 73.1841 76.973C73.1743 78.7844 75.7138 80.2667 78.8563 80.2837C81.9987 80.3007 84.5541 78.846 84.5639 77.0346Z" fill="#B0C3CE"/>
<path d="M84.5639 76.0292C84.5737 74.2177 82.0342 72.7354 78.8918 72.7184C75.7493 72.7014 73.1939 74.1561 73.1841 75.9676C73.1743 77.7791 75.7138 79.2613 78.8563 79.2783C81.9987 79.2953 84.5541 77.8406 84.5639 76.0292Z" fill="#FFFFFD"/>
<path d="M203.2 80.7913V61.1813H167.25L177.48 95.6413L203.2 80.7913Z" fill="#CCD9E0"/>
<path d="M177.48 96.1412C177.392 96.1382 177.307 96.1142 177.23 96.0712L137.53 73.1512C137.454 73.1076 137.392 73.0449 137.348 72.9695C137.304 72.8941 137.281 72.8085 137.28 72.7212V53.1112C137.279 53.0334 137.297 52.9566 137.332 52.8871C137.366 52.8175 137.417 52.7572 137.48 52.7112C137.568 52.6487 137.672 52.6139 137.78 52.6112H137.91L177.61 63.4712C177.716 63.4997 177.809 63.562 177.876 63.6488C177.943 63.7355 177.979 63.8417 177.98 63.9512V95.6412C177.979 95.7285 177.956 95.8141 177.912 95.8895C177.868 95.9649 177.806 96.0276 177.73 96.0712C177.653 96.1142 177.568 96.1382 177.48 96.1412V96.1412Z" fill="#E7F0F4"/>
<path d="M137.78 53.1112L177.48 63.9712V95.6412L137.78 72.7212V53.1112ZM137.78 52.1112C137.559 52.1119 137.345 52.1857 137.17 52.3212C137.049 52.4144 136.951 52.534 136.883 52.6709C136.816 52.8079 136.78 52.9585 136.78 53.1112V72.7212C136.781 72.8957 136.828 73.0669 136.915 73.2178C137.003 73.3687 137.129 73.494 137.28 73.5812L176.96 96.5012C177.111 96.5911 177.284 96.6394 177.46 96.6412C177.636 96.6394 177.809 96.5911 177.96 96.5012C178.111 96.414 178.237 96.2887 178.325 96.1378C178.412 95.9869 178.459 95.8157 178.46 95.6412V63.9712C178.468 63.7454 178.399 63.5237 178.264 63.3421C178.13 63.1605 177.938 63.0298 177.72 62.9712L138.02 52.1112C137.934 52.0961 137.846 52.0961 137.76 52.1112H137.78Z" fill="#B0C3CE"/>
<path d="M177.48 76.5312C177.392 76.533 177.305 76.5086 177.23 76.4612L137.53 53.5412C137.453 53.4991 137.388 53.4369 137.344 53.3612C137.299 53.2855 137.275 53.1992 137.275 53.1112C137.275 53.0233 137.299 52.9369 137.344 52.8613C137.388 52.7856 137.453 52.7234 137.53 52.6812L163.25 37.8312C163.325 37.7849 163.412 37.7606 163.5 37.7612C163.589 37.7582 163.676 37.7827 163.75 37.8312L203.45 60.7512C203.527 60.7934 203.592 60.8556 203.636 60.9313C203.681 61.0069 203.705 61.0933 203.705 61.1812C203.705 61.2692 203.681 61.3555 203.636 61.4312C203.592 61.5069 203.527 61.5691 203.45 61.6112L177.73 76.4612C177.655 76.5086 177.568 76.533 177.48 76.5312V76.5312Z" fill="white"/>
<path d="M163.5 38.2613L203.2 61.1813L177.48 76.0313L137.78 53.1113L163.5 38.2613M163.5 37.2613C163.325 37.26 163.152 37.3049 163 37.3913L137.28 52.2413C137.126 52.3285 136.998 52.455 136.909 52.6078C136.82 52.7606 136.773 52.9344 136.773 53.1113C136.773 53.2881 136.82 53.4619 136.909 53.6147C136.998 53.7676 137.126 53.894 137.28 53.9813L176.96 76.9013C177.112 76.9876 177.285 77.0325 177.46 77.0313C177.635 77.0325 177.808 76.9876 177.96 76.9013L203.68 62.0413C203.831 61.954 203.957 61.8287 204.045 61.6778C204.132 61.527 204.179 61.3558 204.18 61.1813C204.181 61.005 204.135 60.8318 204.047 60.679C203.959 60.5262 203.833 60.3994 203.68 60.3113L163.96 37.3913C163.808 37.3049 163.635 37.26 163.46 37.2613H163.5Z" fill="#B0C3CE"/>
<path d="M163.5 38.2612L203.2 61.1812V80.7812L177.48 95.6412L137.78 72.7212V53.1112L163.5 38.2612M163.5 36.7612C163.237 36.7649 162.98 36.8336 162.75 36.9612L137.03 51.8112C136.803 51.9421 136.615 52.13 136.483 52.3564C136.352 52.5827 136.282 52.8395 136.28 53.1012V53.1012V72.7212C136.282 72.9843 136.352 73.2424 136.483 73.4703C136.615 73.6981 136.803 73.888 137.03 74.0212L176.73 96.9412C176.958 97.0719 177.217 97.1407 177.48 97.1407C177.743 97.1407 178.002 97.0719 178.23 96.9412L203.96 82.0812C204.19 81.9511 204.38 81.7619 204.512 81.5333C204.644 81.3048 204.712 81.0451 204.71 80.7812V61.1812C204.711 60.9176 204.642 60.6583 204.511 60.4299C204.379 60.2015 204.189 60.0122 203.96 59.8812L164.26 36.9612C164.031 36.8312 163.773 36.7623 163.51 36.7612H163.5Z" fill="#588A99"/>
<path opacity="0.4" d="M172.778 44.4986C172.789 42.2122 169.44 40.3428 165.298 40.3233C161.156 40.3038 157.789 42.1415 157.779 44.4279C157.768 46.7144 161.117 48.5837 165.259 48.6032C169.401 48.6227 172.768 46.785 172.778 44.4986Z" fill="#588A99"/>
<path d="M163.42 37.8613C164.816 37.8546 166.191 38.1984 167.42 38.8613C167.852 39.0594 168.23 39.3594 168.521 39.7356C168.812 40.1119 169.007 40.553 169.09 41.0213V41.0213V44.4213C169.06 44.9287 168.89 45.4179 168.599 45.8345C168.307 46.2511 167.906 46.5788 167.44 46.7813C166.215 47.4528 164.837 47.7972 163.44 47.7813C162.043 47.7927 160.667 47.4486 159.44 46.7813C158.974 46.5774 158.572 46.2514 158.276 45.8377C157.98 45.424 157.802 44.938 157.76 44.4313V44.4313V41.0313C157.833 40.5624 158.022 40.119 158.308 39.7404C158.594 39.3619 158.969 39.0599 159.4 38.8613C160.626 38.191 162.003 37.8467 163.4 37.8613M163.4 36.1113C161.707 36.0975 160.038 36.5139 158.55 37.3213C157.909 37.6404 157.351 38.1035 156.919 38.6743C156.487 39.245 156.193 39.908 156.06 40.6113C156.045 40.7442 156.045 40.8784 156.06 41.0113V44.4113C156.099 45.2256 156.357 46.0145 156.805 46.6953C157.254 47.3761 157.877 47.9238 158.61 48.2813C160.124 49.0942 161.821 49.5073 163.54 49.4813C165.223 49.5131 166.885 49.1138 168.37 48.3213C169.094 47.9703 169.71 47.4317 170.155 46.7616C170.6 46.0916 170.857 45.3145 170.9 44.5113C170.9 44.5113 170.9 44.5113 170.9 44.4413V41.0413C170.898 40.8789 170.874 40.7175 170.83 40.5613C170.684 39.8706 170.386 39.2213 169.956 38.6608C169.527 38.1002 168.979 37.6426 168.35 37.3213C166.838 36.5006 165.14 36.0838 163.42 36.1113H163.4Z" fill="#588A99"/>
<path d="M169.16 41.9912H157.77V46.3212C157.812 46.8269 157.99 47.3117 158.286 47.7238C158.582 48.136 158.984 48.46 159.45 48.6612C160.691 49.2863 162.061 49.6119 163.45 49.6119C164.839 49.6119 166.209 49.2863 167.45 48.6612C167.922 48.4666 168.331 48.1448 168.631 47.7317C168.931 47.3186 169.111 46.8303 169.15 46.3212L169.16 41.9912Z" fill="#B0C3CE"/>
<path d="M169.16 40.9912H157.77V45.3212C157.812 45.8269 157.99 46.3117 158.286 46.7238C158.582 47.136 158.984 47.46 159.45 47.6612C160.691 48.2863 162.061 48.6119 163.45 48.6119C164.839 48.6119 166.209 48.2863 167.45 47.6612C167.922 47.4666 168.331 47.1448 168.631 46.7317C168.931 46.3186 169.111 45.8303 169.15 45.3212L169.16 40.9912Z" fill="#E9EFF2"/>
<path d="M164.39 48.5612C165.478 48.4761 166.537 48.1662 167.5 47.6512C167.961 47.4502 168.359 47.1268 168.65 46.7162C168.94 46.3055 169.114 45.8231 169.15 45.3212V45.3212V41.0212H164.38L164.39 48.5612Z" fill="#CCD9E0"/>
<path d="M169.152 42.1773C169.162 40.3658 166.622 38.8835 163.48 38.8665C160.337 38.8495 157.782 40.3042 157.772 42.1157C157.762 43.9271 160.302 45.4094 163.444 45.4264C166.587 45.4434 169.142 43.9887 169.152 42.1773Z" fill="#B0C3CE"/>
<path d="M169.152 41.1819C169.162 39.3704 166.622 37.8882 163.48 37.8712C160.337 37.8542 157.782 39.3089 157.772 41.1203C157.762 42.9318 160.302 44.4141 163.444 44.4311C166.587 44.4481 169.142 42.9934 169.152 41.1819Z" fill="#FFFFFD"/>
<path opacity="0.4" d="M160.249 52.1143C160.26 49.8279 156.911 47.9585 152.769 47.939C148.627 47.9195 145.26 49.7572 145.249 52.0436C145.239 54.3301 148.588 56.1994 152.73 56.2189C156.872 56.2385 160.238 54.4008 160.249 52.1143Z" fill="#588A99"/>
<path d="M150.89 45.4713C152.287 45.4598 153.663 45.804 154.89 46.4713C155.321 46.6685 155.698 46.967 155.989 47.3413C156.28 47.7157 156.476 48.1548 156.56 48.6213V48.6213V52.0313C156.522 52.5211 156.354 52.9919 156.072 53.3946C155.791 53.7973 155.407 54.1173 154.96 54.3213C153.735 54.9928 152.357 55.3372 150.96 55.3213C149.564 55.328 148.189 54.9842 146.96 54.3213C146.494 54.1175 146.092 53.7914 145.796 53.3777C145.5 52.9641 145.322 52.4781 145.28 51.9713V51.9713V48.5913C145.355 48.1231 145.544 47.6804 145.83 47.3021C146.116 46.9238 146.49 46.6213 146.92 46.4213C148.148 45.7556 149.524 45.4116 150.92 45.4213M150.92 43.6713C149.221 43.6418 147.544 44.0517 146.05 44.8613C145.409 45.1805 144.851 45.6435 144.419 46.2143C143.987 46.785 143.693 47.448 143.56 48.1513C143.545 48.2809 143.545 48.4117 143.56 48.5413V51.9513C143.6 52.7642 143.858 53.5514 144.306 54.2305C144.755 54.9095 145.378 55.4555 146.11 55.8113C147.623 56.6 149.304 57.0118 151.01 57.0118C152.716 57.0118 154.397 56.6 155.91 55.8113C156.634 55.4603 157.25 54.9217 157.695 54.2517C158.14 53.5816 158.397 52.8045 158.44 52.0013C158.44 52.0013 158.44 52.0013 158.44 51.9313V48.5913C158.437 48.4323 158.414 48.2743 158.37 48.1213C158.216 47.4375 157.913 46.7961 157.483 46.2429C157.052 45.6897 156.505 45.2385 155.88 44.9213C154.366 44.1083 152.669 43.6953 150.95 43.7213L150.92 43.6713Z" fill="#588A99"/>
<path d="M156.63 49.5913H145.24V53.9013C145.287 54.4107 145.473 54.8975 145.776 55.3097C146.079 55.7219 146.488 56.044 146.96 56.2413C148.201 56.8641 149.571 57.1885 150.96 57.1885C152.349 57.1885 153.719 56.8641 154.96 56.2413C155.426 56.0379 155.826 55.71 156.117 55.2935C156.408 54.8771 156.579 54.3884 156.61 53.8813V53.8813L156.63 49.5913Z" fill="#B0C3CE"/>
<path d="M156.63 48.5913H145.24V52.9013C145.287 53.4107 145.473 53.8975 145.776 54.3097C146.079 54.7219 146.488 55.044 146.96 55.2413C148.201 55.8641 149.571 56.1885 150.96 56.1885C152.349 56.1885 153.719 55.8641 154.96 55.2413C155.426 55.0379 155.826 54.71 156.117 54.2935C156.408 53.8771 156.579 53.3884 156.61 52.8813V52.8813L156.63 48.5913Z" fill="#E9EFF2"/>
<path d="M151.86 56.1713C152.948 56.0861 154.007 55.7763 154.97 55.2613C155.436 55.0579 155.836 54.73 156.127 54.3135C156.418 53.8971 156.589 53.4084 156.62 52.9013V52.9013V48.5913H151.86V56.1713Z" fill="#CCD9E0"/>
<path d="M156.614 49.7882C156.624 47.9767 154.084 46.4945 150.942 46.4775C147.8 46.4605 145.244 47.9152 145.234 49.7266C145.225 51.5381 147.764 53.0204 150.906 53.0374C154.049 53.0544 156.604 51.5997 156.614 49.7882Z" fill="#B0C3CE"/>
<path d="M156.614 48.7828C156.624 46.9714 154.084 45.4891 150.942 45.4721C147.8 45.4551 145.244 46.9098 145.234 48.7213C145.225 50.5327 147.764 52.015 150.907 52.032C154.049 52.049 156.604 50.5943 156.614 48.7828Z" fill="#FFFFFD"/>
<path opacity="0.4" d="M185.759 52.1147C185.77 49.8283 182.421 47.9589 178.279 47.9394C174.137 47.9199 170.77 49.7576 170.76 52.044C170.749 54.3304 174.098 56.1998 178.24 56.2193C182.382 56.2388 185.749 54.4011 185.759 52.1147Z" fill="#588A99"/>
<path d="M176.4 45.4713C177.813 45.4513 179.208 45.7957 180.45 46.4713C180.878 46.6726 181.253 46.9723 181.543 47.3459C181.833 47.7196 182.031 48.1566 182.12 48.6213V48.6213V52.0313C182.075 52.5245 181.9 52.9968 181.611 53.3994C181.323 53.802 180.933 54.1202 180.48 54.3213C179.254 54.9911 177.877 55.3354 176.48 55.3213C175.084 55.3271 173.709 54.9833 172.48 54.3213C172.017 54.1139 171.617 53.787 171.321 53.374C171.026 52.961 170.846 52.4768 170.8 51.9713V51.9713V48.5913C170.878 48.1226 171.069 47.6801 171.356 47.3019C171.644 46.9238 172.019 46.6215 172.45 46.4213C173.677 45.7544 175.053 45.4103 176.45 45.4213M176.45 43.6713C174.748 43.6418 173.067 44.0517 171.57 44.8613C170.932 45.1823 170.376 45.6461 169.946 46.2166C169.516 46.7872 169.223 47.4492 169.09 48.1513C169.059 48.279 169.042 48.4098 169.04 48.5413V51.9513C169.084 52.7644 169.345 53.551 169.795 54.2296C170.245 54.9083 170.868 55.4543 171.6 55.8113C173.113 56.6 174.794 57.0118 176.5 57.0118C178.206 57.0118 179.887 56.6 181.4 55.8113C182.124 55.4603 182.74 54.9217 183.185 54.2517C183.63 53.5816 183.887 52.8045 183.93 52.0013V48.5913C183.93 48.4327 183.91 48.2747 183.87 48.1213C183.716 47.4375 183.413 46.7961 182.983 46.2429C182.552 45.6897 182.005 45.2384 181.38 44.9213C179.866 44.1083 178.169 43.6953 176.45 43.7213V43.6713Z" fill="#588A99"/>
<path d="M182.13 49.5913H170.74V53.9013C170.788 54.4051 170.969 54.8872 171.264 55.2983C171.559 55.7094 171.958 56.0348 172.42 56.2413C173.67 56.8724 175.05 57.2012 176.45 57.2012C177.85 57.2012 179.23 56.8724 180.48 56.2413C180.943 56.0342 181.341 55.7053 181.632 55.2897C181.922 54.874 182.094 54.3872 182.13 53.8813V49.5913Z" fill="#B0C3CE"/>
<path d="M182.13 48.5913H170.74V52.9013C170.788 53.4051 170.969 53.8872 171.264 54.2983C171.559 54.7094 171.958 55.0348 172.42 55.2413C173.67 55.8724 175.05 56.2012 176.45 56.2012C177.85 56.2012 179.23 55.8724 180.48 55.2413C180.943 55.0342 181.341 54.7053 181.632 54.2897C181.922 53.874 182.094 53.3872 182.13 52.8813V52.8813V48.5913Z" fill="#E9EFF2"/>
<path d="M177.37 56.1713C178.458 56.0861 179.517 55.7763 180.48 55.2613C180.943 55.0542 181.341 54.7253 181.632 54.3097C181.922 53.894 182.094 53.4072 182.13 52.9013V52.9013V48.5913H177.37V56.1713Z" fill="#CCD9E0"/>
<path d="M182.122 49.7886C182.132 47.9771 179.592 46.4948 176.45 46.4778C173.308 46.4608 170.752 47.9155 170.742 49.727C170.733 51.5385 173.272 53.0207 176.415 53.0377C179.557 53.0547 182.112 51.6 182.122 49.7886Z" fill="#B0C3CE"/>
<path d="M182.122 48.7832C182.132 46.9717 179.592 45.4895 176.45 45.4725C173.308 45.4555 170.752 46.9102 170.742 48.7216C170.733 50.5331 173.272 52.0154 176.415 52.0324C179.557 52.0494 182.112 50.5947 182.122 48.7832Z" fill="#FFFFFD"/>
<path opacity="0.4" d="M199.183 59.7205C199.193 57.4341 195.844 55.5648 191.702 55.5452C187.56 55.5257 184.194 57.3634 184.183 59.6498C184.172 61.9363 187.521 63.8056 191.663 63.8251C195.805 63.8447 199.172 62.007 199.183 59.7205Z" fill="#588A99"/>
<path d="M189.83 53.0812C191.226 53.0707 192.603 53.4147 193.83 54.0812C194.26 54.279 194.635 54.5779 194.924 54.9523C195.213 55.3267 195.407 55.7655 195.49 56.2313V59.6413C195.455 60.1486 195.281 60.6366 194.989 61.0525C194.696 61.4684 194.295 61.7965 193.83 62.0013C192.605 62.6728 191.227 63.0172 189.83 63.0013C188.417 63.0155 187.024 62.6715 185.78 62.0013C185.314 61.7974 184.912 61.4714 184.616 61.0577C184.32 60.644 184.142 60.158 184.1 59.6513V59.6513V56.2013C184.173 55.7324 184.362 55.289 184.648 54.9104C184.934 54.5319 185.309 54.2298 185.74 54.0312C186.968 53.3672 188.344 53.0233 189.74 53.0312M189.74 51.2812C188.067 51.2833 186.423 51.71 184.96 52.5213C184.321 52.8423 183.764 53.3059 183.332 53.8763C182.9 54.4468 182.605 55.1088 182.47 55.8113C182.455 55.9408 182.455 56.0717 182.47 56.2013V59.6113C182.504 60.4179 182.753 61.2009 183.191 61.8794C183.628 62.5579 184.239 63.1074 184.96 63.4713C186.477 64.2535 188.158 64.6617 189.865 64.6617C191.572 64.6617 193.253 64.2535 194.77 63.4713C195.49 63.1152 196.103 62.5754 196.547 61.9064C196.991 61.2373 197.251 60.4629 197.3 59.6613V56.2013C197.297 56.0422 197.274 55.8842 197.23 55.7313C197.078 55.0466 196.776 54.4044 196.345 53.8509C195.915 53.2975 195.366 52.8467 194.74 52.5312C193.23 51.7157 191.536 51.3025 189.82 51.3312L189.74 51.2812Z" fill="#588A99"/>
<path d="M195.56 57.2013H184.17V61.5013C184.212 62.0081 184.39 62.4941 184.686 62.9077C184.982 63.3214 185.384 63.6475 185.85 63.8513C187.097 64.4846 188.476 64.8147 189.875 64.8147C191.274 64.8147 192.653 64.4846 193.9 63.8513C194.366 63.6475 194.767 63.3196 195.06 62.9035C195.353 62.4874 195.526 61.9989 195.56 61.4913V57.2013Z" fill="#B0C3CE"/>
<path d="M195.56 56.2013H184.17V60.5013C184.212 61.0081 184.39 61.4941 184.686 61.9077C184.982 62.3214 185.384 62.6475 185.85 62.8513C187.097 63.4846 188.476 63.8147 189.875 63.8147C191.274 63.8147 192.653 63.4846 193.9 62.8513C194.366 62.6475 194.767 62.3196 195.06 61.9035C195.353 61.4874 195.526 60.9989 195.56 60.4913V56.2013Z" fill="#E9EFF2"/>
<path d="M190.8 63.7713C191.887 63.6955 192.945 63.3851 193.9 62.8613C194.366 62.6575 194.767 62.3296 195.06 61.9135C195.353 61.4974 195.526 61.0089 195.56 60.5013V56.2013H190.8V63.7713Z" fill="#CCD9E0"/>
<path d="M195.555 57.3999C195.564 55.5884 193.025 54.1062 189.883 54.0892C186.74 54.0722 184.185 55.5269 184.175 57.3383C184.165 59.1498 186.705 60.6321 189.847 60.6491C192.989 60.6661 195.545 59.2114 195.555 57.3999Z" fill="#B0C3CE"/>
<path d="M195.555 56.3945C195.564 54.5831 193.025 53.1008 189.883 53.0838C186.74 53.0668 184.185 54.5215 184.175 56.333C184.165 58.1444 186.705 59.6267 189.847 59.6437C192.989 59.6607 195.545 58.206 195.555 56.3945Z" fill="#FFFFFD"/>
<path opacity="0.4" d="M186.633 67.3262C186.644 65.0398 183.295 63.1705 179.153 63.1509C175.011 63.1314 171.644 64.9691 171.634 67.2556C171.623 69.542 174.972 71.4113 179.114 71.4309C183.256 71.4504 186.623 69.6127 186.633 67.3262Z" fill="#588A99"/>
<path d="M177.28 60.6812C178.693 60.6621 180.088 61.0065 181.33 61.6812C181.747 61.8845 182.111 62.1817 182.394 62.5496C182.677 62.9174 182.871 63.3459 182.96 63.8012V63.8012V67.2112C182.924 67.7172 182.752 68.204 182.462 68.6196C182.171 69.0353 181.773 69.3642 181.31 69.5712C180.06 70.2023 178.68 70.5311 177.28 70.5311C175.88 70.5311 174.5 70.2023 173.25 69.5712C172.788 69.3647 172.389 69.0393 172.094 68.6282C171.799 68.2171 171.618 67.735 171.57 67.2312V67.2312V63.8012C171.644 63.3314 171.834 62.8873 172.122 62.5087C172.41 62.13 172.787 61.8285 173.22 61.6312C174.445 60.9597 175.823 60.6153 177.22 60.6312M177.22 58.8812C175.519 58.8532 173.84 59.2593 172.34 60.0612C171.701 60.3845 171.146 60.8502 170.716 61.4223C170.286 61.9945 169.993 62.6579 169.86 63.3612C169.827 63.4887 169.811 63.6197 169.81 63.7512V67.1612C169.852 67.9749 170.112 68.7624 170.562 69.4414C171.012 70.1204 171.637 70.666 172.37 71.0212C173.884 71.8067 175.564 72.2167 177.27 72.2167C178.976 72.2167 180.656 71.8067 182.17 71.0212C182.89 70.6883 183.509 70.1705 183.964 69.5206C184.419 68.8707 184.694 68.1118 184.76 67.3212V63.8012C184.76 63.6426 184.74 63.4847 184.7 63.3312C184.544 62.647 184.239 62.0056 183.807 61.4526C183.375 60.8995 182.826 60.4484 182.2 60.1312C180.691 59.3127 178.996 58.8993 177.28 58.9312L177.22 58.8812Z" fill="#588A99"/>
<path d="M183.01 64.8013H171.62V69.1013C171.666 69.6068 171.846 70.091 172.141 70.504C172.437 70.917 172.837 71.2439 173.3 71.4513C174.55 72.0823 175.93 72.4111 177.33 72.4111C178.73 72.4111 180.11 72.0823 181.36 71.4513C181.824 71.246 182.224 70.9176 182.514 70.5016C182.805 70.0855 182.977 69.5978 183.01 69.0913V69.0913V64.8013Z" fill="#B0C3CE"/>
<path d="M183.01 63.8013H171.62V68.1013C171.666 68.6068 171.846 69.091 172.141 69.504C172.437 69.917 172.837 70.2439 173.3 70.4513C174.55 71.0823 175.93 71.4111 177.33 71.4111C178.73 71.4111 180.11 71.0823 181.36 70.4513C181.824 70.246 182.224 69.9176 182.514 69.5016C182.805 69.0855 182.977 68.5978 183.01 68.0913V68.0913V63.8013Z" fill="#E9EFF2"/>
<path d="M178.25 71.3713C179.34 71.2957 180.401 70.9852 181.36 70.4613C181.824 70.256 182.224 69.9276 182.514 69.5116C182.805 69.0955 182.977 68.6078 183.01 68.1013V63.8013H178.25V71.3713Z" fill="#CCD9E0"/>
<path d="M183.007 64.9908C183.017 63.1794 180.477 61.6971 177.335 61.6801C174.192 61.6631 171.637 63.1178 171.627 64.9293C171.617 66.7407 174.157 68.223 177.299 68.24C180.442 68.257 182.997 66.8023 183.007 64.9908Z" fill="#B0C3CE"/>
<path d="M183.007 63.9855C183.017 62.174 180.477 60.6917 177.335 60.6747C174.192 60.6577 171.637 62.1124 171.627 63.9239C171.617 65.7354 174.157 67.2176 177.299 67.2346C180.442 67.2516 182.997 65.7969 183.007 63.9855Z" fill="#FFFFFD"/>
<path opacity="0.4" d="M172.53 59.4212C172.53 57.1347 169.172 55.2812 165.03 55.2812C160.888 55.2812 157.53 57.1347 157.53 59.4212C157.53 61.7076 160.888 63.5612 165.03 63.5612C169.172 63.5612 172.53 61.7076 172.53 59.4212Z" fill="#588A99"/>
<path d="M163.87 53.0512C165.283 53.0321 166.678 53.3764 167.92 54.0512C168.351 54.2499 168.727 54.5503 169.016 54.9265C169.305 55.3028 169.499 55.7436 169.58 56.2112V56.2112V59.6112C169.544 60.1093 169.375 60.5885 169.09 60.9985C168.805 61.4085 168.414 61.7341 167.96 61.9412C166.735 62.6127 165.357 62.9571 163.96 62.9412C162.564 62.947 161.189 62.6033 159.96 61.9412C159.494 61.7374 159.092 61.4113 158.796 60.9976C158.501 60.584 158.322 60.098 158.28 59.5912V59.5912V56.1912C158.353 55.7224 158.542 55.279 158.828 54.9004C159.114 54.5218 159.489 54.2198 159.92 54.0212C161.146 53.3526 162.523 53.0084 163.92 53.0212M163.92 51.2712C162.188 51.2361 160.478 51.6568 158.96 52.4912C158.321 52.8122 157.764 53.2759 157.332 53.8463C156.9 54.4167 156.605 55.0787 156.47 55.7812C156.455 55.9141 156.455 56.0483 156.47 56.1812V59.5812C156.51 60.3954 156.769 61.1838 157.219 61.8631C157.67 62.5425 158.295 63.0877 159.03 63.4412C160.543 64.2299 162.224 64.6417 163.93 64.6417C165.636 64.6417 167.317 64.2299 168.83 63.4412C169.552 63.0885 170.168 62.5495 170.612 61.8798C171.057 61.2101 171.315 60.4339 171.36 59.6312V56.1812C171.363 56.0185 171.339 55.8564 171.29 55.7012C171.137 55.0171 170.834 54.3754 170.404 53.8222C169.973 53.2689 169.425 52.8178 168.8 52.5012C167.29 51.6857 165.596 51.2724 163.88 51.3012L163.92 51.2712Z" fill="#588A99"/>
<path d="M169.6 57.1812H158.21V61.4812C158.254 61.9862 158.433 62.4701 158.729 62.8818C159.024 63.2936 159.425 63.6181 159.89 63.8212C161.131 64.4463 162.501 64.7719 163.89 64.7719C165.279 64.7719 166.649 64.4463 167.89 63.8212C168.355 63.6164 168.756 63.2883 169.049 62.8724C169.341 62.4565 169.515 61.9685 169.55 61.4612V61.4612L169.6 57.1812Z" fill="#B0C3CE"/>
<path d="M169.6 56.1812H158.21V60.4812C158.254 60.9862 158.433 61.4701 158.729 61.8818C159.024 62.2936 159.425 62.6181 159.89 62.8212C161.131 63.4463 162.501 63.7719 163.89 63.7719C165.279 63.7719 166.649 63.4463 167.89 62.8212C168.355 62.6164 168.756 62.2883 169.049 61.8724C169.341 61.4565 169.515 60.9685 169.55 60.4612V60.4612L169.6 56.1812Z" fill="#E9EFF2"/>
<path d="M164.84 63.7512C165.926 63.6675 166.981 63.3575 167.94 62.8412C168.405 62.6364 168.806 62.3083 169.099 61.8924C169.391 61.4765 169.565 60.9885 169.6 60.4812V60.4812V56.1812H164.84V63.7512Z" fill="#CCD9E0"/>
<path d="M169.594 57.3693C169.604 55.5578 167.064 54.0755 163.922 54.0585C160.78 54.0415 158.224 55.4962 158.214 57.3077C158.205 59.1192 160.744 60.6014 163.887 60.6184C167.029 60.6354 169.584 59.1807 169.594 57.3693Z" fill="#B0C3CE"/>
<path d="M169.594 56.3739C169.604 54.5624 167.065 53.0802 163.922 53.0632C160.78 53.0462 158.224 54.5009 158.214 56.3123C158.205 58.1238 160.744 59.6061 163.887 59.6231C167.029 59.6401 169.584 58.1854 169.594 56.3739Z" fill="#FFFFFD"/>
<path d="M123.6 81.7212C124.996 81.7106 126.373 82.0547 127.6 82.7212C128.03 82.9189 128.405 83.2178 128.694 83.5922C128.983 83.9666 129.177 84.4054 129.26 84.8712V84.8712V88.2812C129.225 88.7885 129.051 89.2765 128.759 89.6924C128.466 90.1084 128.066 90.4364 127.6 90.6412C126.37 91.2953 124.993 91.6224 123.6 91.5912C122.204 91.6018 120.827 91.2577 119.6 90.5912C119.142 90.3843 118.748 90.0579 118.459 89.6461C118.17 89.2344 117.998 88.7525 117.96 88.2512V84.8412C118.033 84.3724 118.222 83.9289 118.508 83.5504C118.794 83.1718 119.169 82.8698 119.6 82.6712C120.833 82.0245 122.208 81.6978 123.6 81.7212M123.6 79.9712C121.898 79.9408 120.217 80.3507 118.72 81.1612C118.081 81.4822 117.524 81.9458 117.092 82.5163C116.66 83.0867 116.365 83.7487 116.23 84.4512C116.215 84.5807 116.215 84.7116 116.23 84.8412V88.2512C116.27 89.0654 116.529 89.8537 116.979 90.5331C117.43 91.2125 118.055 91.7576 118.79 92.1112C120.305 92.8934 121.985 93.3016 123.69 93.3016C125.395 93.3016 127.075 92.8934 128.59 92.1112C129.301 91.7531 129.905 91.2145 130.342 90.5493C130.779 89.8841 131.034 89.1157 131.08 88.3212V84.8412C131.082 84.6818 131.058 84.5231 131.01 84.3712C130.858 83.6866 130.556 83.0443 130.125 82.4908C129.695 81.9374 129.146 81.4866 128.52 81.1712C127.01 80.3557 125.316 79.9424 123.6 79.9712V79.9712Z" fill="#588A99"/>
<path d="M129.33 85.8412H117.96V90.1412C118.002 90.648 118.18 91.134 118.476 91.5476C118.772 91.9613 119.174 92.2874 119.64 92.4912C120.881 93.1163 122.251 93.4419 123.64 93.4419C125.029 93.4419 126.399 93.1163 127.64 92.4912C128.106 92.2874 128.507 91.9595 128.8 91.5434C129.093 91.1273 129.266 90.6388 129.3 90.1312L129.33 85.8412Z" fill="#8CA8B8"/>
<path d="M129.33 84.8412H117.96V89.1412C118.002 89.648 118.18 90.134 118.476 90.5476C118.772 90.9613 119.174 91.2874 119.64 91.4912C120.881 92.1163 122.251 92.4419 123.64 92.4419C125.029 92.4419 126.399 92.1163 127.64 91.4912C128.106 91.2874 128.507 90.9595 128.8 90.5434C129.093 90.1273 129.266 89.6388 129.3 89.1312L129.33 84.8412Z" fill="#CCD9E0"/>
<path d="M124.57 92.4112C125.657 92.337 126.715 92.0264 127.67 91.5012C128.136 91.2974 128.537 90.9695 128.83 90.5534C129.123 90.1373 129.296 89.6488 129.33 89.1412V89.1412V84.8412H124.57V92.4112Z" fill="#CCD9E0"/>
<path d="M129.326 86.0338C129.336 84.2224 126.796 82.7401 123.654 82.7231C120.511 82.7061 117.956 84.1608 117.946 85.9722C117.936 87.7837 120.476 89.266 123.618 89.283C126.761 89.3 129.316 87.8453 129.326 86.0338Z" fill="#8CA8B8"/>
<path d="M129.326 85.0385C129.336 83.227 126.796 81.7447 123.654 81.7277C120.511 81.7107 117.956 83.1654 117.946 84.9769C117.936 86.7884 120.476 88.2706 123.618 88.2876C126.761 88.3046 129.316 86.8499 129.326 85.0385Z" fill="#CCD9E0"/>
<path d="M137.03 89.3212C138.443 89.3021 139.838 89.6465 141.08 90.3212C141.51 90.519 141.885 90.8179 142.174 91.1923C142.463 91.5667 142.657 92.0055 142.74 92.4712V92.4712V95.8812C142.705 96.3885 142.531 96.8765 142.239 97.2925C141.946 97.7084 141.546 98.0365 141.08 98.2412C139.839 98.8641 138.469 99.1884 137.08 99.1884C135.691 99.1884 134.321 98.8641 133.08 98.2412C132.615 98.0391 132.213 97.7149 131.917 97.3029C131.622 96.8909 131.443 96.4066 131.4 95.9012V95.9012V92.4212C131.473 91.9524 131.662 91.509 131.948 91.1304C132.234 90.7518 132.609 90.4498 133.04 90.2512C134.266 89.5827 135.643 89.2384 137.04 89.2512M137.04 87.5012C135.339 87.4732 133.66 87.8793 132.16 88.6812C131.521 89.0051 130.964 89.4708 130.533 90.0428C130.101 90.6147 129.806 91.2778 129.67 91.9812C129.655 92.1108 129.655 92.2417 129.67 92.3712V95.7812C129.71 96.5941 129.968 97.3813 130.416 98.0604C130.865 98.7395 131.488 99.2855 132.22 99.6412C133.736 100.427 135.418 100.837 137.125 100.837C138.832 100.837 140.514 100.427 142.03 99.6412C142.752 99.2877 143.367 98.7485 143.811 98.079C144.256 97.4094 144.514 96.6336 144.56 95.8312V92.4212C144.557 92.2622 144.534 92.1042 144.49 91.9512C144.338 91.2666 144.036 90.6243 143.605 90.0709C143.175 89.5175 142.626 89.0667 142 88.7512C140.491 87.9327 138.796 87.5193 137.08 87.5512L137.04 87.5012Z" fill="#588A99"/>
<path d="M142.76 93.4213H131.37V97.7213C131.412 98.2281 131.59 98.714 131.886 99.1277C132.182 99.5414 132.584 99.8674 133.05 100.071C134.291 100.694 135.661 101.018 137.05 101.018C138.439 101.018 139.809 100.694 141.05 100.071C141.516 99.8675 141.917 99.5396 142.21 99.1235C142.503 98.7074 142.676 98.2189 142.71 97.7113V97.7113L142.76 93.4213Z" fill="#B0C3CE"/>
<path d="M142.76 92.4213H131.37V96.7213C131.412 97.2281 131.59 97.714 131.886 98.1277C132.182 98.5414 132.584 98.8674 133.05 99.0713C134.291 99.6941 135.661 100.018 137.05 100.018C138.439 100.018 139.809 99.6941 141.05 99.0713C141.516 98.8675 141.917 98.5396 142.21 98.1235C142.503 97.7074 142.676 97.2189 142.71 96.7113L142.76 92.4213Z" fill="#E9EFF2"/>
<path d="M137.96 99.9913C139.047 99.9155 140.105 99.605 141.06 99.0813C141.526 98.8775 141.927 98.5496 142.22 98.1335C142.513 97.7174 142.686 97.2289 142.72 96.7213V92.4213H137.96V99.9913Z" fill="#CCD9E0"/>
<path d="M142.758 93.6151C142.768 91.8036 140.229 90.3214 137.086 90.3044C133.944 90.2874 131.388 91.7421 131.379 93.5535C131.369 95.365 133.908 96.8473 137.051 96.8643C140.193 96.8813 142.749 95.4266 142.758 93.6151Z" fill="#B0C3CE"/>
<path d="M142.758 92.6198C142.768 90.8083 140.229 89.326 137.086 89.309C133.944 89.292 131.388 90.7467 131.379 92.5582C131.369 94.3697 133.908 95.8519 137.051 95.8689C140.193 95.8859 142.749 94.4312 142.758 92.6198Z" fill="#FFFFFD"/>
<path d="M123.59 96.9312C125.003 96.9121 126.398 97.2564 127.64 97.9312C128.069 98.1335 128.445 98.4347 128.735 98.8102C129.025 99.1857 129.222 99.6247 129.31 100.091V100.091V103.491C129.277 103.998 129.105 104.485 128.814 104.902C128.524 105.318 128.124 105.646 127.66 105.851C126.434 106.52 125.057 106.864 123.66 106.851C122.264 106.857 120.889 106.513 119.66 105.851C119.187 105.643 118.78 105.312 118.48 104.891C118.181 104.47 118.001 103.976 117.96 103.461V103.461V100.061C118.034 99.5914 118.224 99.1473 118.512 98.7686C118.8 98.39 119.177 98.0885 119.61 97.8912C120.835 97.2197 122.213 96.8753 123.61 96.8912M123.61 95.1412C121.908 95.1109 120.227 95.5208 118.73 96.3312C118.092 96.6522 117.536 97.116 117.106 97.6866C116.676 98.2571 116.383 98.9192 116.25 99.6212C116.235 99.7541 116.235 99.8883 116.25 100.021V103.421C116.278 104.235 116.524 105.025 116.962 105.711C117.4 106.397 118.014 106.953 118.74 107.321C120.253 108.11 121.934 108.522 123.64 108.522C125.346 108.522 127.027 108.11 128.54 107.321C129.262 106.969 129.878 106.43 130.322 105.76C130.767 105.09 131.025 104.314 131.07 103.511V100.061C131.071 99.8993 131.051 99.7379 131.01 99.5812C130.852 98.8975 130.547 98.2567 130.115 97.7038C129.683 97.151 129.135 96.6995 128.51 96.3812C127 95.5657 125.306 95.1525 123.59 95.1812L123.61 95.1412Z" fill="#588A99"/>
<path d="M129.32 101.061H117.96V105.321C118.008 105.825 118.189 106.307 118.484 106.718C118.779 107.129 119.178 107.455 119.64 107.661C120.889 108.295 122.27 108.625 123.67 108.625C125.07 108.625 126.451 108.295 127.7 107.661C128.155 107.452 128.545 107.124 128.829 106.712C129.114 106.301 129.284 105.821 129.32 105.321V105.321V101.061Z" fill="#B0C3CE"/>
<path d="M129.32 100.061H117.96V104.321C118.008 104.825 118.189 105.307 118.484 105.718C118.779 106.129 119.178 106.455 119.64 106.661C120.889 107.295 122.27 107.625 123.67 107.625C125.07 107.625 126.451 107.295 127.7 106.661C128.155 106.452 128.545 106.124 128.829 105.712C129.114 105.301 129.284 104.821 129.32 104.321V104.321V100.061Z" fill="#E9EFF2"/>
<path d="M124.56 107.631C125.648 107.546 126.707 107.236 127.67 106.721C128.139 106.511 128.541 106.176 128.832 105.753C129.123 105.329 129.292 104.834 129.32 104.321V100.021H124.56V107.631Z" fill="#CCD9E0"/>
<path d="M129.316 101.246C129.325 99.4346 126.786 97.9524 123.644 97.9354C120.501 97.9184 117.946 99.3731 117.936 101.185C117.926 102.996 120.466 104.478 123.608 104.495C126.75 104.512 129.306 103.058 129.316 101.246Z" fill="#B0C3CE"/>
<path d="M129.316 100.241C129.326 98.4293 126.786 96.947 123.644 96.93C120.501 96.913 117.946 98.3677 117.936 100.179C117.926 101.991 120.466 103.473 123.608 103.49C126.751 103.507 129.306 102.052 129.316 100.241Z" fill="#FFFFFD"/>
<path d="M110.18 89.3213C111.576 89.3107 112.953 89.6548 114.18 90.3213C114.61 90.519 114.985 90.8179 115.274 91.1923C115.563 91.5667 115.757 92.0055 115.84 92.4713V92.4713V95.8813C115.809 96.3884 115.638 96.8771 115.347 97.2935C115.056 97.7099 114.656 98.0379 114.19 98.2413C112.965 98.9128 111.587 99.2572 110.19 99.2413C108.777 99.2568 107.383 98.9127 106.14 98.2413C105.674 98.0374 105.272 97.7114 104.976 97.2977C104.68 96.884 104.502 96.3981 104.46 95.8913V95.8913V92.4413C104.548 91.9743 104.75 91.5363 105.049 91.1664C105.347 90.7964 105.732 90.5061 106.17 90.3213C107.398 89.656 108.774 89.312 110.17 89.3213M110.17 87.5713C108.468 87.5409 106.787 87.9508 105.29 88.7613C104.651 89.0823 104.094 89.5459 103.662 90.1164C103.23 90.6868 102.935 91.3488 102.8 92.0513C102.785 92.1808 102.785 92.3117 102.8 92.4413V95.8513C102.84 96.6642 103.098 97.4514 103.546 98.1304C103.995 98.8095 104.618 99.3555 105.35 99.7113C106.865 100.494 108.545 100.902 110.25 100.902C111.955 100.902 113.635 100.494 115.15 99.7113C115.872 99.3586 116.488 98.8196 116.932 98.1499C117.377 97.4802 117.635 96.704 117.68 95.9013C117.684 95.8781 117.684 95.8544 117.68 95.8313V92.4413C117.677 92.2822 117.654 92.1243 117.61 91.9713C117.456 91.2875 117.153 90.6461 116.723 90.0929C116.292 89.5397 115.745 89.0884 115.12 88.7713C113.609 87.9583 111.915 87.5452 110.2 87.5713H110.17Z" fill="#588A99"/>
<path d="M115.96 93.4413H104.52V97.7413C104.562 98.2481 104.74 98.734 105.036 99.1477C105.332 99.5614 105.734 99.8874 106.2 100.091C107.447 100.725 108.826 101.055 110.225 101.055C111.624 101.055 113.003 100.725 114.25 100.091C114.716 99.8888 115.117 99.5611 115.409 99.1445C115.7 98.7279 115.87 98.2387 115.9 97.7313L115.96 93.4413Z" fill="#B0C3CE"/>
<path d="M115.96 92.4413H104.52V96.7413C104.562 97.2481 104.74 97.734 105.036 98.1477C105.332 98.5614 105.734 98.8874 106.2 99.0913C107.447 99.7246 108.826 100.055 110.225 100.055C111.624 100.055 113.003 99.7246 114.25 99.0913C114.716 98.8888 115.117 98.5611 115.409 98.1445C115.7 97.7279 115.87 97.2387 115.9 96.7313V96.7313L115.96 92.4413Z" fill="#E9EFF2"/>
<path d="M111.15 100.011C112.237 99.9355 113.295 99.625 114.25 99.1013C114.716 98.8988 115.117 98.5711 115.409 98.1545C115.7 97.7379 115.87 97.2487 115.9 96.7413V96.7413V92.4413H111.15V100.011Z" fill="#CCD9E0"/>
<path d="M115.903 93.6348C115.913 91.8233 113.373 90.341 110.231 90.324C107.089 90.307 104.533 91.7617 104.523 93.5732C104.514 95.3847 107.053 96.8669 110.196 96.8839C113.338 96.9009 115.893 95.4462 115.903 93.6348Z" fill="#B0C3CE"/>
<path d="M115.903 92.6394C115.913 90.8279 113.373 89.3457 110.231 89.3287C107.089 89.3117 104.533 90.7664 104.523 92.5778C104.514 94.3893 107.053 95.8716 110.196 95.8886C113.338 95.9056 115.893 94.4509 115.903 92.6394Z" fill="#FFFFFD"/>
<path d="M137.02 74.1112C138.417 74.0998 139.793 74.4439 141.02 75.1112C141.448 75.3125 141.823 75.6122 142.113 75.9859C142.403 76.3595 142.601 76.7966 142.69 77.2612V77.2612V80.6712C142.657 81.1778 142.485 81.6655 142.194 82.0815C141.904 82.4975 141.504 82.826 141.04 83.0312C139.814 83.701 138.437 84.0453 137.04 84.0312C135.644 84.0371 134.269 83.6933 133.04 83.0312C132.577 82.8239 132.177 82.4969 131.881 82.0839C131.586 81.6709 131.406 81.1868 131.36 80.6812V80.6812V77.2312C131.433 76.7624 131.622 76.319 131.908 75.9404C132.194 75.5618 132.569 75.2598 133 75.0612C134.232 74.4117 135.608 74.0848 137 74.1112M137 72.3612C135.298 72.3318 133.617 72.7416 132.12 73.5512C131.482 73.8722 130.926 74.336 130.496 74.9066C130.066 75.4771 129.773 76.1392 129.64 76.8412C129.625 76.9708 129.625 77.1016 129.64 77.2312V80.6412C129.684 81.4544 129.945 82.2409 130.395 82.9196C130.845 83.5982 131.468 84.1443 132.2 84.5012C133.713 85.2899 135.394 85.7018 137.1 85.7018C138.806 85.7018 140.487 85.2899 142 84.5012C142.724 84.1502 143.34 83.6117 143.785 82.9416C144.23 82.2715 144.487 81.4944 144.53 80.6912V77.2312C144.53 77.0726 144.51 76.9147 144.47 76.7612C144.316 76.0774 144.013 75.436 143.583 74.8828C143.152 74.3297 142.605 73.8784 141.98 73.5612C140.466 72.7482 138.769 72.3352 137.05 72.3612H137Z" fill="#588A99"/>
<path d="M142.75 78.2312H131.36V82.5412C131.408 83.045 131.589 83.5271 131.884 83.9382C132.179 84.3493 132.578 84.6747 133.04 84.8812C134.29 85.5123 135.67 85.8411 137.07 85.8411C138.47 85.8411 139.85 85.5123 141.1 84.8812C141.563 84.6741 141.961 84.3452 142.252 83.9296C142.542 83.5139 142.714 83.0271 142.75 82.5212V82.5212V78.2312Z" fill="#8CA8B8"/>
<path d="M142.75 77.2312H131.36V81.5412C131.408 82.045 131.589 82.5271 131.884 82.9382C132.179 83.3493 132.578 83.6747 133.04 83.8812C134.29 84.5123 135.67 84.8411 137.07 84.8411C138.47 84.8411 139.85 84.5123 141.1 83.8812C141.563 83.6741 141.961 83.3452 142.252 82.9296C142.542 82.5139 142.714 82.0271 142.75 81.5212V81.5212V77.2312Z" fill="#CCD9E0"/>
<path d="M142.749 78.4229C142.758 76.6114 140.219 75.1291 137.077 75.1121C133.934 75.0951 131.379 76.5498 131.369 78.3613C131.359 80.1728 133.899 81.655 137.041 81.672C140.183 81.689 142.739 80.2343 142.749 78.4229Z" fill="#8CA8B8"/>
<path d="M142.749 77.4275C142.759 75.616 140.219 74.1338 137.077 74.1168C133.934 74.0998 131.379 75.5545 131.369 77.3659C131.359 79.1774 133.899 80.6597 137.041 80.6767C140.183 80.6937 142.739 79.239 142.749 77.4275Z" fill="#FFFFFD"/>
<path d="M150.45 81.7212C151.846 81.7106 153.223 82.0547 154.45 82.7212C154.88 82.9189 155.255 83.2178 155.544 83.5922C155.833 83.9666 156.027 84.4054 156.11 84.8712V84.8712V88.2812C156.075 88.7885 155.901 89.2765 155.609 89.6924C155.316 90.1084 154.916 90.4364 154.45 90.6412C153.22 91.2953 151.843 91.6224 150.45 91.5912C149.037 91.6103 147.642 91.266 146.4 90.5912C145.934 90.3899 145.532 90.0659 145.236 89.6538C144.94 89.2416 144.762 88.7568 144.72 88.2512V88.2512V84.8412C144.793 84.3724 144.982 83.9289 145.268 83.5504C145.554 83.1718 145.929 82.8698 146.36 82.6712C147.593 82.0245 148.968 81.6978 150.36 81.7212M150.36 79.9712C148.658 79.9408 146.977 80.3507 145.48 81.1612C144.841 81.4822 144.284 81.9458 143.852 82.5163C143.42 83.0867 143.125 83.7487 142.99 84.4512C142.975 84.5807 142.975 84.7116 142.99 84.8412V88.2512C143.03 89.0641 143.288 89.8513 143.736 90.5303C144.185 91.2094 144.808 91.7554 145.54 92.1112C147.057 92.8935 148.738 93.3017 150.445 93.3017C152.152 93.3017 153.833 92.8935 155.35 92.1112C156.083 91.7693 156.712 91.2377 157.171 90.5714C157.63 89.905 157.902 89.1282 157.96 88.3212V84.8412C157.957 84.6821 157.934 84.5242 157.89 84.3712C157.738 83.6866 157.436 83.0443 157.005 82.4908C156.575 81.9374 156.026 81.4866 155.4 81.1712C153.89 80.3557 152.196 79.9424 150.48 79.9712H150.36Z" fill="#588A99"/>
<path d="M156.18 85.8412H144.79V90.1412C144.832 90.648 145.01 91.134 145.306 91.5476C145.602 91.9613 146.004 92.2874 146.47 92.4912C147.717 93.1245 149.096 93.4546 150.495 93.4546C151.894 93.4546 153.273 93.1245 154.52 92.4912C154.986 92.2874 155.387 91.9595 155.68 91.5434C155.973 91.1273 156.146 90.6388 156.18 90.1312V85.8412Z" fill="#B0C3CE"/>
<path d="M156.18 84.8412H144.79V89.1412C144.832 89.648 145.01 90.134 145.306 90.5476C145.602 90.9613 146.004 91.2874 146.47 91.4912C147.717 92.1245 149.096 92.4546 150.495 92.4546C151.894 92.4546 153.273 92.1245 154.52 91.4912C154.986 91.2874 155.387 90.9595 155.68 90.5434C155.973 90.1273 156.146 89.6388 156.18 89.1312V84.8412Z" fill="#CCD9E0"/>
<path d="M156.171 86.0342C156.181 84.2227 153.641 82.7405 150.499 82.7234C147.357 82.7064 144.801 84.1611 144.791 85.9726C144.782 87.7841 147.321 89.2663 150.464 89.2833C153.606 89.3004 156.161 87.8457 156.171 86.0342Z" fill="#B0C3CE"/>
<path d="M156.171 85.0388C156.181 83.2274 153.641 81.7451 150.499 81.7281C147.357 81.7111 144.801 83.1658 144.791 84.9773C144.782 86.7887 147.321 88.271 150.464 88.288C153.606 88.305 156.161 86.8503 156.171 85.0388Z" fill="#FFFFFD"/>
<g opacity="0.3">
<path d="M141.07 90.3212C139.829 89.6983 138.459 89.374 137.07 89.374C135.681 89.374 134.311 89.6983 133.07 90.3212C130.85 91.6012 130.86 93.6812 133.07 94.9612L133.55 95.2112L141.55 90.6112C141.396 90.5043 141.236 90.4075 141.07 90.3212V90.3212Z" fill="#588A99"/>
<path d="M146.81 87.5011L149.72 85.8211C149.794 85.7755 149.856 85.7116 149.899 85.6354C149.941 85.5593 149.964 85.4734 149.964 85.3861C149.964 85.2988 149.941 85.2129 149.899 85.1368C149.856 85.0606 149.794 84.9967 149.72 84.9511L146.13 82.8811C144.14 84.2311 144.37 86.3211 146.81 87.5011Z" fill="#588A99"/>
<path d="M133.04 79.7112C134.251 80.3213 135.584 80.6499 136.94 80.6724C138.296 80.6949 139.639 80.4108 140.87 79.8412L132.87 75.1912C130.81 76.4812 130.88 78.4612 133.04 79.7112Z" fill="#588A99"/>
</g>
</svg>
