<svg width="78" height="86" xmlns="http://www.w3.org/2000/svg"><g fill-rule="nonzero" fill="none"><path d="M37.225 55.621c-5.577 0-10.098 4.541-10.098 10.143 0 5.601 4.52 10.142 10.098 10.142 5.577 0 10.098-4.54 10.098-10.142-.007-5.597-4.522-10.131-10.094-10.14l-.004-.003z" fill="#7992A0"/><ellipse fill="#8CA8B8" cx="37.225" cy="65.764" rx="8.712" ry="8.75"/><path d="M13.354.272A3.994 3.994 0 0 0 11.322.8L6.933 3.349c-.821.477-2.198 1.7-2.198 4.527 0 3.015 1.647 6.497 4.008 8.746C2.714 22.112.835 28.202.347 32.457a24.152 24.152 0 0 0 .246 7.17A15.334 15.334 0 0 0 2.19 44.32c2.024 3.415 4.607 7.893 6.881 11.838 1.699 2.945 3.3 5.727 4.382 7.562 1.99 3.374-1.366 11.218-3.647 14.303l-.527.697.427.807c1.133 2.09 2.912 4.997 2.984 5.119l.711 1.156 1.168-.697L76.613 48.64l1.196-.696-.693-1.201c-.087-.146-2.1-3.604-2.967-4.996l-.496-.798-.922.164a11.85 11.85 0 0 1-2.046.16c-4.506 0-9.769-1.74-11.256-3.719-1.179-1.57-3.734-5.744-6.964-11.03-1.883-3.078-4.015-6.566-6.24-10.097-4.247-6.8-11.094-8.23-16.12-8.23-2.745.02-5.475.41-8.116 1.159-.693-3.249-2.95-6.616-5.637-8.158a6.034 6.034 0 0 0-3.016-.902l.018-.024z" fill="#7992A0"/><path d="M20.849 11.344c0 1.647-.58 2.785-1.515 3.335-.936.55-4.375 2.535-4.375 2.535L7.627 4.554l4.385-2.542c.936-.543 2.233-.456 3.66.373 2.86 1.657 5.177 5.665 5.177 8.959z" fill="#FFF"/><path d="M19.413 6.43l-7.973 4.684 3.519 6.1s3.439-1.999 4.375-2.535c.936-.536 1.515-1.688 1.515-3.335a10.479 10.479 0 0 0-1.436-4.913z" fill="#CCD9E0"/><path d="M16.467 13.882c0 3.29-2.316 4.617-5.173 2.96-2.856-1.658-5.168-5.665-5.168-8.96 0-3.293 2.315-4.616 5.172-2.959 2.856 1.658 5.169 5.665 5.169 8.959z" fill="#E1E8EC"/><path d="M12.827 11.922c0 1.392-.971 1.939-2.17 1.243A4.809 4.809 0 0 1 8.493 9.4c0-1.393.971-1.94 2.17-1.243a4.809 4.809 0 0 1 2.164 3.764z" fill="#FFF"/><path d="M10.663 8.158c-1.199-.697-2.17-.14-2.17 1.243a4.22 4.22 0 0 0 .451 1.779l3.883.56a4.846 4.846 0 0 0-2.164-3.582z" fill="#8CA8B8"/><path d="M75.92 47.44L13.867 83.91s-1.82-2.959-2.947-5.048c2.253-3.046 6.24-11.577 3.727-15.842-2.514-4.265-7.714-13.419-11.267-19.41-2.167-3.657-5.287-18.715 10.227-28.987 8.87-5.873 24.613-8.443 31.46 2.525 5.994 9.599 11.332 18.67 13.26 21.239 2.274 3.029 10.226 4.874 14.646 4.09.867 1.393 2.947 4.962 2.947 4.962z" fill="#E1E8EC"/><path d="M72.973 42.478c-2.388.425-5.803.076-8.802-.805-7.207.613-16.726 3.635-26.409 8.781-9.91 5.255-17.888 11.637-22.398 17.378-.475 4.143-2.877 8.91-4.444 11.03 1.127 2.09 2.947 5.049 2.947 5.049L75.92 47.439s-2.08-3.569-2.947-4.961zM30.742 11.41c-.46-.87-1.365-1.452-2.603-1.762a31.642 31.642 0 0 0-14.532 4.975C5.893 19.735 2.773 26.033 1.875 31.521c3.935 0 9.551-1.637 15.254-4.683 9.388-4.993 15.458-11.901 13.613-15.428z" fill="#FFF"/><path d="M75.92 47.44s-2.014-3.455-2.905-4.893L10.93 78.883c1.13 2.09 2.937 5.028 2.937 5.028L75.92 47.439z" fill="#CCD9E0"/></g></svg>